<svg xmlns="http://www.w3.org/2000/svg" xmlns:xlink="http://www.w3.org/1999/xlink" width="572.104" height="410.819" viewBox="0 0 572.104 410.819"><defs><linearGradient id="a" x1="0.5" y1="1" x2="0.5" gradientUnits="objectBoundingBox"><stop offset="0" stop-color="gray" stop-opacity="0.251"/><stop offset="0.535" stop-color="gray" stop-opacity="0.122"/><stop offset="1" stop-color="gray" stop-opacity="0.102"/></linearGradient></defs><ellipse cx="286.052" cy="34.769" rx="286.052" ry="34.769" transform="translate(0 341.281)" fill="#e36b0a" opacity="0.1"/><path d="M997.486,750.9s14.919-18.984,13.713-37.819a36.582,36.582,0,0,1,5.757-22.413,61.531,61.531,0,0,1,7.01-8.8" transform="translate(-508.032 -357.805)" fill="none" stroke="#535461" stroke-miterlimit="10" stroke-width="2"/><path d="M1047.561,655.572c-1.052,2.636.671,12.186.671,12.186s7.824-5.741,8.876-8.377a5.14,5.14,0,0,0-9.547-3.809Z" transform="translate(-532.316 -343.387)" fill="#cc820c"/><path d="M1020.985,675.191c.55,2.785,7.186,9.864,7.186,9.864s3.448-9.071,2.9-11.856a5.14,5.14,0,1,0-10.084,1.991Z" transform="translate(-519.458 -351.55)" fill="#cc820c"/><path d="M1001.064,721.929c1.88,2.126,11.183,4.888,11.183,4.888s-1.6-9.571-3.484-11.7a5.14,5.14,0,1,0-7.7,6.81Z" transform="translate(-509.149 -373.196)" fill="#cc820c"/><path d="M995.7,762.9c1.494,2.413,10.2,6.707,10.2,6.707s.037-9.7-1.457-12.117a5.14,5.14,0,0,0-8.74,5.411Z" transform="translate(-506.785 -393.541)" fill="#cc820c"/><path d="M1042.677,699.7c-2.624,1.083-12.193-.53-12.193-.53s5.649-7.89,8.273-8.973a5.14,5.14,0,0,1,3.92,9.5Z" transform="translate(-524.144 -361.682)" fill="#cc820c"/><path d="M1035.913,746.393c-2.828.248-11.476-4.154-11.476-4.154s7.751-5.838,10.579-6.086a5.14,5.14,0,0,1,.9,10.24Z" transform="translate(-521.192 -384.303)" fill="#cc820c"/><path d="M1021.886,791.269c-2.745.722-12.013-2.155-12.013-2.155s6.653-7.064,9.4-7.786a5.14,5.14,0,1,1,2.615,9.941Z" transform="translate(-514.081 -406.288)" fill="#cc820c"/><path d="M1047.561,655.572c-1.052,2.636.671,12.186.671,12.186s7.824-5.741,8.876-8.377a5.14,5.14,0,0,0-9.547-3.809Z" transform="translate(-532.316 -343.387)" fill="#cc820c" opacity="0.25"/><path d="M1020.985,675.191c.55,2.785,7.186,9.864,7.186,9.864s3.448-9.071,2.9-11.856a5.14,5.14,0,1,0-10.084,1.991Z" transform="translate(-519.458 -351.55)" fill="#e36b0a" opacity="0.25"/><path d="M1001.064,721.929c1.88,2.126,11.183,4.888,11.183,4.888s-1.6-9.571-3.484-11.7a5.14,5.14,0,1,0-7.7,6.81Z" transform="translate(-509.149 -373.196)" fill="#e36b0a" opacity="0.25"/><path d="M995.7,762.9c1.494,2.413,10.2,6.707,10.2,6.707s.037-9.7-1.457-12.117a5.14,5.14,0,0,0-8.74,5.411Z" transform="translate(-506.785 -393.541)" fill="#e36b0a" opacity="0.25"/><path d="M1042.677,699.7c-2.624,1.083-12.193-.53-12.193-.53s5.649-7.89,8.273-8.973a5.14,5.14,0,0,1,3.92,9.5Z" transform="translate(-524.144 -361.682)" fill="#e36b0a" opacity="0.25"/><path d="M1035.913,746.393c-2.828.248-11.476-4.154-11.476-4.154s7.751-5.838,10.579-6.086a5.14,5.14,0,0,1,.9,10.24Z" transform="translate(-521.192 -384.303)" fill="#e36b0a" opacity="0.25"/><path d="M1021.886,791.269c-2.745.722-12.013-2.155-12.013-2.155s6.653-7.064,9.4-7.786a5.14,5.14,0,1,1,2.615,9.941Z" transform="translate(-514.081 -406.288)" fill="#e36b0a" opacity="0.25"/><path d="M997.733,765.242s21.332-11.31,27.862-29.018a36.584,36.584,0,0,1,14.346-18.157,61.527,61.527,0,0,1,9.975-5.205" transform="translate(-508.153 -372.94)" fill="none" stroke="#535461" stroke-miterlimit="10" stroke-width="2"/><path d="M1103.752,689.7c-2.03,1.984-4.324,11.413-4.324,11.413s9.479-2.078,11.509-4.062a5.14,5.14,0,0,0-7.185-7.351Z" transform="translate(-557.808 -360.918)" fill="#e36b0a"/><path d="M1074.223,696.88c-.626,2.769,2.573,11.931,2.573,11.931s6.828-6.9,7.453-9.665a5.14,5.14,0,1,0-10.026-2.266Z" transform="translate(-545.461 -363.18)" fill="#e36b0a"/><path d="M1037.026,731.535c.858,2.706,8.244,9,8.244,9s2.413-9.4,1.555-12.105a5.14,5.14,0,0,0-9.8,3.105Z" transform="translate(-527.221 -378.79)" fill="#e36b0a"/><path d="M1015.523,766.819c.388,2.812,6.6,10.264,6.6,10.264s3.966-8.856,3.578-11.668a5.14,5.14,0,1,0-10.183,1.4Z" transform="translate(-516.815 -396.434)" fill="#e36b0a"/><path d="M1082.868,730.046c-2.838-.074-10.933-5.425-10.933-5.425s8.362-4.924,11.2-4.851a5.14,5.14,0,0,1-.267,10.276Z" transform="translate(-544.384 -376.313)" fill="#e36b0a"/><path d="M1059.02,770.351c-2.685-.919-8.808-8.448-8.808-8.448s9.452-2.2,12.138-1.277a5.14,5.14,0,1,1-3.329,9.725Z" transform="translate(-533.777 -396.152)" fill="#e36b0a"/><path d="M1027.3,805.546c-2.8-.452-10.109-6.838-10.109-6.838s8.945-3.762,11.747-3.31a5.14,5.14,0,1,1-1.638,10.148Z" transform="translate(-517.652 -413.223)" fill="#e36b0a"/><path d="M433.7,97.243c-28.266-.981-55.187-10.106-80.894-20.09s-51.171-21.044-78.76-26.335c-17.745-3.4-38.037-3.884-52.335,5.63-13.759,9.155-18.2,24.959-20.595,39.623-1.8,11.033-2.856,22.644,2.072,32.973,3.421,7.171,9.5,13.2,13.7,20.067,14.616,23.9,4.285,53.37-11.554,76.706-7.43,10.946-16.048,21.389-21.781,33.042s-8.386,25-3.37,36.892c4.972,11.782,16.821,20.632,29.656,26.856,26.068,12.642,56.787,16.26,86.742,18.309,66.308,4.536,132.971,2.572,199.455.605,24.6-.728,49.317-1.466,73.522-5.27,13.441-2.113,27.318-5.466,37.077-13.561,12.388-10.277,15.458-27.679,7.158-40.564-13.924-21.615-52.421-26.983-62.153-50.18-5.357-12.768.144-26.991,7.929-38.832,16.7-25.4,44.692-47.689,46.166-76.725,1.013-19.942-12.444-39.914-33.25-49.35-21.809-9.89-52.051-8.646-68.14,7.726C487.773,91.623,458.658,98.11,433.7,97.243Z" transform="translate(-107.664 -48.59)" fill="#e36b0a" opacity="0.1"/><ellipse cx="19.219" cy="20.4" rx="19.219" ry="20.4" transform="translate(258.422 319.656)" fill="#fbd56f"/><ellipse cx="19.219" cy="20.4" rx="19.219" ry="20.4" transform="translate(258.422 319.656)" opacity="0.1"/><ellipse cx="19.219" cy="19.946" rx="19.219" ry="19.946" transform="translate(261.739 320.564)" fill="#fbd56f"/><path d="M602.69,747.837l-2-1.113a24.217,24.217,0,0,0-.629,6.683,1.385,1.385,0,0,0,1.041,1.2c4.6,1.142,26.518,6.008,41.59-.846a1.383,1.383,0,0,0,.8-1.111,20.71,20.71,0,0,0-.731-5.922C642.2,745.245,602.69,747.837,602.69,747.837Z" transform="translate(-313.948 -389.252)" fill="#fbd56f"/><path d="M602.69,747.837l-2-1.113a24.217,24.217,0,0,0-.629,6.683,1.385,1.385,0,0,0,1.041,1.2c4.6,1.142,26.518,6.008,41.59-.846a1.383,1.383,0,0,0,.8-1.111,20.71,20.71,0,0,0-.731-5.922C642.2,745.245,602.69,747.837,602.69,747.837Z" transform="translate(-313.948 -389.252)" opacity="0.1"/><ellipse cx="21.036" cy="4.742" rx="21.036" ry="4.742" transform="translate(286.743 352.73)" fill="#fbd56f"/><path d="M618.4,734.165l-2-1.113a24.214,24.214,0,0,0-.629,6.683,1.385,1.385,0,0,0,1.041,1.2c4.6,1.142,26.518,6.008,41.59-.846a1.383,1.383,0,0,0,.8-1.112,20.711,20.711,0,0,0-.731-5.922C657.906,731.573,618.4,734.165,618.4,734.165Z" transform="translate(-321.617 -382.576)" fill="#fbd56f"/><path d="M618.4,734.165l-2-1.113a24.214,24.214,0,0,0-.629,6.683,1.385,1.385,0,0,0,1.041,1.2c4.6,1.142,26.518,6.008,41.59-.846a1.383,1.383,0,0,0,.8-1.112,20.711,20.711,0,0,0-.731-5.922C657.906,731.573,618.4,734.165,618.4,734.165Z" transform="translate(-321.617 -382.576)" opacity="0.1"/><ellipse cx="21.036" cy="4.742" rx="21.036" ry="4.742" transform="translate(294.78 345.734)" fill="#fbd56f"/><path d="M632.28,716.2l-2-1.113a24.213,24.213,0,0,0-.629,6.683,1.385,1.385,0,0,0,1.041,1.2c4.6,1.142,26.518,6.008,41.59-.846a1.383,1.383,0,0,0,.8-1.111,20.708,20.708,0,0,0-.731-5.922C671.791,713.6,632.28,716.2,632.28,716.2Z" transform="translate(-328.396 -373.802)" fill="#fbd56f"/><path d="M632.28,716.2l-2-1.113a24.213,24.213,0,0,0-.629,6.683,1.385,1.385,0,0,0,1.041,1.2c4.6,1.142,26.518,6.008,41.59-.846a1.383,1.383,0,0,0,.8-1.111,20.708,20.708,0,0,0-.731-5.922C671.791,713.6,632.28,716.2,632.28,716.2Z" transform="translate(-328.396 -373.802)" opacity="0.1"/><ellipse cx="21.036" cy="4.742" rx="21.036" ry="4.742" transform="translate(301.885 336.539)" fill="#fbd56f"/><path d="M616.9,697.491l-2-1.113a24.213,24.213,0,0,0-.629,6.683,1.386,1.386,0,0,0,1.041,1.2c4.6,1.142,26.518,6.008,41.59-.846a1.383,1.383,0,0,0,.8-1.111,20.711,20.711,0,0,0-.731-5.922C656.415,694.9,616.9,697.491,616.9,697.491Z" transform="translate(-320.888 -364.669)" fill="#fbd56f"/><path d="M616.9,697.491l-2-1.113a24.213,24.213,0,0,0-.629,6.683,1.386,1.386,0,0,0,1.041,1.2c4.6,1.142,26.518,6.008,41.59-.846a1.383,1.383,0,0,0,.8-1.111,20.711,20.711,0,0,0-.731-5.922C656.415,694.9,616.9,697.491,616.9,697.491Z" transform="translate(-320.888 -364.669)" opacity="0.1"/><ellipse cx="21.036" cy="4.742" rx="21.036" ry="4.742" transform="translate(294.016 326.967)" fill="#fbd56f"/><path d="M651.495,682.48l-2-1.113a24.212,24.212,0,0,0-.629,6.683,1.385,1.385,0,0,0,1.041,1.2c4.6,1.142,26.518,6.008,41.59-.846a1.383,1.383,0,0,0,.8-1.112,20.706,20.706,0,0,0-.731-5.922C691.006,679.888,651.495,682.48,651.495,682.48Z" transform="translate(-337.779 -357.339)" fill="#fbd56f"/><path d="M651.495,682.48l-2-1.113a24.212,24.212,0,0,0-.629,6.683,1.385,1.385,0,0,0,1.041,1.2c4.6,1.142,26.518,6.008,41.59-.846a1.383,1.383,0,0,0,.8-1.112,20.706,20.706,0,0,0-.731-5.922C691.006,679.888,651.495,682.48,651.495,682.48Z" transform="translate(-337.779 -357.339)" opacity="0.1"/><ellipse cx="21.036" cy="4.742" rx="21.036" ry="4.742" transform="translate(311.717 319.286)" fill="#fbd56f"/><path d="M628.124,672.39l-2-1.113a24.214,24.214,0,0,0-.629,6.683,1.385,1.385,0,0,0,1.041,1.2c4.6,1.142,26.518,6.008,41.59-.846a1.383,1.383,0,0,0,.8-1.111,20.708,20.708,0,0,0-.731-5.922C667.634,669.8,628.124,672.39,628.124,672.39Z" transform="translate(-326.367 -352.413)" fill="#fbd56f"/><path d="M628.124,672.39l-2-1.113a24.214,24.214,0,0,0-.629,6.683,1.385,1.385,0,0,0,1.041,1.2c4.6,1.142,26.518,6.008,41.59-.846a1.383,1.383,0,0,0,.8-1.111,20.708,20.708,0,0,0-.731-5.922C667.634,669.8,628.124,672.39,628.124,672.39Z" transform="translate(-326.367 -352.413)" opacity="0.1"/><ellipse cx="21.036" cy="4.742" rx="21.036" ry="4.742" transform="translate(299.758 314.123)" fill="#fbd56f"/><path d="M643.727,652.912l-2-1.113a24.217,24.217,0,0,0-.629,6.683,1.385,1.385,0,0,0,1.041,1.2c4.6,1.142,26.518,6.008,41.59-.846a1.383,1.383,0,0,0,.8-1.111,20.708,20.708,0,0,0-.731-5.922C683.238,650.321,643.727,652.912,643.727,652.912Z" transform="translate(-333.986 -342.902)" fill="#fbd56f"/><path d="M643.727,652.912l-2-1.113a24.217,24.217,0,0,0-.629,6.683,1.385,1.385,0,0,0,1.041,1.2c4.6,1.142,26.518,6.008,41.59-.846a1.383,1.383,0,0,0,.8-1.111,20.708,20.708,0,0,0-.731-5.922C683.238,650.321,643.727,652.912,643.727,652.912Z" transform="translate(-333.986 -342.902)" opacity="0.1"/><ellipse cx="21.036" cy="4.742" rx="21.036" ry="4.742" transform="translate(307.742 304.155)" fill="#fbd56f"/><path d="M651.424,629.792l-2-1.113a24.217,24.217,0,0,0-.629,6.683,1.385,1.385,0,0,0,1.041,1.2c4.6,1.142,26.518,6.008,41.59-.846a1.383,1.383,0,0,0,.8-1.111,20.708,20.708,0,0,0-.731-5.922C690.935,627.2,651.424,629.792,651.424,629.792Z" transform="translate(-337.744 -331.613)" fill="#fbd56f"/><path d="M651.424,629.792l-2-1.113a24.217,24.217,0,0,0-.629,6.683,1.385,1.385,0,0,0,1.041,1.2c4.6,1.142,26.518,6.008,41.59-.846a1.383,1.383,0,0,0,.8-1.111,20.708,20.708,0,0,0-.731-5.922C690.935,627.2,651.424,629.792,651.424,629.792Z" transform="translate(-337.744 -331.613)" opacity="0.1"/><ellipse cx="21.036" cy="4.742" rx="21.036" ry="4.742" transform="translate(311.681 292.324)" fill="#fbd56f"/><path d="M720.819,753.2l-2-1.113a24.214,24.214,0,0,0-.63,6.683,1.385,1.385,0,0,0,1.041,1.2c4.6,1.142,26.518,6.008,41.59-.846a1.383,1.383,0,0,0,.8-1.112,20.711,20.711,0,0,0-.731-5.922C760.33,750.607,720.819,753.2,720.819,753.2Z" transform="translate(-371.628 -391.87)" fill="#fbd56f"/><path d="M720.819,753.2l-2-1.113a24.214,24.214,0,0,0-.63,6.683,1.385,1.385,0,0,0,1.041,1.2c4.6,1.142,26.518,6.008,41.59-.846a1.383,1.383,0,0,0,.8-1.112,20.711,20.711,0,0,0-.731-5.922C760.33,750.607,720.819,753.2,720.819,753.2Z" transform="translate(-371.628 -391.87)" opacity="0.1"/><ellipse cx="21.036" cy="4.742" rx="21.036" ry="4.742" transform="translate(347.192 355.474)" fill="#fbd56f"/><path d="M734.7,735.23l-2-1.113a24.218,24.218,0,0,0-.629,6.683,1.385,1.385,0,0,0,1.041,1.2c4.6,1.142,26.517,6.008,41.59-.846a1.383,1.383,0,0,0,.8-1.111,20.708,20.708,0,0,0-.731-5.922C774.214,732.639,734.7,735.23,734.7,735.23Z" transform="translate(-378.408 -383.096)" fill="#fbd56f"/><path d="M734.7,735.23l-2-1.113a24.218,24.218,0,0,0-.629,6.683,1.385,1.385,0,0,0,1.041,1.2c4.6,1.142,26.517,6.008,41.59-.846a1.383,1.383,0,0,0,.8-1.111,20.708,20.708,0,0,0-.731-5.922C774.214,732.639,734.7,735.23,734.7,735.23Z" transform="translate(-378.408 -383.096)" opacity="0.1"/><ellipse cx="21.036" cy="4.742" rx="21.036" ry="4.742" transform="translate(354.297 346.279)" fill="#fbd56f"/><path d="M719.327,716.525l-2-1.113a24.216,24.216,0,0,0-.629,6.683,1.385,1.385,0,0,0,1.041,1.2c4.6,1.142,26.517,6.008,41.59-.846a1.383,1.383,0,0,0,.8-1.111,20.712,20.712,0,0,0-.731-5.922C758.838,713.933,719.327,716.525,719.327,716.525Z" transform="translate(-370.9 -373.963)" fill="#fbd56f"/><path d="M719.327,716.525l-2-1.113a24.216,24.216,0,0,0-.629,6.683,1.385,1.385,0,0,0,1.041,1.2c4.6,1.142,26.517,6.008,41.59-.846a1.383,1.383,0,0,0,.8-1.111,20.712,20.712,0,0,0-.731-5.922C758.838,713.933,719.327,716.525,719.327,716.525Z" transform="translate(-370.9 -373.963)" opacity="0.1"/><ellipse cx="21.036" cy="4.742" rx="21.036" ry="4.742" transform="translate(346.429 336.707)" fill="#fbd56f"/><path d="M753.918,701.514l-2-1.113a24.214,24.214,0,0,0-.629,6.683,1.385,1.385,0,0,0,1.041,1.2c4.6,1.142,26.518,6.008,41.59-.846a1.383,1.383,0,0,0,.8-1.111,20.71,20.71,0,0,0-.731-5.922C793.429,698.922,753.918,701.514,753.918,701.514Z" transform="translate(-387.79 -366.633)" fill="#fbd56f"/><path d="M753.918,701.514l-2-1.113a24.214,24.214,0,0,0-.629,6.683,1.385,1.385,0,0,0,1.041,1.2c4.6,1.142,26.518,6.008,41.59-.846a1.383,1.383,0,0,0,.8-1.111,20.71,20.71,0,0,0-.731-5.922C793.429,698.922,753.918,701.514,753.918,701.514Z" transform="translate(-387.79 -366.633)" opacity="0.1"/><ellipse cx="21.036" cy="4.742" rx="21.036" ry="4.742" transform="translate(364.129 329.026)" fill="#fbd56f"/><path d="M730.547,691.424l-2-1.113a24.212,24.212,0,0,0-.629,6.683,1.385,1.385,0,0,0,1.041,1.2c4.6,1.142,26.518,6.008,41.59-.846a1.383,1.383,0,0,0,.8-1.111,20.707,20.707,0,0,0-.731-5.922C770.058,688.832,730.547,691.424,730.547,691.424Z" transform="translate(-376.378 -361.707)" fill="#fbd56f"/><path d="M730.547,691.424l-2-1.113a24.212,24.212,0,0,0-.629,6.683,1.385,1.385,0,0,0,1.041,1.2c4.6,1.142,26.518,6.008,41.59-.846a1.383,1.383,0,0,0,.8-1.111,20.707,20.707,0,0,0-.731-5.922C770.058,688.832,730.547,691.424,730.547,691.424Z" transform="translate(-376.378 -361.707)" opacity="0.1"/><ellipse cx="21.036" cy="4.742" rx="21.036" ry="4.742" transform="translate(352.17 323.863)" fill="#fbd56f"/><path d="M746.151,671.946l-2-1.113a24.218,24.218,0,0,0-.629,6.683,1.385,1.385,0,0,0,1.041,1.2c4.6,1.142,26.518,6.008,41.59-.846a1.383,1.383,0,0,0,.8-1.112,20.71,20.71,0,0,0-.731-5.922C785.661,669.354,746.151,671.946,746.151,671.946Z" transform="translate(-383.997 -352.196)" fill="#fbd56f"/><path d="M746.151,671.946l-2-1.113a24.218,24.218,0,0,0-.629,6.683,1.385,1.385,0,0,0,1.041,1.2c4.6,1.142,26.518,6.008,41.59-.846a1.383,1.383,0,0,0,.8-1.112,20.71,20.71,0,0,0-.731-5.922C785.661,669.354,746.151,671.946,746.151,671.946Z" transform="translate(-383.997 -352.196)" opacity="0.1"/><ellipse cx="21.036" cy="4.742" rx="21.036" ry="4.742" transform="translate(360.155 313.895)" fill="#fbd56f"/><path d="M753.847,648.826l-2-1.113a24.215,24.215,0,0,0-.629,6.683,1.385,1.385,0,0,0,1.041,1.2c4.6,1.142,26.518,6.008,41.59-.846a1.383,1.383,0,0,0,.8-1.111,20.7,20.7,0,0,0-.731-5.922C793.358,646.234,753.847,648.826,753.847,648.826Z" transform="translate(-387.755 -340.907)" fill="#fbd56f"/><path d="M753.847,648.826l-2-1.113a24.215,24.215,0,0,0-.629,6.683,1.385,1.385,0,0,0,1.041,1.2c4.6,1.142,26.518,6.008,41.59-.846a1.383,1.383,0,0,0,.8-1.111,20.7,20.7,0,0,0-.731-5.922C793.358,646.234,753.847,648.826,753.847,648.826Z" transform="translate(-387.755 -340.907)" opacity="0.1"/><ellipse cx="21.036" cy="4.742" rx="21.036" ry="4.742" transform="translate(364.093 302.064)" fill="#fbd56f"/><path d="M875.079,573.572c-2.928-.1-3.033-1.238-6.8-3.2-2.125-1.106-5.352-4.32-7.758-6.906q-.289-.311-.56-.607l1-.02s-.941-8.255-.1-10.216.209-13.622.209-13.622.523-8.875-.418-10.939.314-15.273.314-15.273.836-7.843,1.046-23.838-9.2-16.511-9.2-16.511-1.255-.1-3.16-.279l-.571-.055c1.234-2.583,1.953-4.517,1.953-4.517s-1.569-14.963-1.987-17.543-2.928-13.209-2.928-13.209-1.778-4.541-2.823-7.74a26.12,26.12,0,0,0-4.183-6.914s-5.647-11.145-7.216-12.8c-.728-.766-1.749-1.732-2.633-2.547l-.46-.422a18.69,18.69,0,0,0,.374-3.533s-5.856-5.779-6.275-7.224-5.961-6.811-5.961-6.811-3.137-5.779-6.693-5.882a29.007,29.007,0,0,0-5.036.153c.73-2.7,1.594-5.534,2.37-7.964.086-.271.171-.535.255-.795a17.909,17.909,0,0,0,6.424-7.77c.074-.168.141-.337.209-.506.038,0,.075.007.113.007a2.808,2.808,0,0,0,.44-.04c1.171-.2,2.161-1.523,1.622-2.566a.383.383,0,0,0,.341.187c.39-.013.866-.577.958-1.074.016-.086.024-.173.038-.26.017-.108.034-.215.047-.324s.02-.2.028-.306.017-.21.022-.316.008-.2.01-.3,0-.227,0-.341c0-.091,0-.182-.007-.273-.006-.138-.018-.276-.031-.414-.005-.057-.006-.114-.013-.17v.008a9.282,9.282,0,0,0-.337-1.664c-.578-1.918-1.79-3.82-1.323-5.768.005-.021.014-.04.02-.061v0c.389-1.511,1.7-2.609,2.5-3.959.076-.129.143-.262.209-.395.012-.024.026-.048.038-.072.048-.1.089-.2.131-.306.027-.066.057-.131.082-.2.034-.09.062-.182.091-.273s.055-.166.079-.25.041-.163.06-.244c.023-.1.047-.2.066-.3.013-.071.024-.143.035-.215.018-.113.034-.226.046-.339.006-.061.011-.123.016-.185.01-.127.017-.253.02-.381,0-.051,0-.1,0-.153q0-.209-.011-.417c0-.042,0-.083-.008-.125-.01-.148-.026-.3-.045-.444,0-.021,0-.043-.007-.064v.006a7.433,7.433,0,0,0-1.5-3.557,9.165,9.165,0,0,0-7.527-3.256,12.614,12.614,0,0,1-2.367.044,7.819,7.819,0,0,1-3.47-1.832l-8.759-6.747a10.81,10.81,0,0,0-3.311-1.968,3.7,3.7,0,0,0-3.638.656c-1.64,1.618-.6,4.4-1.256,6.6a6.409,6.409,0,0,1-4.307,3.831c-1.9.642-3.934.783-5.887,1.248a3.249,3.249,0,0,0-1.575.724,3.047,3.047,0,0,0-.685,2.194,11.827,11.827,0,0,0,1.36,5.58c.369.7.816,1.409,1.209,2.127.032.059.064.119.1.178.044.082.088.165.13.248q.1.2.194.4c.027.058.05.117.076.175q.062.143.117.287c.023.061.046.122.068.183.04.113.075.226.107.34a3.777,3.777,0,0,1,.057,2.058,7.64,7.64,0,0,1-1.931,2.83,5.505,5.505,0,0,0-1.29,2.392l0,.02a1.923,1.923,0,0,0-.024.631c0,.026.007.053.012.078a1.137,1.137,0,0,0,.039.138,1.018,1.018,0,0,0,.041.1.921.921,0,0,0,.055.107.82.82,0,0,0,.133.157.85.85,0,0,0,.073.055.887.887,0,0,0,.134.082c.029.014.058.028.089.039a1.244,1.244,0,0,0,.214.058c.021,0,.038.01.059.013a1.972,1.972,0,0,0,.336.014c.033,0,.068-.005.1-.008a3.177,3.177,0,0,0,.321-.041l.118-.021c.154-.032.316-.071.493-.126a11.075,11.075,0,0,0,1.708-.676c0,.063,0,.125,0,.188,0,.108,0,.222.01.33a17.389,17.389,0,0,0,1.13,5.919,17.878,17.878,0,0,0,5.453,7.535q-.046.267-.1.537c-.5,2.475-1.558,4.957-2.209,4.766a8.868,8.868,0,0,0-1.939-.213c-.2-.006-.389-.009-.57-.01h0a7.731,7.731,0,0,0-1.778,0,1.927,1.927,0,0,1-.778-.107,10.607,10.607,0,0,0-5.225-.293c-3.616.741-9.117,2.1-10.625,3.719-2.3,2.477-5.647,4.85-9.412,15.17,0,0-1.882,6.295-3.346,7.12a9.761,9.761,0,0,1,.993-.447,2.648,2.648,0,0,1-.784.859,11.55,11.55,0,0,1,1.647-.687c-1.143,6.723.549,25.955.549,25.955s-1.359,3.316.418,5.277a9.936,9.936,0,0,1,1.924,4.268l-.257.4v0c-.941,1.459-2.2,3.362-3.026,4.411-1.464,1.857-1.046,7.74-1.046,7.74s-.314,2.786-1.359,3.818-.837,4.85-.837,4.85l-2.719,10.01s-2.51,2.27-2.51,3.3-1.987,3.921-1.987,3.921-3.033,4.953,0,4.231a9.518,9.518,0,0,0,3.062-1.54l0,.074q-.007.272-.011.553c-.086,5.395.5,12.986,4.48,12.986,6.17,0,22.066,7.327,22.066,7.327,3.242,2.477,7.634,1.651,7.634,1.651s-7.739,7.74-7.53,10.938-4.392,8.462-4.392,8.462L752.2,550.25a21.289,21.289,0,0,0,1.019,5.69c-.068.059-.138.115-.2.176-5.465,4.993-5.94,14.876-5.94,14.876l-1.255,5.056,19.033,8.359s24.68.516,28.968-.619,3.347-5.882-2.3-6.811-7.007-3.405-8.889-4.541c-1.27-.766-5.779-5.715-8.577-8.852l-.124-.139.648-3.6c1.255-.619,3.137-6.811,3.137-6.811s0-2.477,1.255-3.2,3.869-8.152,3.869-8.152,5.647-9.391,5.333-10.629,4.078-7.533,4.078-7.533,7.425-7.224,7.111-8.513,5.961-7.894,5.961-7.894a20.943,20.943,0,0,0,5.553-6.394c.565-.091,1.171-.188,1.811-.3,8.211-1.346,21.857-3.779,23.381-4.456,2.092-.929,1.673,3.2.837,6.708s-1.464,20.329-.523,22.5.523,5.676.523,5.676l-1.255,18.885.837,4.025s-2.824,2.27-1.673,3.612.1,7.12.1,7.12c.1-.037.216-.072.347-.107-.1.227-.2.459-.282.7-1.621,4.621-.692,12.2-.692,12.2v5.985s28.968.516,35.347.516,15.164-3.1,15.687-5.573S878.007,573.676,875.079,573.572Zm-82.39-107.43-1.9.16A15.747,15.747,0,0,1,792.688,466.143Zm11.569-79.208c.266-1.194.588-2.478.944-3.795Zm3.578,82.1a7.678,7.678,0,0,1-5.635.006l-.012-.006s.1-7.224.941-10.216,1.987-8.462,1.987-8.462A110.784,110.784,0,0,1,807,439.42c.941-3.405,4.6-22.393,6.484-23.631s2.928.929,2.928.929.281-.006.752-.058q.132.3.3.632c2.232,4.51,8.778,13.77,8.778,13.77a15.08,15.08,0,0,1,4.81,4.747c1.778,2.993,2.3,10.01,2.3,10.01s3.974,15.582,5.856,17.749c.941,1.084.523,1.73-.13,2.1a9.265,9.265,0,0,0-3.3,3.048c-.268.425-.551.892-.839,1.389-.72-.167-1.364-.34-1.9-.521C827.914,467.866,810.659,467.8,807.836,469.037Z" transform="translate(-382.194 -184.335)" fill="url(#a)"/><path d="M922.9,800.1v5.935s28.345.512,34.588.512,14.838-3.07,15.349-5.526-7.163-4.5-10.028-4.6-2.968-1.228-6.652-3.172c-2.079-1.1-5.237-4.283-7.591-6.848-1.815-1.979-3.154-3.59-3.154-3.59s-15.247-.307-19.647,2.149A5.325,5.325,0,0,0,923.579,788C921.993,792.584,922.9,800.1,922.9,800.1Z" transform="translate(-471.488 -407.086)" fill="#434175"/><path d="M924.472,788c3.2-1.111,21.913-1.543,24.989-1.607-1.815-1.979-3.154-3.59-3.154-3.59s-15.247-.307-19.647,2.149A5.325,5.325,0,0,0,924.472,788Z" transform="translate(-472.381 -407.086)" opacity="0.1"/><path d="M763.77,604.134l1.654,1c.192.115.4.242.62.374.673.407,1.482.892,2.4,1.449,12.861,7.751,47.944,28.761,49.863,28.593.5-.043,2.016-.27,4.1-.61.553-.09,1.146-.186,1.772-.293,8.035-1.334,21.387-3.747,22.879-4.419,2.047-.921,1.637,3.172.819,6.651s-1.433,20.159-.512,22.308.512,5.628.512,5.628l-1.228,18.726.819,3.991s-2.763,2.251-1.637,3.582.1,7.061.1,7.061c3.274-1.228,25.48-1.637,25.48-1.637s-.921-8.186-.1-10.131.2-13.508.2-13.508.512-8.8-.409-10.847.307-15.145.307-15.145.819-7.777,1.023-23.638S863.44,606.9,863.44,606.9s-1.228-.1-3.092-.276a137.173,137.173,0,0,1-13.786-1.9,22.981,22.981,0,0,1-2.462-.653c-5.014-1.707-21.9-1.774-24.662-.547a7.42,7.42,0,0,1-5.514.006l-.012-.006-2.149-3.479-20.525,1.75-2.176.186L768.856,603.7l-1.39.119Z" transform="translate(-393.914 -317.852)" fill="#565387"/><path d="M921.631,624.3c5.962,2.906,11.651-7.4,14.3-13.211a137.133,137.133,0,0,1-13.786-1.9C919.478,613.666,915.915,621.511,921.631,624.3Z" transform="translate(-469.501 -322.316)" opacity="0.1"/><path d="M889.552,493.085a6.25,6.25,0,0,0,.722,2c2.184,4.472,8.59,13.655,8.59,13.655a14.836,14.836,0,0,1,4.707,4.707c1.74,2.968,2.251,9.926,2.251,9.926s3.888,15.452,5.731,17.6c.921,1.075.512,1.715-.127,2.086a9.114,9.114,0,0,0-3.229,3.023c-2.683,4.314-6.967,12.871-.941,15.808,8.186,3.991,15.861-16.925,15.861-16.925s-1.535-14.838-1.944-17.4-2.865-13.1-2.865-13.1-1.74-4.5-2.763-7.675a25.957,25.957,0,0,0-4.093-6.856s-5.526-11.052-7.061-12.689c-.712-.759-1.711-1.717-2.577-2.526-1-.935-1.823-1.67-1.823-1.67S889.45,490.629,889.552,493.085Z" transform="translate(-455.33 -260.731)" fill="#ee8e9e"/><path d="M753.971,792.625l18.624,8.289s24.15.512,28.345-.614,3.275-5.833-2.251-6.754-6.856-3.377-8.7-4.5c-1.242-.759-5.655-5.667-8.393-8.778-1.318-1.5-2.249-2.581-2.249-2.581s-3.582-9.517-13.508-7.368a10.17,10.17,0,0,0-4.83,2.542c-5.348,4.951-5.812,14.752-5.812,14.752Z" transform="translate(-389.129 -400.84)" fill="#434175"/><path d="M768.213,605.117c.673.407,1.482.892,2.4,1.449,12.861,7.75,47.944,28.761,49.864,28.593.5-.043,2.016-.27,4.1-.61.553-.09,1.146-.186,1.772-.293.024-.039.047-.078.069-.117a23.524,23.524,0,0,0,2.343-5.735c2.149-8.186-8.493-14.429-8.493-14.429l-2.251-1.75c-2.558-4.308-20.978-8.381-20.978-8.381l-2.374-1.594-1.267-.851-.334-.223-2.882-1.936-14.429,1.023-4.285,2.755-.452.291-1.59,1.023Z" transform="translate(-396.083 -317.462)" opacity="0.1"/><path d="M767.729,772.859c3.917,13.549,20.282,9.124,20.282,9.124l.305-1.717c-1.318-1.5-2.249-2.581-2.249-2.581s-3.582-9.517-13.508-7.368A10.171,10.171,0,0,0,767.729,772.859Z" transform="translate(-395.847 -400.84)" opacity="0.1"/><path d="M755.18,628.387c6.038,0,21.592,7.266,21.592,7.266,3.172,2.456,7.47,1.637,7.47,1.637s-7.573,7.675-7.368,10.847-4.3,8.391-4.3,8.391L758.66,684.054c1.023,19.545,21.08,14.122,21.08,14.122l.819-4.6c1.228-.614,3.07-6.754,3.07-6.754s0-2.456,1.228-3.172,3.786-8.084,3.786-8.084,5.526-9.312,5.219-10.54,3.991-7.47,3.991-7.47,7.266-7.163,6.959-8.442,5.833-7.828,5.833-7.828a20.663,20.663,0,0,0,5.434-6.34,23.527,23.527,0,0,0,2.343-5.735c1.731-6.592-4.834-11.926-7.456-13.749-.634-.442-1.038-.68-1.038-.68l-2.251-1.75c-1.162-1.961-5.608-3.87-10.108-5.37-3.246-1.083-6.523-1.953-8.616-2.474-1.385-.344-2.253-.536-2.253-.536l-2.374-1.594-.835-.561-.765-.514-2.882-1.936-6.42.454-8.008.569-4.286,2.755-2.043,1.314-8,5.141s-.211,1.969-.278,4.611c0,.2-.008.411-.012.624C750.713,620.859,751.288,628.387,755.18,628.387Z" transform="translate(-387.575 -317.852)" fill="#565387"/><path d="M819.562,421.977l2.149,7.675s3.786,13.2,4.2,14.122,10.335,10.233,10.745,10.438,5.814,3.275,5.814,3.275.428-16.885.019-21.8a14.021,14.021,0,0,1,.266-3.217,121,121,0,0,1,3.674-13.841c1.146-3.643,2.1-6.375,2.1-6.375s-23.945-1.023-23.127,1.33a8.409,8.409,0,0,1-.09,3.87c-.493,2.454-1.525,4.916-2.161,4.726a8.571,8.571,0,0,0-1.9-.211C820.363,421.944,819.562,421.977,819.562,421.977Z" transform="translate(-421.156 -226.052)" fill="#ee8e9e"/><path d="M830.785,417.456A17.71,17.71,0,0,0,851.9,418.63c1.146-3.643,2.1-6.375,2.1-6.375s-23.945-1.023-23.127,1.33A8.408,8.408,0,0,1,830.785,417.456Z" transform="translate(-426.635 -226.052)" opacity="0.1"/><path d="M853.773,377.985a17.633,17.633,0,0,1-.885,5.527,14.457,14.457,0,0,1-.512,1.356,17.7,17.7,0,0,1-32.893-.686,17.45,17.45,0,0,1-1.105-5.869c-.01-.107-.01-.22-.01-.328a17.7,17.7,0,1,1,35.406,0Z" transform="translate(-420.572 -200.783)" fill="#ee8e9e"/><path d="M819.562,431.448l2.149,7.675s3.786,13.2,4.2,14.122,10.335,10.233,10.745,10.438,5.814,3.275,5.814,3.275.428-16.885.019-21.8a14.021,14.021,0,0,1,.266-3.217l-1.392,5.673.1,11.359.819.614-1.842,2.763v-2.047s-6.549-6.345-7.572-9.005-4.707-7.478-4.707-7.478-4.2-7.053-4.3-8.281c-.08-.958-1.842-3.172-2.614-4.1C820.363,431.415,819.562,431.448,819.562,431.448Z" transform="translate(-421.156 -235.524)" opacity="0.1"/><path d="M889.552,493.085a6.25,6.25,0,0,0,.722,2c2.237-.229,9.861-1.652,11.539-10.36-1-.935-1.823-1.67-1.823-1.67S889.45,490.629,889.552,493.085Z" transform="translate(-455.33 -260.731)" opacity="0.1"/><path d="M750.8,615.509c2.065-1.461,4.03-3.455,5.2-4.007a22.606,22.606,0,0,0,4.4-3.479s.675-.458,1.711-1.066c1.9-1.113,5.012-2.726,7.4-2.924,2.137-.178,9.234-.632,14.818-.98,4.04-.254,7.286-.452,7.286-.452s6.651-2.354,9.517-.819a30.064,30.064,0,0,0,6.447,2.354s0-.223.012-.608l-.012-.006-2.149-3.479-22.7,1.936-2.882-1.936-14.429,1.023-4.286,2.755-3.7.315,1.654,1-8,5.141S750.849,612.56,750.8,615.509Z" transform="translate(-387.582 -317.852)" opacity="0.1"/><path d="M743.714,533.52a9.263,9.263,0,0,0,3-1.527v0c2.061-1.459,4.02-3.447,5.19-4a22.6,22.6,0,0,0,4.4-3.479s5.423-3.684,9.107-3.991c1-.084,3.1-.229,5.628-.393,2.583-.172,5.606-.364,8.354-.534,1.584-.1,3.076-.194,4.337-.272l3.784-.233s6.651-2.354,9.517-.819a30.063,30.063,0,0,0,6.447,2.354s.1-7.163.921-10.131,1.944-8.391,1.944-8.391.921-7.47,1.842-10.847,4.5-22.206,6.344-23.434,2.865.921,2.865.921,12.28-.2,12.484-13.712c0,0-5.73-5.731-6.14-7.163s-5.833-6.754-5.833-6.754-3.07-5.731-6.549-5.833a27.99,27.99,0,0,0-4.928.151l-2.951,12.026.1,11.359.819.614-1.842,2.763v-2.047s-6.549-6.345-7.573-9.005-4.707-7.478-4.707-7.478-4.2-7.053-4.3-8.281-2.968-4.519-2.968-4.519a7.473,7.473,0,0,0-1.74,0,1.861,1.861,0,0,1-.761-.106,10.248,10.248,0,0,0-5.112-.291c-3.539.735-8.921,2.079-10.4,3.688-2.251,2.456-5.526,4.81-9.21,15.043l19.852,7.163-1.7,3.229-15.8,30.028s-.524.853-1.234,1.969v0c-.921,1.447-2.153,3.334-2.961,4.374-1.433,1.842-1.023,7.675-1.023,7.675s-.307,2.763-1.33,3.786-.818,4.809-.818,4.809l-2.661,9.926s-2.456,2.251-2.456,3.275-1.944,3.889-1.944,3.889S740.746,534.237,743.714,533.52Z" transform="translate(-383.477 -234.958)" fill="#434175"/><path d="M941.738,646.435s-6.447,2.149-8.186,5.219S941.738,646.435,941.738,646.435Z" transform="translate(-476.715 -340.505)" opacity="0.1"/><path d="M935.413,633.237c-.2.307-8.83,8.962-8.289,11.052S935.413,633.237,935.413,633.237Z" transform="translate(-473.664 -334.061)" opacity="0.1"/><path d="M840.758,645.235s-9.619,4.536-10.438,6.515S840.758,645.235,840.758,645.235Z" transform="translate(-426.388 -339.92)" opacity="0.1"/><path d="M840.059,656.634s-8.681,3.684-9.866,4.6S840.059,656.634,840.059,656.634Z" transform="translate(-426.303 -345.485)" opacity="0.1"/><path d="M835.73,671.483s-3.845,2.865-5.964.614S835.73,671.483,835.73,671.483Z" transform="translate(-425.965 -352.455)" opacity="0.1"/><path d="M853.964,526.051c-.206.307-13,23.331-16.375,25.071S853.964,526.051,853.964,526.051Z" transform="translate(-429.768 -281.725)" opacity="0.1"/><path d="M854.723,543.049c0,.512-12.484,27.22-14.531,27.527S854.723,543.049,854.723,543.049Z" transform="translate(-431.144 -290.024)" opacity="0.1"/><path d="M767.638,576.644s-6.029,12.876-8.391,13.61S767.638,576.644,767.638,576.644Z" transform="translate(-391.54 -306.428)" opacity="0.1"/><path d="M770.571,565.446s-2.079,4.5-3.342,4.5S770.571,565.446,770.571,565.446Z" transform="translate(-395.495 -300.96)" opacity="0.1"/><path d="M853.773,377.985a17.634,17.634,0,0,1-.885,5.527,14.466,14.466,0,0,1-.512,1.356,5.206,5.206,0,0,1-2.482-1.09,6.143,6.143,0,0,1-1.857-1.985,24.862,24.862,0,0,1-.906-2.584,6.012,6.012,0,0,0-4.856-3.679c.588,1-.348,2.38-1.5,2.559a3.661,3.661,0,0,1-3.065-1.366c-.793-.855-1.366-1.893-2.154-2.748a3.661,3.661,0,0,0-3.065-1.366,7.013,7.013,0,0,0-2.661,1.51c-.849.578-2.042.967-2.866.348-.461-.343-.686-.926-1.126-1.3-1.131-.947-2.891.031-3.725,1.254-1.284,1.893-2.067,3.04-3.735,3.894-.01-.107-.01-.22-.01-.328a17.7,17.7,0,1,1,35.406,0Z" transform="translate(-420.572 -200.783)" opacity="0.1"/><path d="M818.287,359.518c.833-1.224,2.592-2.2,3.726-1.251.44.369.665.953,1.124,1.3.822.62,2.016.231,2.867-.349a6.968,6.968,0,0,1,2.659-1.51,3.652,3.652,0,0,1,3.065,1.366c.791.855,1.364,1.893,2.155,2.748a3.65,3.65,0,0,0,3.065,1.365c1.151-.176,2.09-1.554,1.5-2.557a6.013,6.013,0,0,1,4.855,3.679,24.9,24.9,0,0,0,.906,2.584,6.128,6.128,0,0,0,1.86,1.984,4.4,4.4,0,0,0,3.224,1.069c1.147-.2,2.118-1.514,1.585-2.549.367.557,1.153-.219,1.273-.875a9.357,9.357,0,0,0-.237-4.319c-.565-1.9-1.752-3.788-1.295-5.719.362-1.529,1.668-2.627,2.462-3.983a7.2,7.2,0,0,0-.677-7.841,8.915,8.915,0,0,0-7.366-3.228,12.187,12.187,0,0,1-2.316.043,7.619,7.619,0,0,1-3.4-1.817l-8.571-6.691a10.549,10.549,0,0,0-3.24-1.952,3.581,3.581,0,0,0-3.56.651c-1.6,1.6-.585,4.367-1.229,6.543a6.3,6.3,0,0,1-4.214,3.8c-1.86.637-3.85.776-5.761,1.237a3.162,3.162,0,0,0-1.542.718,3.049,3.049,0,0,0-.67,2.176,11.855,11.855,0,0,0,1.331,5.534c.993,1.909,2.566,3.871,2.009,5.949a7.58,7.58,0,0,1-1.889,2.807c-1.62,1.863-2.166,4.616.882,3.654C815.807,363.154,816.63,361.954,818.287,359.518Z" transform="translate(-416.745 -186.395)" fill="#434175"/><g transform="translate(393.796 158.936)" opacity="0.1"><path d="M852.3,388.212c-.119.656-.906,1.431-1.273.875.533,1.035-.438,2.349-1.585,2.549a4.4,4.4,0,0,1-3.224-1.069,6.128,6.128,0,0,1-1.86-1.984A24.942,24.942,0,0,1,843.45,386a6.013,6.013,0,0,0-4.855-3.679c.592,1-.347,2.381-1.5,2.557a3.649,3.649,0,0,1-3.065-1.365c-.791-.855-1.364-1.893-2.155-2.748a3.652,3.652,0,0,0-3.065-1.366,6.969,6.969,0,0,0-2.659,1.51c-.851.58-2.045.969-2.867.349-.459-.346-.684-.93-1.124-1.3-1.134-.951-2.893.027-3.726,1.251-1.657,2.435-2.48,3.636-5.416,4.562-.964.3-1.566.235-1.891-.058-.644,1.48-.351,2.783,1.891,2.075,2.936-.926,3.76-2.127,5.416-4.562.833-1.224,2.592-2.2,3.726-1.251.44.369.665.953,1.124,1.3.822.62,2.016.231,2.867-.349a6.967,6.967,0,0,1,2.659-1.509,3.652,3.652,0,0,1,3.065,1.366c.791.855,1.364,1.893,2.155,2.748a3.65,3.65,0,0,0,3.065,1.365c1.151-.176,2.09-1.554,1.5-2.557a6.013,6.013,0,0,1,4.855,3.679,24.942,24.942,0,0,0,.907,2.584,6.128,6.128,0,0,0,1.86,1.984,4.4,4.4,0,0,0,3.224,1.069c1.147-.2,2.118-1.514,1.585-2.549.367.557,1.153-.219,1.273-.875a9.34,9.34,0,0,0,.092-2.677C852.366,387.773,852.337,387.994,852.3,388.212Z" transform="translate(-810.687 -369.04)"/><path d="M813.866,369.531c.008-.026.019-.051.026-.078.557-2.078-1.016-4.04-2.009-5.949a11.86,11.86,0,0,1-1.272-4.322,5.74,5.74,0,0,0-.059.806,11.858,11.858,0,0,0,1.331,5.534A20.844,20.844,0,0,1,813.866,369.531Z" transform="translate(-810.552 -359.182)"/><path d="M891.24,367.051c-.793,1.356-2.1,2.454-2.462,3.983a4.443,4.443,0,0,0,.018,1.961c.381-1.5,1.66-2.587,2.443-3.926a6.726,6.726,0,0,0,.788-4.32A6.332,6.332,0,0,1,891.24,367.051Z" transform="translate(-848.699 -361.9)"/></g><path d="M770.757,519.565v0a15.606,15.606,0,0,1,.313,1.713s8.084,18.931,9.107,20.057c.315.346,1.5,2.049,2.994,4.241.54.792,1.119,1.65,1.713,2.53,3.095,4.593,6.549,9.807,6.549,9.807l7.572,6.651s16.473,1.318,21.708-4.028c-.635-.442-1.038-.68-1.038-.68l-2.251-1.75c-1.162-1.961-5.608-3.87-10.108-5.37-4.146.031-7.538.366-7.538.366l-1.079-2.841-1.126-2.964-5.724-15.071s-3.692-19.033-4.92-19.954-.921-3.786-.921-3.786,2.251-8.084,1.433-9.21,1.33-9.414,1.33-9.414a8.588,8.588,0,0,0-.982-2.3l-15.8,30.028S771.467,518.45,770.757,519.565Z" transform="translate(-397.325 -262.934)" opacity="0.1"/><path d="M786.148,482.565s-2.149,8.289-1.33,9.414-1.432,9.21-1.432,9.21-.307,2.865.921,3.786,4.92,19.954,4.92,19.954l7.928,20.875s24.81-2.456,22.251,5.321-23.024,6.14-23.024,6.14l-7.573-6.651s-10.233-15.452-11.256-16.578-9.107-20.057-9.107-20.057-.409-3.786-2.149-5.73-.409-5.233-.409-5.233-2.149-24.75.1-27.718S783.794,473.663,786.148,482.565Z" transform="translate(-394.495 -256.249)" fill="#ee8e9e"/><path d="M772.291,459.115,765.845,463s-1.842,6.242-3.275,7.061c0,0,12.894-7.163,22.615,9.312,0,0-.307-2.149,1.023-3.172s1.023-5.424,1.023-5.424a17.742,17.742,0,0,0,.921-2.149C789.074,466.381,784.264,453.487,772.291,459.115Z" transform="translate(-393.328 -248.353)" opacity="0.1"/><path d="M771.892,458.315l-6.447,3.889s-1.842,6.242-3.274,7.061c0,0,12.894-7.163,22.615,9.312,0,0-.307-2.149,1.023-3.172s1.023-5.423,1.023-5.423a17.719,17.719,0,0,0,.921-2.149C788.674,465.581,783.864,452.687,771.892,458.315Z" transform="translate(-393.132 -247.962)" fill="#434175"/><ellipse cx="19.219" cy="20.4" rx="19.219" ry="20.4" transform="translate(302.08 348.761)" fill="#fbd56f"/><ellipse cx="19.219" cy="20.4" rx="19.219" ry="20.4" transform="translate(302.08 348.761)" opacity="0.1"/><ellipse cx="19.219" cy="19.946" rx="19.219" ry="19.946" transform="translate(305.397 349.67)" fill="#fbd56f"/><ellipse cx="23.737" cy="4.013" rx="23.737" ry="4.013" transform="translate(22.391 372.346)" fill="#f49c0f" opacity="0.475"/><path d="M129.362,760.8a6.89,6.89,0,0,0,2.263-3.415,3.036,3.036,0,0,0-1.581-3.479c-1.452-.555-3,.451-4.181,1.468s-2.525,2.177-4.065,1.962a6.189,6.189,0,0,0,1.914-5.792,2.419,2.419,0,0,0-.532-1.176c-.806-.862-2.268-.492-3.233.187-3.07,2.159-3.926,6.329-3.943,10.083a19.074,19.074,0,0,1-.056-4.153,4.261,4.261,0,0,0-1.56-3.674,4.7,4.7,0,0,0-2.379-.559,4.92,4.92,0,0,0-3.859,1.1c-1.171,1.254-.867,3.358.151,4.739a14.952,14.952,0,0,0,3.994,3.2,8.857,8.857,0,0,1,2.855,2.723,2.692,2.692,0,0,1,.212.486h8.651A24.1,24.1,0,0,0,129.362,760.8Z" transform="translate(-73.419 -388.01)" fill="#f49c0f"/><path d="M528.227,729.513a20.687,20.687,0,0,1,2.573,4.7c.172.432.34.886.5,1.362,2.557,7.643-1.495,16.807-2.653,15.819s-4.768-2.823-5.466-.245a14.791,14.791,0,0,1-3.276,5.212c-4.7,4.725-8.95-.38-11.741-5.655a51.056,51.056,0,0,1-2.428-5.365c-.62-1.62-.976-2.739-.976-2.739l19.567-16.671A11.583,11.583,0,0,1,528.227,729.513Z" transform="translate(-267.444 -379.32)" fill="#e36b0a"/><path d="M467.963,750.345a20.7,20.7,0,0,1,2.573,4.7c.172.432.34.886.5,1.362,2.557,7.643-1.495,16.807-2.653,15.819s-4.768-2.823-5.466-.245a14.791,14.791,0,0,1-3.277,5.212c-4.7,4.725-8.95-.38-11.741-5.655a51.11,51.11,0,0,1-2.428-5.365c-.62-1.62-.976-2.739-.976-2.739l19.567-16.671A11.581,11.581,0,0,1,467.963,750.345Z" transform="translate(-238.018 -389.492)" fill="#e36b0a"/><path d="M341.121,777.536a20.694,20.694,0,0,1-1.017,5.259c-.143.442-.3.9-.485,1.367-2.909,7.516-11.877,11.986-12.138,10.485s-1.87-5.216-4.052-3.677a14.791,14.791,0,0,1-5.849,1.922c-6.632.64-6.648-6-5.43-11.846a51.1,51.1,0,0,1,1.555-5.681c.557-1.643,1-2.732,1-2.732l25.7-.348A11.583,11.583,0,0,1,341.121,777.536Z" transform="translate(-173.095 -401.955)" fill="#e36b0a"/><path d="M276.222,761.168a20.7,20.7,0,0,1-1.017,5.259c-.143.442-.3.9-.485,1.367-2.909,7.516-11.877,11.986-12.138,10.485s-1.87-5.216-4.052-3.677a14.79,14.79,0,0,1-5.849,1.922c-6.632.64-6.648-6-5.43-11.847a51.094,51.094,0,0,1,1.555-5.68c.557-1.643,1-2.732,1-2.732l25.7-.348A11.582,11.582,0,0,1,276.222,761.168Z" transform="translate(-141.406 -393.963)" fill="#e36b0a"/><path d="M528.227,729.513a20.687,20.687,0,0,1,2.573,4.7c.172.432.34.886.5,1.362,2.557,7.643-1.495,16.807-2.653,15.819s-4.768-2.823-5.466-.245a14.791,14.791,0,0,1-3.276,5.212c-4.7,4.725-8.95-.38-11.741-5.655a51.056,51.056,0,0,1-2.428-5.365c-.62-1.62-.976-2.739-.976-2.739l19.567-16.671A11.583,11.583,0,0,1,528.227,729.513Z" transform="translate(-267.444 -379.32)" fill="#cb820d" opacity="0.2" style="isolation:isolate"/><path d="M467.963,750.345a20.7,20.7,0,0,1,2.573,4.7c.172.432.34.886.5,1.362,2.557,7.643-1.495,16.807-2.653,15.819s-4.768-2.823-5.466-.245a14.791,14.791,0,0,1-3.277,5.212c-4.7,4.725-8.95-.38-11.741-5.655a51.11,51.11,0,0,1-2.428-5.365c-.62-1.62-.976-2.739-.976-2.739l19.567-16.671A11.581,11.581,0,0,1,467.963,750.345Z" transform="translate(-238.018 -389.492)" fill="#cb820d" opacity="0.2" style="isolation:isolate"/><path d="M341.121,777.536a20.694,20.694,0,0,1-1.017,5.259c-.143.442-.3.9-.485,1.367-2.909,7.516-11.877,11.986-12.138,10.485s-1.87-5.216-4.052-3.677a14.791,14.791,0,0,1-5.849,1.922c-6.632.64-6.648-6-5.43-11.846a51.1,51.1,0,0,1,1.555-5.681c.557-1.643,1-2.732,1-2.732l25.7-.348A11.583,11.583,0,0,1,341.121,777.536Z" transform="translate(-173.095 -401.955)" fill="#cb820d" opacity="0.2" style="isolation:isolate"/><path d="M276.222,761.168a20.7,20.7,0,0,1-1.017,5.259c-.143.442-.3.9-.485,1.367-2.909,7.516-11.877,11.986-12.138,10.485s-1.87-5.216-4.052-3.677a14.79,14.79,0,0,1-5.849,1.922c-6.632.64-6.648-6-5.43-11.847a51.094,51.094,0,0,1,1.555-5.68c.557-1.643,1-2.732,1-2.732l25.7-.348A11.582,11.582,0,0,1,276.222,761.168Z" transform="translate(-141.406 -393.963)" fill="#cb820d" opacity="0.2" style="isolation:isolate"/><path d="M403.735,427.433c0,68.652-23.224,124.305-130.4,124.305-72.016,0-127.732-17.894-130.4-124.305-1.719-68.63,58.381-124.305,130.4-124.305S403.735,358.781,403.735,427.433Z" transform="translate(-90.758 -172.876)" fill="#e36b0a"/><path d="M349.994,307.369h.015l-.011,0Z" transform="translate(-191.875 -174.946)" opacity="0.2" style="isolation:isolate"/><path d="M350.318,307.08c.331-.053.986-.145,1.938-.217l-2.121.251q.046-.011.114-.023Z" transform="translate(-191.944 -174.699)" opacity="0.2" style="isolation:isolate"/><path d="M448.709,356.266l-9.518,3.426a212.6,212.6,0,0,0-15.636-18.64,152.753,152.753,0,0,0-19.8-17.738c-24.37-18.061-43.219-18.522-49.444-18.058l14.307-1.683a116.325,116.325,0,0,1,38.411,13.885,126.9,126.9,0,0,1,23.083,17.052C442.568,346.074,448.709,356.266,448.709,356.266Z" transform="translate(-193.982 -173.094)" opacity="0.2" style="isolation:isolate"/><path d="M364.73,367.962s-12.564-41.879-1.9-53.3c0,0,16.752-5.711,29.315,26.65Z" transform="translate(-196.046 -178.317)" opacity="0.2" style="isolation:isolate"/><path d="M494.962,320.077s33.318-28.313,48.057-23.132c0,0,11.953,13.052-12.647,37.546Z" transform="translate(-262.66 -169.547)" fill="#cc820c"/><path d="M494.962,320.077s33.318-28.313,48.057-23.132c0,0,11.953,13.052-12.647,37.546Z" transform="translate(-262.66 -169.547)" fill="#cc820c" opacity="0.2" style="isolation:isolate"/><path d="M611.9,543.931c0,36.9-26.481,66.055-51.4,66.055s-38.833-29.153-38.833-66.055,20.241-65.374,45.115-66.816C606.192,474.83,611.9,507.029,611.9,543.931Z" transform="translate(-275.702 -257.774)" fill="#cb820d"/><path d="M611.9,543.931c0,36.9-26.481,66.055-51.4,66.055s-38.833-29.153-38.833-66.055,20.241-65.374,45.115-66.816C606.192,474.83,611.9,507.029,611.9,543.931Z" transform="translate(-275.702 -257.774)" fill="#cb820d" opacity="0.2" style="isolation:isolate"/><ellipse cx="8.376" cy="10.66" rx="8.376" ry="10.66" transform="translate(274.905 281.018)" fill="#e36b0a"/><ellipse cx="8.376" cy="10.66" rx="8.376" ry="10.66" transform="translate(304.601 271.88)" fill="#e36b0a"/><path d="M478.915,336.435a15.2,15.2,0,0,1-1.626,6.876,14.611,14.611,0,0,1-6.556,6.541,152.746,152.746,0,0,0-19.8-17.738,14.922,14.922,0,0,1,3.274-5.856,14.036,14.036,0,0,1,10.409-4.664A14.578,14.578,0,0,1,478.915,336.435Z" transform="translate(-241.161 -181.892)" fill="#fad46f"/></svg>