<svg xmlns="http://www.w3.org/2000/svg" width="407.058" height="288.575" viewBox="0 0 407.058 288.575"><rect width="108.283" height="0.76" transform="translate(289.277 228.871)" fill="#3f3d56"/><rect width="88.906" height="0.76" transform="translate(318.152 243.689)" fill="#3f3d56"/><rect width="0.76" height="135.886" transform="translate(339.805 93.727)" fill="#3f3d56"/><ellipse cx="14.818" cy="33.815" rx="14.818" ry="33.815" transform="translate(325.514 150.338)" fill="#3f3d56"/><ellipse cx="14.818" cy="33.815" rx="14.818" ry="33.815" transform="translate(325.514 73.21)" fill="#3f3d56"/><path d="M902.2,239.027l-.728-.218c.046-.154,4.513-15.462-2.822-25.317-4.143-5.566-11.252-8.388-21.13-8.388v-.76c10.133,0,17.448,2.926,21.742,8.7C906.82,223.2,902.243,238.87,902.2,239.027Z" transform="translate(-561.5 -159.629)" fill="#3f3d56"/><ellipse cx="9.499" cy="9.499" rx="9.499" ry="9.499" transform="translate(306.517 35.596)" fill="#e36b0a"/><path d="M839.718,619.916h-9.879v-9.878h9.879Zm-9.119-.76h8.359V610.8H830.6Z" transform="translate(-533.148 -400.882)" fill="#3f3d56"/><path d="M169.238,502.414c.012,25.549-15.172,34.475-33.906,34.484q-.653,0-1.3-.014-1.3-.027-2.578-.117c-16.909-1.189-30.051-10.56-30.062-34.32-.012-24.589,31.4-55.635,33.755-57.93,0,0,0,0,0,0l.135-.131S169.225,476.868,169.238,502.414Z" transform="translate(-99.966 -302.373)" fill="#e36b0a"/><path d="M162.038,532.991l12.4-17.341-12.429,19.244-.032,1.99q-1.3-.027-2.578-.117l1.324-25.56-.01-.2.023-.038.126-2.415-12.479-19.28,12.515,17.47.031.512,1-19.311-10.684-19.924,10.814,16.53,1.032-40.038,0-.133v.131l-.16,31.574,10.618-12.522-10.663,15.241-.273,17.291,9.917-16.6-9.955,19.141-.151,9.615,14.392-23.105-14.447,26.459Z" transform="translate(-127.909 -302.373)" fill="#3f3d56"/><rect width="64.21" height="0.76" transform="translate(1.462 234.14)" fill="#3f3d56"/><rect width="174.773" height="0.76" transform="translate(78.463 6.459)" fill="#3f3d56"/><ellipse cx="7.219" cy="7.219" rx="7.219" ry="7.219" transform="translate(123.452 0)" fill="#e36b0a"/><path d="M105.531,443.878a4.559,4.559,0,1,1,4.559-4.559,4.559,4.559,0,0,1-4.559,4.559Zm0-8.359a3.8,3.8,0,1,0,3.8,3.8A3.8,3.8,0,0,0,105.531,435.52Z" transform="translate(-99.716 -296.65)" fill="#3f3d56"/><path d="M257.53,400.53h-9.878v-9.878h9.878Zm-9.119-.76h8.359v-8.359h-8.359Z" transform="translate(-186.941 -270.42)" fill="#3f3d56"/><ellipse cx="169.227" cy="3.931" rx="169.227" ry="3.931" transform="translate(0 257.631)" fill="#3f3d56"/><ellipse cx="117.157" cy="2.721" rx="117.157" ry="2.721" transform="translate(52.07 271.842)" fill="#3f3d56"/><ellipse cx="95.57" cy="2.22" rx="95.57" ry="2.22" transform="translate(73.71 284.135)" fill="#3f3d56"/><path d="M720.071,562.423l-.556,11.683,26.7,8.9s-1.391-14.742-.556-16.133Z" transform="translate(-467.542 -372.567)" fill="#ffb8b8"/><path d="M512.287,596.722l-2.5,9.735h11.683v-9.735Z" transform="translate(-303.151 -354.85)" fill="#ffb8b8"/><path d="M665.561,590.128l5.285,1.863,2.781-6.984-4.729-3.725Z" transform="translate(-395.786 -345.668)" fill="#a0616a"/><path d="M774.357,667.142s7.881-1.035,7.881,5.64,1.113,23.087-10.014,21.14c0,0-5.007.556-3.06-5.285,0,0,1.982-2.376,1.269-3.831s-4.885-2.567-4.329-3.4,6.676-7.51,6.676-7.51Z" transform="translate(-495.217 -434.805)" fill="#2f2e41"/><path d="M679.6,586.409l-27.259-9.457-1.669,6.676s-40.889-23.643-43.392-7.51a93.344,93.344,0,0,0,1.113,30.319l.278,13.908s6.954,1.669,10.292.278l.278-15.021s2.782-9.735,1.391-17.246c0,0,20.862,16.411,30.319,18.358,0,0-33.1,25.59-29.206,33.657s8.623,9.457,14.742,8.067c4.217-.958,23.1-16.183,34.428-25.557a32.127,32.127,0,0,0,11.728-26.425A19,19,0,0,0,679.6,586.409Z" transform="translate(-400.366 -377.36)" fill="#2f2e41"/><path d="M580.308,702.493s-.278-3.338-1.947-1.947-7.51,6.676-7.51,6.676-21.14,2.32-8.345,7.605a31.728,31.728,0,0,0,17.246-2.225s14.217,3.65,13.923.108-3.632-9.456-3.632-9.456-3.894,2.855-8.345-1.039Z" transform="translate(-371.729 -454.502)" fill="#2f2e41"/><ellipse cx="10.292" cy="10.292" rx="10.292" ry="10.292" transform="translate(253.363 137.285)" fill="#ffb8b8"/><path d="M741.582,459.487s1.669,8.345,4.729,10.292l-16.968,20.027-6.4-6.119,4.729-8.345s5.285-3.06,3.616-7.232Z" transform="translate(-469.583 -311.354)" fill="#ffb8b8"/><path d="M774.227,486.937s12.239,2.5,13.63,10.57-1.391,22.809-1.391,22.809l-5.841,43.392s-.278,18.358-7.51,15.3,1.947-16.968,1.947-16.968l2.5-27.259s1.113-23.087-1.113-25.869l-8.9-2.782S769.5,487.771,774.227,486.937Z" transform="translate(-496.108 -327.678)" fill="#ffb8b8"/><path d="M626.178,498.6s-8.345-.278-13.63,6.4-18.08,11.683-18.08,11.683L562.48,529.2s-5.841-10.292-9.457-6.676,6.676,12.8,11.4,11.683,33.379-9.735,33.379-9.735l22.809-10.292Z" transform="translate(-368.086 -334.613)" fill="#ffb8b8"/><path d="M738.2,483.243s-10.7,14.292-15.424,14.014-1.544-8.729-1.544-8.729l-3.338.834s-4.576,8.729-5.132,9.286c0,0-6.676,10.848.834,13.352l.278,5.841s18.637-.834,26.7,3.338l1.669-14.464s-10.57-5.285-4.729-15.577c0,0,2.072-5.391,4.3-5.948Z" transform="translate(-461.898 -325.481)" fill="#3f3d56"/><path d="M723.986,671.879l-42.558,31.154S724.264,677.72,723.986,671.879Z" transform="translate(-444.893 -437.656)" opacity="0.1"/><ellipse cx="0.804" cy="1.808" rx="0.804" ry="1.808" transform="translate(273.56 144.934)" fill="#ffb8b8"/><path d="M720.139,423.177s-2.885-19.483,17.715-13.471c0,0,14.573-2.964,19.72,15.237l5.224,19.082-2.391-1.243-1.057,2.433-3.816,1.045-1.7-3.226-.718,3.971-31.352,3.735s13.909-8.59,13.846-23.506l-2.625,2.883Z" transform="translate(-467.832 -281.066)" fill="#2f2e41"/><path d="M533.7,247.18l-.079,44.407L533.538,336l-3.648-10.309v-.026l-4.731,98.859c4.652,13.111,7.137,20.115,7.163,20.142s2.67.185,5.868.344c9.674.476,21.675,1.507,30.794,2.643a20.881,20.881,0,0,0,4.044.291c.132-.106.159-45.306.132-100.472l-.079-100.287H533.7Z" transform="translate(-351.965 -185.103)" fill="#b1060f"/><path d="M370.474,246.815V347.208c0,55.218.053,100.445.132,100.525s3.489-.264,7.613-.714,9.807-1.031,12.635-1.269c4.335-.37,17.34-1.189,18.82-1.216.449,0,.476-2.247.529-42.531l.079-42.531,3.146,8.881c.476,1.375.634,1.8,1.11,3.146l4.732-98.833c-1-2.828-.476-1.348-1.612-4.573-3.859-10.917-7.137-20.142-7.269-20.565l-.264-.74H370.474Z" transform="translate(-259.98 -184.87)" fill="#b1060f"/><path d="M370.474,246.815l39.782,112.736V359.5l3.146,8.881c17.472,49.456,26.856,75.995,26.909,76.048.026.026,2.67.185,5.868.344,9.674.476,21.675,1.507,30.794,2.643a20.659,20.659,0,0,0,4.018.291l-39.438-111.97v.026L437.9,325.453c-3.568-10.071-5.947-16.811-20.3-57.359-3.859-10.917-7.137-20.142-7.269-20.565l-.264-.74h-19.8l-19.8.026Z" transform="translate(-259.98 -184.87)" fill="#e50914"/></svg>