<svg xmlns="http://www.w3.org/2000/svg" width="438.511" height="285.235" viewBox="0 0 438.511 285.235"><path d="M313.788,675.336H185.049s-2.61-38.274,12.83-38.709,13.7,16.962,33.055-6.959,42.841-22.616,45.885-8.481-5.872,25.443,10.438,21.964S327.054,648.805,313.788,675.336Z" transform="translate(-165.884 -390.729)" fill="#e36b0a"/><path d="M313.69,675.1l-.434-.017c1.013-25.2,6.291-41.39,10.54-50.535,4.613-9.93,9.059-13.949,9.1-13.989l.289.325c-.044.039-4.437,4.019-9.014,13.881C319.949,633.875,314.7,650,313.69,675.1Z" transform="translate(-232.329 -390.488)" fill="#f2f2f2"/><path d="M410.294,714.008l-.418-.122a67.469,67.469,0,0,1,16.986-28.26l.292.322A67.01,67.01,0,0,0,410.294,714.008Z" transform="translate(-282.339 -429.34)" fill="#f2f2f2"/><path d="M215.012,703.76l-.431-.06a47.369,47.369,0,0,0-4.261-27.687A38.122,38.122,0,0,0,203.6,666.2l.3-.314a38.6,38.6,0,0,1,6.813,9.933A47.8,47.8,0,0,1,215.012,703.76Z" transform="translate(-175.57 -419.123)" fill="#f2f2f2"/><path d="M316.262,659h-160.1l-.037-.542c-.092-1.349-2.134-33.172,8.177-44.527a11.293,11.293,0,0,1,8.253-3.96c6.721-.191,10.945,2.326,14.352,4.347,6.421,3.809,10.663,6.326,26.087-12.737,16.708-20.651,34.736-25.094,45.1-22.624,6.7,1.6,11.311,6.109,12.662,12.38,1.279,5.938.872,11.517.544,16-.35,4.8-.627,8.586,1.343,10.3,1.645,1.433,4.927,1.563,10.33.41,10.989-2.344,26.323-.338,34.019,9.606,4.141,5.35,7.4,15.075-.571,31.022Zm-159-1.164H315.541c5.942-12.055,6.127-22.238.532-29.468-7.06-9.122-21.873-11.523-32.857-9.18-5.87,1.253-9.367,1.046-11.337-.671-2.409-2.1-2.113-6.144-1.74-11.265.322-4.409.723-9.9-.521-15.671-1.253-5.815-5.551-10-11.794-11.492-10.033-2.394-27.557,1.993-43.925,22.223-16.055,19.844-20.892,16.976-27.585,13.006-3.449-2.045-7.365-4.365-13.725-4.185a10.172,10.172,0,0,0-7.424,3.579C155.9,624.916,157.03,653.532,157.257,657.834Z" transform="translate(-150.885 -373.809)" fill="#cfcce0"/><path d="M766.267,512.066l-46.576-8.1c8.325-17.267,12.13-34.328,8.879-51.066l46.576,8.1a103.482,103.482,0,0,0-8.879,51.066Z" transform="translate(-442.695 -308.884)" fill="#f2f2f2"/><rect width="24.492" height="1.139" transform="translate(295.488 155.23) rotate(9.864)" fill="#3f3d56"/><rect width="24.492" height="1.139" transform="translate(294.708 159.719) rotate(9.864)" fill="#3f3d56"/><rect width="24.492" height="1.139" transform="translate(293.927 164.208) rotate(9.864)" fill="#3f3d56"/><rect width="24.492" height="1.139" transform="translate(293.146 168.697) rotate(9.864)" fill="#3f3d56"/><rect width="24.492" height="1.139" transform="translate(292.366 173.187) rotate(9.864)" fill="#3f3d56"/><rect width="24.492" height="1.139" transform="translate(291.585 177.676) rotate(9.864)" fill="#3f3d56"/><rect width="24.492" height="1.139" transform="translate(290.805 182.165) rotate(9.864)" fill="#3f3d56"/><rect width="24.492" height="1.139" transform="translate(290.024 186.655) rotate(9.864)" fill="#3f3d56"/><path d="M809.267,546.066l-46.576-8.1c8.325-17.267,12.13-34.328,8.879-51.066l46.576,8.1A103.482,103.482,0,0,0,809.267,546.066Z" transform="translate(-464.952 -326.482)" fill="#f2f2f2"/><rect width="24.492" height="1.139" transform="translate(316.232 171.632) rotate(9.864)" fill="#3f3d56"/><rect width="24.492" height="1.139" transform="translate(315.451 176.121) rotate(9.864)" fill="#3f3d56"/><rect width="24.492" height="1.139" transform="translate(314.671 180.61) rotate(9.864)" fill="#3f3d56"/><rect width="24.492" height="1.139" transform="translate(313.89 185.099) rotate(9.864)" fill="#3f3d56"/><rect width="24.492" height="1.139" transform="translate(313.109 189.589) rotate(9.864)" fill="#3f3d56"/><rect width="24.492" height="1.139" transform="translate(312.329 194.078) rotate(9.864)" fill="#3f3d56"/><rect width="24.492" height="1.139" transform="translate(311.548 198.567) rotate(9.864)" fill="#3f3d56"/><rect width="24.492" height="1.139" transform="translate(310.768 203.057) rotate(9.864)" fill="#3f3d56"/><path d="M792.147,622.021H709.069l-.016-.465L705.086,508.1H796.13ZM710,621.056h81.215l3.916-111.987H706.085Z" transform="translate(-435.136 -337.457)" fill="#3f3d56"/><path d="M647.436,468.1h-73.98L569.9,366.378h81.094Z" transform="translate(-294.974 -189.633)" fill="#3f3d56"/><g transform="translate(287.432 191.667)" opacity="0.2"><rect width="6.319" height="78.197" fill="#fff"/><rect width="6.319" height="78.197" transform="translate(24.881)" fill="#fff"/><rect width="6.319" height="78.197" transform="translate(49.762)" fill="#fff"/></g><rect width="15.797" height="121.64" transform="matrix(0.534, -0.845, 0.845, 0.534, 308.438, 139.787)" fill="#3f3d56"/><path d="M900.053,446.463a18.553,18.553,0,0,0-28.279,18.365l4.919,3.11a14.638,14.638,0,1,1,13.98,8.838l4.918,3.11a18.553,18.553,0,0,0,4.462-33.423Z" transform="translate(-521.31 -304.063)" fill="#3f3d56"/><rect width="438.511" height="0.965" transform="translate(0 283.898)" fill="#3f3d56"/><path d="M619.27,402.865s18.814,13.99,11.1,16.4-17.367-8.2-16.884-11.1S619.27,402.865,619.27,402.865Z" transform="translate(-387.713 -282.986)" fill="#ffb8b8"/><path d="M444.447,211.5l19.3,17.849-7.719,8.2L443,227.9Z" transform="translate(-229.292 -109.47)" fill="#575a89"/><path d="M638.323,443.6,598.54,418.066c14.374-12.683,24.5-26.93,28-43.618l39.784,25.538A103.481,103.481,0,0,0,638.323,443.6Z" transform="translate(-379.989 -268.278)" fill="#e36b0a"/><rect width="24.492" height="1.139" transform="translate(251.06 120.233) rotate(32.698)" fill="#3f3d56"/><rect width="24.492" height="1.139" transform="translate(248.598 124.068) rotate(32.698)" fill="#3f3d56"/><rect width="24.492" height="1.139" transform="translate(246.137 127.902) rotate(32.698)" fill="#3f3d56"/><rect width="24.492" height="1.139" transform="translate(243.675 131.737) rotate(32.698)" fill="#3f3d56"/><rect width="24.492" height="1.139" transform="translate(241.214 135.572) rotate(32.698)" fill="#3f3d56"/><rect width="24.492" height="1.139" transform="translate(238.752 139.406) rotate(32.698)" fill="#3f3d56"/><rect width="24.492" height="1.139" transform="translate(236.291 143.241) rotate(32.698)" fill="#3f3d56"/><rect width="24.492" height="1.139" transform="translate(233.829 147.075) rotate(32.698)" fill="#3f3d56"/><path d="M295.309,490.416l-7.322,15.4,20.483,4.9-.571-14.85Z" transform="translate(-149.059 -253.834)" fill="#ffb8b8"/><path d="M455,530.912l2.412,16.884,19.779-7.236-8.683-12.06Z" transform="translate(-235.503 -273.546)" fill="#ffb8b8"/><path d="M474.458,358.271s-3.031,19.408-2.206,28.638-2.427,48.173-2.427,48.173-14.546,15.823-17.848,33.893a150.849,150.849,0,0,1-10.357,33.073l17.139,5.579,33.965-64.3s24.358-53.309,21.937-58.388-6.216-25.54-6.216-25.54Z" transform="translate(-298.769 -259.904)" fill="#2f2e41"/><path d="M429.635,662.058s-.021-8.7-3.089-4.943-13.086,11-7.187,16.073,40.351,32.55,42.2,24.518c1.029-4.459-16.153-34.559-16.153-34.559s-5.738.359-6.135,1.832S429.635,662.058,429.635,662.058Z" transform="translate(-286.302 -414.096)" fill="#2f2e41"/><path d="M410.025,40.5,397,55.455l13.025,13.507,12.06-18.332Z" transform="translate(-205.483 -20.962)" fill="#ffb8b8"/><path d="M587.537,182.888a13.031,13.031,0,1,1-.236-2.465A13.031,13.031,0,0,1,587.537,182.888Z" transform="translate(-360.804 -162.386)" fill="#ffb8b8"/><path d="M563.825,174.79c4.52-2.1,9.848-1.833,14.616-.379a15.771,15.771,0,0,1,7.268,4.169,7.962,7.962,0,0,1,1.883,7.846l-3.942-2.981-.361,2.628c-2.6-4.059-7.544-5.823-12.128-7.319-1.434-.468-3.337-.787-4.163.474-.348.532-.388,1.225-.758,1.742-.695.968-2.146.882-3.21,1.419a5.62,5.62,0,0,0-2.135,2.506c-.537.978-.3,2.346-1.271,2.893-3.9,2.19-1.6-6.245-.965-7.719A8.489,8.489,0,0,1,563.825,174.79Z" transform="translate(-358.697 -164.149)" fill="#2f2e41"/><path d="M493,396.214s8.2,17.849,13.99,25.085,24.6,41.487,24.6,41.487-3.377,21.226,3.859,38.11a150.851,150.851,0,0,1,9.648,33.286l17.367-4.824L555.231,457s-9.166-57.889-13.99-60.784-19.3-17.849-19.3-17.849Z" transform="translate(-325.362 -270.305)" fill="#2f2e41"/><path d="M529.744,234.422s-8.2-21.708-19.3-14.955-19.779,67.055-19.779,67.055-10.131,27.5,0,30.392,18.332,6.754,19.779,1.447.482-14.472,2.894-9.648,1.447,10.613,6.271,10.613,23.638-2.412,23.156-5.789S529.744,234.422,529.744,234.422Z" transform="translate(-321.826 -187.387)" fill="#575a89"/><path d="M491.151,428.671s-6.271,18.814,2.412,18.814,7.428-18.995,7.428-18.995Z" transform="translate(-323.272 -296.25)" fill="#ffb8b8"/><path d="M601.035,702.483s-4.824-7.236-5.307-2.412-4.824,16.4,2.895,17.367,51.618,4.824,48.723-2.895c-1.607-4.285-32.563-19.873-32.563-19.873s-4.583,3.471-4.1,4.918S601.035,702.483,601.035,702.483Z" transform="translate(-377.679 -434.021)" fill="#2f2e41"/><path d="M595.734,178s-2.287,1.963-5.253-1.92A18.825,18.825,0,0,1,588.5,172.7a13.247,13.247,0,0,0-8.954-3.845q-.34-.014-.695-.014c-6.271,0-7.719-4.342-7.719-4.342L561,167.872s1.447-13.507,15.437-13.507,14.472,11.578,14.472,11.578S602,170.284,595.734,178Z" transform="translate(-360.558 -154.365)" fill="#575a89"/><path d="M610.376,190.346a18.815,18.815,0,0,1-1.983-3.387,13.247,13.247,0,0,0-8.954-3.845c3.526-1.1,9.658-2.388,12.33.95C614.231,187.138,612.185,189.232,610.376,190.346Z" transform="translate(-380.455 -168.628)" opacity="0.2"/><path d="M508.515,228.641s-13.025-2.412-16.4,9.166S481.5,283.636,481.5,283.636l4.342,35.216-.482,8.683h13.99v-9.166c0-.965,1.93-38.593,1.93-38.593L517.2,243.6S520.575,232.018,508.515,228.641Z" transform="translate(-319.41 -192.701)" fill="#575a89"/><path d="M391.324,116,375.4,147.357l-1.953,44.925,5.33-45.407Z" transform="translate(-193.294 -60.04)" opacity="0.2"/><path d="M450.525,215.686l3.615,18.528-1.808-16.856Z" transform="translate(-233.187 -111.637)" opacity="0.2"/><path d="M365.5,305.5l20.744,29.427-2.171,4.342Z" transform="translate(-189.179 -158.124)" opacity="0.2"/></svg>