<svg xmlns="http://www.w3.org/2000/svg" width="346.759" height="211.383" viewBox="0 0 346.759 211.383"><path d="M167.542,555.653l-.6-.134a135.448,135.448,0,0,1,264.143-.36l-.594.135a134.058,134.058,0,0,0-131.436-104.74C236.547,450.555,181.236,494.755,167.542,555.653Z" transform="translate(-125.639 -344.27)" fill="#3f3d56"/><ellipse cx="16.565" cy="16.565" rx="16.565" ry="16.565" transform="translate(110.651 4.602)" fill="#ff6584"/><path d="M214.275,775.5a6.138,6.138,0,0,0,2.286,3.092,5.285,5.285,0,0,0-1.871-6.916A6.138,6.138,0,0,0,214.275,775.5Z" transform="translate(-158.424 -567.884)" fill="#3f3d56"/><path d="M209.046,779.462a6.138,6.138,0,0,1,1.591,3.5,5.285,5.285,0,0,1-5.134-5A6.138,6.138,0,0,1,209.046,779.462Z" transform="translate(-152.436 -572.252)" fill="#e36b0a"/><path d="M343.275,775.5a6.138,6.138,0,0,0,2.286,3.092,5.285,5.285,0,0,0-1.871-6.916A6.139,6.139,0,0,0,343.275,775.5Z" transform="translate(-248.082 -567.884)" fill="#3f3d56"/><path d="M338.046,779.462a6.138,6.138,0,0,1,1.591,3.5,5.285,5.285,0,0,1-5.134-5A6.138,6.138,0,0,1,338.046,779.462Z" transform="translate(-242.094 -572.252)" fill="#e36b0a"/><path d="M323.515,99.656l-6.229-4.983,34.881-31.144h88.449V90.936l-57.305,38.619Z" transform="translate(-220.521 -44.154)" fill="#3f3d56"/><path d="M607.339,81V64.151H595.6v4.126l-4.383-4.748L562.56,94.673l-11.212,7.475L533.964,229.159l26.218,26.217h60.93V95.919Z" transform="translate(-371.117 -44.154)" fill="#ccc"/><rect width="94.678" height="160.704" transform="translate(96.765 50.519)" fill="#f2f2f2"/><rect width="17.441" height="39.242" transform="translate(133.515 171.981)" fill="#ccc"/><path d="M359.481,586.482v-6.229h-7.474v6.229h7.474Z" transform="translate(-244.653 -403.289)" fill="#3f3d56"/><path d="M358.859,617.016h-6.852v6.229h7.474v-6.229Z" transform="translate(-244.653 -428.84)" fill="#3f3d56"/><rect width="7.475" height="6.229" transform="translate(119.812 176.964)" fill="#3f3d56"/><rect width="7.475" height="6.229" transform="translate(119.812 188.176)" fill="#3f3d56"/><path d="M526.957,586.482v-6.229h-7.474v6.229h7.474Z" transform="translate(-361.052 -403.289)" fill="#3f3d56"/><path d="M526.335,617.016h-6.852v6.229h7.474v-6.229Z" transform="translate(-361.052 -428.84)" fill="#3f3d56"/><rect width="7.475" height="6.229" transform="translate(170.888 176.964)" fill="#3f3d56"/><rect width="7.475" height="6.229" transform="translate(170.888 188.176)" fill="#3f3d56"/><path d="M698.518,178v-6.229h-7.475V178h7.475Z" transform="translate(-480.29 -119.388)" fill="#3f3d56"/><path d="M697.895,208.539h-6.852v6.229h7.475v-6.229Z" transform="translate(-480.29 -144.939)" fill="#3f3d56"/><rect width="7.475" height="6.229" transform="translate(223.21 52.388)" fill="#3f3d56"/><rect width="7.475" height="6.229" transform="translate(223.21 63.6)" fill="#3f3d56"/><path d="M698.518,292.378v-6.229h-7.475v6.229h7.475Z" transform="translate(-480.29 -198.88)" fill="#3f3d56"/><path d="M697.895,322.912h-6.852v6.229h7.475v-6.229Z" transform="translate(-480.29 -224.431)" fill="#3f3d56"/><rect width="7.475" height="6.229" transform="translate(223.21 87.269)" fill="#3f3d56"/><rect width="7.475" height="6.229" transform="translate(223.21 98.481)" fill="#3f3d56"/><path d="M698.518,406.752v-6.229h-7.475v6.229h7.475Z" transform="translate(-480.29 -278.373)" fill="#3f3d56"/><path d="M697.895,437.286h-6.852v6.229h7.475v-6.229Z" transform="translate(-480.29 -303.924)" fill="#3f3d56"/><rect width="7.475" height="6.229" transform="translate(223.21 122.15)" fill="#3f3d56"/><rect width="7.475" height="6.229" transform="translate(223.21 133.362)" fill="#3f3d56"/><path d="M698.518,521.126V514.9h-7.475v6.229h7.475Z" transform="translate(-480.29 -357.865)" fill="#3f3d56"/><path d="M697.895,551.66h-6.852v6.229h7.475V551.66Z" transform="translate(-480.29 -383.416)" fill="#3f3d56"/><rect width="7.475" height="6.229" transform="translate(223.21 157.032)" fill="#3f3d56"/><rect width="7.475" height="6.229" transform="translate(223.21 168.244)" fill="#3f3d56"/><rect width="72.254" height="14.949" transform="translate(107.354 58.616)" fill="#3f3d56"/><rect width="72.254" height="14.949" transform="translate(107.354 88.515)" fill="#3f3d56"/><rect width="72.254" height="14.949" transform="translate(107.354 118.413)" fill="#3f3d56"/><rect width="72.254" height="14.949" transform="translate(107.354 148.312)" fill="#3f3d56"/><rect width="346.759" height="0.61" transform="translate(0 210.596)" fill="#3f3d56"/><rect width="1.792" height="70.771" transform="translate(58.069 140.172)" fill="#3f3d56"/><path d="M202.219,490.7c.114,24.747-17.3,44.889-17.3,44.889s-17.6-19.981-17.71-44.727,17.3-44.889,17.3-44.889S202.1,465.954,202.219,490.7Z" transform="translate(-125.823 -341.509)" fill="#e36b0a"/><path d="M202.219,490.7c.114,24.747-17.3,44.889-17.3,44.889s-17.6-19.981-17.71-44.727,17.3-44.889,17.3-44.889S202.1,465.954,202.219,490.7Z" transform="translate(-125.823 -341.509)" opacity="0.1"/><rect width="1.792" height="70.771" transform="translate(34.777 140.172)" fill="#3f3d56"/><path d="M125.847,490.7c.114,24.747-17.3,44.889-17.3,44.889s-17.6-19.981-17.71-44.727,17.3-44.889,17.3-44.889S125.733,465.954,125.847,490.7Z" transform="translate(-72.742 -341.509)" fill="#e36b0a"/><path d="M918.711,240.046c-14.113.065-25.6.274-25.6.274s13.655-18.087,25.55-11.386a162.425,162.425,0,0,0,25.559,11.151S932.825,239.981,918.711,240.046Z" transform="translate(-630.339 -189.627)" fill="#f2f2f2"/><path d="M147.711,354.046c-14.113.065-25.6.274-25.6.274s13.655-18.087,25.55-11.386a162.428,162.428,0,0,0,25.559,11.151S161.825,353.981,147.711,354.046Z" transform="translate(-94.476 -268.859)" fill="#f2f2f2"/><path d="M315.711,116.046c-14.113.065-25.6.274-25.6.274s13.655-18.087,25.55-11.386a162.425,162.425,0,0,0,25.559,11.151S329.825,115.981,315.711,116.046Z" transform="translate(-211.24 -103.444)" fill="#f2f2f2"/><rect width="1.792" height="70.771" transform="translate(315.662 140.172)" fill="#3f3d56"/><path d="M1046.847,490.7c.114,24.747-17.3,44.889-17.3,44.889s-17.6-19.981-17.71-44.727,17.3-44.889,17.3-44.889S1046.733,465.954,1046.847,490.7Z" transform="translate(-712.858 -341.509)" fill="#e36b0a"/><path d="M803.353,537.683h18.082v-4.365h9.976v4.365h18.705v19.329H831.411v24.317h-9.976V557.011H803.353L794,546.412Z" transform="translate(-551.848 -370.668)" fill="#3f3d56"/></svg>