<svg xmlns="http://www.w3.org/2000/svg" width="492" height="229.392" viewBox="0 0 492 229.392"><g transform="translate(0.49)"><path d="M156.29,516.049l-.843-.19a191.8,191.8,0,0,1,374.039-.51l-.842.192c-19.889-87.327-96.424-148.317-186.12-148.317C254,367.224,175.681,429.814,156.29,516.049Z" transform="translate(-101.667 -287.786)" fill="#3f3d56"/><path d="M1041.273,480.8l1.3,9.5-9.069.864,1.3-11.66Z" transform="translate(-586.918 -272.422)" fill="#a0616a"/><path d="M972.132,364.916s.864,11.66.864,12.092-6.046,30.23-6.046,30.23-8.637,16.411,0,15.979S973,407.67,973,407.67l9.069-25.048-3.887-17.706Z" transform="translate(-560.531 -286.965)" fill="#a0616a"/><path d="M983.8,480.8l-1.3,9.5,9.069.864-1.3-11.66Z" transform="translate(-557.943 -272.422)" fill="#a0616a"/><path d="M990.4,458.075l-2.159,3.023s-1.3,12.956,0,17.275,3.887,24.184,3.887,25.48.432,2.159,0,2.591-1.727.432-.864,1.3.864,3.455.864,3.455v2.159l5.614,31.958s-3.455,3.887-.864,3.887,12.092,0,11.66-4.319l-.864-.432s-1.3-28.5-.864-29.8a11.023,11.023,0,0,0,0-3.887s-.864-1.3,0-1.727.864-3.887.864-3.887l3.887-26.344s3.455,17.706,5.614,19.434,1.727,6.046,1.727,6.046l1.727,38s-1.727,4.319,0,5.182,9.069,3.887,9.5-.432,2.591-41.891,2.591-43.618-.432-2.591,0-3.887-.432-1.3,0-1.3-.864-1.3-.864-2.159V474.918a31.89,31.89,0,0,1,.864-5.182c.432-.864-.432-1.727,0-3.023s-.864-5.614-.864-5.614l-19.434-5.182Z" transform="translate(-574.482 -338.665)" fill="#2f2e41"/><path d="M1012.857,682.075s2.159-2.159-.864-2.159a14.057,14.057,0,0,0-5.614,1.3l-2.159,7.773s-8.853,7.126,1.08,6.262,8.421-.216,8.421-.216,3.023-.864,3.455-1.727-.864-13.388-.864-13.388S1015.017,683.371,1012.857,682.075Z" transform="translate(-581.822 -465.928)" fill="#2f2e41"/><path d="M1064.55,682.075s-2.159-2.159.864-2.159a14.057,14.057,0,0,1,5.614,1.3l2.159,7.773s8.853,7.126-1.08,6.262-9.717-.216-9.717-.216-3.023-.864-3.455-1.727,2.159-13.388,2.159-13.388S1062.391,683.371,1064.55,682.075Z" transform="translate(-614.945 -465.928)" fill="#2f2e41"/><rect width="3.845" height="151.866" transform="translate(123.826 76.626)" fill="#3f3d56"/><path d="M309.88,280.4c.245,53.1-37.117,96.326-37.117,96.326s-37.758-42.876-38-95.98,37.117-96.326,37.117-96.326S309.635,227.292,309.88,280.4Z" transform="translate(-146.727 -184.416)" fill="#e36b0a"/><rect width="297.553" height="63.052" transform="translate(97.637 165.619)" fill="#f2f2f2"/><path d="M203.5,310.3l32.39-67.8H494.576l24.184,67.8Z" transform="translate(-115.364 -137.773)" fill="#3f3d56"/><rect width="120.058" height="39.731" transform="translate(168.894 109.045)" fill="#f2f2f2"/><path d="M383.5,177.5l-19,39.731H507.015L495.786,177.5Z" transform="translate(-206.834 -100.844)" fill="#3f3d56"/><rect width="94.794" height="50.528" transform="translate(179.475 178.143)" fill="#ccc"/><rect width="50.528" height="48.8" transform="translate(109.297 179.871)" fill="#ccc"/><rect width="26.128" height="45.777" transform="translate(290.68 182.894)" fill="#3f3d56"/><rect width="492" height="1" transform="translate(-0.49 228.353)" fill="#3f3d56"/><rect width="2.537" height="100.215" transform="translate(77.946 128.289)" fill="#3f3d56"/><path d="M206.283,427.725c.162,35.043-24.493,63.565-24.493,63.565S156.874,463,156.713,427.954s24.493-63.565,24.493-63.565S206.122,392.682,206.283,427.725Z" transform="translate(-102.385 -286.665)" fill="#e36b0a"/><path d="M206.283,427.725c.162,35.043-24.493,63.565-24.493,63.565S156.874,463,156.713,427.954s24.493-63.565,24.493-63.565S206.122,392.682,206.283,427.725Z" transform="translate(-102.385 -286.665)" opacity="0.1"/><rect width="2.537" height="100.215" transform="translate(44.964 128.289)" fill="#3f3d56"/><path d="M129.911,427.725c.162,35.043-24.493,63.565-24.493,63.565S80.5,463,80.34,427.954s24.493-63.565,24.493-63.565S129.75,392.682,129.911,427.725Z" transform="translate(-58.996 -286.665)" fill="#e36b0a"/><rect width="12.74" height="11.876" transform="translate(345.094 185.485)" fill="#3f3d56"/><rect width="12.74" height="11.876" transform="translate(362.153 185.485)" fill="#3f3d56"/><rect width="12.74" height="12.308" transform="translate(345.094 201.68)" fill="#3f3d56"/><rect width="12.74" height="12.308" transform="translate(362.153 201.68)" fill="#3f3d56"/><rect width="9.97" height="9.294" transform="translate(179.907 119.917)" fill="#3f3d56"/><rect width="9.97" height="9.294" transform="translate(193.257 119.917)" fill="#3f3d56"/><rect width="9.97" height="9.632" transform="translate(179.907 132.591)" fill="#3f3d56"/><rect width="9.97" height="9.632" transform="translate(193.257 132.591)" fill="#3f3d56"/><rect width="9.97" height="9.294" transform="translate(254.619 119.917)" fill="#3f3d56"/><rect width="9.97" height="9.294" transform="translate(267.969 119.917)" fill="#3f3d56"/><rect width="9.97" height="9.632" transform="translate(254.619 132.591)" fill="#3f3d56"/><rect width="9.97" height="9.632" transform="translate(267.969 132.591)" fill="#3f3d56"/><rect width="9.97" height="9.294" transform="translate(217.479 119.917)" fill="#3f3d56"/><rect width="9.97" height="9.294" transform="translate(230.829 119.917)" fill="#3f3d56"/><rect width="9.97" height="9.632" transform="translate(217.479 132.591)" fill="#3f3d56"/><rect width="9.97" height="9.632" transform="translate(230.829 132.591)" fill="#3f3d56"/><rect width="6.278" height="5.852" transform="translate(296.51 187.532)" fill="#f2f2f2"/><rect width="6.278" height="5.852" transform="translate(304.916 187.532)" fill="#f2f2f2"/><rect width="6.278" height="6.065" transform="translate(296.51 195.512)" fill="#f2f2f2"/><rect width="6.278" height="6.065" transform="translate(304.916 195.512)" fill="#f2f2f2"/><ellipse cx="2" cy="1.5" rx="2" ry="1.5" transform="translate(311.51 207.353)" fill="#f2f2f2"/><rect width="95" height="1" transform="translate(179.51 183.353)" fill="#f2f2f2"/><rect width="95" height="1" transform="translate(179.51 187.353)" fill="#f2f2f2"/><rect width="95" height="1" transform="translate(179.51 191.353)" fill="#f2f2f2"/><rect width="95" height="1" transform="translate(179.51 195.353)" fill="#f2f2f2"/><rect width="95" transform="translate(179.51 199.353)" fill="#f2f2f2"/><rect width="95" transform="translate(179.51 203.353)" fill="#f2f2f2"/><rect width="95" height="2" transform="translate(179.51 206.353)" fill="#f2f2f2"/><rect width="95" height="1" transform="translate(179.51 210.353)" fill="#f2f2f2"/><rect width="95" height="1" transform="translate(179.51 214.353)" fill="#f2f2f2"/><rect width="95" height="1" transform="translate(179.51 218.353)" fill="#f2f2f2"/><rect width="95" height="1" transform="translate(179.51 222.353)" fill="#f2f2f2"/><rect width="50.528" height="0.864" transform="translate(109.297 183.542)" fill="#f2f2f2"/><rect width="50.528" height="0.864" transform="translate(109.297 187.428)" fill="#f2f2f2"/><rect width="50.528" height="0.864" transform="translate(109.297 191.315)" fill="#f2f2f2"/><rect width="50.528" height="0.864" transform="translate(109.297 195.202)" fill="#f2f2f2"/><rect width="50.528" height="0.864" transform="translate(109.297 199.089)" fill="#f2f2f2"/><rect width="50.528" height="0.864" transform="translate(109.297 202.975)" fill="#f2f2f2"/><rect width="50.528" height="0.864" transform="translate(109.297 206.862)" fill="#f2f2f2"/><rect width="50.528" height="0.864" transform="translate(109.297 210.749)" fill="#f2f2f2"/><rect width="50.528" height="0.864" transform="translate(109.297 214.636)" fill="#f2f2f2"/><rect width="50.528" height="0.864" transform="translate(109.297 218.523)" fill="#f2f2f2"/><rect width="50.528" height="0.864" transform="translate(109.297 222.409)" fill="#f2f2f2"/><ellipse cx="35.5" cy="35" rx="35.5" ry="35" transform="translate(343.51 69.353)" fill="#e36b0a"/><path d="M870.05,209.57H851.48V191h-6.91v18.57H826v6.91h18.57v18.57h6.91V216.48h18.57Z" transform="translate(-469.029 -108.514)" fill="#fff"/><ellipse cx="11.228" cy="11.228" rx="11.228" ry="11.228" transform="translate(410.306 21.377)" fill="#a0616a"/><path d="M998,273.235s1.727,8.637,1.727,9.933,7.342,5.182,7.342,5.182l8.205-10.365s-5.182-7.342-5.182-9.069Z" transform="translate(-580.353 -232.424)" fill="#a0616a"/><path d="M990.843,293.021s-3.764-1-4.905-2.66c0,0-11.937,11.729-11.937,13.889l9.5,16.843s0,6.046.864,6.478,0,0,0,1.727-2.591,12.956-1.728,14.683,1.728.432.864,3.023-3.023,16.411-3.023,16.411,7.774-2.591,19,1.727,24.616-1.727,24.616-1.727-3.455-7.774-2.591-10.365-2.159-7.342-2.159-7.342l-2.159-39.731s3.023-17.706.864-18.57l-4.319-1.727-13.83-1.7S996.457,292.59,990.843,293.021Z" transform="translate(-566.717 -240.982)" fill="#d0cde1"/><path d="M977.056,323.916l-4.319,3.023s-2.159,6.478,0,9.5a22.148,22.148,0,0,1,3.023,7.342l8.637-.864Z" transform="translate(-565.455 -263.671)" fill="#d0cde1"/><path d="M1002.162,332.916a33.03,33.03,0,0,0-1.979,12.793,6.743,6.743,0,0,0,1.115,3.186h0L970.66,363.44s-13.844,1.433-10.389,7.479,15.979-3.023,15.979-3.023,32.822-4.75,35.413-9.5,4.319-24.616,4.319-24.616Z" transform="translate(-558.603 -268.784)" fill="#a0616a"/><path d="M982.183,223.335l-1.948-.78s4.073-4.484,9.739-4.094l-1.594-1.754s3.9-1.559,7.437,2.534a34.566,34.566,0,0,1,5.358,7.531h2.086l-.871,1.917,3.047,1.917-3.127-.344a10.608,10.608,0,0,1-.3,4.965l.084,1.515s-3.625-5.609-3.625-6.389V232.3s-1.948-1.754-1.948-2.924l-1.062,1.365-.531-2.144-6.551,2.144,1.062-1.754-4.072.585,1.594-2.144s-4.6,2.534-4.781,4.678-2.479,4.873-2.479,4.873l-1.062-1.949S977.048,226.259,982.183,223.335Z" transform="translate(-569.222 -202.596)" fill="#2f2e41"/><path d="M1057.023,291.916h6.478s4.75.864,6.046,9.5,2.591,10.8,1.3,10.8S1054,311.782,1054,311.35,1057.023,291.916,1057.023,291.916Z" transform="translate(-612.168 -245.491)" fill="#d0cde1"/></g></svg>