<svg xmlns="http://www.w3.org/2000/svg" xmlns:xlink="http://www.w3.org/1999/xlink" width="425.269" height="324.425" viewBox="0 0 425.269 324.425"><defs><linearGradient id="a" x1="0.5" y1="1" x2="0.5" gradientUnits="objectBoundingBox"><stop offset="0" stop-color="gray" stop-opacity="0.251"/><stop offset="0.54" stop-color="gray" stop-opacity="0.122"/><stop offset="1" stop-color="gray" stop-opacity="0.102"/></linearGradient></defs><path d="M476.207,260.208c-2.517,6.066-5.819,11.881-10.44,16.341-5.63,5.434-12.623,8.4-20.11,9.816a60.575,60.575,0,0,1-6.674.864,97.017,97.017,0,0,1-17.786-.479,210.289,210.289,0,0,1-41.893-8.964q-3.357-1.084-6.675-2.281-5.006-1.8-9.922-3.852c-13.349-5.579-27.15-12.694-41.351-10.487-6.883,1.072-13.349,4.319-20.248,5.285a36.2,36.2,0,0,1-14.464-1.037,49.705,49.705,0,0,1-6.675-2.3,75.954,75.954,0,0,1-13.867-7.833c-10.4-7.271-19.741-16.286-30.7-22.584-12.077-6.946-25.446-10.247-39.066-12.709q-3.325-.6-6.675-1.146c-6.3-1.04-12.619-2-18.846-3.141-6-1.107-12.1-2.462-17.326-5.791a43.316,43.316,0,0,1-9.733-9.132,108.947,108.947,0,0,1-13.553-20.9q-.294-.589-.577-1.178a144.87,144.87,0,0,1-12.026-38.084c-.071-.393-.137-.785-.2-1.178a215.069,215.069,0,0,1-2.807-40.048l.024-1.178c.153-6.631.565-13.235,1.178-19.745.44-4.578,1.029-9.329,3.4-13.176s6.231-6.321,10.094-8.379c17-9.058,33.3-11.578,51.587-7.189,2.937.7,5.862,1.461,8.787,2.246,2.226.6,4.452,1.213,6.675,1.834,15.367,4.276,30.68,8.834,46.573,10.2q2.3.2,4.605.306,4.558.212,9.117.094A157.517,157.517,0,0,0,279.971,62q3.345-.577,6.675-1.28c9.58-2,19.074-4.664,28.414-7.613q2.862-.9,5.717-1.837c4.287-1.4,8.575-2.831,12.87-4.221,12.823-4.154,25.725-7.951,38.983-9.482q1.7-.192,3.408-.342c1.088-.094,2.179-.169,3.267-.224A111.1,111.1,0,0,1,438.983,51.03q3.4,1.892,6.675,4.02,4.543,2.956,8.807,6.36A70.745,70.745,0,0,1,469.9,77.725,59.042,59.042,0,0,1,478.084,98.2c.082.393.161.785.232,1.178,2.218,11.814,1.527,24.484-.962,36.322-.263,1.241-.542,2.485-.832,3.726-.09.393-.185.785-.279,1.178-2.685,11.194-6.117,22.356-5.222,33.8.114,1.441.294,2.87.53,4.284.067.393.133.785.208,1.178,1.751,9.337,5.732,18.194,8.12,27.44a84.539,84.539,0,0,1-3.671,52.9Z" transform="translate(-92.517 -36.848)" fill="#e36b0a" opacity="0.1"/><path d="M445.711,99.614h32.658c-.071-.393-.149-.785-.232-1.178H445.711V55.283q-3.274-2.128-6.675-4.02V98.436H379.358V37.23c-1.088.055-2.179.13-3.267.224s-2.273.212-3.408.342V98.436h-85.2l-.2-.224L333.7,47.277c-4.3,1.39-8.583,2.819-12.87,4.221L286.7,88.966V60.948q-3.333.7-6.675,1.28V90.242L256.687,64.623q-4.558.11-9.117-.094L278.258,98.2l-.2.224H196.388V54.022c-2.222-.62-4.448-1.237-6.675-1.834V98.436h-75.05l-.024,1.178h75.081v40.048H117.447c.067.393.133.785.2,1.178h72.07v38.084H129.677q.283.589.577,1.178h59.467v38.972q3.345.546,6.675,1.146V180.1h83.629v83.236a49.7,49.7,0,0,0,6.675,2.3V180.1h85.984v95.631q3.322,1.2,6.675,2.281V180.1h59.679V287.456a60.568,60.568,0,0,0,6.675-.864V180.1h26.1c-.075-.393-.141-.785-.208-1.178H445.691V140.839h30.585c.094-.393.188-.785.279-1.178H445.711Zm-6.675,0v40.048H379.358V99.614Zm-66.353,40.048H286.7V99.614h85.984ZM196.4,99.614h82.451l1.178,1.072v38.976H196.4Zm0,79.31V140.839h83.629v38.084Zm90.3,0V140.839h85.984v38.084Zm152.338,0H379.358V140.839h59.679Z" transform="translate(-92.571 -37.08)" fill="#e36b0a" opacity="0.1"/><path d="M832.738,122h-.518a1.272,1.272,0,0,0,.632-1.029h0c0-.813-.993-1.476-2.206-1.476H815.153c-1.213,0-2.21.664-2.21,1.476h0c0,.813,1,1.476,2.21,1.476h.518a1.268,1.268,0,0,0-.632,1.029c0,.691.722,1.272,1.688,1.429h-4.437c-1.217,0-2.211.664-2.211,1.476s.993,1.476,2.211,1.476h15.473c1.217,0,2.21-.667,2.21-1.476,0-.691-.726-1.276-1.692-1.433h4.456c1.213,0,2.207-.664,2.207-1.472S833.951,122,832.738,122Z" transform="translate(-514.965 -87.049)" fill="#e36b0a" opacity="0.1"/><path d="M405.578,157.771h-.518a1.284,1.284,0,0,0,.632-1.029h0c0-.809-.993-1.472-2.21-1.472H388.008c-1.217,0-2.21.664-2.21,1.472h0c0,.813.993,1.476,2.21,1.476h.514a1.28,1.28,0,0,0-.628,1.029c0,.691.722,1.276,1.688,1.433h-4.456c-1.213,0-2.207.664-2.207,1.472s.993,1.476,2.207,1.476h15.493c1.213,0,2.21-.664,2.21-1.476,0-.691-.726-1.272-1.692-1.429h4.456c1.213,0,2.207-.664,2.207-1.476S406.791,157.771,405.578,157.771Z" transform="translate(-255.518 -108.775)" fill="#e36b0a" opacity="0.1"/><path d="M893.2,310.825h-.518a1.284,1.284,0,0,0,.632-1.029h0c0-.813-.993-1.476-2.211-1.476H875.628c-1.217,0-2.21.664-2.21,1.476h0c0,.813.993,1.476,2.21,1.476h.514a1.28,1.28,0,0,0-.628,1.029c0,.691.722,1.272,1.688,1.429h-4.456c-1.213,0-2.207.664-2.207,1.476s.993,1.476,2.207,1.476h15.477c1.213,0,2.211-.664,2.211-1.476,0-.691-.726-1.276-1.692-1.433H893.2c1.213,0,2.207-.664,2.207-1.472S894.411,310.825,893.2,310.825Z" transform="translate(-551.687 -201.734)" fill="#e36b0a" opacity="0.1"/><ellipse cx="165.907" cy="18.316" rx="165.907" ry="18.316" transform="translate(40.448 267.656)" fill="#e36b0a" opacity="0.1"/><path d="M562.939,416.494v57.6a10.681,10.681,0,0,1-.393,2.894,10.86,10.86,0,0,1-10.467,7.97H503.394a10.86,10.86,0,0,1-10.864-10.864v-57.6a10.86,10.86,0,0,1,10.864-10.864h48.685a10.86,10.86,0,0,1,10.467,7.969A10.683,10.683,0,0,1,562.939,416.494Z" transform="translate(-322.093 -260.838)" fill="#e9ccdb"/><path d="M493.315,428.818v57.6a10.845,10.845,0,0,1-.393,2.9,10.843,10.843,0,0,1-.393-2.9v-57.6a10.846,10.846,0,0,1,.393-2.9A10.846,10.846,0,0,1,493.315,428.818Z" transform="translate(-322.093 -273.161)" opacity="0.1"/><rect width="85.329" height="79.31" rx="27.67" transform="translate(85.109 144.792)" fill="#e9ccdb"/><path d="M670.645,428.824v57.6a10.678,10.678,0,0,1-.393,2.894,10.837,10.837,0,0,1-.393-2.894v-57.6a10.837,10.837,0,0,1,.393-2.894A10.678,10.678,0,0,1,670.645,428.824Z" transform="translate(-429.799 -273.168)" opacity="0.1"/><rect width="85.333" height="79.31" rx="27.67" transform="translate(240.846 144.792)" fill="#e9ccdb"/><path d="M360.319,590.439H282.372l-.393-6.812c-.432-7.648,9.454-14,21.8-14h53.051c4.142,0,7.338,2.254,6.808,4.8Z" transform="translate(-194.2 -360.448)" opacity="0.1"/><path d="M360.319,592.439H282.372l-.393-6.812c-.432-7.648,9.454-14,21.8-14h53.051c4.142,0,7.338,2.254,6.808,4.8Z" transform="translate(-194.2 -361.663)" fill="#caa4bc"/><path d="M675.243,591.589H753.19l.393-6.812c.432-7.648-9.454-14-21.8-14H678.729c-4.138,0-7.338,2.254-6.808,4.8Z" transform="translate(-431.016 -361.146)" opacity="0.1"/><path d="M675.243,593.589H753.19l.393-6.812c.432-7.648-9.454-14-21.8-14H678.729c-4.138,0-7.338,2.254-6.808,4.8Z" transform="translate(-431.016 -362.361)" fill="#caa4bc"/><path d="M438.421,533.94h52.816a11.225,11.225,0,0,1,11.225,11.225v6.973H426.1v-5.889A12.316,12.316,0,0,1,438.421,533.94Z" transform="translate(-258.804 -324.306)" opacity="0.1"/><path d="M438.421,535.94h52.816a11.225,11.225,0,0,1,11.225,11.225v6.973H426.1v-5.889A12.317,12.317,0,0,1,438.421,535.94Z" transform="translate(-258.804 -325.521)" fill="#caa4bc"/><path d="M230.86,553.79h63.212a10.6,10.6,0,0,1,10.6,10.6v14.331H226.16V558.49a4.711,4.711,0,0,1,4.7-4.7Z" transform="translate(-137.364 -336.363)" fill="#e9ccdb"/><path d="M430.618,553.79h60.071a10.6,10.6,0,0,1,10.6,10.6v14.331H420.61V563.8A10.012,10.012,0,0,1,430.618,553.79Z" transform="translate(-255.469 -336.363)" opacity="0.1"/><path d="M434.618,553.79h60.071a10.6,10.6,0,0,1,10.6,10.6v14.331H424.61V563.8a10.012,10.012,0,0,1,10.008-10.012Z" transform="translate(-257.899 -336.363)" opacity="0.1"/><path d="M432.618,553.79h60.071a10.6,10.6,0,0,1,10.6,10.6v14.331H422.61V563.8A10.012,10.012,0,0,1,432.618,553.79Z" transform="translate(-256.684 -336.363)" fill="#e9ccdb"/><path d="M627.869,553.79h64.182a10.11,10.11,0,0,1,10.11,10.11v14.821h-78.5V558a4.209,4.209,0,0,1,4.209-4.209Z" transform="translate(-378.797 -336.363)" opacity="0.1"/><path d="M629.869,553.79h64.182a10.11,10.11,0,0,1,10.11,10.11v14.821h-78.5V558a4.209,4.209,0,0,1,4.209-4.209Z" transform="translate(-380.012 -336.363)" fill="#e9ccdb"/><path d="M265.057,738.63v10.7a5.4,5.4,0,0,1-5.4,5.4h-3.73a5.4,5.4,0,0,1-5.4-5.4v-10.7Z" transform="translate(-175.107 -463.095)" fill="#9c7aa5"/><path d="M894.527,738.63v10.7a5.4,5.4,0,0,1-5.4,5.4H885.4a5.4,5.4,0,0,1-5.4-5.4v-10.7Z" transform="translate(-557.433 -463.095)" fill="#9c7aa5"/><path d="M253.279,537.61a14.331,14.331,0,1,0-17.1,14.06V609.6h16.1V542.9A14.337,14.337,0,0,0,253.279,537.61Z" transform="translate(-159.368 -332.295)" fill="#e9ccdb"/><path d="M868.44,537.61a14.331,14.331,0,1,1,17.1,14.06V609.6h-16.1V542.9a14.337,14.337,0,0,1-1.005-5.289Z" transform="translate(-550.412 -332.295)" fill="#e9ccdb"/><path d="M253.279,537.61a14.331,14.331,0,1,0-17.1,14.06V609.6h16.1V542.9A14.337,14.337,0,0,0,253.279,537.61Z" transform="translate(-159.368 -332.295)" opacity="0.1"/><path d="M868.44,537.61a14.331,14.331,0,1,1,17.1,14.06V609.6h-16.1V542.9a14.337,14.337,0,0,1-1.005-5.289Z" transform="translate(-550.412 -332.295)" opacity="0.1"/><rect width="242.574" height="11.19" transform="translate(85.109 267.29)" fill="#9c7aa5"/><rect width="238.393" height="25.717" transform="translate(87.786 242.359)" opacity="0.1"/><rect width="238.393" height="25.717" transform="translate(87.786 241.574)" fill="#caa4bc"/><rect width="14.503" height="3.73" transform="translate(322.587 275.535)" opacity="0.1"/><path d="M877.47,540.606a14.331,14.331,0,1,1,17.091,14.06v57.928h-16.1v-66.7A14.26,14.26,0,0,1,877.47,540.606Z" transform="translate(-555.896 -334.113)" fill="#e9ccdb"/><rect width="14.323" height="3.73" transform="translate(75.423 275.535)" opacity="0.1"/><path d="M245.249,540.613a14.331,14.331,0,1,0-17.114,14.06V612.6h16.1V545.9a14.261,14.261,0,0,0,1.017-5.289Z" transform="translate(-154.491 -334.121)" fill="#e9ccdb"/><rect width="226.209" height="0.718" transform="translate(92.902 241.574)" opacity="0.1"/><ellipse cx="6.478" cy="6.478" rx="6.478" ry="6.478" transform="translate(68.945 199.563)" fill="#caa4bc"/><ellipse cx="6.478" cy="6.478" rx="6.478" ry="6.478" transform="translate(330.612 199.563)" fill="#caa4bc"/><path d="M312.912,468.543c-6.172-1.543-19.2-17.813-19.2-17.813-4.9-3.424-14.892-24.162-14.892-24.162s-3.793-1.786-7.134,6.247-22.772,14.456-28.591,15.355c-3.278.506-2.96,1.963-2.057,3.141a5.214,5.214,0,0,0,2.332,1.649c2.474.938,10.149,10.153,10.149,10.153,7.158,4.837,15.1,27.181,17.735,33.02,1.465,3.247,3.094,1.692,4.256-.33a30.782,30.782,0,0,1,9-9.855c9.988-7.024,20.7-9.937,21.425-9.949C306.858,475.976,319.084,470.086,312.912,468.543Z" transform="translate(-168.969 -273.452)" opacity="0.1"/><path d="M210.939,438.837a6.054,6.054,0,0,1-2.572-1.869c-1.033-1.323-1.472-2.964,1.963-3.534,6.062-1,26.094-8.17,29.054-17.22s7.067-7.024,7.067-7.024,11.967,23.408,17.37,27.291c0,0,14.865,18.387,21.473,20.149s-5.858,8.359-6.828,8.375c-.785,0-11.845,3.263-21.877,11.147a30.954,30.954,0,0,0-8.8,11.084c-1.084,2.277-2.693,4.024-4.464.361-3.184-6.592-13.11-31.8-20.986-37.3C222.341,450.3,213.609,439.882,210.939,438.837Z" transform="translate(-149.046 -262.883)" fill="#e36b0a"/><path d="M210.939,438.837a6.054,6.054,0,0,1-2.572-1.869c-1.033-1.323-1.472-2.964,1.963-3.534,6.062-1,26.094-8.17,29.054-17.22s7.067-7.024,7.067-7.024,11.967,23.408,17.37,27.291c0,0,14.865,18.387,21.473,20.149s-5.858,8.359-6.828,8.375c-.785,0-11.845,3.263-21.877,11.147a30.954,30.954,0,0,0-8.8,11.084c-1.084,2.277-2.693,4.024-4.464.361-3.184-6.592-13.11-31.8-20.986-37.3C222.341,450.3,213.609,439.882,210.939,438.837Z" transform="translate(-149.046 -262.883)" opacity="0.1"/><path d="M222.166,440.771a5.422,5.422,0,0,1-2.4-1.669c-.954-1.178-1.343-2.686,1.889-3.251,5.728-1.005,24.735-7.852,27.656-16.18s6.785-6.525,6.785-6.525,10.931,21.2,15.964,24.68c0,0,13.742,16.576,19.941,18.088s-5.65,7.723-6.565,7.758c-.726.024-11.217,3.141-20.809,10.518a29.776,29.776,0,0,0-8.453,10.255c-1.056,2.1-2.6,3.718-4.217.393-2.9-5.98-11.877-28.881-19.219-33.766C232.743,451.073,224.667,441.7,222.166,440.771Z" transform="translate(-156.013 -265.303)" fill="#e36b0a"/><path d="M282.723,498.112s-2.057,1.936,7.782-1.775S282.723,498.112,282.723,498.112Z" transform="translate(-194.552 -315.149)" opacity="0.1"/><path d="M303.57,522.635s1.5.216,7.142-2.089S303.57,522.635,303.57,522.635Z" transform="translate(-207.323 -330.229)" opacity="0.1"/><path d="M302.31,566.442s1.4,0,7.032-2.332S302.31,566.442,302.31,566.442Z" transform="translate(-206.557 -356.698)" opacity="0.1"/><path d="M801.23,461.544v7.491c-1.618,3.345-3.2,7.617-3.2,7.617-4.711,6.133-3.965,26.565-4.276,32.081-.173,3.062-2.179,2.332-3.926,1.076a31.053,31.053,0,0,0-11.52-5.077,70.931,70.931,0,0,0-22.662-1.237c-.832.275-13.836-.6-8.858-3.785s10.931-20.338,10.931-20.338c3.184-4.287,4.845-24.076,4.845-24.076s2.748-2.627,8.579,2.748C776.675,463.2,794.751,462.573,801.23,461.544Z" transform="translate(-475.836 -290.615)" opacity="0.1"/><path d="M808.548,462.323a4.48,4.48,0,0,0,1.508-2.057c.393-1.225.173-2.493-2.941-1.869-5.516,1.107-25.163,2.077-30.974-3.318s-8.579-2.768-8.579-2.768-1.661,19.784-4.845,24.076c0,0-5.948,17.154-10.931,20.338s8.025,4.06,8.858,3.781a70.989,70.989,0,0,1,22.662,1.241,31.108,31.108,0,0,1,11.52,5.073c1.747,1.256,3.753,1.991,3.926-1.076.31-5.5-.428-25.945,4.276-32.077C803.028,473.666,806.663,463.854,808.548,462.323Z" transform="translate(-478.871 -288.802)" fill="#e36b0a"/><path d="M808.548,462.323a4.48,4.48,0,0,0,1.508-2.057c.393-1.225.173-2.493-2.941-1.869-5.516,1.107-25.163,2.077-30.974-3.318s-8.579-2.768-8.579-2.768-1.661,19.784-4.845,24.076c0,0-5.948,17.154-10.931,20.338s8.025,4.06,8.858,3.781a70.989,70.989,0,0,1,22.662,1.241,31.108,31.108,0,0,1,11.52,5.073c1.747,1.256,3.753,1.991,3.926-1.076.31-5.5-.428-25.945,4.276-32.077C803.028,473.666,806.663,463.854,808.548,462.323Z" transform="translate(-478.871 -288.802)" opacity="0.1"/><path d="M809.456,465.422a4.255,4.255,0,0,0,1.429-1.963c.393-1.178.165-2.356-2.788-1.771-5.242,1.048-23.9,1.963-29.411-3.141s-8.147-2.627-8.147-2.627-1.57,18.783-4.6,22.855c0,0-5.646,16.29-10.377,19.313s7.621,3.852,8.406,3.589a67.818,67.818,0,0,1,21.52,1.178,29.422,29.422,0,0,1,10.935,4.818c1.661,1.178,3.565,1.888,3.73-1.021.295-5.238-.393-24.633,4.06-30.46C804.215,476.187,807.666,466.874,809.456,465.422Z" transform="translate(-481.2 -291.018)" fill="#e36b0a"/><path d="M844.191,508.63a62.448,62.448,0,0,1-7.951,3.043C829.664,513.93,843.111,510.789,844.191,508.63Z" transform="translate(-529.759 -323.398)" opacity="0.1"/><path d="M847.385,526.28s-4.123,3.377-6.184,3.671S846.207,529.578,847.385,526.28Z" transform="translate(-533.64 -334.118)" opacity="0.1"/><path d="M855.734,566s-4.122,3.377-6.184,3.671S854.557,569.306,855.734,566Z" transform="translate(-538.712 -358.243)" opacity="0.1"/><path d="M398.554,414.293a8.9,8.9,0,0,1-1.728-.247c-.039-.185-.353-.31-1.017-.338h-.134a13.993,13.993,0,0,1-5.348-3.636c-1.892-2.081-7.248-4.684-7.248-4.684s-3.785-3.192-6.282-3.451-9.4-7.224-15.273-13.671a141.349,141.349,0,0,0-14.951-13.475l-3.852-4.3s-4.492-3.2-5.532-4.975c-.569-.962-2.356-1.457-4.185-1.629a14.108,14.108,0,0,0-6.714-.455c-.923.208-3.475,2.623-5.987,5.194l2.065-26.5a1.629,1.629,0,0,0-1.139-1.68l-6.949,3.388a1.571,1.571,0,0,0-.883,1.311L311.533,373.6l-8.206,6a6.223,6.223,0,0,0-1.256-2.748c-4.6-6-11.755,5.383-14.421,10.145a1.547,1.547,0,0,0-.361.067.95.95,0,0,1-.24.369,34.038,34.038,0,0,1-5.748-3.545,1.892,1.892,0,0,1-.31-.463,16.575,16.575,0,0,0-2.827-3.589c-2.709-3.051-6.749-7.138-7.326-7.4-.306-.134-1.755-1.245-3.553-2.654a18.355,18.355,0,0,0-.919-1.739,6.439,6.439,0,0,0-4.99-2.917c-1.413-1.1-2.493-1.92-2.78-2.061-.978-.487-3.231-4-4.319-6.251s-8.991-2.536-8.991-2.536a18.426,18.426,0,0,1,2.081-8.873c.082-.157.161-.31.243-.459a14.3,14.3,0,0,0,9.521-18.406c1.013-.357,2.25-.2,3.314-.573a4.255,4.255,0,0,0,2.945-3.141,4.6,4.6,0,0,0-.66-2.846,9.424,9.424,0,0,0-1.8-2.281,18.5,18.5,0,0,0-7.46-4.225,28.779,28.779,0,0,0-10.746-1.885,13.637,13.637,0,0,0-9.713,4.393,8.017,8.017,0,0,1-1.464,1.539,4.835,4.835,0,0,1-2.933.628c-3.353-.122-6.855-1.445-9.949-.149-3.718,1.57-5.018,6.1-5.5,10.094-.5,4.111-.62,8.292-1.708,12.285s-3.329,7.9-6.973,9.878a35.747,35.747,0,0,0-3.227,1.665,3.817,3.817,0,0,0-1.857,2.953c0,1.649,1.48,2.862,2.254,4.319.393.742.62,1.59,1.009,2.32h0c.039.075.079.145.122.216l.024.039c.035.055.071.11.11.165a.277.277,0,0,0,.039.055l.11.149a.669.669,0,0,1,.043.055c.055.063.11.126.169.185a2.666,2.666,0,0,0,.216.192,2.043,2.043,0,0,1,.177.2c1.684,1.7,4.676.738,6.836,1.771a4.734,4.734,0,0,1,1.127.785c.722.785,1.3,1.755,1.963,2.627l.039.047.2.259.106.122c.047.059.1.118.149.173s.181.2.271.287l.177.161c.071.079.141.157.216.232,1.775,1.767,4.4,2.383,6.9,2.556a8.911,8.911,0,0,0,4.056-.467,5.45,5.45,0,0,0,1.57-1.021,15.584,15.584,0,0,0,2.356,1.523c2.065,1.351,4.354,2.611,6.514,4.044,2.25,2.14,4.975,5.175,5.01,7.385.051,2.933,4.083,8.693,5.889,11.119.09.483.13.758.13.758l8.288,12.207s.62,1.9,3.856,2.01c-.6,3.675-.393,10.138,2.477,10.813,3.329.785,8.748.13,9.533,1.107s13.706-.522,13.706-.522,7.181-1.625,11.947-.192a13.278,13.278,0,0,0,8.94-.652s5.151-.487,5.819-2.5a1.547,1.547,0,0,0,.255-.624,2.722,2.722,0,0,1,.173-.64c.518-.844,1.323-1.091,1.021-1.28.393-.338.475-.416-.738-.62a6.675,6.675,0,0,0-2.415.082q.436-.44.86-.931a4.9,4.9,0,0,0,.542,0c1.8.1,1.676-.679,3.361-1.1a51.459,51.459,0,0,1,6.463-.978,10.369,10.369,0,0,0,6.282-3.141c1.091-1.386,5.677-.589,6.949-2.933,1.091-2-2.768-3.722-4.825-3.565a2.422,2.422,0,0,0-1.441.247c-1.209.785-5.548,1.146-7.036,1.241-.326-.118-1.637-.569-3.18-.962,1.335-2.187,3.2-5.167,4.9-7.57a35.064,35.064,0,0,1,4.9-5.925,10.931,10.931,0,0,1,2.356-2.689c2.3,5.819,15.85,15.56,22.38,16.686,7.181,1.237,14.233,7.095,14.233,7.095a26.1,26.1,0,0,0-.652,3.926c0,.526,1.3.785,2.941.915,1.1.825,6.435.734,8.481.393,2.285-.393,8.748,1.237,14.036,1.57S401.75,414.423,398.554,414.293Z" transform="translate(-144.052 -203.701)" fill="url(#a)"/><path d="M373.651,459.9l-.491,6.235,3.027,6.565,4.28,3.769,4.656,2.748,4.319,3.008,4.319-3.879s-6.325-4.06-6.891-5.438-3.408-4.17-3.408-4.17l-4.013-3.879-3.259-2.972Z" transform="translate(-249.59 -293.8)" fill="#fd6f8d"/><path d="M373.651,459.9l-.491,6.235,3.027,6.565,4.28,3.769,4.656,2.748,4.319,3.008,4.319-3.879s-6.325-4.06-6.891-5.438-3.408-4.17-3.408-4.17l-4.013-3.879-3.259-2.972Z" transform="translate(-249.59 -293.8)" opacity="0.1"/><path d="M294.9,382.506a17.023,17.023,0,0,0-1.382,12.7c2.8,9.423-17.747-3.761-17.747-3.761s4.429-6.612,5.724-12.32a9.141,9.141,0,0,0,0-5.014c-2.038-5.736,16.188,4.2,16.188,4.2a19.58,19.58,0,0,0-2.784,4.189Z" transform="translate(-190.437 -240.612)" fill="#ffbec5"/><path d="M317.84,420.37s7.731.287,8.783,2.485,3.247,5.642,4.2,6.121,11.088,8.795,11.948,9.176,9.56,9.462,9.56,10.42,8.987,6.5,14.723,7.362,14.527,11.186,17.111,10.8,7.852,1.531,7.852,1.531,5.929-.287,7.362-1.245,6.785.958,5.544,3.251-5.736,1.531-6.788,2.87a10.078,10.078,0,0,1-6.117,3.059,49.057,49.057,0,0,0-6.309.954c-1.912.479-1.433,1.433-4.319.958s-14.052-20.365-14.052-20.365l-12.426-5.638s-4.684-3.824-5.069-5.069-9.368-9.749-9.368-9.749l-11.759-8.606Z" transform="translate(-215.99 -269.791)" opacity="0.1"/><path d="M319.3,420.37s7.731.287,8.783,2.485,3.251,5.642,4.2,6.121,11.088,8.795,11.951,9.176,9.556,9.462,9.556,10.42,8.987,6.5,14.723,7.362,14.527,11.186,17.11,10.8,7.852,1.531,7.852,1.531,5.929-.287,7.362-1.245,6.788.958,5.544,3.251-5.736,1.531-6.788,2.87a10.078,10.078,0,0,1-6.117,3.059,49.155,49.155,0,0,0-6.321.954c-1.908.479-1.433,1.433-4.319.958s-14.052-20.365-14.052-20.365l-12.426-5.638s-4.684-3.824-5.069-5.069-9.341-9.749-9.341-9.749l-11.779-8.606Z" transform="translate(-216.877 -269.791)" fill="#fd6f8d"/><path d="M421.85,476.637s11.6-10.263,12.171-11.025c.283-.393,3.954-3.161,7.589-5.889a103.353,103.353,0,0,0,12.662-11.166c2.619-2.717,5.422-5.43,6.388-5.646,1.963-.448,6.946-.255,7.966,1.464s5.418,4.845,5.418,4.845l3.761,4.2a138.546,138.546,0,0,1,14.6,13.192c5.736,6.309,12.489,13.129,14.92,13.384s6.117,3.377,6.117,3.377,5.226,2.552,7.067,4.59a12.325,12.325,0,0,0,8.029,4.142c3.121.126-1.657,2.552-6.82,2.23s-11.469-1.912-13.7-1.527-8.473.444-8.473-.7a25.4,25.4,0,0,1,.636-3.824s-6.883-5.721-13.879-6.93-22.321-12.619-22.2-17.907c0,0-2.163-.192-4.653,3.632a34.348,34.348,0,0,0-4.778,5.8c-3,4.268-6.565,10.385-6.565,10.385s-5.544,11.209-10,11.119-9.242-.6-9.242-.6l-5.929-4.2-.393-5.1Z" transform="translate(-279.163 -283.356)" fill="#ffbec5"/><path d="M421.85,476.637s11.6-10.263,12.171-11.025c.283-.393,3.954-3.161,7.589-5.889a103.353,103.353,0,0,0,12.662-11.166c2.619-2.717,5.422-5.43,6.388-5.646,1.963-.448,6.946-.255,7.966,1.464s5.418,4.845,5.418,4.845l3.761,4.2a138.546,138.546,0,0,1,14.6,13.192c5.736,6.309,12.489,13.129,14.92,13.384s6.117,3.377,6.117,3.377,5.226,2.552,7.067,4.59a12.325,12.325,0,0,0,8.029,4.142c3.121.126-1.657,2.552-6.82,2.23s-11.469-1.912-13.7-1.527-8.473.444-8.473-.7a25.4,25.4,0,0,1,.636-3.824s-6.883-5.721-13.879-6.93-22.321-12.619-22.2-17.907c0,0-2.163-.192-4.653,3.632a34.348,34.348,0,0,0-4.778,5.8c-3,4.268-6.565,10.385-6.565,10.385s-5.544,11.209-10,11.119-9.242-.6-9.242-.6l-5.929-4.2-.393-5.1Z" transform="translate(-279.163 -283.356)" opacity="0.05"/><path d="M428.67,478.115s11.6-10.259,12.171-11.025,14.975-11.347,14.975-11.347,9.686-10.9,11.665-11.343,6.945-.255,7.966,1.465,5.414,4.845,5.414,4.845l3.761,4.2a138.7,138.7,0,0,1,14.594,13.192c5.736,6.309,12.493,13.129,14.92,13.384s6.117,3.38,6.117,3.38,5.226,2.548,7.067,4.586a12.325,12.325,0,0,0,8.029,4.142c3.121.126-1.657,2.552-6.82,2.23s-11.472-1.908-13.7-1.527-8.469.463-8.469-.715a24.515,24.515,0,0,1,.64-3.824s-6.883-5.732-13.895-6.946-22.293-12.607-22.179-17.892c0,0-2.167-.192-4.653,3.632a34.344,34.344,0,0,0-4.778,5.8c-3,4.268-6.565,10.389-6.565,10.389s-5.544,11.2-10.008,11.115-9.238-.6-9.238-.6l-5.929-4.205-.393-5.1Z" transform="translate(-283.305 -284.261)" fill="#ffbec5"/><path d="M519.286,544.9c-.314.133-.62.294-.923.455L516.4,546.4a19.364,19.364,0,0,0,5.175.153c.958-.1,2.3-.915,1.213-1.877C521.92,543.922,520.169,544.511,519.286,544.9Z" transform="translate(-336.591 -345.07)" opacity="0.1"/><path d="M498.882,548.884a4.01,4.01,0,0,1,4.166.593l1.7,1.229a21.664,21.664,0,0,1-4.5.824,1.755,1.755,0,0,1-.609-.024,1.837,1.837,0,0,1-.695-.44C497.614,549.96,496.715,549.316,498.882,548.884Z" transform="translate(-325.158 -347.699)" opacity="0.1"/><path d="M306.3,378.317a19.58,19.58,0,0,0-2.792,4.189,14.052,14.052,0,0,1-13.4-3.38,9.142,9.142,0,0,0,0-5.014C288.076,368.376,306.3,378.317,306.3,378.317Z" transform="translate(-199.049 -240.612)" opacity="0.1"/><ellipse cx="14.021" cy="14.021" rx="14.021" ry="14.021" transform="translate(86.719 113.971)" fill="#ffbec5"/><path d="M259.72,383.53l-.75,1.209,9.1,9.882,4.28,2.992,2.474-3.318Z" transform="translate(-157.293 -232.951)" fill="#504f88"/><path d="M355,447.326s4.488-.565,6.561,2.874a15.949,15.949,0,0,1,2.262,6.533s2.069,1.657,1.881,2.583a2.579,2.579,0,0,1-1.021,1.464s-4.017-2.293-4.048-2.391-3.09-3.475-3.09-3.475L355,452.242Z" transform="translate(-238.56 -286.142)" fill="#504f88"/><path d="M273.477,412.329s-7.008.557-7.711,5.45-.954,7.68,1.531,11.056,7.582,4.782,7.582,4.782,7.711,6.054,7.778,9.749,6.565,11.983,6.565,11.983,12.372,9.176,11.476,12.109-1.154,11.28,2.1,12.046,8.54.126,9.305,1.084,13.385-.51,13.385-.51,7.008-1.594,11.661-.192a12.933,12.933,0,0,0,8.732-.644s5.418-.51,5.736-2.678,2.748-2.1.448-2.485-3.761.828-5.418.255-3.059-2.485-6.883-2.422-4.711.13-5.1.063,2.422-2.23.891-5.732-4.456-6.239-4.327-8.2-5.736-8.669-5.736-8.669-2.8-4.075-6.439-5.414-10.452-9.564-10.452-9.564-5.838-9.089-9.007-9.576S286.034,415,286.034,415,277.227,411.367,273.477,412.329Z" transform="translate(-184.069 -264.808)" opacity="0.1"/><path d="M272.974,413.3s-7.012.569-7.723,5.45-.954,7.68,1.531,11.06,7.585,4.778,7.585,4.778,7.711,6.054,7.774,9.753,6.565,11.979,6.565,11.979,12.379,9.18,11.488,12.124-1.15,11.28,2.1,12.046,8.543.13,9.305,1.084,13.385-.51,13.385-.51,7.012-1.59,11.665-.188a12.905,12.905,0,0,0,8.724-.652s5.418-.51,5.736-2.674,2.748-2.1.448-2.485-3.761.828-5.418.251-3.059-2.485-6.883-2.419-4.711.126-5.1.063,2.419-2.23.891-5.736-4.46-6.247-4.319-8.221-5.736-8.669-5.736-8.669-2.8-4.075-6.435-5.414-10.452-9.56-10.452-9.56-5.842-9.089-9.007-9.58-13.557-9.8-13.557-9.8S276.72,412.338,272.974,413.3Z" transform="translate(-183.754 -265.398)" fill="#fd6f8d"/><path d="M400.864,550.291a2.7,2.7,0,0,0,.216,2.96,4.318,4.318,0,0,0,1.6.825,4.4,4.4,0,0,1,2.748,2.513,2.854,2.854,0,0,0,.393.954,1.861,1.861,0,0,0,.722.483,25.383,25.383,0,0,0,10.876,2.246,8.512,8.512,0,0,0-4.511-2.262,15.787,15.787,0,0,1-4.028-.679,8.082,8.082,0,0,1-2.9-2.686,3.76,3.76,0,0,1-.695-1.178c-.294-.946.177-1.995-.094-2.945-.157-.546-1.468-2.5-2.026-2.619C402.317,547.735,401.151,549.651,400.864,550.291Z" transform="translate(-266.214 -347.245)" opacity="0.1"/><path d="M527.39,489.366c.785-.255,4.778-1,3.573-2.517C529.863,485.46,528.242,489.072,527.39,489.366Z" transform="translate(-343.266 -309.976)" opacity="0.1"/><path d="M486.657,389.232l6.781-3.3-2.356,34.033-7.142-1.417,1.853-28.045A1.543,1.543,0,0,1,486.657,389.232Z" transform="translate(-316.875 -248.872)" fill="#cbe3ff"/><path d="M504.486,385.93h0l-2.356,34.033h0a1.033,1.033,0,0,0,1.029-.954l2.454-31.429a1.6,1.6,0,0,0-1.127-1.649Z" transform="translate(-327.923 -248.872)" fill="#c8bfca"/><path d="M449.7,468.068l-21.516,15.815a1.571,1.571,0,0,0-.251,2.328l2.1,2.4,27.224-20.346-6.627-.475A1.4,1.4,0,0,0,449.7,468.068Z" transform="translate(-282.613 -298.588)" fill="#f1f1f2"/><path d="M401.742,435.76,387.25,445.905l2.018,2.187,16.906-12.03Z" transform="translate(-235.207 -264.674)" fill="#7e7a98"/><path d="M433.94,489.346h0L461.157,469h0a2.152,2.152,0,0,1-.652,2.654L436.6,489.585A1.983,1.983,0,0,1,433.94,489.346Z" transform="translate(-286.506 -299.327)" fill="#c8bfca"/><path d="M422,485.965s9.5-19.2,15.112-11.853-8.606,15.312-8.606,15.312Z" transform="translate(-279.254 -301.415)" fill="#ffbec5"/><path d="M280.075,425.468a11.359,11.359,0,0,0-8.01,7.7c-.616,2.108-.573,4.421,1.516,5.968,4.782,3.534,11.535,6.023,14.66,11.822a40.942,40.942,0,0,1,4,12.077l8.1,11.947s1.229,3.824,9.423.832,12.674-4.527,12.674-4.527,6.353-3.408,9.191-4.653a5.146,5.146,0,0,1,1.264-.448c.954,0,7.786-5.846,8.1-6.651s-6.906-4.15-9.792-3.424c0,0-.412,1.728-5.83,1.472s-7.46,2.042-7.46,2.042a14.652,14.652,0,0,0-4.4-.864c-1.72.094-4.841-1.57-7.169-1.37a4.32,4.32,0,0,0-.349-4.319c-1.527-1.963-2.933-1.786-3.569-4.111-.365-1.327-1.57-5.548-2.548-8.94a24.605,24.605,0,0,0-7.318-11.7c-2.285-2.014-5-3.651-7.727-3.553A21.4,21.4,0,0,0,280.075,425.468Z" transform="translate(-187.977 -272.463)" opacity="0.1"/><path d="M280.49,423.062a11.386,11.386,0,0,0-8.021,7.7c-.612,2.108-.573,4.417,1.519,5.964,4.778,3.534,11.535,6.023,14.657,11.822a40.919,40.919,0,0,1,4.017,12.077l8.1,11.951s1.225,3.824,9.423.828,12.674-4.523,12.674-4.523,6.353-3.412,9.187-4.653a5.023,5.023,0,0,1,1.264-.448c.958,0,7.79-5.846,8.1-6.651s-6.9-4.15-9.788-3.424c0,0-.412,1.728-5.83,1.472s-7.46,2.038-7.46,2.038a14.7,14.7,0,0,0-4.4-.86c-1.72.094-4.845-1.57-7.169-1.37a4.315,4.315,0,0,0-.353-4.319c-1.531-1.963-2.929-1.782-3.569-4.111-.361-1.323-1.571-5.544-2.544-8.94a24.626,24.626,0,0,0-7.319-11.7c-2.289-2.014-5-3.651-7.727-3.534A21.269,21.269,0,0,0,280.49,423.062Z" transform="translate(-188.223 -271.014)" opacity="0.1"/><path d="M280.075,424.042a11.359,11.359,0,0,0-8.01,7.7c-.616,2.108-.573,4.421,1.516,5.968,4.782,3.534,11.535,6.023,14.66,11.822a40.942,40.942,0,0,1,4,12.077l8.1,11.947s1.229,3.824,9.423.828,12.674-4.523,12.674-4.523,6.353-3.412,9.191-4.653a4.974,4.974,0,0,1,1.264-.448c.954,0,7.786-5.846,8.1-6.651s-6.906-4.15-9.792-3.424c0,0-.412,1.728-5.83,1.472s-7.46,2.038-7.46,2.038a14.7,14.7,0,0,0-4.4-.86c-1.72.094-4.841-1.57-7.169-1.37a4.32,4.32,0,0,0-.349-4.319c-1.527-1.963-2.933-1.782-3.569-4.107-.365-1.327-1.57-5.548-2.548-8.944A24.594,24.594,0,0,0,292.56,426.9c-2.285-2.018-5-3.651-7.727-3.534A21.409,21.409,0,0,0,280.075,424.042Z" transform="translate(-187.977 -271.61)" fill="#fd6f8d"/><path d="M265.414,328.528a4.166,4.166,0,0,0,2.878-3.078,4.531,4.531,0,0,0-.656-2.8c-1.743-3.141-5.257-4.814-8.638-5.984a27.622,27.622,0,0,0-10.491-1.845,13.294,13.294,0,0,0-9.494,4.319,7.784,7.784,0,0,1-1.429,1.508,4.726,4.726,0,0,1-2.862.616c-3.274-.122-6.694-1.417-9.713-.145-3.628,1.523-4.9,5.972-5.371,9.882-.487,4.02-.6,8.116-1.669,12.026s-3.247,7.731-6.8,9.67a33.417,33.417,0,0,0-3.141,1.629,3.769,3.769,0,0,0-1.814,2.894c0,1.614,1.445,2.8,2.2,4.225.55,1.04.762,2.285,1.59,3.117,1.645,1.665,4.562.722,6.675,1.735,1.877.9,2.686,3.114,4.162,4.586,1.735,1.731,4.3,2.336,6.737,2.5a8.641,8.641,0,0,0,3.958-.455c2.458-1.04,3.761-3.848,3.907-6.51s-.62-5.277-1.178-7.888a4.378,4.378,0,0,1,0-2.6,3.927,3.927,0,0,1,1.315-1.571c2.9-2.293,7.036-3.341,8.7-6.643,1.119-2.218.785-4.853,1.052-7.322a3.866,3.866,0,0,1,.993-2.47,5.163,5.163,0,0,1,3.141-.883,15.823,15.823,0,0,0,8.834-3.836,38.9,38.9,0,0,0,2.972-3.5C262.312,328.575,264,329.011,265.414,328.528Z" transform="translate(-148.188 -205.668)" opacity="0.1"/><path d="M264.407,327.558a4.177,4.177,0,0,0,2.878-3.082,4.531,4.531,0,0,0-.66-2.792c-1.739-3.141-5.257-4.814-8.638-5.988a27.556,27.556,0,0,0-10.491-1.841,13.317,13.317,0,0,0-9.5,4.319,7.761,7.761,0,0,1-1.425,1.508,4.7,4.7,0,0,1-2.862.616c-3.274-.118-6.694-1.413-9.717-.145-3.628,1.527-4.9,5.976-5.371,9.882-.483,4.024-.6,8.116-1.665,12.026s-3.251,7.735-6.808,9.67a33.457,33.457,0,0,0-3.141,1.633,3.76,3.76,0,0,0-1.81,2.89c0,1.614,1.445,2.8,2.2,4.229.546,1.037.762,2.285,1.57,3.117,1.649,1.661,4.566.718,6.675,1.735,1.881.9,2.689,3.114,4.166,4.586,1.731,1.728,4.291,2.336,6.737,2.5a8.594,8.594,0,0,0,3.958-.455c2.458-1.04,3.761-3.844,3.907-6.506s-.624-5.281-1.178-7.888a4.612,4.612,0,0,1-.02-2.6,3.966,3.966,0,0,1,1.319-1.571c2.9-2.289,7.032-3.337,8.7-6.639,1.119-2.218.785-4.853,1.056-7.322a3.867,3.867,0,0,1,.989-2.47,5.152,5.152,0,0,1,3.141-.883,15.866,15.866,0,0,0,8.838-3.84,38.992,38.992,0,0,0,2.972-3.5C261.274,327.609,263.01,328.053,264.407,327.558Z" transform="translate(-147.575 -205.078)" fill="#ffe2da"/><g transform="translate(60.802 114.666)" opacity="0.1"><path d="M219.611,439.849c-1.963-.942-4.633-.188-6.321-1.429a3.631,3.631,0,0,0,.6.844c1.649,1.661,4.566.719,6.675,1.735a4.515,4.515,0,0,1,1.28.934A6.235,6.235,0,0,0,219.611,439.849Z" transform="translate(-213.29 -395.42)"/><path d="M287.756,330.84a9.03,9.03,0,0,0-1.445-1.94,8.246,8.246,0,0,1,.507.785,4.519,4.519,0,0,1,.656,2.792,4.177,4.177,0,0,1-2.878,3.082c-1.394.491-3.141.027-4.181,1.178a36.8,36.8,0,0,1-2.976,3.5,15.858,15.858,0,0,1-8.834,3.84,5.148,5.148,0,0,0-3.141.883,3.833,3.833,0,0,0-.989,2.47c-.283,2.466.063,5.1-1.056,7.322-1.665,3.3-5.8,4.346-8.7,6.639a3.961,3.961,0,0,0-1.315,1.571,4.543,4.543,0,0,0,.02,2.6c.558,2.607,1.327,5.222,1.178,7.888s-1.453,5.465-3.907,6.506a8.663,8.663,0,0,1-3.962.455c-2.442-.165-5-.785-6.737-2.5l-.024-.027a9.426,9.426,0,0,0,.982,1.178c1.731,1.728,4.291,2.336,6.737,2.5a8.594,8.594,0,0,0,3.958-.455c2.458-1.04,3.761-3.844,3.907-6.506s-.624-5.281-1.178-7.888a4.612,4.612,0,0,1-.02-2.6,3.966,3.966,0,0,1,1.319-1.57c2.9-2.289,7.032-3.337,8.7-6.639,1.119-2.218.785-4.853,1.056-7.322a3.849,3.849,0,0,1,.993-2.47,5.137,5.137,0,0,1,3.141-.883,15.866,15.866,0,0,0,8.838-3.84,39,39,0,0,0,2.972-3.5c1.048-1.143,2.776-.679,4.185-1.178a4.162,4.162,0,0,0,2.878-3.082A4.531,4.531,0,0,0,287.756,330.84Z" transform="translate(-229.495 -328.9)"/></g><ellipse cx="29.29" cy="4.496" rx="29.29" ry="4.496" transform="translate(366.69 299.792)" fill="#e36b0a" opacity="0.1"/><ellipse cx="16.255" cy="2.493" rx="16.255" ry="2.493" transform="translate(25.642 319.438)" fill="#e36b0a" opacity="0.1"/><path d="M139.952,594.9s2.8,3.663-1.292,9.191-7.46,10.208-6.109,13.648c0,0,6.18-10.271,11.205-10.412S145.5,601.076,139.952,594.9Z" transform="translate(-103.266 -375.796)" fill="#e36b0a"/><path d="M140.19,594.9a4.511,4.511,0,0,1,.573,1.146c4.9,5.764,7.519,11.143,2.8,11.28-4.393.126-9.662,7.978-10.927,9.961.043.153.094.306.149.452,0,0,6.18-10.271,11.205-10.412S145.738,601.076,140.19,594.9Z" transform="translate(-103.503 -375.796)" opacity="0.1"/><path d="M164.134,605.512c0,1.288-.145,2.332-.322,2.332s-.322-1.044-.322-2.332.181-.683.357-.683S164.134,604.22,164.134,605.512Z" transform="translate(-122.241 -381.739)" fill="#ffd037"/><path d="M166.263,609.343c-1.131.616-2.116.989-2.2.832s.762-.785,1.9-1.4.683-.165.785,0S167.4,608.727,166.263,609.343Z" transform="translate(-122.584 -384.032)" fill="#ffd037"/><path d="M104.452,594.9s-2.8,3.663,1.292,9.191,7.46,10.208,6.105,13.648c0,0-6.176-10.271-11.205-10.412S98.92,601.076,104.452,594.9Z" transform="translate(-82.563 -375.796)" fill="#e36b0a"/><path d="M104.452,594.9a4.511,4.511,0,0,0-.573,1.146c-4.9,5.764-7.519,11.143-2.8,11.28,4.393.126,9.662,7.978,10.923,9.961a3.575,3.575,0,0,1-.149.451s-6.176-10.271-11.205-10.412S98.92,601.076,104.452,594.9Z" transform="translate(-82.563 -375.796)" opacity="0.1"/><path d="M100.92,605.512c0,1.288.145,2.332.322,2.332s.322-1.044.322-2.332-.181-.683-.357-.683S100.92,604.22,100.92,605.512Z" transform="translate(-84.237 -381.739)" fill="#ffd037"/><path d="M95.281,609.343c1.131.616,2.116.989,2.2.832s-.762-.785-1.9-1.4-.683-.165-.785,0S94.147,608.727,95.281,609.343Z" transform="translate(-80.385 -384.032)" fill="#ffd037"/><ellipse cx="29.29" cy="4.496" rx="29.29" ry="4.496" transform="translate(0 260.977)" fill="#e36b0a" opacity="0.1"/><path d="M124.77,637.858,124.628,639l-.2,1.618-.082.671-.2,1.618-.082.675-.2,1.614-2.242,18.379c-.2,1.641-2.882,2.917-6.113,2.917H103.87c-3.235,0-5.889-1.276-6.109-2.917L95.515,645.2l-.2-1.614-.082-.675-.2-1.618-.079-.671-.2-1.618-.141-1.143c-.114-.927,1.335-1.712,3.168-1.712h23.816C123.427,636.146,124.884,636.931,124.77,637.858Z" transform="translate(-80.407 -400.851)" fill="#65617d"/><path d="M66.431,606.57l-.2,1.614H36.756l-.2-1.614Z" transform="translate(-22.206 -368.42)" fill="#9d9cb5"/><path d="M66.583,612.4l-.2,1.618H37.47l-.2-1.618Z" transform="translate(-22.637 -371.961)" fill="#9d9cb5"/><path d="M66.732,618.23l-.2,1.618H38.176l-.2-1.618Z" transform="translate(-23.068 -375.502)" fill="#9d9cb5"/></svg>