<svg xmlns="http://www.w3.org/2000/svg" xmlns:xlink="http://www.w3.org/1999/xlink" width="368.084" height="288" viewBox="0 0 368.084 288"><defs><linearGradient id="a" x1="0.5" y1="1" x2="0.5" gradientUnits="objectBoundingBox"><stop offset="0" stop-color="gray" stop-opacity="0.251"/><stop offset="0.54" stop-color="gray" stop-opacity="0.122"/><stop offset="1" stop-color="gray" stop-opacity="0.102"/></linearGradient></defs><path d="M227.213,39.785c10-8.917,25.691-10.722,40-10.037,44.9,2.233,85.439,23.91,120.5,48.433,12.695,8.875,25.191,18.443,33.43,30.669,16.785,24.886,11.8,59.361-11.523,79.862-7.937,6.974-17.556,12.332-27.431,17.062-17.559,8.427-36.506,15.192-56.435,17.128-14.209,1.37-28.6.257-42.726-1.658-39.472-5.354-78.218-17.193-110.7-37.444-14.243-8.882-27.675-19.926-33.539-34.3s-2.114-32.58,12.431-41.086c6.015-3.518,13.209-5.107,20.248-6.6,10.366-2.2,20.9-4.361,30.247-8.824,9.663-4.611,21.1-13.527,19.183-23.735C218.855,58.307,217.211,48.691,227.213,39.785Z" transform="translate(-110.996 -29.617)" fill="#e36b0a" opacity="0.1"/><ellipse cx="45.607" cy="14.278" rx="45.607" ry="14.278" transform="translate(112.285 255.965)" fill="#e36b0a" opacity="0.1"/><path d="M733.95,359.569l1.655,87.94,3.518.414-1.326-88.7Z" transform="translate(-482.535 -236.165)" fill="#f5c5cc"/><path d="M739.87,355.45l1.887,91.526,1.257-1.531-1.326-88.7Z" transform="translate(-486.427 -233.686)" fill="none"/><path d="M709.12,354.739l1.655,87.94,3.518.414-1.326-88.7Z" transform="translate(-466.21 -232.989)" fill="#f5c5cc"/><path d="M715.04,350.62l1.884,91.526,1.261-1.531-1.326-88.7Z" transform="translate(-470.102 -230.51)" fill="none"/><path d="M715.19,338.374l.171,95.914,3.6-.343-1.37-97.456Z" transform="translate(-470.201 -221.221)" fill="#cc929b"/><path d="M425.56,294.622l1.517,79.715,3.518.37L429.41,294.3Z" transform="translate(-279.784 -193.483)" fill="#f5c5cc"/><path d="M431.49,290.89l1.74,82.966,1.264-1.391-1.185-80.407Z" transform="translate(-283.683 -191.241)" fill="#cc929b"/><path d="M447.41,300.512l1.518,79.712,3.518.37-1.185-80.4Z" transform="translate(-294.149 -197.355)" fill="#f5c5cc"/><path d="M453.34,296.77l1.744,82.966,1.261-1.391-1.185-80.4Z" transform="translate(-298.048 -195.107)" fill="#cc929b"/><path d="M468.77,306.9l1.517,79.715,3.518.37-1.185-80.4Z" transform="translate(-308.192 -201.556)" fill="#f5c5cc"/><path d="M474.7,303.17l1.744,82.962,1.261-1.391-1.185-80.4Z" transform="translate(-312.091 -199.314)" fill="#cc929b"/><path d="M489.55,308.179l1.562,82.514,3.518.384L493.4,307.85Z" transform="translate(-321.854 -202.391)" fill="#f5c5cc"/><path d="M495.47,304.31l1.792,85.877,1.261-1.439-1.233-83.226Z" transform="translate(-325.746 -200.064)" fill="#cc929b"/><path d="M512.08,310.052l1.565,82.51,3.518.384L515.93,309.72Z" transform="translate(-336.667 -203.621)" fill="#f5c5cc"/><path d="M518.01,306.19l1.792,85.874,1.261-1.439L519.829,307.4Z" transform="translate(-340.565 -201.3)" fill="#cc929b"/><path d="M534.22,317.929l1.562,82.514,3.518.384L538.07,317.6Z" transform="translate(-351.223 -208.801)" fill="#f5c5cc"/><path d="M540.14,314.06l1.792,85.877,1.261-1.439-1.23-83.226Z" transform="translate(-355.115 -206.474)" fill="#cc929b"/><path d="M559.56,323.109l1.6,84.816,3.518.394L563.41,322.77Z" transform="translate(-367.882 -212.2)" fill="#f5c5cc"/><path d="M565.48,319.14l1.833,88.272,1.261-1.48L567.3,320.383Z" transform="translate(-371.774 -209.814)" fill="#cc929b"/><path d="M581.61,325.739l1.6,84.816,3.521.394L585.457,325.4Z" transform="translate(-382.379 -213.93)" fill="#f5c5cc"/><path d="M587.53,321.76l1.833,88.275,1.261-1.48-1.274-85.549Z" transform="translate(-386.271 -211.536)" fill="#cc929b"/><path d="M604.97,332.346l1.6,84.816,3.518.4L608.82,332.01Z" transform="translate(-397.737 -218.275)" fill="#f5c5cc"/><path d="M610.9,328.37l1.829,88.275,1.261-1.48-1.271-85.549Z" transform="translate(-401.636 -215.882)" fill="#cc929b"/><path d="M405.221,283.272l-.171-5.049,1.781-.973,127.751,26.2.236,6.409Z" transform="translate(-266.3 -182.273)" fill="#f5c5cc"/><path d="M407.337,277.25l128.22,26.181-.13,2.4L405.82,278.076" transform="translate(-266.806 -182.273)" fill="#cc929b"/><path d="M411.884,398.079l-3.6,1.309h-3.425l-.171-135.15,1.884-2.617,1.819-.534,2.292-.346Z" transform="translate(-266.063 -171.419)" fill="#f5c5cc"/><path d="M418.359,398.079l-3.6,1.309L414.54,264.5l.329-3.419,2.292-.346Z" transform="translate(-272.539 -171.419)" fill="#cc929b"/><path d="M630.35,339.669l1.6,84.812,3.518.4L634.2,339.33Z" transform="translate(-414.423 -223.088)" fill="#f5c5cc"/><path d="M636.27,335.69l1.833,88.275,1.261-1.48-1.271-85.549Z" transform="translate(-418.315 -220.695)" fill="#cc929b"/><path d="M655.92,343.573l1.634,86.628,3.518.4-1.305-87.374Z" transform="translate(-431.234 -225.652)" fill="#f5c5cc"/><path d="M661.84,339.51l1.863,90.159,1.261-1.511-1.305-87.374Z" transform="translate(-435.126 -223.206)" fill="none"/><path d="M682.25,348.189l1.655,87.94,3.518.414-1.322-88.7Z" transform="translate(-448.545 -228.683)" fill="#f5c5cc"/><path d="M688.17,344.07l1.887,91.53,1.257-1.535-1.322-88.7Z" transform="translate(-452.437 -226.204)" fill="#cc929b"/><path d="M272.958,398.946l-3.6.343-.168-94.609,0-1.305,2.4-1.884.038,2.624Z" transform="translate(-176.979 -198.21)" fill="#f5c5cc"/><path d="M309.958,383.446l-3.6.343-.168-93.064,0-2.85,2.4-1.884.055,3.823Z" transform="translate(-201.304 -188.019)" fill="#f5c5cc"/><path d="M370.958,358.446l-3.6.343L367.2,266.9l-.007-4.025,2.4-1.884.075,5.337Z" transform="translate(-241.409 -171.583)" fill="#f5c5cc"/><path d="M397.458,348.446l-3.6.343-.161-89.646-.01-6.269,2.4-1.884.123,8.708Z" transform="translate(-258.831 -165.009)" fill="#f5c5cc"/><path d="M291.458,395.946l-3.6.343-.171-95.229v-.685l2.4-1.884.024,1.805Z" transform="translate(-189.142 -196.238)" fill="#f5c5cc"/><path d="M345.458,370.946l-3.6.343-.168-93.434,0-2.48,2.4-1.884.048,3.515Z" transform="translate(-224.644 -179.801)" fill="#f5c5cc"/><path d="M327.958,375.946l-3.6.343-.164-92.869-.007-3.045,2.4-1.884.055,3.967Z" transform="translate(-213.138 -183.089)" fill="#f5c5cc"/><path d="M319.413,569.48l-.856,1.8a15,15,0,0,0-1.97,8.478c.257,5.138-3.586,18.755-3.586,18.755s3.511,1.627,6.166,1.456,8.392,2.655,8.392,2.655l11.893,3.689,24.064,5.652s14.13,7.879,17.984,7.879,19.183,5.224,19.183,5.224,20.724,4.539,22.351,6.252,8.488,4.018,9.173,4.111,11.133,1.113,11.133,1.113,12.161,2.826,13.873-.171a15.443,15.443,0,0,0,1.97-5.481s5.4,1.2,6.851-.6,1.542-5.652,3.254-5.481,8.735,2.312,9.506,1.542,4.881-9.848,7.793-8.478,7.964,3.511,7.964,3.511l-2.912-29.631-1.285-8.136s-46.673,19.012-48.3,19.012S319.413,569.48,319.413,569.48Z" transform="translate(-227.27 -384.55)" fill="#e36b0a"/><path d="M492.353,438.353l-.257,41.791-48.481,18.59-122.8-32.628s-8.307-11.732-.6-22.694c0,0-9.934-13.7,2.4-22.608l.3-.072L369.539,409.5l20.735,3.789,91.615,16.758S490.887,433.386,492.353,438.353Z" transform="translate(-229.524 -279.371)" fill="#e36b0a"/><path d="M401.082,417.286c-2.312,1.2-19.1,5.566-22.437,8.221s-26.462,4.717-26.462,4.717l-2.569.514s.171-1.713-10.02-6.68a12.994,12.994,0,0,1-4.234-3.326L381.985,409.5l20.735,3.789C402.747,414.929,402.466,416.567,401.082,417.286Z" transform="translate(-241.97 -279.371)" opacity="0.1"/><path d="M321.436,384s-.856,16.614,9.335,21.581,10.03,6.673,10.03,6.673l2.569-.514s-8.906-9.934-8.307-11.647-7.964-10.362-9.174-10.7S321.436,384,321.436,384Z" transform="translate(-232.804 -262.606)" fill="#e36b0a"/><path d="M321.966,384.73s-.856,16.614,9.335,21.581,10.02,6.68,10.02,6.68l2.569-.514s-8.906-9.934-8.307-11.647-7.975-10.362-9.163-10.7S321.966,384.73,321.966,384.73Z" transform="translate(-233.153 -263.086)" opacity="0.1"/><path d="M329,405.23s8.221,12.417,9.677,12.846S330.959,405.4,329,405.23Z" transform="translate(-237.789 -276.564)" opacity="0.1"/><path d="M318,342.449s5.31-4.282,5.995-5.138,8.221-1.2,8.478-1.2,5.995-3.511,12.417-4.624,8.992-1.627,8.992-1.627,9.42-3.939,9.934-4.8,4.881-1.8,10.277,2.4,17.3,23.037,17.384,25.092.856,5.823-1.456,7.022-19.1,5.566-22.437,8.221-26.472,4.717-26.472,4.717L332.387,363l-4.624-7.45-7.707-8.136Z" transform="translate(-230.557 -223.374)" fill="#e36b0a"/><path d="M356.089,593.15s-3.2.685-1.37,2.511S356.089,593.15,356.089,593.15Z" transform="translate(-254.327 -400.111)" opacity="0.1"/><path d="M387.037,603.82s-3.426,4.111-2.74,5.251S387.037,603.82,387.037,603.82Z" transform="translate(-274.084 -407.126)" opacity="0.1"/><path d="M445.707,619.15s-3.426,4.111-2.74,5.251S445.707,619.15,445.707,619.15Z" transform="translate(-312.656 -417.205)" opacity="0.1"/><path d="M517.036,639.15s-3.425,4.111-2.74,5.251S517.036,639.15,517.036,639.15Z" transform="translate(-359.552 -430.354)" opacity="0.1"/><path d="M613.036,663.15s-3.426,4.111-2.74,5.251S613.036,663.15,613.036,663.15Z" transform="translate(-422.667 -446.133)" opacity="0.1"/><path d="M415.707,607.15s-3.426,4.111-2.74,5.251S415.707,607.15,415.707,607.15Z" transform="translate(-292.933 -409.316)" opacity="0.1"/><path d="M555.036,649.15s-3.426,4.111-2.74,5.251S555.036,649.15,555.036,649.15Z" transform="translate(-384.535 -436.929)" opacity="0.1"/><path d="M584.367,658.48s-3.426,4.111-2.74,5.255S584.367,658.48,584.367,658.48Z" transform="translate(-403.818 -443.063)" opacity="0.1"/><path d="M471.707,627.15s-3.425,4.111-2.74,5.251S471.707,627.15,471.707,627.15Z" transform="translate(-329.75 -422.465)" opacity="0.1"/><path d="M729.14,699.82l3.624,16.754S732.792,704.842,729.14,699.82Z" transform="translate(-500.861 -470.242)" opacity="0.1"/><path d="M761.8,707.15l2.542,8.17A27.464,27.464,0,0,0,761.8,707.15Z" transform="translate(-522.333 -475.061)" opacity="0.1"/><path d="M784.044,694.82s-5.423-19.751-6.567-21.122S780.78,693.566,784.044,694.82Z" transform="translate(-532.519 -453.026)" opacity="0.1"/><path d="M807.229,682.7s-6.392-11.188-3.881-13.243S807.229,682.7,807.229,682.7Z" transform="translate(-549.265 -450.153)" opacity="0.1"/><path d="M327.47,508.414l124.116,27.863,47.731-13.932-48.187,12.561S331.238,507.273,327.47,508.414Z" transform="translate(-236.783 -344.379)" opacity="0.1"/><path d="M275.69,390l.171,79.729,3.511.428.171-80.414Z" transform="translate(-181.252 -256.23)" fill="#f5c5cc"/><path d="M281.69,386.24l.343,82.983,1.285-1.37.171-80.414Z" transform="translate(-185.197 -253.929)" fill="#cc929b"/><path d="M297.44,396.247l.171,79.729,3.511.428.171-80.414Z" transform="translate(-195.552 -260.339)" fill="#f5c5cc"/><path d="M303.44,392.49l.343,82.983,1.285-1.37.171-80.414Z" transform="translate(-199.496 -258.038)" fill="#cc929b"/><path d="M318.69,403l.171,79.729,3.511.428.171-80.414Z" transform="translate(-209.522 -264.777)" fill="#f5c5cc"/><path d="M324.69,399.24l.343,82.983,1.285-1.37.171-80.414Z" transform="translate(-213.467 -262.476)" fill="#cc929b"/><path d="M339.44,404.627l.171,82.527,3.511.442.171-83.236Z" transform="translate(-223.165 -265.842)" fill="#f5c5cc"/><path d="M345.44,400.74l.343,85.895,1.285-1.418.171-83.236Z" transform="translate(-227.109 -263.462)" fill="#cc929b"/><path d="M361.94,406.877l.171,82.527,3.511.442.171-83.236Z" transform="translate(-237.957 -267.321)" fill="#f5c5cc"/><path d="M367.94,402.99l.343,85.895,1.285-1.418.171-83.236Z" transform="translate(-241.902 -264.941)" fill="#cc929b"/><path d="M383.94,415.127l.171,82.527,3.511.442.171-83.236Z" transform="translate(-252.421 -272.745)" fill="#f5c5cc"/><path d="M389.94,411.24l.343,85.895,1.285-1.418.171-83.236Z" transform="translate(-256.366 -270.365)" fill="#cc929b"/><path d="M409.19,420.734l.171,84.829,3.511.456.171-85.559Z" transform="translate(-269.022 -276.427)" fill="none"/><path d="M415.19,416.74l.343,88.292,1.285-1.459.171-85.559Z" transform="translate(-272.966 -273.981)" fill="#cc929b"/><path d="M431.19,423.734l.171,84.829,3.511.456.171-85.559Z" transform="translate(-283.486 -278.399)" fill="#f5c5cc"/><path d="M437.19,419.74l.343,88.292,1.285-1.459.171-85.559Z" transform="translate(-287.43 -275.953)" fill="#cc929b"/><path d="M454.44,430.734l.171,84.829,3.511.456.171-85.559Z" transform="translate(-298.771 -283.001)" fill="#f5c5cc"/><path d="M460.44,426.74l.343,88.292,1.285-1.459.171-85.559Z" transform="translate(-302.716 -280.555)" fill="#cc929b"/><path d="M479.69,438.484l.171,84.829,3.511.456.171-85.559Z" transform="translate(-315.372 -288.096)" fill="#f5c5cc"/><path d="M485.69,434.49l.343,88.292,1.285-1.459.171-85.559Z" transform="translate(-319.317 -285.651)" fill="#cc929b"/><path d="M505.19,442.821l.171,86.638,3.511.466.171-87.385Z" transform="translate(-332.137 -290.943)" fill="#f5c5cc"/><path d="M511.19,438.74l.343,90.176,1.285-1.49.171-87.385Z" transform="translate(-336.081 -288.445)" fill="#cc929b"/><path d="M531.44,447.884l.171,87.957,3.511.473.171-88.714Z" transform="translate(-349.395 -294.27)" fill="#cc929b"/><path d="M537.44,443.74l.343,91.547,1.285-1.511.171-88.714Z" transform="translate(-353.34 -291.732)" fill="none"/><path d="M558.19,454.884l.171,87.957,3.511.473.171-88.714Z" transform="translate(-366.982 -298.872)" fill="#f5c5cc"/><path d="M564.19,450.74l.343,91.547,1.285-1.511.171-88.714Z" transform="translate(-370.926 -296.334)" fill="#cc929b"/><path d="M582.94,460.134l.171,87.957,3.511.473.171-88.714Z" transform="translate(-383.253 -302.324)" fill="#cc929b"/><path d="M588.94,455.99l.343,91.547,1.285-1.511.171-88.714Z" transform="translate(-387.198 -299.786)" fill="none"/><path d="M248.384,421.947l-3.6,1.37h-3.426L241.19,297.6l1.884-2.74,1.819-.558,2.634-.812Z" transform="translate(-158.57 -192.95)" fill="#f5c5cc"/><path d="M254.859,421.947l-3.6,1.37-.223-125.439.329-3.576L254,293.49Z" transform="translate(-165.046 -192.95)" fill="#cc929b"/><ellipse cx="4.111" cy="4.111" rx="4.111" ry="4.111" transform="translate(82.449 226.084)" fill="#40414d"/><path d="M785.384,460.257l-3.6,1.309h-3.426l-.171-138.233,1.884.466,1.819-.534,2.634-.774Z" transform="translate(-511.62 -212.016)" fill="#f5c5cc"/><path d="M791.859,460.257l-3.6,1.309-.223-134.883.329-3.419L791,322.49Z" transform="translate(-518.096 -212.016)" fill="#cc929b"/><path d="M646.458,461.946l-3.6.343L642.7,369.94l-.007-3.566,2.4-1.884.069,4.922Z" transform="translate(-422.536 -239.629)" fill="#f5c5cc"/><path d="M683.458,446.446l-3.6.343-.161-90.642-.01-5.272,2.4-1.884.089,6.255Z" transform="translate(-446.862 -229.439)" fill="#f5c5cc"/><path d="M744.458,421.446l-3.6.343-.161-90.43-.01-5.484,2.4-1.884.089,6.341Z" transform="translate(-486.966 -213.003)" fill="#f5c5cc"/><path d="M767.19,315.874l.171,95.914,3.6-.343-1.37-97.456Z" transform="translate(-504.388 -206.428)" fill="#f5c5cc"/><path d="M664.958,458.946l-3.6.343-.164-92.872-.007-3.042,2.4-1.884.058,4.183Z" transform="translate(-434.699 -237.657)" fill="#f5c5cc"/><path d="M701.458,438.946l-3.6.343-.161-90.4-.01-5.512,2.4-1.884.089,6.4Z" transform="translate(-458.696 -224.508)" fill="#f5c5cc"/><path d="M721.788,432.276l-3.6.343-.161-90.4v-.538l-.01-4.974,2.4-1.884.082,5.844.007.555Z" transform="translate(-472.062 -220.123)" fill="#f5c5cc"/><path d="M632.69,606.615l49.67-21.125,3.426.8.113,7.879L633.6,614.377Z" transform="translate(-415.961 -384.926)" fill="#f5c5cc"/><path d="M682.36,585.49l-49.67,21.125,52.91-20.372" transform="translate(-415.961 -384.926)" fill="#cc929b"/><path d="M256.146,614.49l125.261,38.023-.229,6.166L255.69,619.971Z" transform="translate(-168.103 -403.992)" fill="#f5c5cc"/><path d="M687.614,541.334l-3.6,1.37h-3.425l-.171-140.788h0v-.685l.267-.391,1.617-2.35,1.819-.558,2.634-.812.027,4.8Z" transform="translate(-468.83 -271.232)" fill="#f5c5cc"/><path d="M631.359,511.7l-3.6,1.37-.223-141.2.329-3.576,2.634-.812Z" transform="translate(-412.576 -241.602)" fill="#cc929b"/><path d="M686.757,397.12l.027,4.8a29.2,29.2,0,0,1-2.99.281,9.154,9.154,0,0,1-3.374-.277h0c0-.048.1-.432.267-1.072l1.617-2.35,1.819-.558Z" transform="translate(-468.83 -271.232)" opacity="0.1"/><path d="M707.831,394.12l.069,4.922q-1.326.308-2.46.528V396Z" transform="translate(-485.279 -269.259)" opacity="0.1"/><path d="M726.331,391.12l.058,4.183c-.853.271-1.672.517-2.449.743V393Z" transform="translate(-497.442 -267.287)" opacity="0.1"/><path d="M744.838,378.62l.089,6.255q-1.285.476-2.477.9V380.5Z" transform="translate(-509.611 -259.069)" opacity="0.1"/><path d="M762.838,371.12l.089,6.4-1.973.795-.5.2V373Z" transform="translate(-521.445 -254.138)" opacity="0.1"/><path d="M805.927,359.967l-2.477,1.028v-5.481l2.4-1.884Z" transform="translate(-549.716 -242.639)" opacity="0.1"/><path d="M783.26,370.32l-2.47,1.028v-4.974l2.4-1.884Z" transform="translate(-534.818 -249.779)" opacity="0.1"/><path d="M743.792,334.04s-6.337,0-8.05-.514-5.309,1.541-27.4,10.448c-13.359,5.388-20.776,6.639-24.544,6.786a9.153,9.153,0,0,1-3.374-.277s4.511-20.7,18.878-24.564a42.609,42.609,0,0,0,4.717-1.586l.277-.106a28.082,28.082,0,0,1,3.7-1.148c4.611-1.058,7.9-3.083,16.237-3.145a22.8,22.8,0,0,1,14.312,4.748C741.4,326.929,743.864,330.036,743.792,334.04Z" transform="translate(-468.83 -220.484)" fill="#cc929b"/><path d="M704.912,332.12c-17.778,7.666-20.491,22-21.118,26.654a9.153,9.153,0,0,1-3.374-.277s4.511-20.7,18.878-24.564a42.609,42.609,0,0,0,4.717-1.586l.277-.106C704.5,332.209,704.7,332.168,704.912,332.12Z" transform="translate(-468.83 -228.497)" fill="#f5c5cc"/><path d="M334.324,331.12l.038,2.624c-.867.216-1.675.4-2.432.565V333Z" transform="translate(-239.715 -227.84)" opacity="0.1"/><path d="M352.818,328.12l.024,1.805q-1.264.418-2.422.764V330Z" transform="translate(-251.872 -225.868)" opacity="0.1"/><path d="M371.324,315.62l.055,3.823q-1.264.483-2.449.911V317.5Z" transform="translate(-264.041 -217.649)" opacity="0.1"/><path d="M389.331,308.12l.055,3.967q-1.182.456-2.446.963V310Z" transform="translate(-275.882 -212.719)" opacity="0.1"/><path d="M406.824,303.12l.048,3.515q-1.165.391-2.442.85V305Z" transform="translate(-287.38 -209.431)" opacity="0.1"/><path d="M432.331,290.62l.075,5.337c-.757.158-1.576.343-2.466.572V292.5Z" transform="translate(-304.152 -201.213)" opacity="0.1"/><path d="M458.961,289.288a9.032,9.032,0,0,0-2.511-.555v-6.269l2.4-1.884Z" transform="translate(-321.581 -194.612)" opacity="0.1"/><path d="M367.292,280.775s-6.337,0-8.05-.514-5.31-3.254-27.4,5.652c-13.359,5.388-20.776,6.639-24.544,6.786a9.154,9.154,0,0,1-3.374-.277s3.4-17.984,18.4-21.019a22.045,22.045,0,0,0,2.477-.634c.921-.3,2.374-.733,4.326-1.182A90.532,90.532,0,0,1,353.6,267.7a15.182,15.182,0,0,1,10.2,4.474,11.753,11.753,0,0,1,3.484,8.6Z" transform="translate(-221.3 -186.058)" fill="#cc929b"/><path d="M329.125,273.46c-17.778,7.666-21.2,18.453-21.831,23.112a9.154,9.154,0,0,1-3.374-.277s3.4-17.984,18.4-21.019a22.041,22.041,0,0,0,2.477-.634C325.72,274.33,327.172,273.909,329.125,273.46Z" transform="translate(-221.3 -189.931)" fill="#f5c5cc"/><path d="M255.526,378.235l-.086-5.053,1.8-.942,122.976,27.575-.343,6.423Z" transform="translate(-167.939 -244.724)" fill="#f5c5cc"/><path d="M257.751,372.24l122.976,27.575-.171,2.4L256.22,373.042" transform="translate(-168.452 -244.724)" fill="#cc929b"/><ellipse cx="4.111" cy="4.111" rx="4.111" ry="4.111" transform="translate(266.056 245.439)" fill="#40414d"/><ellipse cx="4.111" cy="4.111" rx="4.111" ry="4.111" transform="translate(211.59 268.732)" fill="#40414d"/><path d="M322.315,579.45s-3.655,4.111-4.8,7.766,1.37,17.357,1.37,17.357a25.229,25.229,0,0,0,2.74-7.31C322.541,592.926,322.315,579.45,322.315,579.45Z" transform="translate(-230.046 -391.104)" fill="#e36b0a"/><path d="M832.174,679.12s2.227,11.3,2.4,13.017-5.652-.856-5.652-.856Z" transform="translate(-566.461 -456.632)" fill="#e36b0a"/><path d="M473.456,129.689H473.4a.686.686,0,0,0-.127-.322,1.682,1.682,0,0,0-.569-.432l-1.607-.894,1.387.5a3.1,3.1,0,0,0-.216-.322l.161.089-.11-.154-.147-.051A4.063,4.063,0,0,0,469,126.9h.021c.154-.021.312-.034.466-.045a5.561,5.561,0,0,0-1.028.031h0a.481.481,0,0,0,.12.034,3.218,3.218,0,0,0-.343.034,1.028,1.028,0,0,1-.538,0,.777.777,0,0,1-.414-.565,6.262,6.262,0,0,1,.178-2.138,2.292,2.292,0,0,0-.106-1v-.206a1.028,1.028,0,0,0-.685-.63.617.617,0,0,0,0,.079l-.058-.024v1.843a7.349,7.349,0,0,1-1.4-1.459.641.641,0,0,1-.14-.291c-.034-.312.363-.528.387-.843a.469.469,0,0,0-.343-.445l.1-.038a.771.771,0,0,0-.391-.069,6.565,6.565,0,0,0-.863.26l.089.017a1.947,1.947,0,0,1-.2.055c-.86.178-1.627-.507-2.247-1.127l-.134-.134c-.295-2.579-.771-5.536-.771-5.536a36.828,36.828,0,0,0-1.028-5.193c-.6-1.816-1.463-5.022-1.463-5.022s-1.973-3.895-2.4-4.066a5.227,5.227,0,0,1-.483-.274,7.673,7.673,0,0,1-.343-1.795c-.106-3.4,3.532-5.823,4.08-9.2.449-2.74-1.278-5.481-1.028-8.259a29.994,29.994,0,0,1,.87-3.552,9.568,9.568,0,0,0,.1-3.518,5.8,5.8,0,0,0-.562-1.805,9.752,9.752,0,0,0,1.237-2.093,5.85,5.85,0,0,0-.911-4.8,19.1,19.1,0,0,0-13.7-8.691c-2.127-.2-4.261-.233-6.392-.267a17.8,17.8,0,0,0-7.235.874c-4.494,1.881-6.621,6.906-9.352,10.962a31.076,31.076,0,0,1-8.5,8.485c-1.579,1.055-3.426,2.179-3.8,4.052a3.684,3.684,0,0,0-.065.545,5.015,5.015,0,0,1-.113-.5c-.373,1.956,1.007,3.768,1.713,5.635a9.934,9.934,0,0,1,.63,3.045,13.314,13.314,0,0,0,0-1.48c.685,3.556-.572,7.372-1.35,11.006-.058.267-.1.534-.158.8a6.553,6.553,0,0,0-1.8.812,10.133,10.133,0,0,1-4.049,1.576,7.564,7.564,0,0,0-4.871,2.925c-.219.295-.432.5-.617.517-.771.089-5.066,13.5-5.066,13.5s-.894,5.525-.894,6.82S391.61,136.4,391.61,136.4a7.063,7.063,0,0,0-.343,2.422,10.827,10.827,0,0,1-.36,2.775.617.617,0,0,1-.24-.178c-.257-.517-4.984,0-3.521,3.463a6.789,6.789,0,0,0,1.655,2.46,16.586,16.586,0,0,0-1.141,3.34s0,1.237.11,2.764c-1,.685-1.826,1.3-1.826,1.3-.072,1.891,1.189,2.192,2.374,2.124.3,1.1.75,1.966,1.4,2.2,2.148.781,3.521.435,4.21,1.028a24.54,24.54,0,0,0,4.361,1.744A43.428,43.428,0,0,0,403,162.3l.63.315-.075-.343c.2-.038.11-.277-.144-.685-.113-.524-.257-1.209-.418-1.99l.942-.343.257.38c-.343,1.795-.562,2.99-.562,2.99s-1.713,6.145-.945,7.1a1.991,1.991,0,0,1,0,2.165s-.171,1.555.26,1.555.942,1.99.514,2.079-2.4,1.73-1.713,2.076,0,1.124,0,1.9c0,.569,1.048,1.411,1.617,1.826-.1.37-.209.764-.308,1.151a9.731,9.731,0,0,0-.452,2.648c.171.952-.428,3.634-.257,4.5s.774,2.768.343,3.549.086,3.374.086,3.374l.774,7.355s-.514,2.079,0,2.6.945,6.58,1.459,7.272,1.291,4.326.685,5.539.774,3.72.774,3.72-.086,2.943-.086,3.72a5.116,5.116,0,0,0,.771,1.99,40,40,0,0,1,.685,5.193,6.845,6.845,0,0,0,.514,2.511,27.876,27.876,0,0,1,.432,3.72,2.938,2.938,0,0,0,.685,1.644s.945,2.251.685,3.2a2.366,2.366,0,0,0,.6,1.9s-.086,2.076-.086,2.336a18.232,18.232,0,0,0,1.805,2.336s-.774,1.559-.343,2.165.343,2.768,1.028,3.463.514,3.545,1.37,4.066,1.631.952,1.8,2.076.86,2.771,1.634,3.032a1.49,1.49,0,0,1,.377.373L418,268.22l-1.058,4.4s-1.028,6.4-.945,7.355-1.028,1.9-1.028,1.9-.945,5.539-1.117,6.231a6.191,6.191,0,0,0,.086,1.99s-.6,3.288-.171,3.463a19.113,19.113,0,0,1,2.233,1.99h.14l-.185.651-2.963,10.516s-2.74,4.587,3.61,6.923c.212.411.408.421.178.343.209.178,4.453,3.768,4.8,5.45s3.264,3.46,4.3,3.634,7.9,5.71,10.393.26-4.381-9-4.381-9l-5.231-3.367s-2.662-3.895-3.083-4.587-1.2-4.07-.685-4.587a33.907,33.907,0,0,0,1.836-4.892c.069-.216.14-.428.209-.641a5.894,5.894,0,0,0,3.11-.343l3.826-6.036.685-1.058.123.247s3.179.26,4.724.521a4.453,4.453,0,0,0,1.452-.182c.058.127.116.257.171.387a18.944,18.944,0,0,1,.952,2.477c.257,1.124.517,5.1.517,5.1s-1.713,5.714-2.148,6.752.428,9.694,8.934,6.231c0,0,1.028-1.644,1.973-1.644s3.265-2.336,2.4-4.847-4.453-10.211-1.973-14.278c2-3.275,1.84-7.666-.849-9.708-.113-.086-.233-.161-.343-.236a9.813,9.813,0,0,0,0-1.309c-.6-8.307-4.453-8.742-4.453-8.742s-2.233-.517-2.49-1.37a49.469,49.469,0,0,0-3.689-5.183c.055-.089.106-.178.158-.267,0-.031.034-.062.048-.092.075-.14.147-.284.216-.435,1.247-2.8.925-6.878.86-7.608-.086-.952,0-2.165,0-3.549s1.37-3.463,1.2-4.241,1.634-3.98,1.634-4.761,1.264-5.457,1.264-5.457,2.49-5.368,3.008-6.926c.493-1.494,9.29-28.719,10-30.925a1.34,1.34,0,0,1,.048-.144s2.809-9.191.928-15.226a9.679,9.679,0,0,0-.442-1.168c.576-.277.973-.48.973-.48s-1.117-3.288-.6-4.5a8.72,8.72,0,0,0,.171-3.549s-2.055-1.213-2.144-1.73-.945-1.213-.685-1.9,1.713-.343,1.545-1.9-1.973-3.2-1.8-4.155.856-2.682,0-3.72a7.325,7.325,0,0,1-1.288-3.98c-.024-.343.051-1.353.171-2.686a30.159,30.159,0,0,0,2.833,1.559s3.693.521,3.867.175a8.14,8.14,0,0,1,1.117-1.213c4.638-1.124,2.576-9.591,2.576-9.591s-.069-.62-.178-1.641a.9.9,0,0,0,.322-.154c.394-.288.49-.836.73-1.267a6.294,6.294,0,0,1,.952-1.117,10.923,10.923,0,0,0,1.84-3.268c.308-.74.623-1.48.935-2.223a3.947,3.947,0,0,1,4.23-3.018,3.58,3.58,0,0,0-.819-2.1,2.1,2.1,0,0,1,1.8.274.73.73,0,0,0,.038-.072h.021A.462.462,0,0,0,473.456,129.689Zm-73.35,23.7c.021-.171.051-.343.089-.514.168-.158.37-.343.586-.514l1.2.116c-.295.24-.552.459-.76.637A1.037,1.037,0,0,0,400.105,153.39Zm2.4-2.374a1.843,1.843,0,0,0,.5-.106h1.048c-.572.4-1.151.846-1.665,1.261l.12-1.127Zm1.977-17.47s-.079,2.46.1,4.933c-.267.188-.545.394-.819.61l.606-5.7Z" transform="translate(-275.225 -47.068)" fill="url(#a)"/><path d="M548.81,735.556c-.942,0-1.97,1.627-1.97,1.627-8.478,3.425-9.334-5.138-8.906-6.166s2.141-6.68,2.141-6.68-.257-3.939-.514-5.053a19.107,19.107,0,0,0-.949-2.449c-.575-1.312-1.192-2.6-1.192-2.6s3.682-9.078,8.564-8.221a5.507,5.507,0,0,1,2.4,1.028c2.682,2.021,2.843,6.368.846,9.591-2.483,4.025,1.113,11.647,1.97,14.13S549.752,735.556,548.81,735.556Z" transform="translate(-374.815 -474.274)" fill="#fdc2cc"/><path d="M487.233,776.442c-2.483,5.4-9.335-.086-10.362-.257s-3.939-1.884-4.282-3.6-4.58-5.217-4.8-5.392c.23.072.034.062-.178-.343-6.337-2.312-3.6-6.851-3.6-6.851l2.953-10.407.815-2.867,9.249-.6s-.634,2.024-1.339,4.152a33.191,33.191,0,0,1-1.829,4.84c-.514.514.257,3.854.685,4.539s3.083,4.539,3.083,4.539l5.224,3.34S489.717,771.047,487.233,776.442Z" transform="translate(-326.169 -500.688)" fill="#fdc2cc"/><path d="M483.854,746.12s-.634,2.024-1.339,4.152a2.463,2.463,0,0,1-1.23-.812l-7.45.171-.045-.044.815-2.867Z" transform="translate(-332.981 -500.681)" opacity="0.1"/><path d="M509.515,465.034a.371.371,0,0,1-.045.14c-.713,2.182-9.482,29.117-9.975,30.6-.514,1.542-3,6.851-3,6.851s-1.285,4.624-1.285,5.4-1.8,3.939-1.627,4.71-1.2,2.826-1.2,4.2-.086,2.569,0,3.511c.065.723.384,4.758-.86,7.536a5.067,5.067,0,0,1-1.182,1.713,3.664,3.664,0,0,1-.442.343c-3.083,2.055-3.34,23.122-3.34,23.122l-.144.226-1.25,1.959-3.83,5.96s-3.083,1.285-4.539-.514l-7.451.171a18.746,18.746,0,0,0-2.227-1.97c-.428-.171.171-3.426.171-3.426a6.065,6.065,0,0,1-.086-1.97c.171-.685,1.113-6.166,1.113-6.166s1.113-.942,1.028-1.884.942-7.279.942-7.279l1.055-4.354.521-2.148,1.079-4.453L480.227,463l9.249-2.826,17.813.856,1.953,3.528Z" transform="translate(-328.497 -312.684)" fill="#5f5d7e"/><path d="M493.824,496.589a42.177,42.177,0,0,0-.343,5.566c.171,1.456.771,6.937.514,7.964s.942,2.227,1.37,2.74.171,2.055.257,3.254a4.381,4.381,0,0,0,1.2,2.312s-1.285,2.74-.343,3.169,2.912,4.367,2.912,4.367.661.832,1.538,1.963a4.7,4.7,0,0,1-1.624,2.055c-3.083,2.055-3.34,23.122-3.34,23.122l-.144.226-1.911-3.823s-11.39-17.213-12.161-17.47a1.206,1.206,0,0,1-.48-.343l1.079-4.453,7.279-64.314,9.249-2.826,17.813.856-9.379.942s-4.169,2.99-4.2,3.083l-7.492,3.169-1.37,20.553S493.91,494.961,493.824,496.589Z" transform="translate(-337.899 -312.638)" opacity="0.1"/><path d="M517.643,464.538c-.236.952-24.9-1.9-24.9-1.9l.171,6.594-1.37,20.553s-.343,6.252-.428,7.879a42.179,42.179,0,0,0-.343,5.566c.171,1.456.771,6.937.514,7.964s.942,2.227,1.37,2.74.171,2.055.257,3.254a4.381,4.381,0,0,0,1.2,2.312s-1.285,2.74-.343,3.169,2.912,4.368,2.912,4.368.942,1.189,2.055,2.648a3.667,3.667,0,0,1-.442.343c-3.083,2.055-3.34,23.122-3.34,23.122l-.144.226-1.237,1.966L491.2,550.6s-8.786-13.281-11.448-16.686l.521-2.148,1.079-4.453L488.629,463l9.249-2.826,17.813.856Z" transform="translate(-336.899 -312.684)" opacity="0.1"/><path d="M548.392,707.025c-.343,6.132-6.8,9.132-9.78,9.811-.576-1.312-1.192-2.6-1.192-2.6s3.682-9.078,8.564-8.221a5.508,5.508,0,0,1,2.408,1.014Z" transform="translate(-374.815 -474.274)" opacity="0.1"/><path d="M461.771,465.742a42.184,42.184,0,0,0-.343,5.566c.171,1.456.771,6.937.514,7.964s.942,2.227,1.37,2.74.171,2.055.257,3.254a4.38,4.38,0,0,0,1.2,2.312s-1.285,2.74-.343,3.169,2.912,4.367,2.912,4.367,5.566,7.022,5.823,7.879,2.484,1.37,2.484,1.37,3.854.428,4.453,8.649-9.506,11.39-11.047,11.133-4.71-.514-4.71-.514l-2.483-4.967s-11.39-17.213-12.161-17.47-1.456-1.884-1.627-3-.942-1.542-1.8-2.055-.685-3.34-1.37-4.025-.6-2.826-1.028-3.426.343-2.141.343-2.141a18.112,18.112,0,0,1-1.8-2.312c0-.257.086-2.312.086-2.312a2.339,2.339,0,0,1-.6-1.884c.257-.942-.685-3.169-.685-3.169a2.892,2.892,0,0,1-.685-1.627,27.419,27.419,0,0,0-.428-3.682,6.778,6.778,0,0,1-.514-2.484,39.765,39.765,0,0,0-.685-5.138,5.026,5.026,0,0,1-.771-1.97c0-.771.086-3.682.086-3.682s-1.37-2.484-.771-3.682-.171-4.8-.685-5.481-.942-6.68-1.456-7.194,0-2.569,0-2.569l-.771-7.279s-.514-2.569-.086-3.34-.171-2.655-.343-3.511.428-3.511.257-4.453a9.639,9.639,0,0,1,.449-2.62c.4-1.562.921-3.2.921-3.2s44.018-4.111,50.355.171a7.182,7.182,0,0,1,2.74,3.943c1.874,5.974-.928,15.072-.928,15.072l-24.321,3.169-1.37,20.553S461.857,464.115,461.771,465.742Z" transform="translate(-306.873 -281.791)" fill="#5f5d7e"/><path d="M494.42,653.124s7.622-2.312,9.42-.771S494.42,653.124,494.42,653.124Z" transform="translate(-346.544 -438.686)" opacity="0.1"/><path d="M502.42,679.682a6.359,6.359,0,0,1,5.738-1.713,9.335,9.335,0,0,0,5.995-.6Z" transform="translate(-351.804 -455.482)" opacity="0.1"/><path d="M525.92,691.588s6.252-.856,6.509-.086S525.92,691.588,525.92,691.588Z" transform="translate(-367.254 -464.562)" opacity="0.1"/><path d="M520.013,704.418s6.937-2.055,7.279-1.2-7.622,1.113-7.622,1.113Z" transform="translate(-363.145 -472.339)" opacity="0.1"/><path d="M532.557,572.37s-6.508,5.738-5.566,6.337S532.557,572.37,532.557,572.37Z" transform="translate(-367.897 -386.45)" opacity="0.1"/><path d="M527.92,613.87s4.539,0,3.682,1.028S527.92,613.87,527.92,613.87Z" transform="translate(-368.569 -413.734)" opacity="0.1"/><path d="M533.164,625.62s-1.8,1.542-1.37,1.884S533.164,625.62,533.164,625.62Z" transform="translate(-371.072 -421.459)" opacity="0.1"/><path d="M478.17,732.87s5.652,1.884,5.738,3.083S478.17,732.87,478.17,732.87Z" transform="translate(-335.861 -491.97)" opacity="0.1"/><path d="M493.19,178.921l-1.8,10.7s-15.586,8.221-15.843,8.221-11.39-1.884-11.818-1.884-7.707-22.009-2.569-23.379a33.571,33.571,0,0,0,5.611-2.367c5.94-2.97,13.229-7.481,13.229-7.481s10.876-1.2,8.221,6.337c-1.028,2.956-.5,5.107.538,6.632A9.259,9.259,0,0,0,493.19,178.921Z" transform="translate(-323.476 -117.09)" fill="#fdc2cc"/><path d="M493.19,193.414l-1.8,10.7s-15.586,8.221-15.843,8.221-11.39-1.884-11.818-1.884-7.707-22.009-2.569-23.379a33.571,33.571,0,0,0,5.611-2.367c1.4.092,2.353.226,2.353.226s3.426,13.1,3.682,17.128,9.163,4.453,9.763,4.282,3.083-10.02,3.083-10.02-.257-3.426.514-3.426c.644,0,2.131-2.055,2.593-2.7A9.26,9.26,0,0,0,493.19,193.414Z" transform="translate(-323.476 -131.583)" opacity="0.1"/><path d="M490.207,419.08c-1.192.582-4.042,1.911-4.8,1.713a18.609,18.609,0,0,0-3.254-.257s-1.37,1.541-2.826,1.2-7.194-.086-7.194-.086-10.277.428-12.246-.257-8.992-1.285-8.992-1.285-9.591-1.113-11.219-1.8a2.805,2.805,0,0,0-2.826.343s-.3-.2-.665-.48c.4-1.562.921-3.2.921-3.2s44.018-4.111,50.355.171A7.094,7.094,0,0,1,490.207,419.08Z" transform="translate(-308.261 -281.798)" opacity="0.1"/><path d="M436.8,184.167s-8.649-1.2-12.075,1.113a10.133,10.133,0,0,1-4.035,1.559,7.553,7.553,0,0,0-4.857,2.895c-.219.295-.432.493-.613.514-.771.086-5.053,13.359-5.053,13.359l10.362,14.473s-.257,8.05,1.2,9.591-2.055,19.183-2.055,19.183-1.713,6.08-.942,7.022a1.943,1.943,0,0,1,0,2.141s-.171,1.541.257,1.541.942,1.97.514,2.055-2.4,1.713-1.713,2.055,0,1.113,0,1.884,1.97,2.055,1.97,2.055a2.806,2.806,0,0,1,2.826-.343c1.627.685,11.219,1.8,11.219,1.8s7.022.6,8.992,1.285,12.246.257,12.246.257,5.738-.257,7.194.086,2.826-1.2,2.826-1.2a18.609,18.609,0,0,1,3.254.257c.942.257,5.31-1.97,5.31-1.97s-1.113-3.254-.6-4.453a8.539,8.539,0,0,0,.171-3.511s-2.055-1.2-2.141-1.713-.942-1.2-.685-1.884,1.713-.343,1.542-1.884-1.97-3.169-1.8-4.111.856-2.655,0-3.682a7.2,7.2,0,0,1-1.285-3.939c-.086-1.285,1.285-12.931,1.285-12.931l-3.169-23.465,9.677-4.8a36.161,36.161,0,0,0-1.028-5.138c-.6-1.8-1.456-4.967-1.456-4.967s-1.97-3.854-2.4-4.025-4.967-3.169-5.995-2.74-9.163,6.68-9.163,6.68-1.97,2.912-2.74,2.912-.514,3.426-.514,3.426-2.484,9.848-3.083,10.02-9.506-.257-9.763-4.282S436.8,184.167,436.8,184.167Z" transform="translate(-291.154 -130.128)" fill="#d39999"/><path d="M432.744,324.95a19.419,19.419,0,0,1-3.614.445c-1.757.048-3.3-.175-3.682-.808-1.028-1.713-1.028-4.967-1.028-4.967s4.645,1.072,7.851,2.244l.531.2h0a5.147,5.147,0,0,1,2.4,1.408C435.5,324.049,434.351,324.59,432.744,324.95Z" transform="translate(-300.523 -220.279)" fill="#fdc2cc"/><ellipse cx="15.672" cy="15.672" rx="15.672" ry="15.672" transform="translate(150.188 25.692)" opacity="0.1"/><ellipse cx="15.672" cy="15.672" rx="15.672" ry="15.672" transform="translate(150.188 25.007)" fill="#fdc2cc"/><path d="M445.67,395.37a39.5,39.5,0,0,1,6.166.428,34.177,34.177,0,0,0,5.31.514S447.211,395.969,445.67,395.37Z" transform="translate(-314.494 -270.081)" opacity="0.1"/><path d="M446.17,403.37s5.738.428,5.823,1.285S446.17,403.37,446.17,403.37Z" transform="translate(-314.822 -275.341)" opacity="0.1"/><path d="M573.67,372.62s3.511,1.285,3.425,1.713S574.013,373.648,573.67,372.62Z" transform="translate(-398.647 -255.124)" opacity="0.1"/><path d="M400.056,239.62l-2.227,1.541s-.942,5.481-.942,6.765-1.541,10.533-1.541,10.533a7.094,7.094,0,0,0-.343,2.4,21.338,21.338,0,0,1-.685,4.2s-3.083,7.108-2.912,7.536,14.644,1.8,14.644,1.8l2.055-19.183Z" transform="translate(-278.814 -167.683)" fill="#d39999"/><path d="M393.56,329.12l-2.141,2.312s-.086,7.536,2.055,8.307,3.511.428,4.2,1.028,4.368,1.713,4.368,1.713a33.166,33.166,0,0,0,5.224.428c1.2-.171-7.022-6.765-1.627-12.332Z" transform="translate(-278.826 -226.525)" fill="#d39999"/><path d="M581.12,222.12l3,3.34s1.285,7.964.942,9.078,1.8,20.467,1.8,20.467,2.055,8.392-2.569,9.506a8.083,8.083,0,0,0-1.113,1.2c-.171.343-3.854-.171-3.854-.171l-5.652-37.081Z" transform="translate(-398.647 -156.178)" fill="#d39999"/><path d="M447.821,285.815s11.219-6.68,13.274-7.022,14.815-6.423,14.815-6.423,6.337,3.254,6.937,5.738-2.655,12.417-2.655,12.417-10.448,7.279-11.047,8.821-9.591,6.08-9.591,6.851-14.216,9.163-20.467,1.8-6.166-9.506-6.166-9.506l15.843-3.682,1.541-6.851Z" transform="translate(-306.111 -189.215)" opacity="0.1"/><path d="M447.821,283.815s11.219-6.68,13.274-7.022,14.815-6.423,14.815-6.423,6.337,3.254,6.937,5.738-2.655,12.417-2.655,12.417-10.448,7.279-11.047,8.821-9.591,6.08-9.591,6.851-14.216,9.163-20.467,1.8-6.166-9.506-6.166-9.506l15.843-3.682,1.541-6.851Z" transform="translate(-306.111 -187.9)" fill="#c4c8e2"/><path d="M401.717,311.975l-.514,4.282-4.073-.3-3.977-.295s-2.312,0-3.768-3.425,3.254-3.939,3.511-3.426c.2.387,5.138,2,7.536,2.764Z" transform="translate(-277.306 -213.062)" fill="#fdc2cc"/><path d="M417.117,317.607l-.514,4.282-4.073-.3c.665-.987,2.055-2.792,3.306-4.381Z" transform="translate(-292.706 -218.695)" opacity="0.1"/><path d="M424.42,319.62s4.645,1.072,7.851,2.244a12.968,12.968,0,0,1-3.141,3.532c-1.757.048-3.3-.175-3.682-.808C424.42,322.874,424.42,319.62,424.42,319.62Z" transform="translate(-300.523 -220.279)" opacity="0.1"/><path d="M448.363,329.644l-.075-.593s-.034-.127-.065-.319a2.121,2.121,0,0,1,.182-1.449c.168-.236.13-.4.021-.524a5.147,5.147,0,0,1,2.4,1.408C451.117,328.743,449.969,329.285,448.363,329.644Z" transform="translate(-316.142 -224.973)" opacity="0.1"/><path d="M422.3,306.5s-4.652,4.655-4.94,5.652-9.078,1.028-9.078,1.028l-.6-4.8s-.034-.127-.065-.319a2.121,2.121,0,0,1,.182-1.449c.428-.6-.486-.771-.486-.771s-2.37,3.908-4.368,4.025c0,0-2.768,2-2.74,2.4a4.4,4.4,0,0,0-1.37,2.71c-.027,1.483-1.74,2.086-3,1.658s-4.368-1.343-5.368-1.2-4.165,1.082-4.052-1.857c0,0,4.111-3.083,5.138-3s3.426-1.113,3.768-2.055,6.166-8.136,6.166-8.136,3.682-3.484,5.166-3.826c0,0,2.97-2.312,7.45,1.2,0,0,6.2,3.823,6.4,4.337.158.4,1.956,2.131,2.107,3.426a1.059,1.059,0,0,1-.308.973Z" transform="translate(-275.534 -204.631)" fill="#fdc2cc"/><path d="M447.876,307.12a14.4,14.4,0,0,1,.229,3.569c-.226.942-.685,2.569-.685,2.569S450.188,308.918,447.876,307.12Z" transform="translate(-315.644 -212.061)" opacity="0.1"/><path d="M449.33,323.416s1.428-1.572,1.744-1.172S449.33,323.416,449.33,323.416Z" transform="translate(-316.9 -221.962)" opacity="0.1"/><path d="M581.589,259.8a10.023,10.023,0,0,1-7.276,9.639,9.857,9.857,0,0,1-2.7.384h-.051A10.02,10.02,0,0,1,561.55,259.8a9.545,9.545,0,0,1,.158-1.754,10,10,0,0,1,9.132-8.221c.24-.021.483-.031.726-.031A10.02,10.02,0,0,1,581.589,259.8Z" transform="translate(-390.679 -174.37)" fill="#f8bdc5"/><path d="M604.373,255.485a3.525,3.525,0,0,1,.815,2.076,3.936,3.936,0,0,0-4.22,2.987q-.469,1.1-.932,2.2a10.845,10.845,0,0,1-1.833,3.234,6.331,6.331,0,0,0-.952,1.1c-.236.428-.343.969-.726,1.257a1.37,1.37,0,0,1-1.295.072c-.421-.158-.8-.421-1.219-.589a3.88,3.88,0,0,0-.839-.219h0c-1.254-.185-2.634.086-3.7-.589a2.2,2.2,0,0,1-.343-.281,3.316,3.316,0,0,1-.873-1.48,1.666,1.666,0,0,1-.082-.709,1.531,1.531,0,0,1,.795-1.028c.058-.034.117-.068.178-.1,1.028-.538,2.456-.665,2.994-1.713.514-.993-.123-2.2-.9-3-.37-.377-.808-.8-.757-1.333.048-.466.462-.791.808-1.1a6,6,0,0,0,1.877-3.367,2.559,2.559,0,0,0-.021-1.216,3.224,3.224,0,0,0-.435-.8l-1.11-1.644a4.511,4.511,0,0,0-1.37-1.452c-.462-.277-.993-.373-1.459-.647a1.158,1.158,0,0,1-.432-.411.442.442,0,0,1-.055-.322c.058-.274.343-.408.627-.486a6.108,6.108,0,0,1,2.268-.216,1.761,1.761,0,0,0,.733,0,.517.517,0,0,0,.38-.558c.843-.219,1.641.438,2.257,1.055s1.37,1.291,2.24,1.117c.312-.062.6-.24.915-.274s.706.171.685.49-.418.524-.384.832a.614.614,0,0,0,.141.288,7.24,7.24,0,0,0,1.394,1.446c0-.606,0-1.216,0-1.822.685.171.935,1.048.856,1.757a6.288,6.288,0,0,0-.178,2.117.778.778,0,0,0,.411.558,1.027,1.027,0,0,0,.538,0c1.572-.223,3.408.2,4.189,1.576l-1.37-.5,1.593.87a1.675,1.675,0,0,1,.569.428.569.569,0,0,1,.041.665,2.127,2.127,0,0,0-1.815-.267Z" transform="translate(-408.177 -171.289)" fill="#585268"/><g transform="translate(180.06 73.739)" opacity="0.1"><path d="M626.624,266.973a1.028,1.028,0,0,0,.538,0c.154-.021.308-.034.466-.045a5.52,5.52,0,0,0-1.028.031Z" transform="translate(-613.506 -259.37)"/><path d="M636.43,270.26l.589.325-.11-.154Z" transform="translate(-619.969 -261.567)"/><path d="M622.215,255.962v-1.2a1.055,1.055,0,0,0-.685-.623v1.206a7.361,7.361,0,0,0,.685.617Z" transform="translate(-610.173 -250.969)"/><path d="M638.43,275.016a2.124,2.124,0,0,1,.843.343.424.424,0,0,0,.086-.277A2.179,2.179,0,0,0,638.43,275.016Z" transform="translate(-621.284 -264.679)"/><path d="M596.125,269.377c-.421-.158-.8-.421-1.219-.589a3.881,3.881,0,0,0-.839-.219h0c-1.254-.185-2.634.086-3.7-.589a2.207,2.207,0,0,1-.343-.281,3.316,3.316,0,0,1-.873-1.48,1.665,1.665,0,0,1-.082-.709,1.531,1.531,0,0,1,.795-1.028c.058-.034.117-.069.178-.1,1.045-.538,2.456-.665,2.994-1.713.514-.993-.123-2.2-.9-3-.37-.377-.808-.8-.757-1.333.048-.466.462-.791.808-1.1a6,6,0,0,0,1.877-3.367,2.558,2.558,0,0,0-.021-1.216,3.223,3.223,0,0,0-.435-.8l-1.11-1.644a4.511,4.511,0,0,0-1.37-1.452c-.462-.277-.993-.373-1.459-.647a1.158,1.158,0,0,1-.432-.411.442.442,0,0,1-.055-.322c.058-.274.36-.408.627-.486a6.335,6.335,0,0,1,1.37-.226,6.166,6.166,0,0,0-2.055.226c-.267.079-.569.212-.627.486a.442.442,0,0,0,.055.322,1.159,1.159,0,0,0,.432.411c.466.274,1,.37,1.459.647a4.512,4.512,0,0,1,1.37,1.452l1.11,1.644a3.223,3.223,0,0,1,.435.8,2.559,2.559,0,0,1,.021,1.216,6,6,0,0,1-1.877,3.367c-.343.312-.76.637-.808,1.1-.051.528.387.956.757,1.333.781.8,1.418,2.011.9,3-.538,1.045-1.949,1.172-2.994,1.713-.062.031-.12.065-.178.1a1.531,1.531,0,0,0-.795,1.028,1.665,1.665,0,0,0,.082.709,3.317,3.317,0,0,0,.873,1.48,2.206,2.206,0,0,0,.343.281c1.065.685,2.446.4,3.7.589h0a3.881,3.881,0,0,1,.839.219c.421.168.8.432,1.219.589a1.617,1.617,0,0,0,.966.082A2.027,2.027,0,0,1,596.125,269.377Z" transform="translate(-588.375 -246.044)"/><path d="M614.3,250.808a5.039,5.039,0,0,0,.62-.2.737.737,0,0,0-.391-.072,7.211,7.211,0,0,0-.856.26A1.429,1.429,0,0,0,614.3,250.808Z" transform="translate(-605.005 -248.596)"/><path d="M599.074,245.5a1.761,1.761,0,0,0,.733-.017.517.517,0,0,0,.38-.555,1.37,1.37,0,0,0-.685,0,.517.517,0,0,1-.38.558.547.547,0,0,1-.072.017Z" transform="translate(-595.393 -244.883)"/></g><path d="M539.68,254.632a10.377,10.377,0,0,1-5.19,1.507,27.879,27.879,0,0,1-4.4,0l-3.3-1.24s.267-.531.719-1.233c.9-1.4,2.538-3.477,4.248-3.391,2.569.127,5.268.253,5.525.253S542.547,252.491,539.68,254.632Z" transform="translate(-367.826 -174.687)" fill="#fdc2cc"/><path d="M484.657,62.8a17.682,17.682,0,0,0-7.194.867c-4.5,1.86-6.618,6.83-9.338,10.838a31,31,0,0,1-8.478,8.4c-1.576,1.028-3.4,2.158-3.785,4.008-.4,1.956.993,3.768,1.713,5.621,1.524,3.943,0,8.31-.9,12.441a40.385,40.385,0,0,0-.812,6.022,8.358,8.358,0,0,0,.182,2.8c.685,2.418,3.275,4.165,3.3,6.68,0,1.713-1.206,3.33-.853,4.994.456,2.127,3.038,2.895,5.179,3.261a2.648,2.648,0,0,0,1.559-.048c.343-.164.623-.48.973-.654,1.189-.589,2.507.654,3.837.63,1.668-.031,2.607-2,2.648-3.669s-.4-3.426.2-4.967c.8-2.055,3.083-3.032,5.012-4.111,2.134-1.2,4.165-2.922,4.8-5.282a12.359,12.359,0,0,0,.058-4.5c-.24-2.3-.428-4.614-.558-6.923a9.757,9.757,0,0,1,10.434-10.342h.11c1.713.14,3.734.3,4.943-.942.48-.5.784-1.182,1.37-1.524,1.144-.651,2.716.277,3.867-.363a2.641,2.641,0,0,0,.952-2.74,9.671,9.671,0,0,1-.308-3.062c.274-1.428,1.572-2.449,2.055-3.823a5.717,5.717,0,0,0-.908-4.734,19.054,19.054,0,0,0-13.668-8.608C488.911,62.855,486.784,62.831,484.657,62.8Z" transform="translate(-321.147 -51.42)" fill="#865a61"/><path d="M527.509,260.15a34.538,34.538,0,0,1,6.981,2.48,27.875,27.875,0,0,1-4.4,0l-3.3-1.24A14.312,14.312,0,0,1,527.509,260.15Z" transform="translate(-367.826 -181.181)" opacity="0.1"/><path d="M575.677,286.524c-1.254-.185-2.634.086-3.7-.589a2.209,2.209,0,0,1-.343-.281h-.051a10.02,10.02,0,0,1-10.033-10.02,9.544,9.544,0,0,1,.158-1.754c3.511,1.963,6.358,3.98,6.906,4.967a20.388,20.388,0,0,0,2.843,3.587c.956,1.028,1.98,2.014,2.857,2.84C574.834,285.756,575.3,286.184,575.677,286.524Z" transform="translate(-390.679 -190.208)" opacity="0.1"/><path d="M545.055,278.826s-6.252-5.4-7.964-8.478S511.314,254.162,514.4,264.1s13.7,10.876,13.7,10.876,3.425,3.854,3.768,5.738a26.821,26.821,0,0,0,1.541,4.624l5.738,2.569,2.655-.6S548.053,283.879,545.055,278.826Z" transform="translate(-359.499 -181.369)" fill="#fdc2cc"/><path d="M569.42,317.327s10.105,5.738,11.133-7.707l2.569.856-2.569,9.078-4.368,3.169S570.105,319.9,569.42,317.327Z" transform="translate(-395.853 -213.705)" opacity="0.1"/><path d="M570.42,318.327s10.105,5.738,11.133-7.707l2.569.856-2.569,9.078-4.367,3.169S571.105,320.9,570.42,318.327Z" transform="translate(-396.51 -214.362)" fill="#d39999"/><path d="M558.283,114.323a30.982,30.982,0,0,1,.863-3.518,9.294,9.294,0,0,0,.1-3.48,5.053,5.053,0,0,0-.9-2.316c-.343-.428-1.37-1.37-1.97-.945-.343.243-.435,1.651-.572,2.055a17.75,17.75,0,0,1-1.918,3.854,15.668,15.668,0,0,1-12.674,24.862c-.373,0-.743-.017-1.11-.045-.342.6-.654,1.2-.969,1.8a5.6,5.6,0,0,0-.74,2,5.2,5.2,0,0,0,.3,1.987,28.02,28.02,0,0,0,2.624,5.991,9.066,9.066,0,0,1,.942,1.874c.2.634.229,1.312.483,1.922.569,1.37,2.055,2.055,3.425,2.627a5.6,5.6,0,0,0,2.559.613.6.6,0,0,0,.641-.606,2.319,2.319,0,0,0-.685-1.97,9.831,9.831,0,0,0,3.6.428.579.579,0,0,0,.623-.85,15.419,15.419,0,0,0-1.432-3.706c-.623-1.151-1.418-2.49-.85-3.665a4.061,4.061,0,0,1,1.634-1.476c2.107-1.37,3.974-3.6,3.809-6.115-.089-1.37-.781-2.675-.822-4.056-.106-3.367,3.518-5.775,4.066-9.1C559.746,119.766,558.019,117.074,558.283,114.323Z" transform="translate(-375.45 -78.491)" fill="#865a61"/><g transform="translate(134.481 22.972)" opacity="0.1"><path d="M458.852,212.138c-.021-2.514-2.607-4.261-3.3-6.68a5.628,5.628,0,0,1-.2-1.168,7.693,7.693,0,0,0,.2,2.538c.63,2.209,2.836,3.861,3.23,6.049A4.114,4.114,0,0,0,458.852,212.138Z" transform="translate(-455.325 -167.428)"/><path d="M474.555,244.706c-1.329.024-2.648-1.219-3.837-.63-.343.175-.617.49-.973.654a2.648,2.648,0,0,1-1.559.048c-2.134-.367-4.71-1.13-5.172-3.241a3.506,3.506,0,0,0,0,1.35c.456,2.127,3.038,2.895,5.179,3.261a2.648,2.648,0,0,0,1.559-.048c.343-.164.623-.48.973-.654,1.189-.589,2.508.654,3.837.63,1.668-.031,2.607-2,2.648-3.669,0-.343,0-.685-.024-1.028C477.011,242.963,476.106,244.675,474.555,244.706Z" transform="translate(-460.334 -191.813)"/><path d="M514.32,195.82c-.637,2.36-2.669,4.087-4.8,5.282-1.929,1.082-4.213,2.055-5.012,4.111a6.554,6.554,0,0,0-.295,2.758,4.851,4.851,0,0,1,.295-1.387c.8-2.055,3.083-3.032,5.012-4.111,2.134-1.2,4.165-2.922,4.8-5.282a8.66,8.66,0,0,0,.216-2.74A7.049,7.049,0,0,1,514.32,195.82Z" transform="translate(-487.442 -160.959)"/><path d="M551.543,127.107a4.221,4.221,0,0,0-2.4.144c-.6.343-.9,1.028-1.37,1.524-1.209,1.247-3.213,1.082-4.943.942h-.11a9.763,9.763,0,0,0-10.434,10.342v.137a9.752,9.752,0,0,1,10.427-9.108h.11c1.713.14,3.734.3,4.943-.942.48-.5.784-1.182,1.37-1.524a4.2,4.2,0,0,1,2.4-.144,15.612,15.612,0,0,1,1.113,5.138c0-.223.017-.445.017-.685a15.649,15.649,0,0,0-1.124-5.824Z" transform="translate(-505.911 -116.618)"/><path d="M457.719,141.958a10.581,10.581,0,0,0-.627-4.385c-.541-1.4-1.47-2.775-1.713-4.2-.373,1.935,1.007,3.727,1.713,5.573A9.824,9.824,0,0,1,457.719,141.958Z" transform="translate(-455.316 -120.802)"/><path d="M596.966,116.12a8.9,8.9,0,0,1-.192,1.312,30.982,30.982,0,0,0-.863,3.518,6.756,6.756,0,0,0,0,1.288,32.923,32.923,0,0,1,.853-3.426A9.28,9.28,0,0,0,596.966,116.12Z" transform="translate(-547.73 -109.461)"/><path d="M591.122,153.5c-.548,3.326-4.172,5.734-4.066,9.1a4.746,4.746,0,0,0,.048.545c.432-2.949,3.518-5.227,4.018-8.276a6.335,6.335,0,0,0,.034-1.668A2.2,2.2,0,0,1,591.122,153.5Z" transform="translate(-541.927 -133.839)"/><path d="M598.383,97.314a9.591,9.591,0,0,1-1.233,2.055,4.759,4.759,0,0,1,.343.863,6.812,6.812,0,0,0,.88-1.565,4.11,4.11,0,0,0,.158-1.987,3.627,3.627,0,0,1-.147.634Z" transform="translate(-548.565 -96.68)"/><path d="M578.595,195.39a7.993,7.993,0,0,1-3.768,5.118,4.16,4.16,0,0,0-1.634,1.476,2.268,2.268,0,0,0-.093,1.6,1.5,1.5,0,0,1,.093-.233,4.06,4.06,0,0,1,1.634-1.476c2.107-1.37,3.974-3.6,3.809-6.115C578.629,195.637,578.612,195.513,578.595,195.39Z" transform="translate(-532.685 -161.577)"/><path d="M548.641,217.909a.733.733,0,0,1-.442.151,5.553,5.553,0,0,1-2.559-.613c-1.37-.569-2.864-1.261-3.425-2.627-.254-.61-.288-1.288-.483-1.922a9.063,9.063,0,0,0-.942-1.874,28.02,28.02,0,0,1-2.624-5.991,9.219,9.219,0,0,1-.247-.963c-.024.113-.045.23-.058.343a5.2,5.2,0,0,0,.3,1.987,28.023,28.023,0,0,0,2.624,5.991,9.059,9.059,0,0,1,.942,1.874c.2.634.229,1.312.483,1.922.569,1.37,2.055,2.055,3.425,2.627a5.6,5.6,0,0,0,2.559.613.6.6,0,0,0,.641-.606,2.27,2.27,0,0,0-.1-1.028A.413.413,0,0,1,548.641,217.909Z" transform="translate(-509.582 -167.283)"/><path d="M571.955,237.712a1.092,1.092,0,0,1-.449.106,9.831,9.831,0,0,1-3.6-.428,2.312,2.312,0,0,1,.7,1.559,9.793,9.793,0,0,0,2.895.24.579.579,0,0,0,.623-.85C572.079,238.126,572.017,237.918,571.955,237.712Z" transform="translate(-529.341 -189.19)"/></g><path d="M440.065,260.37s-.343,7.022.685,7.536S440.065,260.37,440.065,260.37Z" transform="translate(-310.772 -181.325)" opacity="0.1"/><path d="M496.92,314.37c.343,0,1.713.685,1.884,1.456S496.92,314.37,496.92,314.37Z" transform="translate(-348.188 -216.828)" opacity="0.1"/><path d="M494.42,317.62c.343,0,1.713.685,1.884,1.456S494.42,317.62,494.42,317.62Z" transform="translate(-346.544 -218.964)" opacity="0.1"/><path d="M503.67,326.62c.343,0,1.713.685,1.884,1.456S503.67,326.62,503.67,326.62Z" transform="translate(-352.626 -224.881)" opacity="0.1"/><path d="M462.992,324.785s-4.652,4.655-4.94,5.652-9.078,1.028-9.078,1.028l-.6-4.8s-.034-.127-.065-.319c2.429-.623,10.3-3.532,14.99-2.5A1.058,1.058,0,0,1,462.992,324.785Z" transform="translate(-316.229 -222.916)" opacity="0.1"/><path d="M427.273,331.3s4.484-3.967,5.854-3.881,18.07-7.022,19.183.942-21.324,8.392-21.324,8.392l-3.425,1.285S424.7,331.818,427.273,331.3Z" transform="translate(-301.694 -223.543)" fill="#fdc2cc"/><path d="M424.843,343.757s2.055-2.853,2.682.627,1.572,7.766,1.572,7.766l-4.6-2.285Z" transform="translate(-300.575 -235.424)" fill="#d39999"/><ellipse cx="15.343" cy="2.353" rx="15.343" ry="2.353" transform="translate(299.249 225.273)" fill="#e36b0a" opacity="0.1"/><ellipse cx="23.979" cy="3.679" rx="23.979" ry="3.679" transform="translate(247.305 266.437)" fill="#e36b0a" opacity="0.1"/><ellipse cx="31.717" cy="4.868" rx="31.717" ry="4.868" transform="translate(304.651 278.265)" fill="#e36b0a" opacity="0.1"/><ellipse cx="23.979" cy="3.679" rx="23.979" ry="3.679" transform="translate(0 228.76)" fill="#e36b0a" opacity="0.1"/><path d="M945.39,628.21s-2.168,10.105,7.485,11.3l.6-1.124S945.99,631.355,945.39,628.21Z" transform="translate(-642.897 -423.162)" fill="#e36b0a"/><path d="M962.261,628.542l-2.244.476-.226.051s-5.988-4.864-5.912-15.72a27.252,27.252,0,0,0,2.86,4.529C959.113,621.016,961.8,625.219,962.261,628.542Z" transform="translate(-648.614 -413.392)" fill="#e36b0a"/><path d="M970.316,622.4a1.4,1.4,0,0,1-1.209.158c-5.765-1.346-3.816-20.132-3.816-20.132.319.151.685,2.538,1.994,5.625C969.611,613.474,972.176,621.044,970.316,622.4Z" transform="translate(-655.91 -406.213)" fill="#e36b0a"/><path d="M998.929,628.21s.377,10.105-9.28,11.3l-.6-1.124S998.333,631.355,998.929,628.21Z" transform="translate(-671.738 -423.162)" fill="#e36b0a"/><path d="M990.277,613.35a18.707,18.707,0,0,1-7.707,15.72l-.226-.051-2.244-.476c.442-3.333,3.148-7.536,5.519-10.664A24.288,24.288,0,0,1,990.277,613.35Z" transform="translate(-665.854 -413.392)" fill="#e36b0a"/><path d="M979.65,621.421a3.559,3.559,0,0,1-1.285.983h0a2.29,2.29,0,0,1-.469.158c-1.422.343-1.915-.685-1.833-2.429.134-3.083,2.079-8.461,3.826-12.476a15.561,15.561,0,0,1,3.617-5.227C983.5,602.43,983.414,617.057,979.65,621.421Z" transform="translate(-663.195 -406.213)" fill="#e36b0a"/><path d="M975.8,583.2s-6.437,22.828-.9,26.27S977.226,585.221,975.8,583.2Z" transform="translate(-660.959 -393.57)" fill="#e36b0a"/><path d="M945.39,628.21s-2.168,10.105,7.485,11.3l.6-1.124S945.99,631.355,945.39,628.21Z" transform="translate(-642.897 -423.162)" opacity="0.1"/><path d="M962.261,628.542l-2.244.476-.226.051s-5.988-4.864-5.912-15.72a27.252,27.252,0,0,0,2.86,4.529C959.113,621.016,961.8,625.219,962.261,628.542Z" transform="translate(-648.614 -413.392)" opacity="0.1"/><path d="M970.316,622.4a1.4,1.4,0,0,1-1.209.158c-5.765-1.346-3.816-20.132-3.816-20.132.319.151.685,2.538,1.994,5.625C969.611,613.474,972.176,621.044,970.316,622.4Z" transform="translate(-655.91 -406.213)" opacity="0.1"/><path d="M998.929,628.21s.377,10.105-9.28,11.3l-.6-1.124S998.333,631.355,998.929,628.21Z" transform="translate(-671.738 -423.162)" opacity="0.1"/><path d="M990.277,613.35a18.707,18.707,0,0,1-7.707,15.72l-.226-.051-2.244-.476c.442-3.333,3.148-7.536,5.519-10.664A24.288,24.288,0,0,1,990.277,613.35Z" transform="translate(-665.854 -413.392)" opacity="0.1"/><path d="M979.65,621.421a3.559,3.559,0,0,1-1.285.983h0a2.29,2.29,0,0,1-.469.158c-1.422.343-1.915-.685-1.833-2.429.134-3.083,2.079-8.461,3.826-12.476a15.561,15.561,0,0,1,3.617-5.227C983.5,602.43,983.414,617.057,979.65,621.421Z" transform="translate(-663.195 -406.213)" opacity="0.1"/><path d="M975.8,583.2s-6.437,22.828-.9,26.27S977.226,585.221,975.8,583.2Z" transform="translate(-660.959 -393.57)" opacity="0.1"/><path d="M945.684,628.21s-1.271,10.105,8.382,11.3l.6-1.124S946.283,631.355,945.684,628.21Z" transform="translate(-643.191 -423.162)" fill="#e36b0a"/><path d="M963.189,628.542l-2.244.476-.226.051s-6.885-4.864-6.81-15.72c0,0,1.764,1.891,3.768,4.529C960.034,621.016,962.729,625.219,963.189,628.542Z" transform="translate(-648.634 -413.392)" fill="#e36b0a"/><path d="M970.4,637.234l-2.244.476c-2.127-1.867-2.973-6.745-3.278-11.14C967.247,629.708,969.943,633.911,970.4,637.234Z" transform="translate(-655.848 -422.083)" opacity="0.1"/><path d="M971.678,622.4a1.4,1.4,0,0,1-1.209.158c-5.765-1.346-4.714-20.132-4.714-20.132.319.151,1.565,2.538,2.891,5.625C970.973,613.474,973.528,621.044,971.678,622.4Z" transform="translate(-656.374 -406.213)" fill="#e36b0a"/><path d="M1000.658,628.21s1.274,10.105-8.382,11.3l-.6-1.124S1000.062,631.355,1000.658,628.21Z" transform="translate(-673.467 -423.162)" fill="#e36b0a"/><path d="M992,613.35c.072,10.855-6.81,15.72-6.81,15.72l-.226-.051-2.244-.476c.445-3.333,3.148-7.536,5.518-10.664C990.236,615.241,992,613.35,992,613.35Z" transform="translate(-667.577 -413.392)" fill="#e36b0a"/><path d="M988.238,626.57c-.288,4.111-1.028,8.612-2.86,10.722a3.428,3.428,0,0,1-.415.418l-2.244-.476C983.158,633.911,985.868,629.708,988.238,626.57Z" transform="translate(-667.577 -422.083)" opacity="0.1"/><path d="M982.263,621.421a3.53,3.53,0,0,1-1.285.983h0a2.392,2.392,0,0,1-.473.158c-1.418.343-1.915-.685-1.833-2.429.134-3.083,2.079-8.461,3.826-12.476,1.257-2.891,2.4-5.083,2.72-5.227C985.216,602.43,986.031,617.057,982.263,621.421Z" transform="translate(-664.911 -406.213)" fill="#e36b0a"/><path d="M976.716,633.226a1.579,1.579,0,0,1-.911-.291c-2.713-1.689-2.768-8.029-2.12-14.045C976.01,624.3,978.566,631.866,976.716,633.226Z" transform="translate(-661.411 -417.034)" opacity="0.1"/><path d="M982.28,631.454c-.312.685-.733,1.028-1.285.983h0a1.8,1.8,0,0,1-.774-.291,4.11,4.11,0,0,1-1.531-1.98c.134-3.083,2.079-8.461,3.826-12.476C983.136,623.277,983.342,629.169,982.28,631.454Z" transform="translate(-664.927 -416.245)" opacity="0.1"/><path d="M977.118,583.2s-5.536,22.828,0,26.27S978.543,585.221,977.118,583.2Z" transform="translate(-662.276 -393.57)" fill="#e36b0a"/><path d="M905.9,626.99H882.85v3.816h3.515l.089.449,1.408,7.409h13.4l1.408-7.409.086-.449H905.9Z" transform="translate(-580.429 -412.21)" fill="#4b4770"/><path d="M905.9,626.99H882.85v3.816h3.515l.089.449,1.408,7.409h13.4l1.408-7.409.086-.449H905.9Z" transform="translate(-580.429 -412.21)" opacity="0.1"/><path d="M911.85,633.54l-.384,2.021-1.411,7.409h-13.4l-1.408-7.409-.387-2.021Z" transform="translate(-588.325 -416.516)" fill="#4b4770"/><path d="M911.85,633.54l-.384,2.021h-16.22l-.387-2.021Z" transform="translate(-588.325 -416.516)" opacity="0.1"/><rect width="23.05" height="3.816" transform="translate(303.318 214.78)" fill="#4b4770"/><path d="M130.865,585.911a5.886,5.886,0,0,0-.781,1.47c-.048.127-.1.274-.144.414a1.262,1.262,0,0,0-.271-.092,3.782,3.782,0,0,0-1.223-.106c0-.158.021-.343.024-.5.051-1.805-.161-4.32-1.884-3.254-1.651,1.028-.473,2.74.593,3.837.092.1.185.185.274.271-.973.685-1.158,2.305-1.319,3.987s-1.589,3.521-2.538,4.57c-.1.106-.182.2-.267.291a3.46,3.46,0,0,0-2.74-.709c-.038-.147-.079-.3-.127-.466-.784-2.785-2.374-7.581-4.409-8.608.086-.106.175-.216.267-.343.863-1.13,1.836-2.809.4-3.237s-1.565,1.456-1.487,2.867c0,.175.027.343.041.5a2.1,2.1,0,0,0-1.5.726l-.223-.264c-1.165-1.37-3.3-3.549-3.946-1.9-.6,1.531,1.278,3.525,2.6,4.679l.082.072c-.887,3.6,2.987,6.539,5.073,7.82l.271.168c-2.877,3.388-4.655,9.746-4.655,9.746l8.06,1.439s5.34-4.611,4.655-8.937h.055c5.34-1.072,6.553-6.765,5.724-10.143l.092-.041a6.063,6.063,0,0,0,2.473-1.867C135.53,586.216,132.4,583.873,130.865,585.911Z" transform="translate(-93.475 -393.681)" fill="#e36b0a"/><path d="M130.865,585.911a5.886,5.886,0,0,0-.781,1.47c-.048.127-.1.274-.144.414a1.262,1.262,0,0,0-.271-.092,3.782,3.782,0,0,0-1.223-.106c0-.158.021-.343.024-.5.051-1.805-.161-4.32-1.884-3.254-1.651,1.028-.473,2.74.593,3.837.092.1.185.185.274.271-.973.685-1.158,2.305-1.319,3.987s-1.589,3.521-2.538,4.57c-.1.106-.182.2-.267.291a3.46,3.46,0,0,0-2.74-.709c-.038-.147-.079-.3-.127-.466-.784-2.785-2.374-7.581-4.409-8.608.086-.106.175-.216.267-.343.863-1.13,1.836-2.809.4-3.237s-1.565,1.456-1.487,2.867c0,.175.027.343.041.5a2.1,2.1,0,0,0-1.5.726l-.223-.264c-1.165-1.37-3.3-3.549-3.946-1.9-.6,1.531,1.278,3.525,2.6,4.679l.082.072c-.887,3.6,2.987,6.539,5.073,7.82l.271.168c-2.877,3.388-4.655,9.746-4.655,9.746l8.06,1.439s5.34-4.611,4.655-8.937h.055c5.34-1.072,6.553-6.765,5.724-10.143l.092-.041a6.063,6.063,0,0,0,2.473-1.867C135.53,586.216,132.4,583.873,130.865,585.911Z" transform="translate(-93.475 -393.681)" opacity="0.1"/><path d="M115.767,590.886l-.942,2.74s-.524-.37-1.185-.952c-1.322-1.154-3.2-3.148-2.6-4.679.647-1.648,2.782.528,3.946,1.9C115.455,590.461,115.767,590.886,115.767,590.886Z" transform="translate(-94.415 -396.333)" fill="#e36b0a"/><path d="M128.744,586.673a13.327,13.327,0,0,1-.918,1.079,14.465,14.465,0,0,1-.168-1.449c-.079-1.411.072-3.285,1.487-2.867S129.607,585.536,128.744,586.673Z" transform="translate(-105.406 -393.686)" fill="#e36b0a"/><path d="M161.139,587.508c-.027.908-.116,1.634-.116,1.634a11.444,11.444,0,0,1-1.175-1.052c-1.065-1.1-2.244-2.809-.593-3.837C160.979,583.188,161.191,585.713,161.139,587.508Z" transform="translate(-125.651 -394.096)" fill="#e36b0a"/><path d="M174.112,591.658a6.063,6.063,0,0,1-2.473,1.867,6.649,6.649,0,0,1-.829.3l-1.11-1.559a11.326,11.326,0,0,1,.459-1.514,5.885,5.885,0,0,1,.781-1.469C172.475,587.246,175.606,589.589,174.112,591.658Z" transform="translate(-133.057 -397.054)" fill="#e36b0a"/><path d="M120.2,594.73c.469.548.781.973.781.973l-.942,2.74s-.524-.37-1.185-.952a5.378,5.378,0,0,1,1.062-2.422Z" transform="translate(-99.626 -401.15)" opacity="0.1"/><path d="M128.776,592.29a13.3,13.3,0,0,1-.918,1.079,14.457,14.457,0,0,1-.168-1.449A1.87,1.87,0,0,1,128.776,592.29Z" transform="translate(-105.438 -399.303)" opacity="0.1"/><path d="M127.492,604.156l-2.346,1.028s-.51-.247-1.247-.706c-2.463-1.514-7.413-5.327-4.111-9.821s6.087,3.566,7.194,7.509C127.314,603.347,127.492,604.156,127.492,604.156Z" transform="translate(-99.52 -400.231)" fill="#e36b0a"/><path d="M162.56,594.822a1.932,1.932,0,0,1,1.291-.582c-.027.908-.116,1.634-.116,1.634A11.446,11.446,0,0,1,162.56,594.822Z" transform="translate(-128.363 -400.828)" opacity="0.1"/><path d="M171.639,597.851a6.65,6.65,0,0,1-.829.3l-1.11-1.559a11.32,11.32,0,0,1,.459-1.514A3.991,3.991,0,0,1,171.639,597.851Z" transform="translate(-133.057 -401.38)" opacity="0.1"/><path d="M149.339,608.415l-.394.068c-7.855,1.192-2.59-3.045-2.59-3.045s.343-.343.832-.856c.949-1.048,2.374-2.877,2.538-4.57.247-2.545.531-4.933,3.535-4.23C156.21,596.459,156.775,606.924,149.339,608.415Z" transform="translate(-116.574 -401.76)" fill="#e36b0a"/><rect width="15.007" height="3.946" transform="translate(17.611 226.211)" fill="#d4dfec"/><rect width="19.608" height="13.771" transform="translate(15.226 213.383)" fill="#d4dfec"/><rect width="15.007" height="3.946" transform="translate(17.611 226.211)" opacity="0.1"/><rect width="19.608" height="13.771" transform="translate(15.226 213.383)" opacity="0.1"/><rect width="15.007" height="3.946" transform="translate(18.597 226.211)" fill="#d4dfec"/><path d="M136.983,619.13c.343,1.178.51,1.987.51,1.987l-2.346,1.028s-.51-.247-1.247-.706A6.034,6.034,0,0,1,136.983,619.13Z" transform="translate(-109.521 -417.192)" opacity="0.1"/><path d="M149.339,625.543l-.394.068c-7.855,1.192-2.59-3.045-2.59-3.045s.343-.343.832-.856A5.2,5.2,0,0,1,149.339,625.543Z" transform="translate(-116.574 -418.888)" opacity="0.1"/><path d="M121.1,632.124s4.4-15.757,10.568-10.893-2.507,12.332-2.507,12.332Z" transform="translate(-101.105 -417.96)" fill="#e36b0a"/><ellipse cx="0.493" cy="0.493" rx="0.493" ry="0.493" transform="translate(21.721 196.406)" opacity="0.1"/><ellipse cx="0.493" cy="0.493" rx="0.493" ry="0.493" transform="translate(21.68 198.708)" opacity="0.1"/><ellipse cx="0.493" cy="0.493" rx="0.493" ry="0.493" transform="translate(35.988 196.858)" opacity="0.1"/><ellipse cx="0.493" cy="0.493" rx="0.493" ry="0.493" transform="translate(24.475 208.655)" opacity="0.1"/><ellipse cx="0.493" cy="0.493" rx="0.493" ry="0.493" transform="translate(34.961 200.681)" opacity="0.1"/><ellipse cx="0.493" cy="0.493" rx="0.493" ry="0.493" transform="translate(29.864 205.778)" opacity="0.1"/><ellipse cx="0.493" cy="0.493" rx="0.493" ry="0.493" transform="translate(23.406 197.392)" opacity="0.1"/><ellipse cx="0.493" cy="0.493" rx="0.493" ry="0.493" transform="translate(34.632 198.338)" opacity="0.1"/><ellipse cx="0.493" cy="0.493" rx="0.493" ry="0.493" transform="translate(32.947 202.161)" opacity="0.1"/><ellipse cx="0.493" cy="0.493" rx="0.493" ry="0.493" transform="translate(27.767 208.286)" opacity="0.1"/><ellipse cx="0.493" cy="0.493" rx="0.493" ry="0.493" transform="translate(26.698 205.86)" opacity="0.1"/><ellipse cx="0.493" cy="0.493" rx="0.493" ry="0.493" transform="translate(24.146 200.393)" opacity="0.1"/><rect width="15.007" height="1.442" transform="translate(18.597 226.211)" opacity="0.1"/><rect width="19.608" height="13.771" transform="translate(16.213 213.383)" fill="#d4dfec"/><ellipse cx="0.493" cy="0.493" rx="0.493" ry="0.493" transform="translate(28.425 210.505)" opacity="0.1"/><ellipse cx="0.493" cy="0.493" rx="0.493" ry="0.493" transform="translate(25.465 211.122)" opacity="0.1"/></svg>