<svg xmlns="http://www.w3.org/2000/svg" xmlns:xlink="http://www.w3.org/1999/xlink" width="554.15" height="427.53" viewBox="0 0 554.15 427.53"><defs><linearGradient id="a" x1="0.5" y1="1" x2="0.5" gradientUnits="objectBoundingBox"><stop offset="0" stop-color="gray" stop-opacity="0.251"/><stop offset="0.54" stop-color="gray" stop-opacity="0.122"/><stop offset="1" stop-color="gray" stop-opacity="0.102"/></linearGradient><linearGradient id="b" y1="1" y2="-0.001" xlink:href="#a"/></defs><path d="M453.61,150.089c-23.07,14.591-52.993,13.641-79.211,6.057s-50.309-21.111-75.845-30.72a267.851,267.851,0,0,0-66.64-15.693c-32.559-3.367-68.915.731-91.6,24.319-25.263,26.273-23.326,73.662,4,97.769,13.9,12.266,32.1,18.285,47.973,27.861s30.556,25.482,29.208,43.968c-1.249,17.111-15.8,30.245-30.851,38.484C179,348.5,164.669,355.454,163.267,368.642c-1.353,12.763,10.695,22.764,22.2,28.45,37.54,18.552,83.789,18.372,121.182-.469,13.341-6.722,25.607-15.66,39.6-20.9,36.738-13.756,77.214.093,116.113,5.156a256.088,256.088,0,0,0,98.762-6.5c19.261-5.14,38.6-13,52.131-27.637,9.756-10.558,15.824-23.916,21.548-37.1q9.129-21.106,17.548-42.506c3.372-8.567,6.69-17.3,7.557-26.464,1.577-16.6-5.064-33.017-14.116-47.035A140.35,140.35,0,0,0,437.9,162.083" transform="translate(-105.99 -81.163)" fill="#e36b0a" opacity="0.1"/><ellipse cx="74.066" cy="14.481" rx="74.066" ry="14.481" transform="translate(0 398.567)" fill="#e36b0a" opacity="0.1"/><ellipse cx="155.258" cy="14.481" rx="155.258" ry="14.481" transform="translate(138.84 368.322)" fill="#e36b0a" opacity="0.1"/><path d="M824.35,493.294s21.766-38.555,54.565-49.654a67.1,67.1,0,0,0,33.977-25.416,113.082,113.082,0,0,0,10.029-18.044" transform="translate(-424.866 -213.596)" fill="none" stroke="#535461" stroke-miterlimit="10" stroke-width="2"/><path d="M1025.133,373.64c-3.737,3.623-21.133,7.372-21.133,7.372s4.272-17.27,8-20.9a9.425,9.425,0,1,1,13.128,13.527Z" transform="translate(-506.491 -194.183)" fill="#e36b0a"/><path d="M1006.594,428.86c-5.107,1.009-21.744-5.3-21.744-5.3s12.97-12.179,18.072-13.194a9.428,9.428,0,1,1,3.673,18.494Z" transform="translate(-497.79 -218.142)" fill="#e36b0a"/><path d="M945.6,491.212c-4.911-1.7-16.1-15.545-16.1-15.545s17.346-3.972,22.262-2.27a9.429,9.429,0,1,1-6.166,17.815Z" transform="translate(-472.642 -246.67)" fill="#e36b0a"/><path d="M883.392,526.552c-5.135-.846-18.492-12.61-18.492-12.61s16.424-6.842,21.559-6a9.423,9.423,0,0,1-3.067,18.6Z" transform="translate(-443.29 -262.525)" fill="#e36b0a"/><path d="M958.26,402.342c0,5.206,9.418,20.3,9.418,20.3s9.429-15.093,9.434-20.3a9.429,9.429,0,0,0-18.852,0Z" transform="translate(-485.709 -210.401)" fill="#e36b0a"/><path d="M887.962,442.429c1.555,4.965,15.054,16.555,15.054,16.555s4.485-17.221,2.93-22.186a9.433,9.433,0,0,0-18.006,5.631Z" transform="translate(-453.562 -227.226)" fill="#e36b0a"/><path d="M825.989,494.526c.693,5.162,12.048,18.863,12.048,18.863s7.328-16.211,6.635-21.373a9.425,9.425,0,0,0-18.683,2.51Z" transform="translate(-425.573 -251.61)" fill="#e36b0a"/><path d="M1025.133,373.64c-3.737,3.623-21.133,7.372-21.133,7.372s4.272-17.27,8-20.9a9.425,9.425,0,1,1,13.128,13.527Z" transform="translate(-506.491 -194.183)" opacity="0.25"/><path d="M1006.594,428.86c-5.107,1.009-21.744-5.3-21.744-5.3s12.97-12.179,18.072-13.194a9.428,9.428,0,1,1,3.673,18.494Z" transform="translate(-497.79 -218.142)" opacity="0.25"/><path d="M945.6,491.212c-4.911-1.7-16.1-15.545-16.1-15.545s17.346-3.972,22.262-2.27a9.429,9.429,0,1,1-6.166,17.815Z" transform="translate(-472.642 -246.67)" opacity="0.25"/><path d="M883.392,526.552c-5.135-.846-18.492-12.61-18.492-12.61s16.424-6.842,21.559-6a9.423,9.423,0,0,1-3.067,18.6Z" transform="translate(-443.29 -262.525)" opacity="0.25"/><path d="M958.26,402.342c0,5.206,9.418,20.3,9.418,20.3s9.429-15.093,9.434-20.3a9.429,9.429,0,0,0-18.852,0Z" transform="translate(-485.709 -210.401)" opacity="0.25"/><path d="M887.962,442.429c1.555,4.965,15.054,16.555,15.054,16.555s4.485-17.221,2.93-22.186a9.433,9.433,0,0,0-18.006,5.631Z" transform="translate(-453.562 -227.226)" opacity="0.25"/><path d="M825.989,494.526c.693,5.162,12.048,18.863,12.048,18.863s7.328-16.211,6.635-21.373a9.425,9.425,0,0,0-18.683,2.51Z" transform="translate(-425.573 -251.61)" opacity="0.25"/><path d="M826.65,465.286s4.272-44.066,29.732-67.5a67.115,67.115,0,0,0,20.767-37.006A112.945,112.945,0,0,0,879,340.23" transform="translate(-425.911 -186.358)" fill="none" stroke="#535461" stroke-miterlimit="10" stroke-width="2"/><path d="M936.757,302.5c-1.948,4.829-16.331,15.278-16.331,15.278s-3.1-17.521-1.151-22.371a9.423,9.423,0,0,1,17.461,7.044Z" transform="translate(-467.704 -163.486)" fill="#e36b0a"/><path d="M940.232,358.395c-4.256,3-22.022,3.972-22.022,3.972S925.134,346,929.39,342.98A9.423,9.423,0,1,1,940.233,358.4Z" transform="translate(-467.512 -186.828)" fill="#e36b0a"/><path d="M906.163,440.273c-5.184.436-21.013-7.688-21.013-7.688s14.247-10.656,19.436-11.093a9.424,9.424,0,1,1,1.577,18.781Z" transform="translate(-452.491 -223.264)" fill="#e36b0a"/><path d="M864.731,497.553c-5.036,1.3-22.011-4.027-22.011-4.027S854.964,480.611,860,479.307a9.425,9.425,0,0,1,4.731,18.246Z" transform="translate(-433.213 -249.41)" fill="#e36b0a"/><path d="M883.2,357.068c2.112,4.758,16.839,14.732,16.839,14.732s2.5-17.613.4-22.371a9.427,9.427,0,0,0-17.237,7.639Z" transform="translate(-451.239 -187.989)" fill="#e36b0a"/><path d="M835.272,422.4c3.438,3.907,20.478,9.03,20.478,9.03s-2.881-17.559-6.313-21.471A9.434,9.434,0,0,0,835.251,422.4Z" transform="translate(-428.755 -216.581)" fill="#e36b0a"/><path d="M799.728,495.153c2.728,4.436,18.656,12.364,18.656,12.364s.131-17.793-2.592-22.23a9.426,9.426,0,0,0-16.064,9.865Z" transform="translate(-413.046 -250.223)" fill="#e36b0a"/><path d="M281.84,0V384.931H558.7V0Z" transform="translate(-128.055)" fill="url(#a)"/><rect width="272.004" height="14.672" transform="translate(156.213 3.378)" fill="#f6f7f9"/><g transform="translate(156.213 3.378)" opacity="0.2"><rect width="272.004" height="14.672" fill="#e36b0a"/></g><rect width="272.004" height="363.504" transform="translate(156.213 18.05)" fill="#f6f7f9"/><circle cx="2.488" cy="2.488" r="2.488" transform="translate(160.878 8.223)" fill="#f6f7f9"/><circle cx="2.488" cy="2.488" r="2.488" transform="translate(167.622 8.223)" fill="#f6f7f9"/><circle cx="2.488" cy="2.488" r="2.488" transform="translate(174.367 8.223)" fill="#f6f7f9"/><g transform="translate(204.759 40.46)" opacity="0.2"><rect width="174.907" height="6.848" fill="#e36b0a"/></g><rect width="23.239" height="6.848" transform="translate(356.427 40.46)" fill="#e36b0a"/><g transform="translate(179.692 180.401)" opacity="0.2"><rect width="110.068" height="78.84" fill="#e36b0a" opacity="0.2"/></g><g transform="translate(179.692 78.131)" opacity="0.2"><rect width="110.068" height="78.84" fill="#e36b0a" opacity="0.2"/></g><g transform="translate(179.692 281.34)" opacity="0.2"><rect width="110.068" height="78.84" fill="#e36b0a" opacity="0.2"/></g><g transform="translate(294.671 180.401)" opacity="0.2"><rect width="110.068" height="78.84" fill="#e36b0a" opacity="0.2"/></g><g transform="translate(294.671 78.131)" opacity="0.2"><rect width="110.068" height="78.84" fill="#e36b0a" opacity="0.2"/></g><g transform="translate(294.671 281.34)" opacity="0.2"><rect width="110.068" height="78.84" fill="#e36b0a" opacity="0.2"/></g><path d="M1014.877,692.73s3.9,5.091-1.8,12.774-10.367,14.187-8.485,18.967c0,0,8.583-14.274,15.573-14.471S1022.566,701.313,1014.877,692.73Z" transform="translate(-506.57 -346.518)" fill="#3acc6c"/><path d="M1015.057,692.73a6.271,6.271,0,0,1,.8,1.593c6.821,8.01,10.449,15.485,3.9,15.676-6.1.175-13.428,11.088-15.18,13.843a6.029,6.029,0,0,0,.207.628S1013.36,710.2,1020.35,710,1022.745,701.313,1015.057,692.73Z" transform="translate(-506.75 -346.518)" opacity="0.1"/><path d="M1036.311,703.664c0,1.79-.2,3.241-.447,3.241s-.453-1.451-.453-3.241.251-.949.5-.949S1036.311,701.868,1036.311,703.664Z" transform="translate(-520.763 -350.964)" fill="#ffd037"/><path d="M1039.055,707.517c-1.571.857-2.947,1.375-3.061,1.157s1.059-1.091,2.63-1.948.955-.229,1.091,0S1040.626,706.677,1039.055,707.517Z" transform="translate(-521.024 -352.678)" fill="#ffd037"/><path d="M978.831,692.73s-3.9,5.091,1.8,12.774,10.367,14.187,8.485,18.967c0,0-8.583-14.274-15.573-14.471S971.132,701.313,978.831,692.73Z" transform="translate(-491.083 -346.518)" fill="#3acc6c"/><path d="M978.831,692.73a6.271,6.271,0,0,0-.8,1.593c-6.821,8.01-10.449,15.485-3.9,15.676,6.106.175,13.428,11.088,15.18,13.843a4.991,4.991,0,0,1-.207.628S980.528,710.2,973.538,710,971.132,701.313,978.831,692.73Z" transform="translate(-491.083 -346.518)" opacity="0.1"/><path d="M972.84,703.664c0,1.79.2,3.241.453,3.241s.448-1.451.448-3.241-.251-.949-.5-.949S972.84,701.868,972.84,703.664Z" transform="translate(-492.333 -350.964)" fill="#ffd037"/><path d="M967.481,707.517c1.577.857,2.946,1.375,3.067,1.157s-1.064-1.091-2.636-1.948-.955-.229-1.091,0S965.91,706.677,967.481,707.517Z" transform="translate(-489.457 -352.678)" fill="#ffd037"/><ellipse cx="40.705" cy="6.248" rx="40.705" ry="6.248" transform="translate(457.322 404.405)" fill="#e36b0a" opacity="0.1"/><path d="M1008.449,736.363l-.2,1.588-.273,2.248-.115.933-.273,2.248-.12.939-.273,2.242-3.116,25.536c-.278,2.281-4,4.054-8.5,4.054H979.4c-4.5,0-8.185-1.773-8.49-4.054l-3.121-25.547-.273-2.243-.115-.938-.278-2.248-.115-.933-.273-2.248-.2-1.588c-.153-1.26,1.883-2.352,4.4-2.352h33.1C1006.588,734,1008.607,735.091,1008.449,736.363Z" transform="translate(-489.469 -365.269)" fill="#65617d"/><path d="M916.2,683.01l-.273,2.243H874.963l-.273-2.243Z" transform="translate(-397.419 -310.328)" fill="#9d9cb5"/><path d="M916.138,688.84l-.273,2.248H875.678l-.278-2.248Z" transform="translate(-397.742 -312.977)" fill="#9d9cb5"/><path d="M916.072,694.67l-.273,2.248H876.393l-.273-2.248Z" transform="translate(-398.069 -315.626)" fill="#9d9cb5"/><path d="M683.785,227.153s-1-2.494,5.735-1.872,26.066,2.772,34.425.889,13.341-2.483,12.844,0-14.465,8.092-14.465,8.092l-18.088,1.872-13.341-2.123-7.164-4.24Z" transform="translate(-360.975 -133.787)" fill="#e36b0a"/><path d="M736.82,226.167c-.5,2.483-14.465,8.092-14.465,8.092l-18.088,1.872-13.341-2.117-7.159-4.24.049-2.619a1.091,1.091,0,0,1,.382-1.206c.617-.546,2.057-.971,5.353-.666,6.739.622,26.066,2.766,34.425.884,6.81-1.533,11.382-2.215,12.55-1.091a1.091,1.091,0,0,1,.295,1.091Z" transform="translate(-360.99 -133.784)" opacity="0.1"/><path d="M739.289,268.8a78.076,78.076,0,0,0-32.095,14.214,5.953,5.953,0,0,0-2.559-3.039,8.986,8.986,0,0,0-2.6-1.091,2.617,2.617,0,0,0-2.374,1.026,13.447,13.447,0,0,0-2.112,3.127c-12.719-8.73-32.013-14.3-32.013-14.3v-1.746a9.627,9.627,0,0,1,.125-1.228c.065-.469.147-.884.251-1.391,1.637-8.327,8.108-27.353,8.108-27.353h7.317l14.187,2.946,15.96-.977,16.075-3.345,2.084-.437c3.476,2.728,7.421,21.826,8.97,29.956.2,1.031.349,1.883.464,2.51C739.219,268.375,739.289,268.8,739.289,268.8Z" transform="translate(-352.71 -138.637)" fill="#e36b0a"/><path d="M668.19,266.684c.42-7.994,6.771-25.318,7.846-28.194h-2s-6.853,20.189-8.245,28.068a.194.194,0,0,0,0,.06c-.038.213-.076.42-.1.617-.065.469-.109.884-.125,1.228v1.746s19.294,5.576,32.013,14.3a13.443,13.443,0,0,1,2.112-3.127C694.823,276.964,676.386,269.761,668.19,266.684Z" transform="translate(-352.719 -140.132)" fill="#e36b0a"/><path d="M771.646,267.626c-.049-.278-.109-.6-.175-.955-.082-.458-.18-.977-.289-1.555h0c-1.55-8.141-5.495-27.244-8.97-29.956l-2.084.436c1.266,3.4,9.423,25.6,8.73,29.929-13.641,2.728-27.468,11.595-31.647,14.427a5.954,5.954,0,0,1,2.559,3.039,78.076,78.076,0,0,1,32.095-14.214S771.782,268.357,771.646,267.626Z" transform="translate(-385.274 -138.619)" fill="#e36b0a"/><path d="M669.11,265.768c.415-7.994,6.772-25.318,7.846-28.188h-2.008s-6.853,20.189-8.245,28.063v.06q-.06.327-.1.622c-.065.469-.109.884-.125,1.228V269.3s19.289,5.571,32.013,14.3a13.211,13.211,0,0,1,2.106-3.127C695.737,276.064,677.306,268.845,669.11,265.768Z" transform="translate(-353.137 -139.718)" opacity="0.1"/><path d="M668.19,266.684c.42-7.994,6.771-25.318,7.846-28.194h-2s-6.853,20.189-8.245,28.068a.194.194,0,0,0,0,.06c-.038.213-.076.42-.1.617-.065.469-.109.884-.125,1.228v1.746s19.294,5.576,32.013,14.3a13.443,13.443,0,0,1,2.112-3.127C694.823,276.964,676.386,269.761,668.19,266.684Z" transform="translate(-352.719 -140.132)" fill="#e36b0a"/><path d="M770.74,266.706l-.175-.955c-.087-.458-.18-.971-.289-1.555h0c-1.544-8.136-5.495-27.239-8.97-29.956l-2.079.442c1.266,3.4,9.423,25.6,8.73,29.929-13.641,2.728-27.473,11.6-31.648,14.421a5.964,5.964,0,0,1,2.559,3.045,78,78,0,0,1,32.089-14.22S770.877,267.448,770.74,266.706Z" transform="translate(-384.865 -138.201)" opacity="0.1"/><path d="M771.646,267.626c-.049-.278-.109-.6-.175-.955-.082-.458-.18-.977-.289-1.555h0c-1.55-8.141-5.495-27.244-8.97-29.956l-2.084.436c1.266,3.4,9.423,25.6,8.73,29.929-13.641,2.728-27.468,11.595-31.647,14.427a5.954,5.954,0,0,1,2.559,3.039,78.076,78.076,0,0,1,32.095-14.214S771.782,268.357,771.646,267.626Z" transform="translate(-385.274 -138.619)" fill="#e36b0a"/><path d="M678.37,253.489s12.659,7.966,15.616-3.7l2.816.753s.928,12.926-19.272,5.549Z" transform="translate(-358.158 -145.266)" opacity="0.1"/><path d="M678.37,251.659s12.659,7.966,15.616-3.7l2.816.753s.928,12.926-19.272,5.549Z" transform="translate(-358.158 -144.435)" fill="#e36b0a"/><path d="M752.07,250.057s1.637,9.532,18.983,4.911l-.611-1.8s-11.846,4.911-16.14-3.618Z" transform="translate(-392.026 -145.157)" opacity="0.1"/><path d="M752.07,248.227s1.637,9.532,18.983,4.911l-.611-1.8s-11.846,4.911-16.14-3.618Z" transform="translate(-392.026 -144.326)" fill="#e36b0a"/><path d="M730.91,248.642v19.894h3.077s4.256-1.533,4.158-10.476-.748-11.349-.748-11.349Z" transform="translate(-382.411 -143.867)" opacity="0.1"/><path d="M730,247.732v19.894h3.078s4.256-1.533,4.158-10.476-.753-11.349-.753-11.349Z" transform="translate(-381.998 -143.453)" fill="#e36b0a"/><path d="M736.715,232.988c-1.255,2.335-12.648,6.171-14.662,6.831l-.305.1s-.72.186-1.926.437c-3.667.764-11.841,2.183-18.006.938-.895-.175-1.822-.366-2.766-.546l-2.182-.475c-7.094-1.577-14.432-3.639-15.736-5.456,0,0,.355-5.931,1.55-5.773s14.536,5.773,14.536,5.773l.191.027c.344.044,1.124.142,2.221.267,4.332.475,13.461,1.228,18.372-.087.235-.065.453-.131.666-.207.371-.125.758-.256,1.157-.4,6.319-2.237,15.78-6.242,15.78-6.242S738.1,230.418,736.715,232.988Z" transform="translate(-359.794 -135.443)" opacity="0.1"/><path d="M736.82,226.649c-.5,2.483-14.465,8.092-14.465,8.092l-18.088,1.872L690.926,234.5l-7.159-4.24.049-2.619a1.091,1.091,0,0,1,.382-1.206c2.373.72,14.187,5.691,14.187,5.691l.191.027c.344.044,1.124.142,2.221.267,4.332.475,13.461,1.228,18.372-.087.235-.065.453-.131.666-.207.371-.12.758-.256,1.157-.4,5.713-2.024,14-5.495,15.535-6.139A1.092,1.092,0,0,1,736.82,226.649Z" transform="translate(-360.99 -134.266)" opacity="0.1"/><path d="M736.715,231.144c-1.255,2.335-12.648,6.166-14.662,6.826l-.305.1s-.72.18-1.926.431c-3.667.764-11.841,2.183-18.006.939-.895-.175-1.822-.366-2.766-.546l-2.182-.475c-7.094-1.577-14.432-3.639-15.736-5.456,0,0,.355-5.931,1.55-5.767s14.536,5.767,14.536,5.767l.191.027c.344.044,1.124.147,2.221.267,4.332.475,13.461,1.228,18.372-.087.235-.065.453-.131.666-.207.371-.12.758-.256,1.157-.4,6.319-2.237,15.78-6.242,15.78-6.242S738.1,228.584,736.715,231.144Z" transform="translate(-359.794 -134.602)" fill="#e36b0a"/><circle cx="1.997" cy="1.997" r="1.997" transform="translate(348.662 100.846)" opacity="0.1"/><circle cx="1.997" cy="1.997" r="1.997" transform="translate(348.662 100.344)" fill="#e36b0a"/><path d="M713.628,238.777l-.546,5.631-2.183-.475.546-5.424C711.751,238.565,712.537,238.668,713.628,238.777Z" transform="translate(-373.32 -140.141)" opacity="0.1"/><path d="M712.728,238.777l-.546,5.631L710,243.934l.546-5.424C710.846,238.565,711.637,238.668,712.728,238.777Z" transform="translate(-372.911 -140.141)" fill="#e36b0a"/><path d="M751.832,243.158l-.306.1s-.715.18-1.926.431l-1.861-5.342c.235-.065.458-.131.671-.207.371-.12.758-.256,1.157-.4Z" transform="translate(-390.058 -139.791)" opacity="0.1"/><path d="M752.752,243.158l-.305.1s-.72.18-1.926.431l-1.861-5.342c.235-.065.453-.131.666-.207.371-.12.758-.256,1.157-.4Z" transform="translate(-390.476 -139.791)" fill="#e36b0a"/><g transform="translate(200.271 87.865)" opacity="0.5"><path d="M497.677,220.209a14.405,14.405,0,0,1,7.252,2.013s6.646.808,10.269,0,5.456-3.623,6.144-2.821.7,8.359.7,8.359l-3.121,8.359-7.05,5.233L500.7,238.134l-3.7-9.456Z" transform="translate(-476.405 -219.259)" fill="#e36b0a"/><path d="M522.045,227.786l-3.121,8.359-7.05,5.233L500.7,238.158l-3.7-9.467.7-8.458h.164a14.8,14.8,0,0,1,7.093,2.019s6.646.808,10.269,0c3.443-.764,5.255-3.35,6-2.914h0a.338.338,0,0,1,.115.087C522.045,220.223,522.045,227.786,522.045,227.786Z" transform="translate(-476.405 -219.273)" opacity="0.1"/><path d="M522.045,227.831l-3.121,8.359-7.05,5.233L500.7,238.2l-3.7-9.467.7-8.457h.164c.622,2.668,3.274,11.093,11.72,11.688,8.687.606,11.153-9.729,11.666-12.577a.339.339,0,0,1,.115.087C522.045,220.268,522.045,227.831,522.045,227.831Z" transform="translate(-476.405 -219.319)" opacity="0.1"/><path d="M480.527,220.328s1.811,11.78,11.884,12.484,11.781-13.292,11.781-13.292,14.6,4.785,18.006,13.319,5.942,15.382,5.942,15.382-1.091,1.91-2.319,2.112-9.565,5.942-9.565,5.942-.1,16.315.808,17.319.606,5.336-2.117,5.135-21.548-4.431-37.65-.906c0,0-6.744,2.417-6.548-1.511s.5-19.332.5-19.332-10.171-4.431-10.771-4.431-2.117-.8-.507-3.421,3.629-11.579,3.629-11.579S467.639,224.693,480.527,220.328Z" transform="translate(-459.255 -219.378)" fill="#e36b0a"/><path d="M555.63,259.77s3.023,2.215,2.319,3.929S555.63,259.77,555.63,259.77Z" transform="translate(-503.044 -237.665)" opacity="0.1"/><path d="M563.574,263.67a5.456,5.456,0,0,0,0,3.007" transform="translate(-506.557 -239.438)" opacity="0.1"/><path d="M566.772,273.8s.4,2.728-.8,3.017" transform="translate(-507.741 -244.04)" opacity="0.1"/><path d="M488.718,258.48s-5.636,4.911-3.727,6.848" transform="translate(-470.769 -237.079)" opacity="0.1"/><path d="M485.689,280.26s-.093,5.135,1.462,5.538" transform="translate(-471.265 -246.975)" opacity="0.1"/><path d="M515.4,309.713s3.819-2.614,4.834-2.515" transform="translate(-484.765 -259.213)" opacity="0.1"/><path d="M522.4,314.52s4.136-2.925,5.244-2.728" transform="translate(-487.945 -261.298)" opacity="0.1"/></g><g transform="translate(314.117 187.931)" opacity="0.5"><path d="M687,402.65s32.946,1.561,49.326.6l-.36,4.322-28.985,3.82L698.4,408.75Z" transform="translate(-676.578 -402.65)" fill="#e36b0a"/><path d="M736.348,403.25l-.36,4.322-28.979,3.82-8.583-2.641L687,402.65s.677.038,1.882.087h0c7.148.311,32.886,1.315,47.018.546Z" transform="translate(-676.578 -402.65)" opacity="0.1"/><path d="M739.074,464.7c-6.362,3.819-28.445.12-28.445.12L704.508,443l-6.842,22.2c-9.718,3.481-29.765-1.561-29.765-1.561l7.8-48.017L677.051,409l1.271-6.351,12.364,3.721s3.716,2.521,19.2,1.8,17.761-4.911,17.761-4.911c.682.2,1.331,2.6,1.986,5.593.949,4.365,1.915,9.964,3.055,11.813C734.633,423.777,739.074,464.7,739.074,464.7Z" transform="translate(-667.9 -402.65)" fill="#e36b0a"/><path d="M737.276,409.723c-13.8,7.579-25.689,7.372-25.689,7.372-2.941.36-26.917-7.219-26.917-7.219l1.271-6.346,12.364,3.721s3.716,2.521,19.2,1.8,17.761-4.911,17.761-4.911C735.972,404.332,736.621,406.733,737.276,409.723Z" transform="translate(-675.52 -403.05)" opacity="0.1"/><path d="M736.348,403.25l-.36,4.322-28.979,3.82-8.583-2.641L687,402.65s.677.038,1.882.087h0l10.476,3.154s3.716,2.521,19.2,1.8c12.162-.546,16.179-3.274,17.341-4.414Z" transform="translate(-676.578 -402.65)" opacity="0.1"/><path d="M737.276,408.843c-13.8,7.579-25.689,7.372-25.689,7.372-2.941.36-26.917-7.219-26.917-7.219l1.271-6.346,12.364,3.721s3.716,2.521,19.2,1.8,17.761-4.911,17.761-4.911C735.972,403.447,736.621,405.853,737.276,408.843Z" transform="translate(-675.52 -402.65)" fill="#e36b0a"/><circle cx="1.26" cy="1.26" r="1.26" transform="translate(37.148 9.898)" opacity="0.1"/><circle cx="1.26" cy="1.26" r="1.26" transform="translate(37.148 9.418)" fill="none" stroke="#e36b0a" stroke-miterlimit="10" stroke-width="1"/><path d="M679.23,463.58s2.221,6.6,3.781,6.482S679.23,463.58,679.23,463.58Z" transform="translate(-673.048 -430.334)" opacity="0.1"/><path d="M676.59,475.46s1.38,3.961,2.821,4.622" transform="translate(-671.848 -435.731)" opacity="0.1"/><path d="M676.59,483.05s2.183,2.761,3.476,3.421" transform="translate(-671.848 -439.18)" opacity="0.1"/><path d="M784,437.3s2.041,3.061,0,3.721" transform="translate(-720.651 -418.393)" opacity="0.1"/><path d="M784.574,445.842c-2.368-2.81-.906,3.82-.906,3.82S785.18,446.562,784.574,445.842Z" transform="translate(-720.297 -421.959)" opacity="0.1"/><path d="M785.412,452.69s-3.6,5.342-2.881,5.942" transform="translate(-719.94 -425.386)" opacity="0.1"/><path d="M692.856,431.44a26.275,26.275,0,0,1-9.276-2.117l.2-.442c.087.044,8.9,3.869,13.668,1,1.8-1.091,2.81-3.012,3.006-5.729l.48.038c-.207,2.881-1.3,4.911-3.241,6.1A9.278,9.278,0,0,1,692.856,431.44Z" transform="translate(-675.024 -412.419)" opacity="0.1"/><path d="M692.856,430.56a26.275,26.275,0,0,1-9.276-2.117l.2-.437c.087.038,8.9,3.863,13.668.993,1.8-1.091,2.81-3.012,3.006-5.729l.48.038c-.207,2.881-1.3,4.911-3.241,6.1A9.276,9.276,0,0,1,692.856,430.56Z" transform="translate(-675.024 -412.019)" fill="#e36b0a"/><path d="M760.789,432.432a7.471,7.471,0,0,1-3.274-.7c-3.579-1.724-4.158-5.948-4.185-6.128l.48-.06c0,.044.573,4.152,3.918,5.757,2.979,1.435,7.208.546,12.55-2.728l.246.409C766.72,431.28,763.463,432.432,760.789,432.432Z" transform="translate(-706.716 -413.05)" opacity="0.1"/><path d="M760.789,431.552a7.471,7.471,0,0,1-3.274-.7c-3.579-1.724-4.158-5.948-4.185-6.128l.48-.06c0,.044.573,4.152,3.918,5.757,2.979,1.435,7.208.546,12.55-2.728l.246.409C766.72,430.4,763.463,431.552,760.789,431.552Z" transform="translate(-706.716 -412.65)" fill="#e36b0a"/></g><path d="M503.34,404s6.193,8.648,10.4,7.808,4.622-1.762,8.359-7.808l3.067,7.055-3.612,8.73-4.278,5.538-9.069-1.424-2.936-9.909Z" transform="translate(-279.014 -215.332)" fill="#e36b0a"/><path d="M525.166,411.036l-3.612,8.73-4.278,5.538-9.069-1.424-2.936-9.909-1.932-9.985s.546.753,1.4,1.79c2.079,2.483,6.035,6.608,9,6,4.147-.829,4.611-1.741,8.212-7.563l.147-.246Z" transform="translate(-279.014 -215.318)" opacity="0.1"/><path d="M525.166,411.05l-3.612,8.73-4.278,5.538-9.069-1.424-2.936-9.909L503.34,404s.546.753,1.4,1.79c1.353,4.365,4.262,11.366,9,11.306,5.353-.06,7.513-8.927,8.212-12.85L522.1,404Z" transform="translate(-279.014 -215.332)" opacity="0.1"/><path d="M493.746,402.606s-2.1-.251-1.009,2.352,3.1,11.164,2.1,12.926-.5,6.548-4.867,7.475l1.255,4.949s.251,10.913-.251,12.512-.589,10.405-.42,11.328.087,6.968-.584,7.224-1.091,3.187,1.091,3.689,11.5.758,13.177,1.26,13.6,0,13.6,0,5.036-.671,6.3-1.091,1.511-1.424,1.091-3.356-2.352-15.949-1.932-17.712.507-18.972.507-18.972-3.274-1.091-3.274-4.283-1.26-11.753,1.342-17.122c0,0-2.1-1.441-2.434-1.184s-3.5-.666-3.5-.666-1.637,14.607-8.485,14.689-9.9-14.689-9.9-14.689S497.61,400.593,493.746,402.606Z" transform="translate(-272.694 -214.195)" fill="#e36b0a"/><path d="M515.49,489.38s1.413,3.443,3.77,3.945S515.49,489.38,515.49,489.38Z" transform="translate(-284.535 -254.125)" opacity="0.1"/><path d="M511.49,494.3s4.562,3.694,4.365,4.453" transform="translate(-282.717 -256.36)" opacity="0.1"/><path d="M494.72,454.3s3.612,2.434,3.612,4.2" transform="translate(-275.098 -238.186)" opacity="0.1"/><path d="M497.785,464.738s-1-3.525-1.675-4.278" transform="translate(-275.729 -240.985)" opacity="0.1"/><path d="M496.11,470.76a31.437,31.437,0,0,1,1.675,3.863" transform="translate(-275.729 -245.665)" opacity="0.1"/><path d="M546.212,459.53s-4.7,1.43-4.283,3.192" transform="translate(-296.535 -240.562)" opacity="0.1"/><path d="M541.91,483.575s6.155-7.137,4.305-6.968S541.91,483.575,541.91,483.575Z" transform="translate(-296.539 -248.32)" opacity="0.1"/><g transform="translate(216.727 187.302)" opacity="0.1"><path d="M546.158,431.232c0-1.473-.267-4.092-.3-7.012-.033,3.35.3,6.45.3,8.1,0,3.121,3.127,4.229,3.274,4.278v-1.091S546.158,434.424,546.158,431.232Z" transform="translate(-515.058 -411.821)"/><path d="M553.346,499.711a8.535,8.535,0,0,1,.147.868,5.458,5.458,0,0,0-.147-1.959c-.36-1.637-1.823-12.146-1.975-16.249C551.207,485.175,552.964,497.877,553.346,499.711Z" transform="translate(-517.56 -438.242)"/><path d="M491.349,481.215a49.006,49.006,0,0,1,.5-8.185,47.458,47.458,0,0,0,.316-7.41,37.693,37.693,0,0,1-.316,6.319C491.474,473.128,491.333,478.246,491.349,481.215Z" transform="translate(-490.292 -430.631)"/><path d="M496.266,403.7c3.858-2.013,3.776-.671,3.776-.671s3.023,14.776,9.9,14.689,8.512-14.689,8.512-14.689,3.192.922,3.525.666,1.451.546,2.068.939c.115-.289.235-.573.371-.846,0,0-2.1-1.441-2.439-1.184s-3.525-.666-3.525-.666-1.637,14.607-8.485,14.689-9.9-14.689-9.9-14.689.082-1.342-3.776.671c0,0-1.708-.2-1.233,1.686C495.333,403.588,496.266,403.7,496.266,403.7Z" transform="translate(-491.941 -401.497)"/><path d="M489.957,508.232c.546-.2.693-3.94.66-6-.027,2.073-.218,4.742-.66,4.911s-.655,1.091-.486,1.981C489.559,508.652,489.734,508.309,489.957,508.232Z" transform="translate(-489.414 -447.265)"/><path d="M495.283,431.663a4.693,4.693,0,0,0,.256-2.243,2.875,2.875,0,0,1-.256,1.151c-1.009,1.762-.507,6.548-4.873,7.475l.262,1.026C494.753,438.014,494.3,433.392,495.283,431.663Z" transform="translate(-489.866 -414.184)"/></g><path d="M524.629,588.9c-2.062,3.754-23,0-23,0l.055-.377.415-2.908H524.16l.42,2.9Z" transform="translate(-278.237 -297.852)" fill="#e36b0a"/><path d="M524.629,591.193c-2.062,3.754-23,0-23,0l.055-.376c1,0,16.151-.36,22.917,0Z" transform="translate(-278.237 -300.14)" opacity="0.1"/><path d="M486.813,591.5h0s-3.754.938-9.576,16.708-7.885,36.144-7.885,36.144-3.274,5.544,10.7,5.915c0,0-1.124,3.661,6.761,3.1s6.75-.557,6.75-.557,5.069-3.192,7.323-2.63,3.661.753,6.1,2.816,10.236,1.222,10.329-.371a14.727,14.727,0,0,0,0-2.352s11.922.753,9.669-7.885-4.131-22.813-4.131-22.813-6.1-27.691-13.052-28.068S486.813,591.5,486.813,591.5Z" transform="translate(-263.42 -300.451)" fill="#e36b0a"/><rect width="48.082" height="0.376" transform="matrix(0.092, -0.996, 0.996, 0.092, 216.463, 349.832)" opacity="0.1"/><rect width="50.412" height="0.376" transform="translate(229.941 352.329) rotate(-89.78)" opacity="0.1"/><path d="M535.18,611.6" transform="translate(-293.481 -309.656)" fill="none" stroke="#e36b0a" stroke-miterlimit="10" stroke-width="1"/><rect width="0.376" height="50.636" transform="translate(241.542 301.919) rotate(-2.13)" opacity="0.1"/><path d="M552.516,658.676c-.655-28.837-5.566-48.579-5.626-48.753l.366-.093c.049.2,4.987,19.976,5.637,48.863Z" transform="translate(-298.801 -308.852)" opacity="0.1"/><path d="M502.588,596.8s-.655.377,0,2.183" transform="translate(-278.54 -302.932)" opacity="0.1"/><path d="M505.62,596.8s-1.784,1.124,0,3.007" transform="translate(-279.69 -302.932)" opacity="0.1"/><path d="M536.9,596.8s2.439,2.346,1.877,3.007" transform="translate(-294.262 -302.932)" opacity="0.1"/><path d="M540.5,595.77s.382,2.815,1.79,3.569" transform="translate(-295.898 -302.464)" opacity="0.1"/><g transform="translate(328.165 287.383)" opacity="0.5"><path d="M722.675,586.342s9.21-3.667,13.194.808-2.728,9.92-2.728,9.92l-2.815,5.62-6.624-.726-1.561-7.77Z" transform="translate(-706.591 -584.92)" fill="#e36b0a"/><path d="M733.14,597.036l-2.815,5.62-6.624-.7-1.561-7.765.546-7.852.147-.055c1.168-.431,9.052-3.181,12.823.606a2.9,2.9,0,0,1,.224.229C739.852,591.568,733.14,597.036,733.14,597.036Z" transform="translate(-706.591 -584.913)" opacity="0.1"/><path d="M733.14,598.175l-2.815,5.62-6.624-.7-1.561-7.765.546-7.852.147-.055c1.14,6.248,4.185,8.883,4.7,9.276l.076.055,1.872-.153c3.639-2.008,5.56-6.782,6.177-8.588a2.9,2.9,0,0,1,.224.229C739.852,592.707,733.14,598.175,733.14,598.175Z" transform="translate(-706.591 -586.052)" opacity="0.1"/><path d="M736.279,619.666s-2.03,25.853-1.479,28.974S733.627,652,733.627,652s-7.344,1.637-8.73.546a8.351,8.351,0,0,0-3.749-1.3s-5.456,1.25-7.89.317-6.482-.546-6.482-.546-3.121,1.877-3.983,1.484-1.953-.235-4.452-.933-3.907-1.331-2.581-5.626.164-17.886.082-19.529a83.264,83.264,0,0,0-1.953-10.367c-1.1-4.747,1.872-3.749,1.872-3.749,6.957-3.59,4.065-10.624,2.974-13.745s.622-3.274,1.479-3.274,4.141-2.81,4.141-2.81l1.331-1.195,4.06-3.645c1.009,6.826,4.283,9.691,4.829,10.116l.076.06,1.872-.158c4.529-2.494,6.4-9.276,6.4-9.276a11.833,11.833,0,0,0,3.121,2.968,53.46,53.46,0,0,0,5.549,3.438c3.274,1.953.862,3.907.862,3.907-3.983,13.587,1.637,14.187,1.637,14.187C738.232,613.473,736.279,619.666,736.279,619.666Z" transform="translate(-693.644 -586.143)" fill="#e36b0a"/><path d="M714.553,601.69s-1.173.628-1.173,1.326" transform="translate(-702.611 -592.536)" opacity="0.1"/><path d="M715.721,604.12s-1.561,1.637-1.288,2.112" transform="translate(-703.075 -593.64)" opacity="0.1"/><path d="M716.142,608s-1.173,1.25-.7,1.953" transform="translate(-703.496 -595.403)" opacity="0.1"/><path d="M723.734,599.411l-4.911,4.742a21.56,21.56,0,0,0-3.983-11.268l4.06-3.645C719.893,596.121,723.194,598.985,723.734,599.411Z" transform="translate(-703.275 -586.879)" opacity="0.1"/><path d="M724.6,597.691l-4.911,4.747a21.588,21.588,0,0,0-3.978-11.273l4.06-3.645C720.779,594.4,724.053,597.265,724.6,597.691Z" transform="translate(-703.67 -586.098)" fill="#e36b0a"/><path d="M745.952,593.652c-1.964,3.067-5.615,11.164-5.615,11.164l-3.907-4.84c4.529-2.5,6.4-9.276,6.4-9.276A12.259,12.259,0,0,0,745.952,593.652Z" transform="translate(-713.084 -587.543)" opacity="0.1"/><path d="M745.081,591.941c-1.959,3.072-5.615,11.169-5.615,11.169l-3.9-4.834c4.529-2.494,6.4-9.276,6.4-9.276A12.363,12.363,0,0,0,745.081,591.941Z" transform="translate(-712.693 -586.77)" fill="#e36b0a"/><path d="M746.645,686.14s-.835,7.093-1.315,7.5" transform="translate(-717.128 -630.906)" opacity="0.1"/><path d="M760.33,688.43s.938,5.075.546,6.248" transform="translate(-723.943 -631.947)" opacity="0.1"/><path d="M723.373,689s-.857,4.763,0,5.309" transform="translate(-706.979 -632.206)" opacity="0.1"/><path d="M713.925,687.71a59.383,59.383,0,0,0-.546,6.641" transform="translate(-702.6 -631.619)" opacity="0.1"/><path d="M760.783,637.47s-2.183,1.719-2.03,2.183" transform="translate(-723.224 -608.793)" opacity="0.1"/><path d="M763.113,639.48s-4.18,3.514-2.09,3.121S763.113,639.48,763.113,639.48Z" transform="translate(-723.992 -609.706)" opacity="0.1"/></g><path d="M246.253,411.774l.027-.038-.049-.038h0l-.295-.2.06.044a.977.977,0,0,0-1.288.284l-.12.169h0l-6.63,9.538-1.157,1.7c-3.5-1.053-9.178,3.378-12.053,5.92-.18.158-.349.306-.5.447-.229-.513-.366-.84-.366-.84-.142,1.561-5.653,3.9-6.941,4.753a4.636,4.636,0,0,1-1.921.644c.186-5.931-4.4-12.173-4.4-12.173L199.4,407.715a12.593,12.593,0,0,1,1.146-7.568c.093-.185.186-.371.289-.546h.055a12.409,12.409,0,0,0-.7,3.727c.027.966.922,5.647,2.183,5.456a.688.688,0,0,0,.644-.306c1-1.168,1.091-3.154,1.042-4.993a10.23,10.23,0,0,1-.18,1.61c.082-1.528-.093-3.143-.093-4.294,0-.458,0-.911.033-1.37h.136v0h.142a15.066,15.066,0,0,0,6.848-3.176,3.672,3.672,0,0,0,2.575-1.206,2.5,2.5,0,0,1-.486,2.335,4.074,4.074,0,0,0,3.35-2.608,9.1,9.1,0,0,0,.426-4.365,30.332,30.332,0,0,1-.322-4.436,16.321,16.321,0,0,0,.131-2.417,4.659,4.659,0,0,0-.131-.731h.044a1.091,1.091,0,0,0,.78-.306,3.637,3.637,0,0,0,.982-2.139,18.213,18.213,0,0,0,.578-5.08c-.033.518-.1,1.042-.175,1.56a6.864,6.864,0,0,0-1.435-5.3,10.46,10.46,0,0,0-3.345-2.123,2.45,2.45,0,0,1-1.091-.78,3.159,3.159,0,0,1-.338-1.353c-.42-2.87-3.121-4.867-5.811-6-3.459-1.506-7.639-2.15-10.94-.36a34.711,34.711,0,0,0-4.365,3.334c-1.844,1.4-3.972,2.384-5.942,3.607a11.9,11.9,0,0,0-4.785,4.878c-1.446,3.274-.36,6.984-.18,10.536.289,5.593-2.013,11.459-6.575,14.732a5.9,5.9,0,0,0-1.446,1.249,1.561,1.561,0,0,0-.12,1.784c.235.306.606.48.862.769a2.445,2.445,0,0,1,.213,2.243,14.062,14.062,0,0,1-3.82,6.471c.082.578.8.808,1.381.895a31.789,31.789,0,0,0,4.665.338h.671c-.071.18-.147.371-.224.573-.846,2.226-1.942,5.653-1.577,7.748.546,3.307,2.292,18.426,1.43,21.078s1.386,21.88,1.386,21.88.3,1.484.818,3.7c-1.348,3.176-2.886,6.7-3.656,8.114-1.55,2.832-.786,17.292,4.556,23.719,0,0,2.183,3.121,1.637,4.251s.1,3.121.1,3.121l.846,18.71a48.5,48.5,0,0,1-.393,5.718c-2.281,2.821-5.795,6.935-7.448,7.606-2.559,1.042-21.646,24.194-21.646,24.194s.153.278.453.731l-.546.622L148.37,567.8l-.289.333c-.688-.131-5.266-.96-8.894-1.222h-.36v-.065a13.577,13.577,0,0,0-3.82.1,1.227,1.227,0,0,0-.633.327c-1.239,1.517-1.9,25.329-1.9,25.329s1.32,11.922,5.456,12.588a2.183,2.183,0,0,0,.655.12h.18a5.7,5.7,0,0,0,4.911-3.061,4.741,4.741,0,0,0,.409-1.091,8.792,8.792,0,0,1,.808-5.053c1.288-2.93,3.694-8.086,3.694-8.086s4.365-4.589,3.585-6.815c.12-.18.262-.377.415-.6,1.637-2.335,4.954-6.946,7.639-10.023a7.932,7.932,0,0,1,.546-.589,13.4,13.4,0,0,0,3.045.878s4.1-1.6,5.626-5.194c.649-1.528,3.2-4.234,5.909-6.837l-.087.693-.093,22.775a16.287,16.287,0,0,0,2.8,1.544v.546a73.115,73.115,0,0,1-.589,9.707l-.082.508c-.338-.24-.633-.322-.818-.136-.84.851-1.364,6.286-1.413,8.79v.251c-.136,2.5-1.561,6.133,2.728,6.319,3.208.136,17.04.344,24.439.453a16.452,16.452,0,0,0,10.913-3.869c2.352-2.013,3.776-4.409.573-6.171-.2-.109-.4-.213-.633-.316L206,598.838l-12.119-6.188s-.071-3.743-1.528-3.121a4.09,4.09,0,0,0-1.228.486c-.071-.136-.147-.284-.218-.437a13.941,13.941,0,0,1-1.5-6.308,4.457,4.457,0,0,1,.027-.6,12.065,12.065,0,0,0,1-1.031s-.093-8.507.862-10.111,3.912-17.864,3.912-17.864a7.7,7.7,0,0,1,2-4.818c1.91-1.8,1.239-7,1.239-7s2.674-1.419,3.53-6.046,3.629-14.732,3.629-14.732,5.724-14.934,5.347-24.379.546-14.367.546-14.367L212.7,460.37v-.338c.475.36.8.655.8.655v-.24c.175.147.273.24.273.24s.611-9.963.4-13.914c3.339-1.135,8.425-3,8.73-3.951.426-1.413,6.155-5.882,6.155-5.882a.95.95,0,0,1-.349-.131c.18-.082.366-.18.546-.284,3.754-2.008,10.727-7.879,9.554-11.459l7.639-10.962A1.861,1.861,0,0,0,246.253,411.774Z" transform="translate(-110.508 -195.279)" fill="url(#b)"/><path d="M303.273,492.4a4.976,4.976,0,0,1-1.828.693c-2.384.071-4.365-6.384-4.365-6.384s.677-.688,1.757-1.637c3.2-2.843,9.9-8.092,13.046-5.156C315.43,483.2,307.4,490.183,303.273,492.4Z" transform="translate(-185.299 -249.434)" fill="#ecb4b6"/><path d="M229.047,774.4l-8.8,9.5s-8.141.093-6.548-4.4a16.423,16.423,0,0,0,.677-2.99,73.472,73.472,0,0,0,.573-9.614c0-2.106-.033-3.585-.033-3.585s12.817-5.615,11.508.235a11,11,0,0,0-.262,2.226,13.935,13.935,0,0,0,1.462,6.248A14.143,14.143,0,0,0,229.047,774.4Z" transform="translate(-147.32 -377.483)" fill="#ecb4b6"/><path d="M229.047,783.669l-8.8,9.5s-8.141.093-6.548-4.4a16.423,16.423,0,0,0,.677-2.99,18.766,18.766,0,0,1,2.832,3.552s5.615,1.637,7.159-3.274a8.335,8.335,0,0,1,3.274-4.769,14.135,14.135,0,0,0,1.408,2.379Z" transform="translate(-147.32 -386.755)" opacity="0.1"/><path d="M248.036,797.864a16.01,16.01,0,0,1-10.717,3.82c-7.257-.1-20.816-.316-23.965-.448-4.212-.185-2.816-3.781-2.679-6.259v-.246c.049-2.483.546-7.863,1.386-8.7s3.716,3.743,3.716,3.743,5.615,1.637,7.159-3.274,4.682-5.386,4.682-5.386c1.424-.616,1.5,3.088,1.5,3.088L241,790.328l6.973,1.091c.224.1.426.207.617.311C251.74,793.5,250.344,795.867,248.036,797.864Z" transform="translate(-145.891 -386.643)" fill="#c17174"/><circle cx="0.513" cy="0.513" r="0.513" transform="translate(79.675 400.75)" fill="#fff" opacity="0.25"/><circle cx="0.513" cy="0.513" r="0.513" transform="translate(84.499 403.139)" fill="#fff" opacity="0.25"/><circle cx="0.513" cy="0.513" r="0.513" transform="translate(86.976 404.247)" fill="#fff" opacity="0.25"/><circle cx="0.513" cy="0.513" r="0.513" transform="translate(92.121 406.222)" fill="#fff" opacity="0.25"/><circle cx="0.513" cy="0.513" r="0.513" transform="translate(89.502 405.382)" fill="#fff" opacity="0.25"/><path d="M248.036,806.777a16.009,16.009,0,0,1-10.717,3.819c-7.257-.1-20.816-.316-23.965-.447-4.212-.186-2.816-3.781-2.679-6.259l26.447,1.637s10.831-1.637,11.459-4.867C251.74,802.412,250.344,804.78,248.036,806.777Z" transform="translate(-145.891 -395.556)" fill="#c17174"/><path d="M248.036,806.777a16.009,16.009,0,0,1-10.717,3.819c-7.257-.1-20.816-.316-23.965-.447-4.212-.186-2.816-3.781-2.679-6.259l26.447,1.637s10.831-1.637,11.459-4.867C251.74,802.412,250.344,804.78,248.036,806.777Z" transform="translate(-145.891 -395.556)" fill="#fff" opacity="0.25"/><path d="M173.882,736.74a18.264,18.264,0,0,0-2.652,2.663c-2.625,3.045-5.871,7.639-7.481,9.92-.622.895-1,1.457-1,1.457l-3.514-.518s-3.787-5.8-3.738-5.937,3-6.368,3-6.368l1.14-1.337,3.6-4.2,1.637-1.9S177.053,734.449,173.882,736.74Z" transform="translate(-120.971 -363.688)" fill="#ecb4b6"/><path d="M163.75,754.414c-.622.895-1,1.457-1,1.457l-3.514-.518s-3.787-5.8-3.738-5.937,3-6.379,3-6.379l1.14-1.337.371.071h.895c-3.137,3.274.229,10.476.229,10.476A3.826,3.826,0,0,1,163.75,754.414Z" transform="translate(-120.971 -368.767)" opacity="0.1"/><path d="M150.572,760.928s-2.341,5.053-3.607,7.956a8.785,8.785,0,0,0-.8,5,4.909,4.909,0,0,1-.4,1.091,5.511,5.511,0,0,1-4.791,3.034h-.229c-4.267-.109-5.62-12.5-5.62-12.5s.655-23.577,1.872-25.1a1.167,1.167,0,0,1,.617-.327,13.094,13.094,0,0,1,3.76-.1c3.858.278,8.818,1.228,8.818,1.228h.889c-3.137,3.274.229,10.482.229,10.482s1.5.136,2.668,2.243S150.572,760.928,150.572,760.928Z" transform="translate(-111.716 -367.948)" fill="#c17174"/><circle cx="0.513" cy="0.513" r="0.513" transform="translate(33.192 385.45)" fill="#fff" opacity="0.25"/><circle cx="0.513" cy="0.513" r="0.513" transform="translate(32.935 389.537)" fill="#fff" opacity="0.25"/><path d="M145.14,774.788a5.511,5.511,0,0,1-4.791,3.034h-.224c-4.267-.109-5.626-12.5-5.626-12.5s.655-23.577,1.872-25.1a1.167,1.167,0,0,1,.617-.327,13.092,13.092,0,0,1,3.759-.1c-.071,4.24-.273,17.635,0,18.967S143.438,771.236,145.14,774.788Z" transform="translate(-111.43 -367.862)" fill="#c17174"/><path d="M145.14,774.788a5.511,5.511,0,0,1-4.791,3.034h-.224c-4.267-.109-5.626-12.5-5.626-12.5s.655-23.577,1.872-25.1a1.167,1.167,0,0,1,.617-.327,13.092,13.092,0,0,1,3.759-.1c-.071,4.24-.273,17.635,0,18.967S143.438,771.236,145.14,774.788Z" transform="translate(-111.43 -367.862)" fill="#fff" opacity="0.25"/><path d="M140.116,778c-4.267-.109-5.626-12.5-5.626-12.5s.655-23.577,1.872-25.1a1.168,1.168,0,0,1,.617-.327c.895,1.331,1.681,4.278.971,10.76-1.331,12.283.273,13.057.273,13.057S140.225,774.336,140.116,778Z" transform="translate(-111.426 -368.031)" fill="#c17174"/><path d="M140.116,778c-4.267-.109-5.626-12.5-5.626-12.5s.655-23.577,1.872-25.1a1.168,1.168,0,0,1,.617-.327c.895,1.331,1.681,4.278.971,10.76-1.331,12.283.273,13.057.273,13.057S140.225,774.336,140.116,778Z" transform="translate(-111.426 -368.031)" opacity="0.1"/><path d="M303.273,497.418a4.977,4.977,0,0,1-1.828.693c-2.384.071-4.365-6.384-4.365-6.384s.677-.687,1.757-1.637C299.617,491.836,301.767,496.545,303.273,497.418Z" transform="translate(-185.299 -254.447)" opacity="0.1"/><path d="M278.459,494.762a6,6,0,0,0,3.225-.7c1.26-.84,6.668-3.159,6.81-4.7,0,0,3.225,7.857,5.053,8.141,0,0-5.615,4.42-6.035,5.822s-11.371,4.845-11.371,4.845Z" transform="translate(-175.785 -254.116)" fill="#ff748e"/><path d="M278.459,494.762a6,6,0,0,0,3.225-.7c1.26-.84,6.668-3.159,6.81-4.7,0,0,3.225,7.857,5.053,8.141,0,0-5.615,4.42-6.035,5.822s-11.371,4.845-11.371,4.845Z" transform="translate(-175.785 -254.116)" opacity="0.1"/><path d="M180.321,736.74a18.263,18.263,0,0,0-2.652,2.663,18.927,18.927,0,0,1-8-6.984l1.637-1.9S183.491,734.449,180.321,736.74Z" transform="translate(-127.41 -363.688)" opacity="0.1"/><path d="M200.414,669s-6.864,9.172-9.374,10.2-21.22,23.954-21.22,23.954,4.021,7.393,11.415,8.6c0,0,4.021-1.588,5.522-5.145s13.286-13.608,13.286-13.608Z" transform="translate(-127.478 -335.736)" fill="#5e5a6b"/><path d="M200.414,669s-6.864,9.172-9.374,10.2-21.22,23.954-21.22,23.954,4.021,7.393,11.415,8.6c0,0,4.021-1.588,5.522-5.145s13.286-13.608,13.286-13.608Z" transform="translate(-127.478 -335.736)" opacity="0.1"/><path d="M187.78,725.218a29.929,29.929,0,0,0,6.248,0C197.722,724.863,194.939,727.111,187.78,725.218Z" transform="translate(-135.638 -361.261)" opacity="0.1"/><path d="M184.69,729.62s4.911,2.8,6.81,1.4S189.672,732.376,184.69,729.62Z" transform="translate(-134.234 -363.279)" opacity="0.1"/><path d="M227.628,763.535a11,11,0,0,0-.262,2.226c-3.792,3.443-8.359,2.379-11.213,1.124,0-2.106-.033-3.585-.033-3.585S228.937,757.664,227.628,763.535Z" transform="translate(-148.515 -377.475)" opacity="0.1"/><path d="M247.008,541.464l-.136,2.586L245.7,565.794s-.939,4.867-.546,14.219-5.26,24.172-5.26,24.172-2.728,10.013-3.558,14.6-3.459,6-3.459,6,.655,5.145-1.217,6.924a7.679,7.679,0,0,0-1.964,4.769s-2.9,16.1-3.82,17.69-.846,10.013-.846,10.013c-6.078,7.2-14.967.655-14.967.655l.093-22.552s2.526-20.773,4.4-23.676,1.872-10.853,1.872-10.853L215.6,589.2s-.666-1.964-.093-3.088-1.6-4.207-1.6-4.207c-5.244-6.368-6-20.685-4.469-23.463S215.5,544.41,215.5,544.41l6.259-3.65,11.311.333Z" transform="translate(-145.158 -277.47)" fill="#5e5a6b"/><path d="M230.1,744.15s1.479,5.124,2.668,5.686S230.1,744.15,230.1,744.15Z" transform="translate(-154.866 -369.881)" opacity="0.1"/><path d="M233.83,712.9s3.82,3.023,5.456,3.017S233.83,712.9,233.83,712.9Z" transform="translate(-156.561 -355.682)" opacity="0.1"/><path d="M251.128,450.471v6.177l-4.076-1.757-4.065-1.752-8.85-8.7s-7-4.545-10.744-8.687c-2.139-2.363-3.214-4.594-1.331-5.773a11.728,11.728,0,0,0,2.45-2.144,40.279,40.279,0,0,0,4.878-7.2c.06-.1.12-.207.175-.311,1.822-3.345,3.028-6.2,3.028-6.2a36.883,36.883,0,0,1,8.425,3.972c.267.186.518.376.758.573,1.839,1.506,2.755,3.274,1.059,5a13.088,13.088,0,0,0-1.206,1.44h0a11.821,11.821,0,0,0-.753,1.179c-.1.186-.2.366-.284.546a12.583,12.583,0,0,0-1.124,7.492Z" transform="translate(-150.772 -219.93)" fill="#ecb4b6"/><path d="M274.573,397.034c.213.371.507.688.7,1.064a5.113,5.113,0,0,1,.311,2.619,14.9,14.9,0,0,0,.273,4.18,19.476,19.476,0,0,1,.873,3.689c.06,1.784-.868,3.438-1.762,4.982a3.585,3.585,0,0,0,2.565-1.195,2.488,2.488,0,0,1-.469,2.308,3.967,3.967,0,0,0,3.274-2.581,9,9,0,0,0,.42-4.365,29.8,29.8,0,0,1-.316-4.392,16.053,16.053,0,0,0,.125-2.4,8.69,8.69,0,0,0-2.052-4.256l-1.9-2.608a1.342,1.342,0,0,0-.546-.5C274.278,392.822,274.071,396.128,274.573,397.034Z" transform="translate(-174.965 -210.549)" fill="#464353"/><path d="M249.8,423.654a13.089,13.089,0,0,0-1.206,1.441h0a11.817,11.817,0,0,0-.753,1.179c-.1.186-.2.366-.284.546a14.732,14.732,0,0,1-11.027-5.958c-.06-.082-.12-.164-.175-.251.06-.1.12-.207.175-.311,1.822-3.345,3.028-6.2,3.028-6.2a36.881,36.881,0,0,1,8.425,3.972c.267.185.518.377.758.573C250.563,420.162,251.48,421.908,249.8,423.654Z" transform="translate(-157.711 -219.921)" opacity="0.1"/><path d="M260.84,397.181a14.733,14.733,0,0,1-12.068,14.493,14.9,14.9,0,0,1-2.67.239h-.546a14.732,14.732,0,1,1,15.278-14.732Z" transform="translate(-155.443 -205.545)" fill="#ecb4b6"/><path d="M257.407,464.823s7.421,4.185,5.522.655l-9.685-14.318h0l10.995,14.127s7.017,9.642,3.181,16.282c0,0-.546,5.522.093,6.832s-.185,15.278-.185,15.278-2.625-2.434-4.027-1.97S252,503,252,503Z" transform="translate(-164.817 -236.759)" opacity="0.1"/><path d="M266.885,541.7l-.136,2.586c-.889-.644-2.128-1.364-2.952-1.091-1.4.469-11.317,1.315-11.317,1.315l.453-3.225Z" transform="translate(-165.035 -277.71)" opacity="0.1"/><path d="M257.9,464.823s7.426,4.185,5.522.655L253.74,451.16h0l10.995,14.127s7.017,9.642,3.181,16.282c0,0-.546,5.522.093,6.832s-.186,15.278-.186,15.278-2.619-2.434-4.021-1.97-11.322,1.315-11.322,1.315Z" transform="translate(-165.035 -236.759)" fill="#464353"/><path d="M243.033,466.809a51.118,51.118,0,0,1-2.281,9.854s-1.31,13.286-3.007,17.237-.938,9.358-1.872,19.371a12.672,12.672,0,0,1-3.067,7.754c-2.575,2.728-6.253,3.323-9.156,3.154l-.688-.055c-4.682-.464-9.172-23.015-9.172-23.015s-2.15-19.185-1.31-21.826-.829-17.575-1.391-20.849c-.36-2.079.715-5.456,1.544-7.672.486-1.277.884-2.183.884-2.183s1.593-5.053,4.212-7.672a3.863,3.863,0,0,1,2.777-1.168,6.947,6.947,0,0,1,3.465,1.091.966.966,0,0,1,.12.082s17.035,17.406,18.623,21.427A10.289,10.289,0,0,1,243.033,466.809Z" transform="translate(-146.197 -231.571)" opacity="0.1"/><path d="M242.008,466.309a51.392,51.392,0,0,1-2.286,9.849s-1.31,13.292-3,17.221-.933,9.358-1.872,19.37a12.7,12.7,0,0,1-3.067,7.754c-2.575,2.728-6.253,3.318-9.156,3.154l-.688-.055c-4.682-.469-9.172-23.021-9.172-23.021s-2.15-19.179-1.31-21.8-.84-17.592-1.4-20.871c-.36-2.073.715-5.456,1.544-7.672.486-1.277.884-2.155.884-2.155s1.593-5.053,4.212-7.672a3.82,3.82,0,0,1,2.777-1.162,6.832,6.832,0,0,1,3.465,1.091l.12.076s17.035,17.406,18.623,21.428A10.077,10.077,0,0,1,242.008,466.309Z" transform="translate(-145.729 -231.348)" fill="#ff748e"/><path d="M229.225,614.38s-3.863,3.438-5.195,3.274S229.225,614.38,229.225,614.38Z" transform="translate(-152.027 -310.919)" opacity="0.1"/><path d="M231.018,620.385a55.39,55.39,0,0,1-5.287,2.183C224.514,622.862,229.447,619.9,231.018,620.385Z" transform="translate(-152.794 -313.623)" opacity="0.1"/><path d="M264.44,525.687s6.035.071,6.946,1.964S266.383,524.912,264.44,525.687Z" transform="translate(-170.469 -270.581)" opacity="0.1"/><path d="M262.89,531.8s4.633.982,6.035,2.106S262.89,531.8,262.89,531.8Z" transform="translate(-169.765 -273.399)" opacity="0.1"/><path d="M245.987,510.84s-.546,19.016-2.63,21.477S245.987,510.84,245.987,510.84Z" transform="translate(-160.648 -263.875)" opacity="0.1"/><path d="M238.3,608.288s-3.874,16.773,3.9,17.81,5.369-19.1,5.369-19.1Z" transform="translate(-158.151 -307.566)" opacity="0.1"/><path d="M237.783,607.787s-3.852,16.773,3.9,17.821,5.364-19.1,5.364-19.1Z" transform="translate(-157.922 -307.343)" fill="#ecb4b6"/><path d="M252.387,395.56a5.681,5.681,0,0,1-.546-1.02c-1.031-2.15-3.683-1.091-5.626-.071l-1.037,1.337A8.323,8.323,0,0,0,244,397.634a13.841,13.841,0,0,0-.5,1.637c-.267.949-.66,1.855-1.015,2.783a32.35,32.35,0,0,0-2.068,9.625,14.908,14.908,0,0,1-2.674.24h-.065v-.066c.1-.371.18-.747.256-1.124h0a19.469,19.469,0,0,0,.147-6.439v-.142c-.071-.475-.164-.955-.2-1.43-.18.327-.355.66-.546,1-1.173,2.183-2.406,4.365-4.622,5.32a9.479,9.479,0,0,1-2.81.633,16.031,16.031,0,0,0-3.514.584,2.183,2.183,0,0,0-1.02.617,3.012,3.012,0,0,0-.513,1.539,12.409,12.409,0,0,1-.546,2.133,18.7,18.7,0,0,1-4.583,6.832l-.507.491a9.5,9.5,0,0,1-3.034,2.1,9.275,9.275,0,0,1-3.214.48c.486-1.277.884-2.155.884-2.155s1.593-5.053,4.212-7.672a3.819,3.819,0,0,1,2.777-1.162,41.213,41.213,0,0,0,5.053-7.514,14.732,14.732,0,1,1,26.5-10.367Z" transform="translate(-147.083 -205.55)" opacity="0.1"/><path d="M248.024,375.717a10.052,10.052,0,0,0-3.274-2.1,2.494,2.494,0,0,1-1.064-.775,3.241,3.241,0,0,1-.327-1.337c-.409-2.848-3.061-4.818-5.7-5.975-3.394-1.49-7.47-2.128-10.727-.36a34.81,34.81,0,0,0-4.262,3.307c-1.812,1.386-3.9,2.357-5.827,3.569a11.449,11.449,0,0,0-4.693,4.834c-1.419,3.219-.355,6.913-.175,10.427.278,5.544-1.975,11.333-6.45,14.612a5.631,5.631,0,0,0-1.419,1.239A1.555,1.555,0,0,0,204,404.92c.224.306.595.48.84.764a2.425,2.425,0,0,1,.207,2.226,13.925,13.925,0,0,1-3.743,6.4c.076.578.775.8,1.348.889a30.609,30.609,0,0,0,4.578.333,7.693,7.693,0,0,0,6.4-2.581c2.728-2.565,5.036-5.767,5.653-9.456a3.116,3.116,0,0,1,.513-1.539,2.308,2.308,0,0,1,1.02-.617c2.035-.7,4.365-.355,6.324-1.217,2.554-1.091,3.82-3.82,5.156-6.319.044.475.131.955.207,1.435a19.4,19.4,0,0,1-.382,7.7,15.989,15.989,0,0,0-.857,4.311c.027,1.091,1.135,6.793,2.592,5.085s.922-5.484.922-7.6a32.492,32.492,0,0,1,2.144-11.595c.349-.922.748-1.833,1.015-2.783a14.9,14.9,0,0,1,.491-1.637,8.55,8.55,0,0,1,1.189-1.828l1.042-1.337c1.943-1.031,4.594-2.079,5.626.071.393.824.606,1.735,1.637.933a3.666,3.666,0,0,0,.96-2.117C249.53,381.473,250.064,377.976,248.024,375.717Z" transform="translate(-141.781 -197.203)" fill="#464353"/><path d="M234.686,472.494c-.4-10.078-14.5-12.162-17.794-2.63a1.381,1.381,0,0,0-.065.2c-2.155,6.455-1.217,22.8-1.217,22.8s.278,10.978,1.31,14.629,3.929,14.127,3.929,15.824,2.69,8.141,3.82,8.61,1.7,4.114,1.981,4.769,1.091,9.172,1.091,9.172,10.575-.655,10.76-2.341-2.341-9.92-2.341-9.92a19.089,19.089,0,0,1-2.1-6.078c-.24-2.712-1.7-3.945-1.413-5.817s-.846-2.8-.846-4.021a29.934,29.934,0,0,0-.84-4.491s-1.779-1.408-1.5-3.088-2.526-5.053-1.779-6.269a12.66,12.66,0,0,0,.933-4.212s.939-13.472,1.593-17.122,4.491-9.543,4.491-9.543S234.7,472.794,234.686,472.494Z" transform="translate(-148.191 -242.466)" opacity="0.1"/><path d="M233.318,531.382c-2.575,2.728-6.253,3.318-9.156,3.154-.338-1.277-.829-2.848-1.544-3.143-1.135-.469-3.82-6.924-3.82-8.6s-2.9-12.168-3.929-15.824-1.31-14.623-1.31-14.623-.938-16.369,1.217-22.808a.568.568,0,0,1,.065-.191c3.274-9.538,17.4-7.448,17.794,2.63v.464s-3.82,5.893-4.491,9.543-1.582,17.122-1.582,17.122a12.713,12.713,0,0,1-.938,4.212c-.748,1.217,2.057,4.589,1.779,6.269s1.5,3.088,1.5,3.088a29.9,29.9,0,0,1,.84,4.5c0,1.222,1.124,2.15.846,4.021s1.217,3.088,1.457,5.8A15.126,15.126,0,0,0,233.318,531.382Z" transform="translate(-147.259 -242.228)" opacity="0.1"/><path d="M233.656,471.984c-.4-10.078-14.5-12.162-17.794-2.63l-.065.191c-2.155,6.46-1.217,22.808-1.217,22.808s.278,10.973,1.31,14.623,3.929,14.132,3.929,15.824,2.69,8.141,3.82,8.61,1.7,4.12,1.981,4.774,1.091,9.167,1.091,9.167,10.575-.655,10.76-2.335-2.335-9.92-2.335-9.92a19.093,19.093,0,0,1-2.106-6.084c-.24-2.712-1.735-3.929-1.451-5.8s-.846-2.81-.846-4.027a29.934,29.934,0,0,0-.84-4.491s-1.779-1.4-1.5-3.088-2.526-5.053-1.779-6.27a12.638,12.638,0,0,0,.933-4.207s.939-13.477,1.593-17.128,4.491-9.543,4.491-9.543A2.378,2.378,0,0,0,233.656,471.984Z" transform="translate(-147.723 -242.234)" fill="#ff748e"/><path d="M217.88,523.023c.278-.284,5.615-6.177,7.3-4.071S217.88,523.023,217.88,523.023Z" transform="translate(-149.314 -267.355)" opacity="0.1"/><path d="M218.78,531.793c.207-.213,5.331-.42,6.6-3.274S218.78,531.793,218.78,531.793Z" transform="translate(-149.723 -271.564)" opacity="0.1"/><g transform="translate(59.677 182.213)" opacity="0.1"><path d="M207.188,438.443a1.447,1.447,0,0,1,.278.507,2.183,2.183,0,0,0-.278-1.91c-.251-.289-.617-.458-.846-.764,0,0-.027-.049-.044-.076a1.446,1.446,0,0,0,.044,1.479C206.6,437.984,206.937,438.159,207.188,438.443Z" transform="translate(-203.646 -412.175)"/><path d="M220.7,400.857v-1.593c-.1-1.91-.453-3.869-.546-5.784a69.913,69.913,0,0,0,.546,7.186C220.7,400.721,220.7,400.781,220.7,400.857Z" transform="translate(-210.018 -392.765)"/><path d="M259.092,446.119c-1.3,1.522-2.319-2.859-2.543-4.589a7.2,7.2,0,0,0-.049.906c.033,1.091,1.135,6.793,2.592,5.085.988-1.157,1.091-3.127,1.026-4.944A5.883,5.883,0,0,1,259.092,446.119Z" transform="translate(-226.538 -414.597)"/><path d="M232.79,418.8a18.763,18.763,0,0,1,.2,2.215,19.173,19.173,0,0,0-.2-3.623c-.071-.475-.164-.955-.207-1.435-1.348,2.521-2.6,5.216-5.151,6.324-1.981.857-4.289.518-6.324,1.217a2.182,2.182,0,0,0-1.02.617,3.045,3.045,0,0,0-.513,1.539c-.622,3.689-2.936,6.892-5.658,9.456a7.693,7.693,0,0,1-6.4,2.581,31.271,31.271,0,0,1-4.573-.333,3.454,3.454,0,0,1-.688-.18c-.213.24-.437.469-.666.693.076.578.78.8,1.353.889a30.548,30.548,0,0,0,4.573.333,7.693,7.693,0,0,0,6.4-2.581c2.728-2.565,5.036-5.768,5.658-9.456a3.061,3.061,0,0,1,.513-1.539,2.248,2.248,0,0,1,1.02-.617c2.035-.7,4.365-.355,6.324-1.217,2.554-1.091,3.82-3.82,5.151-6.319C232.626,417.843,232.719,418.323,232.79,418.8Z" transform="translate(-201.59 -402.979)"/><path d="M277.045,395.8a3.688,3.688,0,0,1-.966,2.117c-1.026.8-1.233-.109-1.637-.933-1.031-2.15-3.683-1.091-5.626-.071l-1.042,1.337a8.321,8.321,0,0,0-1.184,1.828,12.859,12.859,0,0,0-.491,1.637c-.273.949-.666,1.855-1.02,2.777a32.656,32.656,0,0,0-2.139,11.595v.578a32.574,32.574,0,0,1,2.133-10.766c.355-.922.747-1.833,1.02-2.783a12.856,12.856,0,0,1,.491-1.637,8.32,8.32,0,0,1,1.184-1.828l1.042-1.337c1.942-1.031,4.594-2.079,5.626.071.4.824.606,1.735,1.637.933a3.673,3.673,0,0,0,.966-2.117,18.5,18.5,0,0,0,.546-5.031A24.052,24.052,0,0,1,277.045,395.8Z" transform="translate(-229.465 -392.17)"/></g><path d="M311.991,478.869l.289.2a1.157,1.157,0,0,1-.3-1.637l13.008-18.847a1.152,1.152,0,0,1,1.61-.295l-.289-.2a1.861,1.861,0,0,1,.475,2.586l-12.206,17.717A1.866,1.866,0,0,1,311.991,478.869Z" transform="translate(-191.971 -239.904)" fill="#464353"/><path d="M.949,0h.267V25.242H.949A.949.949,0,0,1,0,24.292V.955A.949.949,0,0,1,.949.005Z" transform="translate(133.695 217.714) rotate(34.56)" fill="#9f9eff"/><rect width="0.235" height="2.057" rx="0.117" transform="translate(132.751 221.013) rotate(34.56)" fill="#464353"/><path d="M825.927,332.4A9.423,9.423,0,1,1,816.5,323a9.423,9.423,0,0,1,9.423,9.4Zm-10.515,4.987,7-6.99a.611.611,0,0,0,0-.857l-.862-.862a.6.6,0,0,0-.857,0l-5.7,5.7-2.663-2.652a.617.617,0,0,0-.862,0l-.857.862a.6.6,0,0,0,0,.857l3.95,3.951a.6.6,0,0,0,.857,0Z" transform="translate(-417.02 -178.529)" fill="#3acc6c"/><path d="M616.717,521.923a9.423,9.423,0,1,1-9.423-9.423A9.423,9.423,0,0,1,616.717,521.923ZM606.2,526.91l7.017-6.99a.606.606,0,0,0,0-.862l-.884-.829a.606.606,0,0,0-.862,0l-5.7,5.675-2.663-2.663a.6.6,0,0,0-.857,0l-.862.857a.617.617,0,0,0,0,.862l3.951,3.95a.606.606,0,0,0,.862,0Z" transform="translate(-321.964 -264.629)" fill="#3acc6c"/><path d="M616.717,710.583a9.423,9.423,0,1,1-9.423-9.423A9.423,9.423,0,0,1,616.717,710.583ZM606.2,715.57l7.017-6.99a.606.606,0,0,0,0-.862l-.857-.857a.606.606,0,0,0-.862,0l-5.7,5.7-2.663-2.663a.6.6,0,0,0-.857,0l-.862.857a.617.617,0,0,0,0,.862l3.951,3.95a.606.606,0,0,0,.862,0Z" transform="translate(-321.964 -350.348)" fill="#3acc6c"/></svg>