<svg xmlns="http://www.w3.org/2000/svg" xmlns:xlink="http://www.w3.org/1999/xlink" width="382.191" height="270.498" viewBox="0 0 382.191 270.498"><defs><linearGradient id="a" x1="0.5" y1="1" x2="0.5" gradientUnits="objectBoundingBox"><stop offset="0" stop-color="gray" stop-opacity="0.251"/><stop offset="0.54" stop-color="gray" stop-opacity="0.122"/><stop offset="1" stop-color="gray" stop-opacity="0.102"/></linearGradient><linearGradient id="b" x1="0.5" y1="1" x2="0.5" y2="0" xlink:href="#a"/></defs><g transform="translate(0.485)"><ellipse cx="33.673" cy="5.408" rx="33.673" ry="5.408" transform="translate(93.119 259.529)" fill="#e36b0a" opacity="0.1"/><ellipse cx="42.019" cy="5.408" rx="42.019" ry="5.408" transform="translate(267.814 259.681)" fill="#e36b0a" opacity="0.1"/><path d="M59.719,396.83H94.791v47.8h-32.5c-.086.491-.169.985-.259,1.479H94.791v38.552c-.059-.017-.111-.038-.166-.059-.926-.366-1.845-.753-2.765-1.168l-.587-.266q-1.382-.653-2.765-1.382c-.321-.169-.643-.346-.961-.525A57.511,57.511,0,0,1,73.766,470.5c-.117-.114-.228-.235-.346-.346-.56-.608-1.109-1.223-1.641-1.852l-.587-.691c-.629-.771-1.237-1.562-1.828-2.364-.086-.117-.169-.235-.259-.346a51.45,51.45,0,0,1-5.944-10.747c-.048-.114-.09-.238-.135-.346q-.712-1.832-1.261-3.7c-.159-.522-.311-1.037-.442-1.579-.048-.159-.09-.314-.128-.47C59.232,440.4,59,432.438,59,424.535V421.77c0-3.2.038-6.414.093-9.628,0-.833.035-1.662.052-2.5q.073-3.183.207-6.366c.021-.591.048-1.178.079-1.766a10,10,0,0,1,.052-1.016C59.567,399.266,59.636,398.046,59.719,396.83Z" transform="translate(-55.102 -279.954)" fill="#e36b0a" opacity="0.1"/><path d="M126.138,196.765H106.9a145.843,145.843,0,0,1,10.233-14.086c2.858-3.511,5.875-6.932,9.006-10.229Z" transform="translate(-86.449 -133.114)" fill="#e36b0a" opacity="0.1"/><path d="M96.362,247.09v50.267H61.4c0-.145.024-.294.035-.439.031-.4.062-.795.1-1.189.038-.463.079-.93.124-1.382s.093-1.006.145-1.507.1-1.009.159-1.51.111-1,.173-1.5.118-1,.183-1.5c.052-.415.107-.826.162-1.241.079-.584.162-1.172.252-1.752a1.617,1.617,0,0,1,.038-.259,119.539,119.539,0,0,1,2.575-12.62,93.334,93.334,0,0,1,4.337-12.786A95.984,95.984,0,0,1,76.2,247.107Z" transform="translate(-56.673 -181.961)" fill="#e36b0a" opacity="0.1"/><path d="M186.8,175.5V223.3h74.91V175.5Zm0,49.282v41.054c.428.09.854.176,1.275.249.574.111,1.144.211,1.728.3.111.017.225.035.346.045.228.038.463.069.691.1.577.079,1.151.145,1.728.2.273.028.549.052.826.073l.667.052h0c.363.028.722.048,1.078.059.221,0,.442.021.67.028h2.464c.3,0,.594,0,.888-.028h.021a4.658,4.658,0,0,0,.619-.028,1.432,1.432,0,0,0,.173,0,3.571,3.571,0,0,0,.511-.024h.121l1.158-.09c.38-.035.764-.079,1.151-.121l.788-.093a68.927,68.927,0,0,0,9.486-2.018c6.988-1.949,13.823-4.676,20.807-6.673,9.03-2.575,19.007-3.839,27.732-.691V224.778Zm74.91-102.5V58.629a96.3,96.3,0,0,0-24.339,2.854c-18.969,4.765-35.988,15.1-50.571,28.3V122.27h3.76v1.476H186.8V174.02h74.91V123.75H206v-1.476Zm96.219-21.5a31.028,31.028,0,0,1-13.578-3.946c-8.069-4.389-14.514-11.166-21.716-16.885a99.7,99.7,0,0,0-52.559-20.883v63.213H377.015l.266-.28Zm9.742-1.728L378,110.383V96.076a40.983,40.983,0,0,0-10.315,2.958ZM378,276.027V224.778H355.99c-.059-.218-.118-.439-.187-.66.066.221.121.442.183.66h-85.9v37.063c.816.6,1.621,1.241,2.419,1.887h0c.861.691,1.711,1.42,2.564,2.136l.86.712c.411.346.826.691,1.244,1.016q1.244,1.009,2.512,1.991c.418.346.847.657,1.272.981a173.213,173.213,0,0,0,21.3,13.93q2.5,1.382,5.042,2.7c1.13.577,2.267,1.151,3.407,1.707q2.571,1.254,5.184,2.419h0a190.358,190.358,0,0,0,50.454,14.7q5.8.857,11.649,1.348v-31.34h.346ZM270.091,123.75V174.02H378.014V123.75Zm0,51.746V223.3H378.014V175.5Zm116.3-79.482v15.959l13.184-14.466q-6.552-1.057-13.184-1.51Zm0,79.5V223.3H491.359V175.5ZM490.976,279.822l.37-55.043H386.391v83.135a188.233,188.233,0,0,0,20.285-.242h.117q4.838-.3,9.631-.885h.073a177.363,177.363,0,0,0,49.486-13.2M511.6,183.368c-.394-.93-.805-1.852-1.223-2.765-.781-1.728-1.607-3.407-2.457-5.087h-8.19V223.3h20.707c-.01-13.533-3.435-27.356-8.826-39.952ZM499.729,224.8V272.14a67.82,67.82,0,0,0,14.31-19.3,66.35,66.35,0,0,0,6.379-28.05Zm0-63.213v12.441h7.423a134.8,134.8,0,0,0-7.413-12.458ZM428.54,105.393c-.546-.207-1.092-.418-1.641-.622a149.848,149.848,0,0,0-17.731-5.329l-20.175,22.141h0l-.387.411.259.283h71.8a153.579,153.579,0,0,0-32.118-16.9Zm34.233,18.374h-74.91l-1.472,1.348V174.02H491.373V150.331a149.565,149.565,0,0,0-28.589-26.582Z" transform="translate(-138.737 -58.624)" fill="#e36b0a" opacity="0.1"/><path d="M96.362,320.46v24.913H61.4c0-.145.024-.294.035-.439.031-.4.062-.795.1-1.189.038-.463.079-.93.124-1.382s.093-1.006.145-1.507.1-1.009.159-1.51.111-1,.173-1.5.118-1,.183-1.5c.052-.415.107-.826.162-1.241.079-.584.162-1.171.252-1.752a1.617,1.617,0,0,1,.038-.259,119.538,119.538,0,0,1,2.575-12.62Z" transform="translate(-56.673 -229.976)" fill="#e36b0a" opacity="0.1"/><path d="M59.719,396.83H94.791v47.8h-32.5c-.086.491-.169.985-.259,1.479H94.791v38.552c-.059-.017-.111-.038-.166-.059-.926-.366-1.845-.753-2.765-1.168l-.587-.266q-1.382-.653-2.765-1.382c-.321-.169-.643-.346-.961-.525A57.511,57.511,0,0,1,73.766,470.5c-.117-.114-.228-.235-.346-.346-.56-.608-1.109-1.223-1.641-1.852l-.587-.691c-.629-.771-1.237-1.562-1.828-2.364-.086-.117-.169-.235-.259-.346a51.45,51.45,0,0,1-5.944-10.747c-.048-.114-.09-.238-.135-.346q-.712-1.832-1.261-3.7c-.159-.522-.311-1.037-.442-1.579-.048-.159-.09-.314-.128-.47C59.232,440.4,59,432.438,59,424.535V421.77c0-3.2.038-6.414.093-9.628,0-.833.035-1.662.052-2.5q.073-3.183.207-6.366c.021-.591.048-1.178.079-1.766a10,10,0,0,1,.052-1.016C59.567,399.266,59.636,398.046,59.719,396.83Z" transform="translate(-55.102 -279.954)" fill="#e36b0a" opacity="0.1"/><path d="M165.931,181.663v43.073H139.56V181.663h3.76V167.08h15.433v14.583Z" transform="translate(-91.497 -109.339)" fill="#e36b0a" opacity="0.1"/><rect width="26.367" height="47.803" transform="translate(48.066 116.872)" fill="#e36b0a" opacity="0.1"/><path d="M186.8,539.44h26.371v39.741a68.813,68.813,0,0,1-9.486,2.015l-.788.1c-.387.045-.771.083-1.151.121s-.774.066-1.158.09h-.121c-.166,0-.346.021-.508.024h-.176c-.207,0-.415.021-.622.028h0c-.294.017-.587.021-.888.024h-2.447l-.667-.024c-.346,0-.719-.038-1.078-.062h0l-.664-.048-.826-.076c-.581-.052-1.158-.117-1.728-.2l-.691-.1-.346-.048c-.577-.09-1.147-.187-1.728-.3-.425-.073-.847-.162-1.275-.249Z" transform="translate(-138.737 -373.282)" fill="#e36b0a" opacity="0.1"/><rect width="21.744" height="48.156" transform="translate(217.533 67.237)" fill="#e36b0a" opacity="0.1"/><path d="M488.507,338.19V386H380.58v-20.62h57.486v12.164H466.76V338.19Z" transform="translate(-249.227 -221.318)" fill="#e36b0a" opacity="0.1"/><path d="M536.089,589.446h-.346v31.361q-5.84-.494-11.646-1.344a190.365,190.365,0,0,1-50.475-14.728q-6.956-3.131-13.63-6.835a173.917,173.917,0,0,1-21.3-13.93q-2.543-1.949-5.021-3.988c-1.144-.943-2.281-1.911-3.432-2.851-.8-.646-1.6-1.282-2.419-1.89V538.19h85.893c-.059-.221-.117-.442-.18-.66.066.218.128.439.187.66h22.023v51.235C535.861,589.429,535.975,589.439,536.089,589.446Z" transform="translate(-296.467 -372.032)" fill="#e36b0a" opacity="0.1"/><path d="M877.389,209.637H863.22v-4.4h6.352V192.12q.826.3,1.645.619v12.5h6.172Z" transform="translate(-581.403 -145.987)" fill="#e36b0a" opacity="0.1"/><path d="M846.828,297.357H777.271l.024.017-.031-.017h-12.9V249.2h3.656V284.8h16.709v-21.08h13.8V247.09H812.7v16.639h13.8v21.08h20.33Z" transform="translate(-516.707 -181.961)" fill="#e36b0a" opacity="0.1"/><path d="M764.36,396.82v47.807h82.468V396.82ZM869.215,500.9l.114-37.84h-22.5V446.127H764.36v83.111A188.208,188.208,0,0,0,784.645,529h.117q4.838-.3,9.631-.885h.073a177.362,177.362,0,0,0,49.486-13.2" transform="translate(-516.707 -279.948)" fill="#e36b0a" opacity="0.1"/><path d="M1093.821,539.44h19.238a66.558,66.558,0,0,1-6.383,28.047,67.846,67.846,0,0,1-14.307,19.3V556.377h1.451Z" transform="translate(-731.365 -373.282)" fill="#e36b0a" opacity="0.1"/><path d="M1115.819,459.5H1096.57V419.55h10.416C1112.377,432.146,1115.8,445.969,1115.819,459.5Z" transform="translate(-734.113 -294.823)" fill="#e36b0a" opacity="0.1"/><rect width="11.649" height="15.098" transform="translate(227.631 80.625)" fill="#e36b0a" opacity="0.1"/><rect width="11.649" height="3.476" transform="translate(227.631 111.92)" fill="#e36b0a" opacity="0.1"/><rect width="11.649" height="10.143" transform="translate(227.631 116.872)" fill="#e36b0a" opacity="0.1"/><rect width="11.649" height="15.098" transform="translate(227.631 143.216)" fill="#e36b0a" opacity="0.1"/><rect width="11.649" height="15.098" transform="translate(227.631 174.511)" fill="#e36b0a" opacity="0.1"/><path d="M718.066,665.757a1.913,1.913,0,0,1,.346.021h-.346v3.508H706.42V654.17h11.646Z" transform="translate(-478.789 -448.364)" fill="#e36b0a" opacity="0.1"/><path d="M718.066,744.71v11.663q-5.84-.494-11.646-1.344V744.71Z" transform="translate(-478.789 -507.616)" fill="#e36b0a" opacity="0.1"/><rect width="49.925" height="1.109" transform="translate(131.353 163.57)" fill="#e36b0a" opacity="0.1"/><rect width="49.925" height="4.251" transform="translate(131.353 166.155)" fill="#e36b0a" opacity="0.1"/><rect width="49.925" height="6.835" transform="translate(131.353 184.339)" fill="#e36b0a" opacity="0.1"/><path d="M482.316,652.15v6.836h-39.05q-2.543-1.942-5.025-3.988c-1.144-.943-2.277-1.911-3.432-2.848Z" transform="translate(-301.041 -447.042)" fill="#e36b0a" opacity="0.1"/><path d="M538.669,712.22v6.829h-4.123q-6.949-3.134-13.626-6.839Z" transform="translate(-357.394 -486.347)" fill="#e36b0a" opacity="0.1"/><rect width="9.828" height="9.828" transform="translate(267.942 121.506)" fill="#e36b0a" opacity="0.1"/><rect width="9.828" height="9.828" transform="translate(55.143 75.714)" fill="#e36b0a" opacity="0.1"/><rect width="9.828" height="9.828" transform="translate(55.143 98.543)" fill="#e36b0a" opacity="0.1"/><rect width="9.828" height="9.828" transform="translate(55.143 121.372)" fill="#e36b0a" opacity="0.1"/><rect width="9.828" height="9.828" transform="translate(55.143 144.197)" fill="#e36b0a" opacity="0.1"/><rect width="9.828" height="9.828" transform="translate(55.143 167.026)" fill="#e36b0a" opacity="0.1"/><rect width="9.828" height="9.828" transform="translate(55.143 189.854)" fill="#e36b0a" opacity="0.1"/><rect width="9.828" height="9.828" transform="translate(305.461 121.506)" fill="#e36b0a" opacity="0.1"/><rect width="9.828" height="9.828" transform="translate(267.942 145.749)" fill="#e36b0a" opacity="0.1"/><rect width="9.828" height="9.828" transform="translate(305.461 145.749)" fill="#e36b0a" opacity="0.1"/><rect width="9.828" height="9.828" transform="translate(267.942 169.987)" fill="#e36b0a" opacity="0.1"/><rect width="9.828" height="9.828" transform="translate(305.461 169.987)" fill="#e36b0a" opacity="0.1"/><rect width="9.828" height="9.828" transform="translate(267.942 194.229)" fill="#e36b0a" opacity="0.1"/><rect width="9.828" height="9.828" transform="translate(305.461 194.229)" fill="#e36b0a" opacity="0.1"/><rect width="9.828" height="9.828" transform="translate(267.942 218.471)" fill="#e36b0a" opacity="0.1"/><rect width="9.828" height="9.828" transform="translate(305.461 218.471)" fill="#e36b0a" opacity="0.1"/><path d="M775.83,708.668V702.33h9.825v5.436Z" transform="translate(-507.888 -459.62)" fill="#e36b0a" opacity="0.1"/><path d="M65.24,357v5.623H98.875V357Zm3.352,5.27H65.848v-4.924h2.765Zm3.349,0H69.176v-4.924h2.765Zm3.342,0H72.518v-4.924h2.765Zm3.349,0H75.87v-4.924h2.765Zm3.345,0H79.212v-4.924h2.765Zm3.349,0H82.56v-4.924h2.765Zm3.349,0H85.909v-4.924h2.765Zm3.345,0H89.254v-4.924h2.765Zm3.345,0H92.6v-4.924h2.765Zm3.345,0H95.944v-4.924h2.765Z" transform="translate(-59.186 -253.888)" fill="#e36b0a" opacity="0.1"/><path d="M65.24,404.34v5.622H98.875V404.34Zm3.352,5.267H65.848V404.7h2.765Zm3.349,0H69.176V404.7h2.765Zm3.342,0H72.518V404.7h2.765Zm3.349,0H75.87V404.7h2.765Zm3.345,0H79.212V404.7h2.765Zm3.349,0H82.56V404.7h2.765Zm3.349,0H85.909V404.7h2.765Zm3.345,0H89.254V404.7h2.765Zm3.345,0H92.6V404.7h2.765Zm3.345,0H95.944V404.7h2.765Z" transform="translate(-59.186 -284.869)" fill="#e36b0a" opacity="0.1"/><path d="M65.24,451.7v5.633H98.875V451.7Zm3.352,5.267H65.848v-4.914h2.765Zm3.349,0H69.176v-4.914h2.765Zm3.342,0H72.518v-4.914h2.765Zm3.349,0H75.87v-4.914h2.765Zm3.345,0H79.212v-4.914h2.765Zm3.349,0H82.56v-4.914h2.765Zm3.349,0H85.909v-4.914h2.765Zm3.345,0H89.254v-4.914h2.765Zm3.345,0H92.6v-4.914h2.765Zm3.345,0H95.944v-4.914h2.765Z" transform="translate(-59.186 -315.863)" fill="#e36b0a" opacity="0.1"/><path d="M65.24,499.06v5.616H98.875V499.06Zm3.352,5.267H65.848v-4.918h2.765Zm3.349,0H69.176v-4.918h2.765Zm3.342,0H72.518v-4.918h2.765Zm3.349,0H75.87v-4.918h2.765Zm3.345,0H79.212v-4.918h2.765Zm3.349,0H82.56v-4.918h2.765Zm3.349,0H85.909v-4.918h2.765Zm3.345,0H89.254v-4.918h2.765Zm3.345,0H92.6v-4.918h2.765Zm3.345,0H95.944v-4.918h2.765Z" transform="translate(-59.186 -346.856)" fill="#e36b0a" opacity="0.1"/><path d="M65.66,546.41c.135.529.287,1.057.446,1.579v-1.227H68.87v4.914H67.391c.045.114.09.238.135.346H99.15V546.41Zm6.566,5.267H69.461v-4.914h2.765Zm3.342,0H72.8v-4.914h2.765Zm3.349,0H76.145v-4.914h2.765Zm3.345,0H79.5v-4.914h2.765Zm3.349,0H82.845v-4.914H85.61Zm3.349,0H86.194v-4.914h2.765Zm3.345,0H89.539v-4.914H92.3Zm3.345,0H92.884v-4.914h2.765Zm3.345,0H96.23v-4.914h2.765Z" transform="translate(-59.46 -377.843)" fill="#e36b0a" opacity="0.1"/><path d="M88.26,593.77c.086.111.169.235.259.346h1.828v2.36c.2.235.39.47.591.691V594.1H93.7v4.931h-1.12c.111.114.218.235.346.346H113.95V593.77Zm8.781,5.263H94.276v-4.911h2.765Zm3.349,0H97.625v-4.911h2.765Zm3.349,0h-2.765v-4.911h2.765Zm3.345,0h-2.765v-4.911h2.765Zm3.345,0h-2.765v-4.911h2.765Zm3.345,0h-2.765v-4.911h2.765Z" transform="translate(-74.25 -408.837)" fill="#e36b0a" opacity="0.1"/><path d="M141.65,641.12c.314.18.636.346.961.525v-.173h2.765v1.555l.587.273v-1.828h2.765v2.989a.865.865,0,0,0,.166.062v-3.4Z" transform="translate(-109.19 -439.824)" fill="#e36b0a" opacity="0.1"/><path d="M406.448,294.537ZM385.16,396.53Zm-22.21-51.9c.066.221.121.442.183.66h0C363.078,345.077,363.019,344.856,362.95,344.635Zm43.5-50.108ZM197.72,242.78v1.476h15.437V242.78ZM385.16,396.53Zm-22.21-51.9c.066.221.121.442.183.66h0C363.078,345.077,363.019,344.856,362.95,344.635Zm43.5-50.108ZM385.16,396.52Zm-22.21-51.885c.066.221.121.442.183.66h0C363.078,345.077,363.019,344.856,362.95,344.635Z" transform="translate(-145.884 -179.14)" fill="#e36b0a" opacity="0.1"/><path d="M369.3,294.234s-1.362-.19-1.362-2.174a31.074,31.074,0,0,0-.975-5.688h0c0-.017-.843-6.452-2.008-7.475s-2.661-7.029-2.661-7.029-.256-3.259-.778-3.96a33.645,33.645,0,0,1-2.267-4.869c-1.04-2.45-5.377-4.147-5.377-4.147s-7.841-4.548-10.063-6.03h0a3.406,3.406,0,0,1-.563-.425c-.387-.508-2.073-.518-2.073-.518a33.988,33.988,0,0,1-.4-3.549,2.7,2.7,0,0,0-.017-.373,11.957,11.957,0,0,0,5.256-6.5c.041-.131.076-.27.114-.4a1.123,1.123,0,0,0,.674-.608,12.679,12.679,0,0,1,.453-1.382,5.206,5.206,0,0,1,1.279-1.123,4.838,4.838,0,0,0,1.33-3.936c-.035-1.158-.221-2.326-.149-3.477l.021-.29c.021-.173.045-.346.076-.511.169-.857.539-1.666.746-2.516a3.236,3.236,0,0,0-.256-2.54c-.708-1.075-2.184-1.289-3.48-1.4-1.469-.124-2.782.038-3.722-1.182a13.267,13.267,0,0,0-1.479-1.787c-.193-.18-2.073-1.327-2.073-1.4a8.4,8.4,0,0,0-5.857-.449c-.975.283-1.894.746-2.882.978-2.132.5-4.586-.041-6.4,1.178a7.518,7.518,0,0,0-2.181,2.861q-.691,1.324-1.4,2.644a17.125,17.125,0,0,0-1.863,4.524,7.18,7.18,0,0,0-.124,1.057h0v.563a1.857,1.857,0,0,0,.021.346c.021.107.017.142.028.214s.028.235.048.346.062.3.1.456c.017.066.041.128.062.19.035.117.076.232.121.346.024.059.048.121.076.18a3.239,3.239,0,0,0,.176.346c.028.048.048.093.076.138a4.576,4.576,0,0,0,.318.463c.74.923,1.828,1.51,2.633,2.374v.387a11.829,11.829,0,0,0,5.384,9.659c0,.131.017.266.024.4a19.775,19.775,0,0,1-.038,3.079,1.451,1.451,0,0,0-1.147-.511,1.655,1.655,0,0,0-.442.038l-.031-.024h0v.031c-.76.187-1.7.978-2.592,3.228,0,0-2.723,3.069-4.8,2.941s-7.323,3.193-7.323,3.193-5.121,3.324-6.22,6.711a47.3,47.3,0,0,1-2.2,5.626l-6.331,13.046h0l-1.168,10.35a48.024,48.024,0,0,1,.518,5.3c-.128.7,2.657,7.029,2.657,7.029s9.2,16.169,12.963,17l.27-.19a2.2,2.2,0,0,0,.508.19l.774-.546a8.435,8.435,0,0,1-.059,1.825c-.518,1.6.193,12.016,1.1,14.058s.584,28.821.584,28.821l-.128,2.364a1,1,0,0,0,.031.207l-.031.56.093.048a6.656,6.656,0,0,1-.093,2.25,25.018,25.018,0,0,0-.456,3.967s-2.588,16.546-1.362,19.871,2.27,6.967,2.27,6.967,1.3,4.147.062,4.855-4.741,1.9-4.019,3.625c.657,1.6,3.148,5.875,3.518,6.5l-.031.328-.508,5.505a6.911,6.911,0,0,0,.584,2.1,3.62,3.62,0,0,0,3.694,2.308c.346-.024.746-.066,1.134-.117a48.983,48.983,0,0,0,8.4-2.184,3.422,3.422,0,0,1-.657-.543h0a1.9,1.9,0,0,1-.577-1.382c.055-1-1.821-5.778-2.288-6.953-.073-.169-.111-.266-.111-.266s4.278-4.472,3.566-8.435c0,0-4.734-2.765-3.176-4.282a48.279,48.279,0,0,0,4.344-5.875s.128-16.294,0-18.727a20.147,20.147,0,0,1,.238-5.056c.052-.252.114-.5.18-.74a45.118,45.118,0,0,0,6.511.494c.795,0,1.6,0,2.419-.048q0,.346.031.746c.18,4.036.515,11.114.788,13.744.387,3.77,2.526,13.93,2.526,13.93s-4.081,2.619.712,9.075c0,0,0,2.34-.318,2.678h0a29.305,29.305,0,0,0-.819,3.373,5.947,5.947,0,0,0,.041,3.086c.778,1.527,5.443,1.4,5.443,1.4h0l.114-.021A6.687,6.687,0,0,1,352,426.178c1.773,1.424,8.5.8,12.143.346,1.427-.18,2.381-.346,2.381-.346a1.381,1.381,0,0,0,.048-.5h0c-.038-.9-.74-2.858-5.495-4.61,0,0-4.472-3.007-4.41-5.626h-.612a4.877,4.877,0,0,1,.619,0s-1.752-6.393-1.037-6.912-1.427-7.6-1.427-7.6-1.227-11.888-1.292-12.721a7.26,7.26,0,0,1,.321-2.108l-.321-6.518s-.062-2.167,0-2.872a14.342,14.342,0,0,0-.149-1.828c-.031-.242-.062-.494-.1-.743,1.676-.425,2.765-.819,2.765-.819l-.193-22.687c1.424-2.765,1.686-8.829,1.68-13.132,0-2.765-.124-4.81-.124-4.81l1.946-3.176s.449-3.8-.263-4.634a.8.8,0,0,1,.086-1.089,3.619,3.619,0,0,1,.425-.29s-.021-.031-.045-.076a3.427,3.427,0,0,1,.432-.308s-.691-1.071-.073-1.524c.581.394,1.1.691,1.493.933-.028.252-.055.4-.055.4l.166-.346.612.346s3.048-6.072,2.982-6.967,2.073-4.665,2.073-4.665a4.668,4.668,0,0,1,1.427-2.81c1.168-.829.905-6.839.905-6.839a14.734,14.734,0,0,1,1.1-4.41C370.79,295.959,369.3,294.234,369.3,294.234Zm-58.319-2.664.059,1.448-.594-.957Z" transform="translate(-209.952 -163.027)" fill="url(#a)"/><path d="M471.566,496.509l-.746,3.179s-5.978-3.051-7.057-6.929,1.8-5.349,1.8-5.349l5.571,2.36Z" transform="translate(-319.831 -339.232)" fill="#fff"/><path d="M471.566,496.509l-.746,3.179s-5.978-3.051-7.057-6.929,1.8-5.349,1.8-5.349l5.571,2.36Z" transform="translate(-319.831 -339.232)" opacity="0.1"/><path d="M364.1,803.009a42.963,42.963,0,0,1-9.331,2.288A3.55,3.55,0,0,1,351.14,803a6.945,6.945,0,0,1-.57-2.091l.494-5.477.263-2.917,8.076-2.1,1.144,3.5.107.266c.46,1.168,2.3,5.92,2.246,6.911a1.887,1.887,0,0,0,.567,1.365A3.281,3.281,0,0,0,364.1,803.009Z" transform="translate(-245.912 -537.529)" fill="#fff"/><path d="M452,799.537a1.382,1.382,0,0,1-.048.494s-11.826,1.973-14.245,0a6.407,6.407,0,0,0-4.976-1.458s-4.575.124-5.339-1.382a6,6,0,0,1-.038-3.069,29.229,29.229,0,0,1,.8-3.356l.183-.145,1.089-.874,12.745-.377h.1c-.062,2.606,4.327,5.595,4.327,5.595C451.253,796.693,451.941,798.645,452,799.537Z" transform="translate(-296.045 -536.842)" fill="#fff"/><path d="M452,808.535a1.409,1.409,0,0,1-.052.494s-11.822,1.973-14.241,0a6.407,6.407,0,0,0-4.973-1.458s-4.579.124-5.339-1.382a5.994,5.994,0,0,1-.041-3.069c1.762.176,4.544.615,5.636,1.662,1.652,1.593,4.451,3.183,6.169,3.307C440.5,808.176,448.544,808.431,452,808.535Z" transform="translate(-296.048 -545.84)" opacity="0.1"/><path d="M365.182,825.842a42.966,42.966,0,0,1-9.331,2.288,3.541,3.541,0,0,1-3.622-2.3c1.406.473,3.359.971,4.385.515,1.216-.539,5.529-.888,7.948-1.037A3.405,3.405,0,0,0,365.182,825.842Z" transform="translate(-246.999 -560.362)" opacity="0.1"/><path d="M396.04,313.735c-4.562-1.773-10.43-7.63-8.964-10.367a6.124,6.124,0,0,0,.57-2.2,20.081,20.081,0,0,0,.042-3.11,42.6,42.6,0,0,0-.612-5.059s14.241.321,13.412,2.419a7.843,7.843,0,0,0-.214,2.879c.066,1.2.238,2.547.418,3.691.249,1.569.5,2.765.5,2.765s-.871,1.22-1.382,1.286S402.586,316.261,396.04,313.735Z" transform="translate(-269.653 -212.005)" fill="#cf6f80"/><path d="M361.56,794.183l-.107.118c-4.257-5.149-9.407,1.268-9.407,1.268l-.076-.135.263-2.917,8.076-2.1,1.144,3.5Z" transform="translate(-246.829 -537.529)" opacity="0.1"/><path d="M444.129,789.707s-3.11-.066-4.769,1.4-9.676.318-9.331,0a1.137,1.137,0,0,0,.18-.525l1.089-.874,12.745-.377C444.091,789.561,444.129,789.707,444.129,789.707Z" transform="translate(-297.906 -536.816)" opacity="0.1"/><path d="M360.2,660.485a9.617,9.617,0,0,0-.525,1.773,20.287,20.287,0,0,0-.238,5.032c.128,2.419,0,18.63,0,18.63a49.6,49.6,0,0,1-4.257,5.847c-1.524,1.524,3.11,4.261,3.11,4.261.691,3.94-3.5,8.391-3.5,8.391-4.258-5.149-9.407,1.272-9.407,1.272s-2.8-4.838-3.5-6.566,2.733-2.924,3.94-3.625-.059-4.838-.059-4.838-1.019-3.625-2.229-6.932,1.334-19.77,1.334-19.77a25.513,25.513,0,0,1,.446-3.943,6.592,6.592,0,0,0,.093-2.239c-.021-.252-.045-.463-.062-.6s-.031-.207-.031-.207l.048-.083,1.728-3.221S361.026,658.457,360.2,660.485Z" transform="translate(-240.168 -448.03)" fill="#e36b0a"/><path d="M437.056,706.941s-3.11-.066-4.769,1.382-9.676.318-9.331,0,.318-2.671.318-2.671c-4.7-6.421-.691-9.026-.691-9.026s-2.1-10.108-2.481-13.858c-.266-2.619-.594-9.659-.771-13.678-.076-1.728-.121-2.917-.121-2.917l3.843-.774.494-.1,9.268-1.859s.256,1.728.429,3.141a14.69,14.69,0,0,1,.145,1.821c-.062.691,0,2.854,0,2.854l.314,6.487a7.363,7.363,0,0,0-.314,2.1c.062.826,1.268,12.651,1.268,12.651s2.1,7.057,1.382,7.565S437.056,706.941,437.056,706.941Z" transform="translate(-290.832 -454.43)" fill="#e36b0a"/><path d="M400.922,295.419a7.842,7.842,0,0,0-.214,2.879,11.836,11.836,0,0,1-12.586-.235A42.59,42.59,0,0,0,387.51,293S401.751,293.314,400.922,295.419Z" transform="translate(-270.087 -212.005)" opacity="0.1"/><path d="M397.474,255.506a11.706,11.706,0,0,1-.581,3.667,11.826,11.826,0,0,1-23.064-3.383v-.283a11.825,11.825,0,1,1,23.649,0Z" transform="translate(-261.134 -179.729)" fill="#cf6f80"/><path d="M396.04,329.205c-4.562-1.773-10.43-7.63-8.964-10.367a6.123,6.123,0,0,0,.57-2.2l6.245,5.132,3.864,3.169,2.937-7.478c.249,1.569.5,2.765.5,2.765s-.871,1.22-1.382,1.286S402.586,331.731,396.04,329.205Z" transform="translate(-269.653 -227.476)" opacity="0.1"/><path d="M356.836,292.215l-5.215,87.6-6.8.446-17.611-50.8,2.889-60.306.608-12.741,7.831,6.431,3.867,3.169,3.024-7.7,5.623,4.9Z" transform="translate(-214.3 -167.805)" fill="#e36b0a"/><path d="M366.877,660.537a9.617,9.617,0,0,0-.525,1.773,50.108,50.108,0,0,1-14.258-4.454l-.093-.048.031-.556.017-.29,1.728-3.221S367.706,658.509,366.877,660.537Z" transform="translate(-246.848 -448.082)" opacity="0.1"/><path d="M423.093,672.415a34.97,34.97,0,0,1-3.822.435c-.076-1.728-.121-2.917-.121-2.917l3.843-.774Z" transform="translate(-290.793 -458.174)" opacity="0.1"/><path d="M441.4,666.631a26.825,26.825,0,0,1-9.648.909l-.048-2.191,9.268-1.859S441.224,665.2,441.4,666.631Z" transform="translate(-299.006 -454.463)" opacity="0.1"/><path d="M346.807,439.883c-14.169,2.419-27.145-4.517-27.145-4.517l.124-2.35s.321-26.64-.57-28.683-1.586-12.4-1.082-13.989-1.842-25.427-1.842-25.427l-.38-9.676L302,349.6l6.22-12.966a46.788,46.788,0,0,0,2.163-5.6c1.082-3.366,6.1-6.673,6.1-6.673s5.149-3.3,7.185-3.179,4.7-2.924,4.7-2.924c1.97-5.021,3.753-2.747,3.753-2.747a4.485,4.485,0,0,1-.1.743c-.691,5.512,11.176,22.929,11.345,23.236h0l1.13,27.529,1.144,34.837Z" transform="translate(-214.127 -226.405)" opacity="0.1"/><path d="M345.688,439.844c-14.169,2.419-27.148-4.517-27.148-4.517l.128-2.35s.321-26.64-.574-28.683-1.586-12.4-1.078-13.989-1.842-25.427-1.842-25.427l-.384-9.676-13.92-5.657,6.22-12.966a47.524,47.524,0,0,0,2.163-5.6c1.078-3.366,6.1-6.673,6.1-6.673s5.149-3.3,7.181-3.179,4.7-2.924,4.7-2.924c1.973-5.021,4.147-2.747,4.147-2.747,0,.238-.207.346-.1.743,1.521,5.346,10.8,22.929,10.965,23.236h0l1.144,27.529,1.144,34.837Z" transform="translate(-213.388 -226.366)" fill="#fff"/><path d="M394.792,341.737c-1.524-.636-9.6-9.852-9.6-9.852v-2.1c-.294-.691-2.039-.27-3.456.214l.608-12.741.691.574C384.553,323.176,394.616,341.43,394.792,341.737Z" transform="translate(-266.311 -227.882)" opacity="0.1"/><path d="M395.9,339.527c-1.527-.636-9.6-9.852-9.6-9.852v-2.1c-.294-.691-2.039-.27-3.456.214l.612-12.741.691.574C385.66,320.966,395.727,339.223,395.9,339.527Z" transform="translate(-267.031 -226.435)" fill="#fff"/><path d="M351.638,516.966c.19,0,9.852-1.016,9.852-1.016s5.851,11.5,5.467,14.3-1.078,5.277-3.432,4.838-12.665.346-12.665.346Z" transform="translate(-246.102 -357.909)" opacity="0.1"/><path d="M350.528,514.756c.19,0,9.852-1.016,9.852-1.016s5.847,11.508,5.467,14.3-1.082,5.277-3.432,4.838-12.665.346-12.665.346Z" transform="translate(-245.376 -356.463)" fill="#fff"/><path d="M363.064,501.05s8.867,4.766,9.058,6.22-4.513-.636-5.529-.888a12.652,12.652,0,0,0-2.035-.318l-6.777.183Z" transform="translate(-250.631 -348.158)" fill="#cf6f80"/><ellipse cx="0.933" cy="0.933" rx="0.933" ry="0.933" transform="translate(125.074 112.584)" opacity="0.1"/><ellipse cx="0.933" cy="0.933" rx="0.933" ry="0.933" transform="translate(125.074 112.204)" fill="#3f3d56"/><ellipse cx="0.933" cy="0.933" rx="0.933" ry="0.933" transform="translate(126.792 152.975)" opacity="0.1"/><ellipse cx="0.933" cy="0.933" rx="0.933" ry="0.933" transform="translate(126.792 152.591)" fill="#3f3d56"/><ellipse cx="0.933" cy="0.933" rx="0.933" ry="0.933" transform="translate(126.004 132.779)" opacity="0.1"/><ellipse cx="0.933" cy="0.933" rx="0.933" ry="0.933" transform="translate(126.004 132.399)" fill="#3f3d56"/><path d="M444.31,386.64s.636.954,0,1.4.062,1.524.062,1.524-1.586.93-.888,1.766.256,4.613.256,4.613l-1.908,3.159s.114,2.035.121,4.786c0,4.292-.252,10.326-1.648,13.077l.194,22.57s-6.68,2.44-12.271,1.7l-.829-36.216s1.21-20.538,1.655-24.477a41.011,41.011,0,0,0,.318-6.168,68.919,68.919,0,0,0-.829-9.026s-.691-12.4-.76-15.827c-.031-1.642.055-6.431.152-10.986.107-4.98.228-9.676.228-9.676l-1.261-9.98s1.261-.128,1.641.38a3.639,3.639,0,0,0,.553.425h0c2.177,1.472,9.87,6,9.87,6s4.257,1.693,5.277,4.119a35.9,35.9,0,0,0,2.222,4.838c.494.691.764,3.94.764,3.94s1.465,5.978,2.609,6.991,1.98,7.454,1.98,7.454l-10.108,7.948s-.888,13.222-1.078,13.733S444.31,386.64,444.31,386.64Z" transform="translate(-295.865 -228.928)" fill="#fff"/><path d="M444.648,386.432s.632.954,0,1.4.059,1.524.059,1.524-1.576.94-.885,1.776.256,4.613.256,4.613L442.17,398.9s.114,2.035.124,4.786c0,4.292-.252,10.326-1.648,13.077l.19,22.57s-6.69,2.44-12.275,1.7l-.826-36.216s1.209-20.538,1.655-24.477a40.627,40.627,0,0,0,.314-6.169,69.346,69.346,0,0,0-.826-9.026s-.691-12.4-.764-15.827c-.031-1.641.059-6.431.152-10.986.107-4.98.228-9.676.228-9.676L426.83,318.54s1.666,0,2.049.515a3.281,3.281,0,0,0,.553.425h0c2.177,1.472,9.873,6,9.873,6s4.254,1.693,5.273,4.119a35.323,35.323,0,0,0,2.225,4.838c.5.691.76,3.94.76,3.94s1.465,5.978,2.609,6.991,1.97,7.44,1.97,7.44l-10.108,7.948s-.888,13.222-1.082,13.733S444.648,386.432,444.648,386.432Z" transform="translate(-295.819 -228.719)" fill="#fff"/><path d="M433.269,333.022l.912,2.661-4.8,4.838c.107-4.976.228-9.676.228-9.676L427.94,320.73s1.666,0,2.049.515a3.151,3.151,0,0,0,.553.422h0l4.085,11.784Z" transform="translate(-296.545 -230.153)" opacity="0.1"/><path d="M432.159,330.812l.916,2.661-4.8,4.838c.107-4.98.228-9.676.228-9.676L426.83,318.52s1.669,0,2.049.515a3.458,3.458,0,0,0,.553.425h0l4.088,11.781Z" transform="translate(-295.819 -228.706)" fill="#fff"/><path d="M397.474,255.506a11.705,11.705,0,0,1-.581,3.667.494.494,0,0,1-.373-.093,15.255,15.255,0,0,0-3.5-8.515,8.946,8.946,0,0,0-1.9-1.97,3.718,3.718,0,0,0-2.578-.729c-1.037.142-1.952.847-3,.936-1.382.114-2.619-.843-3.991-.892a3.922,3.922,0,0,0-2.934,1.362,8.049,8.049,0,0,0-1.572,2.917,17.065,17.065,0,0,0-.878,5.032c-.017.968-.111,2.181-1.009,2.533a5.163,5.163,0,0,0-1.3-3.943l-.021-.021v-.283a11.825,11.825,0,1,1,23.649,0Z" transform="translate(-261.134 -179.729)" opacity="0.1"/><path d="M383.709,222.1a8.142,8.142,0,0,0-5.743-.449c-.957.283-1.859.743-2.83.975-2.073.5-4.492-.041-6.272,1.172a7.5,7.5,0,0,0-2.136,2.844l-1.382,2.633a17.088,17.088,0,0,0-1.828,4.492,5.736,5.736,0,0,0,.881,4.638c.733.93,1.814,1.514,2.609,2.388a5.184,5.184,0,0,1,1.3,3.94c.9-.346.988-1.562,1.009-2.53a17.065,17.065,0,0,1,.878-5.032,8.021,8.021,0,0,1,1.572-2.917A3.929,3.929,0,0,1,374.7,232.9c1.382.048,2.623,1,3.991.888,1.037-.086,1.956-.795,3-.933a3.7,3.7,0,0,1,2.578.729,8.854,8.854,0,0,1,1.9,1.97,15.215,15.215,0,0,1,3.508,8.515c.391.287.954-.086,1.147-.529a12.632,12.632,0,0,1,.446-1.382,5.1,5.1,0,0,1,1.251-1.113,4.891,4.891,0,0,0,1.306-3.915,19.506,19.506,0,0,1-.048-4.258c.162-.857.529-1.659.729-2.505a3.276,3.276,0,0,0-.249-2.526c-.691-1.071-2.146-1.282-3.414-1.382-1.441-.124-2.73.035-3.649-1.178a13.236,13.236,0,0,0-1.451-1.776C385.558,223.32,383.709,222.18,383.709,222.1Z" transform="translate(-254.295 -165.102)" fill="#512e4e"/><path d="M304.515,421.807,300.9,415.13l-1.144,10.3a47.754,47.754,0,0,1,.508,5.277c-.128.7,2.606,6.991,2.606,6.991s9.03,16.083,12.717,16.912l12.458-8.9-3.3-4.2s-1.144-.446-1.431,0c0,0-6.134-10.554-6.77-11.318a3.812,3.812,0,0,1-.511-2.288s-.954-1.016-.636-1.97-1.842-4.261-1.842-4.261l1.97-1.842Z" transform="translate(-212.661 -291.93)" opacity="0.1"/><path d="M299.648,412.93l-.954.76-1.144,10.3a47.747,47.747,0,0,1,.508,5.277c-.128.7,2.609,6.991,2.609,6.991s9.026,16.083,12.714,16.912l12.461-8.9-3.307-4.2s-1.144-.446-1.431,0c0,0-6.134-10.554-6.77-11.318a3.8,3.8,0,0,1-.508-2.288s-.954-1.016-.636-1.97-1.845-4.261-1.845-4.261l1.97-1.842Z" transform="translate(-211.215 -290.49)" fill="#fff"/><path d="M461.237,518.055c.691.84.256,4.61.256,4.61l-1.908,3.159s.114,2.039.121,4.786l-3.207,1a1.9,1.9,0,0,1-2.471-1.876l.553-17.835,7.482,2.861c-.636.442.062,1.527.062,1.527S460.539,517.215,461.237,518.055Z" transform="translate(-313.618 -355.259)" opacity="0.1"/><path d="M462.341,516.951c.691.84.256,4.613.256,4.613l-1.908,3.159s.114,2.035.124,4.786l-3.266,1.019a1.866,1.866,0,0,1-2.419-1.838l.556-17.89,7.485,2.861c-.639.442.059,1.524.059,1.524S461.649,516.115,462.341,516.951Z" transform="translate(-314.337 -354.539)" fill="#fff"/><path d="M471.835,498.73s-.508,3.245-1.78,3.435-1.842,5.249-3.11,5.07-.428-4.7-.384-5.581-1.382-4.513-.314-5.339,4.448,0,4.448,0Z" transform="translate(-321.355 -344.819)" fill="#cf6f80"/><path d="M472.07,422.528l2.4-4.838a31.41,31.41,0,0,1,.954,5.657c0,1.97,1.334,2.163,1.334,2.163s1.462,1.728.691,2.986a14.493,14.493,0,0,0-1.082,4.389s.252,5.975-.892,6.8a4.628,4.628,0,0,0-1.382,2.8s-2.1,3.75-2.035,4.641-2.924,6.929-2.924,6.929,1.462-7.5-7.057-10.744c0,0-.066-2.547.57-3.245s1.628-1.016,1.006-4.544a41.214,41.214,0,0,1-.18-8.591,54.1,54.1,0,0,1,1.908-6.127Z" transform="translate(-318.884 -293.606)" opacity="0.1"/><path d="M474.475,415.69l2.094.691a31.308,31.308,0,0,1,.957,5.657c0,1.97,1.334,2.163,1.334,2.163s1.462,1.728.691,2.986a14.455,14.455,0,0,0-1.078,4.389s.252,5.975-.892,6.8a4.691,4.691,0,0,0-1.4,2.8s-2.1,3.75-2.032,4.641-2.927,6.929-2.927,6.929,1.465-7.5-7.057-10.744c0,0-.062-2.547.574-3.245s1.628-1.016,1.006-4.544a41.214,41.214,0,0,1-.18-8.591,54.1,54.1,0,0,1,1.908-6.127Z" transform="translate(-320.252 -292.297)" fill="#fff"/><path d="M360.15,776.423s3.338-2.1,5.529-.574S360.15,776.423,360.15,776.423Z" transform="translate(-252.182 -527.63)" opacity="0.1"/><path d="M435.21,759.755a6.758,6.758,0,0,1,5.436,2.291C443.127,764.717,435.21,759.755,435.21,759.755Z" transform="translate(-301.303 -517.449)" opacity="0.1"/><g transform="translate(109.086 63.82)" opacity="0.1"><path d="M401.884,260.646a5.126,5.126,0,0,0-1.254,1.116,12.642,12.642,0,0,0-.442,1.382c-.194.449-.757.816-1.147.532a15.28,15.28,0,0,0-3.508-8.518,8.854,8.854,0,0,0-1.9-1.97,3.715,3.715,0,0,0-2.581-.729c-1.037.142-1.949.847-3,.933-1.382.117-2.623-.84-3.995-.888a3.912,3.912,0,0,0-2.93,1.365,8,8,0,0,0-1.572,2.913,17.084,17.084,0,0,0-.878,5.032c-.021.964-.111,2.167-1,2.526a4.734,4.734,0,0,1,0,.767c.9-.346.988-1.562,1.009-2.53a17.064,17.064,0,0,1,.878-5.032,8.02,8.02,0,0,1,1.572-2.917,3.922,3.922,0,0,1,2.93-1.362c1.382.048,2.626,1,3.995.888,1.037-.086,1.956-.795,3-.933a3.715,3.715,0,0,1,2.581.729,8.854,8.854,0,0,1,1.9,1.97,15.24,15.24,0,0,1,3.508,8.515c.391.287.954-.086,1.147-.529a13.413,13.413,0,0,1,.442-1.382,5.113,5.113,0,0,1,1.254-1.113A4.891,4.891,0,0,0,403.2,257.5v-.131A4.537,4.537,0,0,1,401.884,260.646Z" transform="translate(-372.74 -249.283)"/><path d="M367.018,265.595c-.795-.874-1.88-1.458-2.609-2.384a5.06,5.06,0,0,1-1.006-2.83,5.322,5.322,0,0,0,1.006,3.591c.729.93,1.814,1.514,2.609,2.388a5.184,5.184,0,0,1,1.3,3.083A5.184,5.184,0,0,0,367.018,265.595Z" transform="translate(-363.385 -254.478)"/><path d="M451.863,243.984c-.2.847-.567,1.652-.733,2.505a7.981,7.981,0,0,0-.107,1.728,6.7,6.7,0,0,1,.107-.981c.166-.857.529-1.659.733-2.505a4.25,4.25,0,0,0,.114-1.431A4.807,4.807,0,0,1,451.863,243.984Z" transform="translate(-420.732 -243.3)"/></g><ellipse cx="33.673" cy="5.408" rx="33.673" ry="5.408" transform="translate(12.029 252.027)" fill="#e36b0a" opacity="0.1"/><rect width="2.167" height="48.785" transform="translate(44.621 153.832)" fill="#535461"/><path d="M166.842,638.241l-.135,2.2-.194,3.11-.079,1.292-.19,3.11-.083,1.292-.194,3.11-2.184,35.273a5.978,5.978,0,0,1-5.965,5.605H146.463a5.975,5.975,0,0,1-5.961-5.605l-2.174-35.3-.194-3.11-.079-1.292-.194-3.11-.079-1.292-.194-3.11-.138-2.2a3.11,3.11,0,0,1,3.11-3.286h23.226a3.09,3.09,0,0,1,3.055,3.311Z" transform="translate(-106.439 -435.773)" fill="#3f3d56"/><path d="M119.712,592.24l-.194,3.1H90.774l-.194-3.1Z" transform="translate(-59.444 -387.574)" fill="#9d9cb5"/><path d="M119.956,604.95l-.19,3.1h-28.2l-.194-3.1Z" transform="translate(-59.961 -395.892)" fill="#9d9cb5"/><path d="M120.2,617.68l-.19,3.1H92.354l-.194-3.1Z" transform="translate(-60.478 -404.223)" fill="#9d9cb5"/><path d="M75.569,538.408c12.617,9.13,17.884,23.409,17.884,23.409s-15.205-.522-27.826-9.652S47.75,528.76,47.75,528.76,62.948,529.278,75.569,538.408Z" transform="translate(-47.74 -366.292)" fill="#e36b0a"/><path d="M47.72,528.76s15.786,8.76,20.849,16.014,24.864,17.044,24.864,17.044" transform="translate(-47.72 -366.292)" fill="none" stroke="#535461" stroke-miterlimit="10" stroke-width="2"/><path d="M123.143,493.513a30.682,30.682,0,0,1,9.738,12.738A30.621,30.621,0,0,1,117.735,501,30.62,30.62,0,0,1,108,488.26,30.6,30.6,0,0,1,123.143,493.513Z" transform="translate(-87.169 -339.788)" fill="#e36b0a"/><path d="M108,488.26s8.591,4.769,11.345,8.715,13.536,9.275,13.536,9.275" transform="translate(-87.169 -339.788)" fill="none" stroke="#535461" stroke-miterlimit="10" stroke-width="2"/><path d="M190.749,517.584c-7.889,8.671-9.559,20-9.559,20s11.124-2.73,19.007-11.4,9.559-20,9.559-20S198.638,508.914,190.749,517.584Z" transform="translate(-135.066 -351.516)" fill="#e36b0a"/><path d="M209.762,506.19s-10.277,8.888-12.89,15.012-15.682,16.391-15.682,16.391" transform="translate(-135.066 -351.522)" fill="none" stroke="#535461" stroke-miterlimit="10" stroke-width="2"/><path d="M900.031,355.842s-5.705-28.386-3.521-31.917c0,0,.079-3.283-.052-7.468v-.48a10.631,10.631,0,0,0,1.2.691,9.7,9.7,0,0,0,6.531.843l-1.728-1.925a3.189,3.189,0,0,1-.937-1.565,3.28,3.28,0,0,1,.373-1.693c1.641-4.147,1.728-9.362-1.434-12.527-2.671-2.661-3.321-6.1-6.22-8.525-2.118-1.78-3.283-4.389-4.382-6.911a38.866,38.866,0,0,1-2.4-6.542c-.415-1.766-.581-3.594-1.151-5.318A6.769,6.769,0,0,0,883,268.332a12.483,12.483,0,0,1-1.8-.791,7.763,7.763,0,0,1-1.655-1.946c-2.616-3.456-11.376-1.42-15.523-.017a8.732,8.732,0,0,0-3.069,1.7l.038-.062c.031-.052.069-.1.1-.156a5.454,5.454,0,0,0-1.161,1.3,31.1,31.1,0,0,0-1.362,3.11c-.608,1.227-3.991,4.651-2.537,6.03a1.227,1.227,0,0,0,.346.221,2.989,2.989,0,0,0,1.728.173l-.062.149a10.1,10.1,0,0,0-.75,3.832,10.372,10.372,0,0,0,10.464,10.281,10.563,10.563,0,0,0,3.2-.494c.024.131.045.263.069.394a1.2,1.2,0,0,0,.024.156h0l-.183.256a.344.344,0,0,0-.031-.045L865.425,300c-.829.584-5.605,4.04-5.875,6.632-.283,2.837-.567,6.158-.567,6.158l-.038.712a2.136,2.136,0,0,1-1.728.467c-1.693-.276-1.693,6.22-1.693,6.22s-1.127,1.037-1.9.138-2.82,2.146-2.82,2.146l-12.821.553h0l-.294.017L837,320.9a.9.9,0,0,0-1.13-.577,1.038,1.038,0,0,0-.156.066l-.048.028-.09.062-.045.041a.69.69,0,0,0-.069.073l-.042.048-.021.021h0a.871.871,0,0,0-.124.774l.594,1.835c-2.474.5-5,1.9-2.941,5.764l-10.457-1.932,3.383,2.841,17.465,3.6c-.232.415-.079,1.016.643,1.863,3.11,3.653,8.778,4.645,11.058,4.9a19.632,19.632,0,0,0,2.243,3.8l-.2,3.639s-5.775,27.736-6.832,29.142a16.439,16.439,0,0,0,1.462-1.925c-1.676,5.7-4.019,13.5-4.634,14.666-.988,1.866-1.9,9.417-.778,9.9a9.48,9.48,0,0,0,2.744-.031v.625l-.062,23.7s.283,14.538-.494,15.924a13.553,13.553,0,0,0-.985,4.292s-3.11,5.733-5.574,8.038a.371.371,0,0,1-.055.048l-.076-.539s-2.962,3.739-9.514,3.528c0,0-3.943,2.564,1.9,2.7s13.315-.207,13.315-.207,5.215-7.948,9.583-6.912v6.023h1.337v-6.12a5.484,5.484,0,0,0,2.381-3.6,4.382,4.382,0,0,0-1.562-4.054,2.592,2.592,0,0,1-.854-1.894l-.048.041a3.646,3.646,0,0,0-.045-.373c-.384-3.11-.864-9.528.833-14.276,2.326-6.511,3.031-15.579,1.337-20.976a48.225,48.225,0,0,1-1.344-5.256c-.041-.225-.079-.439-.114-.639a27.249,27.249,0,0,1,3.432.691c3.922,1.082,12.5,1.282,19.829,1.223.017.2.038.411.062.622a22.641,22.641,0,0,0,.816,4.327c.919,2.765,1.341,14.953,1.341,14.953s1.185,10.022.539,14.1c-.346,2.267-.691,4.544-.888,6.832v.045s-1.942,5.529-3.362,8.532c-.035.076-.073.152-.107.225a4.5,4.5,0,0,0-1.109.245s-1.9,3.8-3.8,4.43-1.268,2.7,3.027,1.939,10.782-1.382,10.782-1.382l.28-3.877,1.32-1.652L890.8,454.7l1.406-.276-.187-4.7,2.16-2.7s2.609-2.322-1.268-6.891v.1c-.041-.066-.079-.135-.124-.2v-.021c-.643-1-1.154-2.851-.218-6.144,1.693-5.951,2.678-11.352,2.678-11.352s3.781-14.469-.764-21.315h.2a11.512,11.512,0,0,1-.978-3.041q-.035-.187-.062-.384A24.936,24.936,0,0,0,903,395.659C902.992,395.646,901.372,361.309,900.031,355.842Zm-42.689-23.948v.069l-.691.035Zm-2.371.328a.764.764,0,0,0-.311.149,3.069,3.069,0,0,0-.543,1.42l-1.078-.242s-.757-.162-1.845-.346l-.515-.518C852.1,332.568,853.568,332.395,854.971,332.222Z" transform="translate(-554.735 -192.825)" fill="url(#b)"/><path d="M971.731,742.221l-.411,4.9,1.379-.276-.207-5.312Z" transform="translate(-635.822 -485.273)" fill="#1d2366"/><path d="M893.115,679.365c-1.662,4.734-1.192,11.124-.819,14.227.138,1.147.266,1.845.266,1.845s-2.485,5.66-2.692,5.875-7.312,4.551-7.312,4.551l-4.966,2.9s-5.038-2.208-2.623-2.968a3.668,3.668,0,0,0,1.3-.888c2.419-2.3,5.457-8.01,5.457-8.01a13.777,13.777,0,0,1,.968-4.278c.76-1.379.484-15.869.484-15.869l.059-23.62V650.05l9.452.069a21.391,21.391,0,0,0,.408,3.11,47.559,47.559,0,0,0,1.317,5.239C896.08,663.856,895.389,672.879,893.115,679.365Z" transform="translate(-588.663 -445.668)" fill="#ffb0b1"/><path d="M892.562,777.908s-2.485,5.661-2.692,5.875-7.312,4.551-7.312,4.551l-4.966,2.9s-5.038-2.208-2.623-2.969a3.667,3.667,0,0,0,1.3-.888l.214,1.51,1.655-.069L892.31,776.07C892.434,777.21,892.562,777.908,892.562,777.908Z" transform="translate(-588.663 -528.138)" opacity="0.1"/><path d="M875.766,777l-14.248,12.835-1.655.069-.346-2.419s-2.9,3.725-9.331,3.518c0,0-3.864,2.554,1.863,2.692s13.039-.207,13.039-.207,5.108-7.948,9.382-6.911v6h1.313v-6.058a5.457,5.457,0,0,0,2.329-3.594,4.4,4.4,0,0,0-1.524-4.036A2.6,2.6,0,0,1,875.766,777Z" transform="translate(-572.04 -528.747)" fill="#1d2366"/><path d="M999.248,686.259c-.919,3.283-.418,5.132.211,6.124v.021a11.319,11.319,0,0,1,1.652,4.033l.055.311-6.483,9.451-3.518,1.382s-5.657-1.932-4.624-2.485a5.294,5.294,0,0,0,1.127-1.845c1.382-2.989,3.29-8.5,3.29-8.5V694.7c.2-2.277.518-4.548.871-6.808.632-4.067-.529-14.051-.529-14.051s-.415-12.14-1.313-14.9a22.779,22.779,0,0,1-.805-4.3c-.187-1.728-.228-3.152-.228-3.152s3.725-5.184,10.554.415a7.512,7.512,0,0,1,1.427,1.548c4.717,6.711.919,21.495.919,21.495S1000.9,680.326,999.248,686.259Z" transform="translate(-662.025 -445.18)" fill="#ffb0b1"/><path d="M1001.2,778.168l-6.483,9.451L991.2,789s-5.657-1.932-4.624-2.485a5.3,5.3,0,0,0,1.127-1.845,4.471,4.471,0,0,1,3.635,2.26l3.034-.484s4-7.865,4.9-8.346.138-3.591.138-3.591v-.791c.024.028.045.059.073.086v.021a11.316,11.316,0,0,1,1.652,4.033Z" transform="translate(-662.045 -526.6)" opacity="0.1"/><path d="M982.709,787.515s-1.728-3.172-5.038-2c0,0-1.863,3.8-3.725,4.417s-1.241,2.689,2.969,1.932,10.554-1.382,10.554-1.382l.276-3.867,4.278-5.45s2.55-2.312-1.244-6.863v.791s.76,3.11-.138,3.59-4.886,8.349-4.886,8.349Z" transform="translate(-653.213 -526.98)" fill="#1d2366"/><path d="M909.6,650.1a21.393,21.393,0,0,0,.408,3.11,43.354,43.354,0,0,0-9.87-.1V650.03Z" transform="translate(-605.565 -445.655)" opacity="0.1"/><path d="M1006.151,654.308s-5.529.27-12.123.325c-.187-1.728-.228-3.152-.228-3.152s3.725-5.184,10.554.415a7.512,7.512,0,0,1,1.427,1.548A8.423,8.423,0,0,0,1006.151,654.308Z" transform="translate(-666.858 -445.174)" opacity="0.1"/><path d="M938.817,539.053s-24.218,1.171-31.6-.9-14.7-.276-15.8-.757-.207-8,.76-9.866,6.276-20.7,6.276-20.7l5.108-26.63,5.381-1.483.38-.107,9.376-2.585,6.87-1.9s13.661,53.333,12.489,57.265a10.071,10.071,0,0,0-.2,4.627A11.546,11.546,0,0,0,938.817,539.053Z" transform="translate(-599.524 -330.541)" fill="#1d2366"/><path d="M871.179,439s-4.838,5.184-1.175,8.073,6.072.276,6.072.276Z" transform="translate(-584.946 -307.551)" fill="#c7daf5"/><path d="M871.179,439s-4.838,5.184-1.175,8.073,6.072.276,6.072.276Z" transform="translate(-584.946 -307.551)" opacity="0.1"/><path d="M969.51,322.487s-.567.539-1.42,1.334c-1.216,1.137-3.017,2.8-4.614,4.192-2.212,1.925-4.036,3.338-3.383,2.132s.529-3.307.2-5.273c-.024-.131-.045-.263-.069-.39a36.21,36.21,0,0,0-1.068-4.271,73.907,73.907,0,0,1,5.55-6.438c.736-.691,1.251-.975,1.282-.494a16.056,16.056,0,0,0,1.12,3.587c.017.048.035.093.055.142.4,1.037.854,2.1,1.251,3.02C969.026,321.436,969.51,322.487,969.51,322.487Z" transform="translate(-644.189 -225.119)" fill="#ffb0b1"/><path d="M967.167,317.014a10.257,10.257,0,0,1-6.87,7.865,35.981,35.981,0,0,0-1.137-4.662s6.728-8.691,6.832-6.932A16.445,16.445,0,0,0,967.167,317.014Z" transform="translate(-644.189 -225.126)" opacity="0.1"/><path d="M936.008,351.677l.871-1.227s.577,3.518,2.7,1.966,2.225,11.677,2.225,11.677l-2.277,34.05-16.456-.985.466-16.453,1.863-8.294,4.607-12.057,2.74-3.984Z" transform="translate(-620.57 -249.602)" opacity="0.1"/><path d="M941.823,364.671l-2.073,30.787-.218,3.262-9.175-.549-.346-.021-6.911-.415.466-16.456,1.863-8.294,4.607-12.057,2.74-3.984,3.262-4.71.871-1.223s.577,3.518,2.7,1.966l.045-.031h0C941.726,351.632,941.823,364.671,941.823,364.671Z" transform="translate(-620.59 -249.968)" fill="#1d2366"/><path d="M890.125,406.26a2.518,2.518,0,0,1-2.485,1.448c-1.659-.28-1.655,6.22-1.655,6.22s-1.1,1.037-1.863.138-2.765,2.139-2.765,2.139l-12.558.553s5.588,2.554,4.492,10.281c0,0,18.972-1.175,19.594-2.968S890.125,406.26,890.125,406.26Z" transform="translate(-585.055 -286.125)" fill="#fff"/><path d="M890.125,406.26a2.518,2.518,0,0,1-2.485,1.448c-1.659-.28-1.655,6.22-1.655,6.22s-1.1,1.037-1.863.138-2.765,2.139-2.765,2.139l-12.558.553s5.588,2.554,4.492,10.281c0,0,18.972-1.175,19.594-2.968S890.125,406.26,890.125,406.26Z" transform="translate(-585.055 -286.125)" opacity="0.03"/><path d="M777.66,389.76l3.311,2.827,27.252,5.726-3.38-3.449Z" transform="translate(-509.086 -255.066)" fill="#fff"/><path d="M923.3,351.031a69.756,69.756,0,0,0-2.83,7.319c-.9,2.575-1.655,4.838-1.655,4.838s-1.759,11.452-2.657,13.522-.411,10.143-.411,10.143L912.4,406.79s-1.517,10.281-3.86,16.422a29.906,29.906,0,0,1-4.966,8.968c1.037-1.4,6.687-29.028,6.687-29.028l1.866-34.841s.273-3.311.55-6.141,5.875-6.694,5.875-6.694l5.4-7.675C924.488,348.526,924.125,349.791,923.3,351.031Z" transform="translate(-607.809 -247.868)" fill="#fff"/><path d="M896.216,472.247s-7.948-.346-11.8-4.969,8.9-1.845,8.9-1.845l3.314.76Z" transform="translate(-594.802 -324.308)" fill="#ffb0b1"/><path d="M972.2,454.376A10.069,10.069,0,0,0,972,459a65.872,65.872,0,0,1-17.946-1.728,40.312,40.312,0,0,1-6.279,3.933L945.3,430.451c-1.586-4.147-2.208-25.873-2.208-25.873s.142-1.137.345-2.841a.326.326,0,0,1,.017-.128c.619-4.759,1.845-13.692,2.447-14.9.829-1.659-2.55-6.072-2.55-6.072l1.538-13.115.187-1.583c3.241-1.448,5.726-6.072,5.726-6.072l1.908-3.342h0c2.073-1.33,2.181,11.708,2.181,11.708l-2.073,30.787,6.87-1.9S973.376,450.443,972.2,454.376Z" transform="translate(-633.672 -253.518)" opacity="0.1"/><path d="M981.889,440.9c-9.452,4.693-26.63.346-26.63.346a40.314,40.314,0,0,1-6.279,3.933l-2.485-30.756c-1.583-4.147-2.2-25.873-2.2-25.873s2-16.211,2.827-17.866a2.661,2.661,0,0,0-.162-1.977,25.014,25.014,0,0,1-1.514-11.573l.664-5.636.183-1.579c3.245-1.451,5.73-6.075,5.73-6.075l1.728-3.027,3.179-5.578,1.507-2.64.256.232,1.953,1.769,2.073,1.728c2.706,2.281,7.381,6.3,9.793,8.753,2.122,2.163,2.792,10.578,2.986,16.912.128,4.171.052,7.44.052,7.44C973.4,372.956,979,401.228,979,401.228,980.3,406.691,981.889,440.9,981.889,440.9Z" transform="translate(-634.457 -237.921)" fill="#fff"/><path d="M945.515,364.017s-6.486,12.347-5.733,17.04,2.9,10,1.863,11.245a3.818,3.818,0,0,1-3.037,1.517,9.985,9.985,0,0,0-3.8,2.208c0,.207-2.554.207-4.838,1.175a30.121,30.121,0,0,1-5.657,1.517s-6.566-.207-7.178.415-1.24,4.344.069,7.312,2.765,5.184,3.864,5.588,8.073-1.932,13.73-2.485,11.8-5.035,11.8-5.035,6.763-2.419,7.948-6.486-1.448-26.423-1.448-26.423S951.1,361.187,945.515,364.017Z" transform="translate(-616.227 -258.162)" opacity="0.03"/><path d="M943.134,361.019s-6.486,12.351-5.726,17.04,2.9,10,1.859,11.249a3.8,3.8,0,0,1-3.034,1.517,9.986,9.986,0,0,0-3.8,2.208c0,.207-2.554.207-4.838,1.172a30.424,30.424,0,0,1-5.657,1.517s-6.566-.207-7.174.415-1.244,4.347.069,7.312,2.765,5.184,3.864,5.588,8.073-1.932,13.73-2.481,11.8-5.038,11.8-5.038,6.759-2.419,7.931-6.483-1.448-26.426-1.448-26.426S948.722,358.192,943.134,361.019Z" transform="translate(-614.675 -256.2)" opacity="0.03"/><path d="M944.938,362.226s-6.486,12.351-5.726,17.04,2.9,10,1.863,11.245a3.8,3.8,0,0,1-3.038,1.521,10.031,10.031,0,0,0-3.8,2.2c0,.2-2.55.207-4.838,1.175a30.2,30.2,0,0,1-5.657,1.517s-6.566-.207-7.178.415-1.241,4.347.069,7.312,2.765,5.184,3.864,5.588,8.073-1.932,13.73-2.485,11.8-5.035,11.8-5.035,6.763-2.419,7.948-6.486-1.431-26.423-1.431-26.423S950.523,359.413,944.938,362.226Z" transform="translate(-615.854 -256.993)" fill="#fff"/><path d="M992.468,458.416s-5.184-1.037-3.38.691,1.794,3.241,4,3.172S992.468,458.416,992.468,458.416Z" transform="translate(-663.525 -320.056)" opacity="0.1"/><path d="M1023.781,566.58s-2.343,1.586,2.139,5.242S1023.781,566.58,1023.781,566.58Z" transform="translate(-686.078 -391.043)" opacity="0.1"/><path d="M1011.809,604.31c0,.207-.829,7.6,2.274,9.452S1011.809,604.31,1011.809,604.31Z" transform="translate(-678.578 -415.734)" opacity="0.1"/><path d="M858.266,436.59c-2.5.086-7.907.85-5.1,6.079,2.478,4.627,6.642,1.534,8.985-.812a8.83,8.83,0,0,0-3.881-5.267Z" transform="translate(-574.307 -305.974)" fill="#ffb0b1"/><path d="M881.39,451Z" transform="translate(-593.294 -315.404)" fill="#ffb0b1"/><path d="M880.74,451.507l.1-.107Z" transform="translate(-592.869 -315.666)" fill="#ffb0b1"/><path d="M966.148,336.926c-2.654,1.814-4.88,3.345-5.315,3.663-1.189.881-3.456,6.054-4.918,8.695-1.165,2.125-4.949,2.671-6.376,2.806l.183-1.579c3.245-1.451,5.73-6.075,5.73-6.075l6.414-11.245,2.208,2.008Z" transform="translate(-637.893 -238.307)" opacity="0.1"/><path d="M966.148,336.326c-2.654,1.814-4.88,3.345-5.315,3.667-1.189.878-3.456,6.051-4.918,8.691-1.165,2.125-4.949,2.671-6.376,2.806l.183-1.579c3.245-1.451,5.73-6.075,5.73-6.075l6.414-11.245,2.208,2S964.9,335.275,966.148,336.326Z" transform="translate(-637.893 -237.914)" fill="#dce7ff"/><path d="M944,298.512a10.25,10.25,0,1,1-8.713-10.132A10.232,10.232,0,0,1,944,298.512Z" transform="translate(-620.849 -208.905)" fill="#ffb0b1"/><path d="M963.293,332.982a9.11,9.11,0,0,1-3.307-3.553c-.577-1.14-.961-2.457-1.946-3.266a8.64,8.64,0,0,0-3.179-1.227c-3.635-1.075-6.683-4.392-6.8-8.18-.055-1.783.5-3.563.249-5.329a5.9,5.9,0,0,0-1.154-2.747,9.482,9.482,0,0,0-1-1.075c-.484-.456-.992-.9-1.434-1.382a5.369,5.369,0,0,1-.726-.985,4.74,4.74,0,0,1-.4-.916c-.691-2.115-.062-4.624-.822-6.763l-.042-.118a2.2,2.2,0,0,0-1.683-1.579c-.812-.059-1.507.615-2.281.916-1.621.629-3.369-.442-4.721-1.534s-2.875-2.34-4.593-2.1c-1.137.162-2.035.936-3.083,1.337a4.321,4.321,0,0,1-.729.211,10.246,10.246,0,0,1,19.756,3.819,10.136,10.136,0,0,1-.225,2.139c.017.048.035.093.055.142.4,1.037.854,2.1,1.251,3.02l1.953,1.769,2.073,1.728c2.706,2.281,7.381,6.3,9.794,8.753C962.43,318.237,963.093,326.648,963.293,332.982Z" transform="translate(-622.259 -208.905)" opacity="0.1"/><path d="M922.039,273.277c.494-1.006.74-2.132,1.331-3.086a7.352,7.352,0,0,1,3.936-2.8c4.06-1.4,12.641-3.432,15.205,0a7.482,7.482,0,0,0,1.621,1.935,12.036,12.036,0,0,0,1.759.791,6.722,6.722,0,0,1,3.235,4.147c.556,1.707.722,3.539,1.13,5.3a38.959,38.959,0,0,0,2.35,6.521c1.075,2.509,2.215,5.111,4.289,6.884,2.83,2.419,3.456,5.844,6.082,8.5,3.11,3.152,3.01,8.353,1.406,12.482a3.427,3.427,0,0,0-.366,1.686,3.307,3.307,0,0,0,.916,1.562l1.7,1.918a9.561,9.561,0,0,1-10.447-4.817c-.577-1.14-.961-2.454-1.949-3.266a8.619,8.619,0,0,0-3.176-1.223c-3.635-1.078-6.683-4.4-6.8-8.187-.055-1.78.5-3.559.249-5.322a5.875,5.875,0,0,0-1.158-2.765c-.95-1.241-2.384-2.073-3.159-3.456-1.31-2.312-.314-5.315-1.258-7.8a2.2,2.2,0,0,0-1.683-1.579c-.812-.059-1.507.615-2.284.916-1.617.629-3.366-.439-4.717-1.534s-2.875-2.34-4.6-2.094c-1.137.159-2.032.933-3.079,1.337-.774.3-2.343.563-3.02-.09C918.127,277.918,921.441,274.508,922.039,273.277Z" transform="translate(-618.039 -194.011)" fill="#591d4b"/><path d="M957,319.519c-.581-1.14-.961-2.454-1.949-3.262a8.616,8.616,0,0,0-3.179-1.227c-3.632-1.075-6.68-4.4-6.8-8.183-.055-1.78.5-3.563.252-5.325a5.909,5.909,0,0,0-1.158-2.747c-.954-1.241-2.388-2.073-3.159-3.456-1.31-2.308-.315-5.311-1.261-7.8a2.212,2.212,0,0,0-1.68-1.579c-.809-.062-1.51.619-2.284.919-1.617.629-3.369-.442-4.717-1.534s-2.879-2.34-4.6-2.1c-1.137.162-2.035.936-3.079,1.337-.774.3-2.346.567-3.024-.086-1.424-1.382,1.89-4.786,2.485-6.01a33.122,33.122,0,0,1,1.334-3.086c.031-.052.066-.1.1-.156a5.488,5.488,0,0,0-1.137,1.292,33.591,33.591,0,0,0-1.33,3.086c-.6,1.223-3.912,4.638-2.485,6.01.691.657,2.246.387,3.02.09,1.037-.4,1.942-1.178,3.079-1.337,1.728-.245,3.248,1,4.6,2.094s3.11,2.163,4.721,1.534c.774-.3,1.451-.978,2.281-.916a2.2,2.2,0,0,1,1.683,1.579c.943,2.481-.052,5.484,1.258,7.8.774,1.358,2.208,2.208,3.159,3.456a5.874,5.874,0,0,1,1.158,2.765c.252,1.762-.3,3.542-.249,5.322.114,3.8,3.162,7.108,6.8,8.187a8.666,8.666,0,0,1,3.176,1.223c.992.812,1.382,2.125,1.949,3.266a9.56,9.56,0,0,0,10.447,4.817l-.8-.905A9.664,9.664,0,0,1,957,319.519Z" transform="translate(-617.898 -200.376)" opacity="0.1"/><path d="M951.042,351.566a69.684,69.684,0,0,0-2.83,7.319c-1.013-.394-1.932-2.906-1.932-2.906l5.4-7.679C952.231,349.06,951.868,350.322,951.042,351.566Z" transform="translate(-635.76 -248.195)" opacity="0.1"/><path d="M951.642,350.972a69.694,69.694,0,0,0-2.83,7.319c-1.013-.391-1.932-2.906-1.932-2.906l5.4-7.675C952.831,348.467,952.468,349.732,951.642,350.972Z" transform="translate(-636.152 -247.809)" fill="#dce7ff"/><path d="M864.093,439.26l-2.993-9.438a.881.881,0,0,1,.574-1.109h0a.885.885,0,0,1,1.106.574l2.993,9.427-.3,1.973Z" transform="translate(-579.989 -300.793)" fill="#be8b87"/><path d="M861.653,429.02h0a.884.884,0,0,1,1.109.574l2.993,9.427-.225,1.479.218.228.3-1.973-3.01-9.427a.885.885,0,0,0-1.106-.574h0a.884.884,0,0,0-.46.346A1.2,1.2,0,0,1,861.653,429.02Z" transform="translate(-580.258 -300.819)" fill="#fff" opacity="0.1"/><path d="M822.6,399.672l1.68-.532-.245,1.617-.052.356-.491-.511Z" transform="translate(-538.496 -261.205)" fill="#efc8c4"/><path d="M872.42,461.785a.344.344,0,0,1,.107-.09.152.152,0,0,1,.162,0,.431.431,0,0,1,.059.093.3.3,0,0,0,.214.142l-.052.346Z" transform="translate(-587.424 -322.388)" fill="#727a9c"/><path d="M861.13,441.7s6-.035,4.589,2.519a5.4,5.4,0,0,1-3.622,2.861Z" transform="translate(-580.036 -309.318)" fill="#ffb0b1"/><path d="M603.557,110.05H603.3a29.558,29.558,0,0,0-24.677,13.509,29.558,29.558,0,0,0-24.678-13.509h-.259a29.374,29.374,0,0,0-29.094,29.357c0,9.61,4.209,23.247,12.417,34.468,15.637,21.381,41.614,40.087,41.614,40.087s25.977-18.7,41.611-40.087c8.211-11.221,12.417-24.857,12.417-34.468a29.374,29.374,0,0,0-29.091-29.357Zm-3.708,65.469a5.823,5.823,0,0,1-5.415-3.739h-6.165a1.949,1.949,0,0,1-1.835-1.327l-1.894-5.705-5.992,20.938a1.939,1.939,0,0,1-1.859,1.4h-.121a1.914,1.914,0,0,1-1.8-1.6L568.6,148.34l-4.513,21.979a1.925,1.925,0,0,1-1.87,1.462h-8.684a1.932,1.932,0,1,1,0-3.86h7.164l6.393-29.55a1.939,1.939,0,0,1,3.8.159l6.307,37.889,5.37-18.734a1.9,1.9,0,0,1,1.807-1.382h.038a1.928,1.928,0,0,1,1.832,1.327l3.425,10.3h4.693a5.792,5.792,0,1,1,5.5,7.6Z" transform="translate(-359.795 -92.278)" fill="#e36b0a"/></g></svg>