<svg xmlns="http://www.w3.org/2000/svg" width="466.5" height="381.094" viewBox="0 0 466.5 381.094"><path d="M563.7,269.441v.864q-.076,7.49-.888,14.941a.53.53,0,0,1,0,.09c-.043.413-.09.821-.138,1.234-.081.7-.166,1.391-.261,2.088a150.2,150.2,0,0,1-5.472,25.055h0a135.113,135.113,0,0,1-14.286,31.458q-2.81,4.509-5.985,8.728h0c-1.13,1.49-2.283,2.947-3.474,4.381q-1.253,1.5-2.553,2.962l-.541.6a140.813,140.813,0,0,1-14.713,13.982,230.919,230.919,0,0,1-27.086,18.956c-.532.327-1.068.65-1.6.949a.776.776,0,0,1-.119.071,285.635,285.635,0,0,1-39.441,20.157A178.892,178.892,0,0,1,401.21,428.41c-21.937,2.7-44.139.5-65.943-3.265a428.543,428.543,0,0,1-53.632-12.815l-2.9-.906q-2.25-.717-4.495-1.462-13.56-4.485-26.816-9.967a352.488,352.488,0,0,1-63.281-33.978q-3.8-2.553-7.485-5.221-5.154-3.712-10.185-7.641l-2.069-1.6a212.753,212.753,0,0,1-24.595-22.587c-10.214-11.116-18.942-23.655-24.68-37.969q-1.357-3.374-2.487-6.877l-.071-.233c-.38-1.187-.731-2.373-1.054-3.607q-.712-2.648-1.248-5.363c-.076-.346-.142-.693-.2-1.044a89.8,89.8,0,0,1-1.5-18.477,85.431,85.431,0,0,1,1.9-16.137h0a72.8,72.8,0,0,1,5.377-15.933h0a57.428,57.428,0,0,1,8.225-12.687h0a48.52,48.52,0,0,1,7.751-7.243,63.307,63.307,0,0,1,16.778-8.619h0c2.781-1,5.6-1.87,8.434-2.682,2.008-.579,4.025-1.13,6.032-1.671l5.923-1.6c3.8-1.035,7.594-2.1,11.334-3.246,10.195-3.113,20.186-6.882,29.426-12.5,1.462-.888,2.952-1.861,4.442-2.9q2.848-1.979,5.619-4.3h0c1.87-1.566,3.7-3.242,5.449-5.017.271-.275.536-.551.8-.831,1.424-1.5,2.805-3.071,4.086-4.7.627-.8,1.234-1.609,1.813-2.435.8-1.144,1.562-2.307,2.264-3.5h0c3.522-5.98,5.7-12.577,5.439-19.531a30.051,30.051,0,0,0-.309-3.422c-.617-4.191-1.21-8.282-1.647-12.283-1.832-16.55-1.058-31.557,11.362-45.658,15.444-17.528,39.683-21.1,61.748-19.7,63.793,4.034,121.868,40.456,172.9,83.818q6.621,5.619,13.081,11.391,1.628,1.452,3.261,2.924c8.069,7.266,16.014,14.8,23.413,22.877.6.655,1.2,1.31,1.785,1.97.361.408.726.812,1.082,1.225q3.46,3.916,6.716,8.021a151.952,151.952,0,0,1,15.34,23.256,132.022,132.022,0,0,1,13.47,41.135h0a146.584,146.584,0,0,1,1.628,15.743c.081,1.552.133,3.109.161,4.661v1.49C563.71,268.017,563.71,268.72,563.7,269.441Z" transform="translate(-108.551 -48.512)" fill="#e36b0a" opacity="0.1"/><path d="M385.574,446.638,377.98,581.8l7.594.1,6.17-137.165Z" transform="translate(-198.584 -233.669)" fill="#3f3d56"/><rect width="93.974" height="20.409" transform="translate(65.013 281.452)" fill="#e36b0a"/><path d="M337.8,679.51v12.815H240.725q-5.154-3.712-10.185-7.641V679.51Z" transform="translate(-172.642 -380.027)" fill="#3f3d56"/><path d="M327.7,557.438c-.266,1.229-.612,2.444-.978,3.655-1.077,3.5-2.373,6.948-2.625,10.584-.337,4.8.949,10.389-2.373,13.878-.854.9-1.97,1.576-2.734,2.539a4.45,4.45,0,0,0-.323.475,7.356,7.356,0,0,0-.774,3.8,66.453,66.453,0,0,0,.536,8.235c1.125,9.4,3.346,18.814.427,27.685a42.672,42.672,0,0,1-1.846,4.514c-1.424,3.132-2.976,6.222-3.441,9.616a60.578,60.578,0,0,0-.256,7.665q-2.25-.717-4.495-1.462-13.56-4.485-26.816-9.967c.024-.128.047-.261.066-.389.679-4.224-.252-8.543-1.381-12.663-2.373-8.728-5.733-17.371-7.722-26.161A66.2,66.2,0,0,1,271.394,589c-.057-.788-.09-1.58-.095-2.373-.024-1.035,0-2.069.043-3.113.1-2.084.19-4.556-1.476-5.824a12.765,12.765,0,0,0-3.194-1.224c-2.06-.8-3.469-2.663-5.1-4.153a6.687,6.687,0,0,0-5.975-1.756c-10.669,2.444-18.51,11.5-28.439,16.07-.384.18-.769.351-1.158.513a16.873,16.873,0,0,0-3.64,1.86,4.148,4.148,0,0,0-1.633,2.3,8.613,8.613,0,0,0,.09,3.095,15.8,15.8,0,0,1-.214,5.045,15.392,15.392,0,0,1-.508,1.9c-.38,1.125-.888,2.226-1.372,3.322q-3.8-2.553-7.485-5.221-5.154-3.711-10.185-7.641l-2.036-1.637a212.757,212.757,0,0,1-24.595-22.587c1.011-2.848,2.473-5.5,3.175-8.415.4-1.675.546-3.417,1.1-5.045a18.14,18.14,0,0,1,2.62-4.7,63.6,63.6,0,0,1,14.59-14.6c5.88-4.215,12.672-7.594,17.964-12.378a28.348,28.348,0,0,0,5.491-6.507,4.07,4.07,0,0,0,.252-.475,9.849,9.849,0,0,0,.85-2.715c.38-2.126.323-4.461.513-6.5a69.356,69.356,0,0,0,19.521.589c7.57-.85,14.974-2.952,22.544-3.768.57-.066,1.144-.119,1.718-.166,2.425-.195,4.855-.237,7.29-.209,2.036,0,4.072.09,6.108.157l22.416.759a22,22,0,0,1,7.328,1.087,16.017,16.017,0,0,1,6.7,5.582c.223.3.446.607.655.921a28.953,28.953,0,0,1,3.455,6.83c.09.247.176.475.256.745.214.66.4,1.324.565,2,.128.527.242,1.054.346,1.585a68.072,68.072,0,0,0,1.656,7.855c.057.185.119.37.185.551.992,2.781,2.639,5.273,3.882,7.945a29.509,29.509,0,0,1,2.041,6.042A29.858,29.858,0,0,1,327.7,557.438Z" transform="translate(-143.158 -287.12)" fill="#35323e"/><path d="M286.249,259.322c-2-1.595-4.908-.427-7.252.6a46.557,46.557,0,0,1-6.056,2.188,2.558,2.558,0,0,1-1.329.138c-.949-.228-1.348-1.353-2.055-2.036-1.229-1.182-3.242-.9-4.827-.261s-3.151,1.566-4.851,1.424c-1.813-.142-3.389-1.481-5.221-1.523-3.227-.076-5.937,3.9-8.989,2.848-1.861-.641-3.322-3.061-5.154-2.373-1.424.541-1.552,2.511-2.411,3.8-1.011,1.5-2.981,1.922-4.665,2.587A13.4,13.4,0,0,0,225.3,280.4c.384,3.128,1.9,5.994,2.9,8.98,2.971,8.681,1.951,18.472,5.7,26.844.475-.446.74-.612,1.2-1.054a10.983,10.983,0,0,0-.641,7.879c.394,1.315,1.035,2.539,1.519,3.825a34.29,34.29,0,0,1,1.215,4.414l4.129,18.216c1.614,7.119,3.232,14.239,3.512,21.529a62.829,62.829,0,0,1-1.082,14.144c7.48-1.239,14.324-4.556,21.9-4.514a61.067,61.067,0,0,1,8.3.854,170.79,170.79,0,0,0,24.267,1.647,9.635,9.635,0,0,0,3.721-.522,27.911,27.911,0,0,0,2.886-1.813,12.765,12.765,0,0,1,6.5-1.424c10.152-.185,19.934,3.531,30.02,4.841a36.143,36.143,0,0,0,1.163-27.11c-.907-2.6-2.126-5.126-2.487-7.855a39.734,39.734,0,0,1-.114-5.045,36.6,36.6,0,0,0-2.292-12.615,12.969,12.969,0,0,1-1.234-4.874A11.075,11.075,0,0,1,338.087,322a32.937,32.937,0,0,1,14.025-15.311l7.323-4.917c-1-6.327-2.292-12.99-4.974-18.809s-6.692-11.168-12.117-14.571a40.039,40.039,0,0,0-5.724-2.848,26.6,26.6,0,0,0-8.662-2.373c-3.417-.195-6.782.721-10.157,1.291C307.18,266.247,294.679,266.029,286.249,259.322Z" transform="translate(-169.845 -158.856)" fill="#e36b0a"/><path d="M306.735,489.156l-3.484,4.4-6.569,8.292-7.594,9.583-2.122,2.677h-4.115l-101.9.119-63.812.071H114.3c-.38-1.187-.731-2.373-1.054-3.607q-.712-2.648-1.248-5.363c-.076-.346-.142-.693-.2-1.044l23.152-15.136,8.7-.047h0l26.626-.152h0l14.87-.085h4.419l9.91-.052h0L275,488.378h0l3.863-.024h1.675l4.438-.024,16.512-.095,3.17-1.206.233.247Z" transform="translate(-110.253 -278.901)" fill="#3f3d56"/><path d="M303.609,463.934l-.394.475-2.591,3.052-5.335,6.3L284.1,486.949l-99.1-2.53-74.729-1.9c-.076-.346-.142-.693-.2-1.044a89.8,89.8,0,0,1-1.5-18.477l8.287-4.243,1.9-.978,14.775-7.594L146.5,443.54l33.821,4.395,7.489.973,3.389.437,4.96.645.418.057,77.776,10.086,8.6,1.115,5.045.655,15.548,2.022Z" transform="translate(-108.551 -256.052)" fill="#504f60"/><path d="M470.846,534.51l-.081,1.865-.475,10.532-2.553,57.9-.541,12.516-1.424,32.2-.8,18.187-2.9-.906q-2.25-.717-4.495-1.462l6.944-126.248.147-2.648,3.057-.949Z" transform="translate(-291.925 -303.846)" fill="#3f3d56"/><path d="M118.949,534.22l-.214,4.874-.313,7.119q-1.357-3.375-2.487-6.877l-.071-.233c-.38-1.187-.731-2.373-1.054-3.607Z" transform="translate(-111.84 -303.694)" fill="#3f3d56"/><ellipse cx="21.832" cy="29.426" rx="21.832" ry="29.426" transform="translate(109.389 99.911)" fill="#a1616a"/><ellipse cx="21.832" cy="29.426" rx="21.832" ry="29.426" transform="translate(109.389 99.911)" opacity="0.1"/><ellipse cx="30.376" cy="30.376" rx="30.376" ry="30.376" transform="translate(103.931 81.164)" fill="#a1616a"/><path d="M355.632,184.132a38.889,38.889,0,0,0-5.51.84c-4.8,1.168-8.956,3.759-13,6.3a15.47,15.47,0,0,0-4.8,4.015c-2.022,3.014-1.239,6.849-2.373,10.195a29.36,29.36,0,0,1-2.587,4.86c-2.52,4.385-3.84,9.2-5.135,13.973-.266.987-.342,2.326.736,2.705a2.966,2.966,0,0,0,1.842-.209c3.4-1.125,7.727-1.448,10.252.835s2.311,6.331,5.316,8.068c3.441,2.008,8.814-.418,11.937,1.951,1.338,1.016,1.823,2.644,2.919,3.868,2.553,2.848,7.466,2.71,11.552,2.136,2.345-.332,5.221-.555,6.645,1.092.683.778.878,1.846,1.671,2.549,1.424,1.272,4.03.627,5.42-.679s2.055-3.071,3.213-4.537c2.254-2.848,6.218-4.4,8.543-7.214,1.946-2.373,2.534-5.344,3.066-8.211l1.979-10.627c.8-4.31,1.533-9.018-.892-12.815-.864-1.367-2.1-2.544-2.848-3.958-.5-.949-.778-1.951-1.357-2.848a11.822,11.822,0,0,0-2.435-2.459l-4.685-3.878a39.39,39.39,0,0,0-5.121-3.8C373.288,182.395,363.273,183.42,355.632,184.132Z" transform="translate(-220.722 -119.409)" fill="#464353"/><path d="M145.534,343.449c-1.125,1.2-2.164,2.487-3.37,3.607a40.82,40.82,0,0,1-3.322,2.658q-2.791,2.088-5.458,4.324a30.569,30.569,0,0,0-5,5c-2.534,3.4-3.735,7.637-6.108,11.154-2.1,3.118-5.055,5.581-7.186,8.676a13.422,13.422,0,0,0-2.05,4.3,20,20,0,0,0-.422,4.552,33.8,33.8,0,0,0,.432,7.494,11.365,11.365,0,0,0,3.564,6.474,15.638,15.638,0,0,0,6.365,2.753,5.73,5.73,0,0,0,3.541.1,5.837,5.837,0,0,0,2.06-1.737l5.776-6.645c3.863-4.461,7.879-9.018,13.18-11.628,1.661-.812,3.413-1.424,5.078-2.212,7.062-3.4,12.055-10.37,13.992-17.964.475-1.856.778-3.75,1.087-5.643l.835-5.192a1.657,1.657,0,0,0,0-.793,1.708,1.708,0,0,0-.607-.721,100.676,100.676,0,0,1-11.267-10.631,26.018,26.018,0,0,0-2.553-2.924c-1.2-.949-1.106-.878-2.544,0a30.5,30.5,0,0,0-6.018,5Z" transform="translate(-110.674 -200.481)" fill="#a1616a"/><path d="M262.949,421.947a.892.892,0,1,0-1.6.778l-.475.233,14.153,29.009,2.558-1.248L263.428,421.69Z" transform="translate(-188.577 -244.426)" fill="#3f3d56"/><path d="M145.534,343.449c-1.125,1.2-2.164,2.487-3.37,3.607a40.82,40.82,0,0,1-3.322,2.658q-2.791,2.088-5.458,4.324a30.569,30.569,0,0,0-5,5c-2.534,3.4-3.735,7.637-6.108,11.154-2.1,3.118-5.055,5.581-7.186,8.676a13.422,13.422,0,0,0-2.05,4.3,20,20,0,0,0-.422,4.552,33.8,33.8,0,0,0,.432,7.494,11.365,11.365,0,0,0,3.564,6.474,15.638,15.638,0,0,0,6.365,2.753,5.73,5.73,0,0,0,3.541.1,5.837,5.837,0,0,0,2.06-1.737l5.776-6.645c3.863-4.461,7.879-9.018,13.18-11.628,1.661-.812,3.413-1.424,5.078-2.212,7.062-3.4,12.055-10.37,13.992-17.964.475-1.856.778-3.75,1.087-5.643l.835-5.192a1.657,1.657,0,0,0,0-.793,1.708,1.708,0,0,0-.607-.721,100.676,100.676,0,0,1-11.267-10.631,26.018,26.018,0,0,0-2.553-2.924c-1.2-.949-1.106-.878-2.544,0a30.5,30.5,0,0,0-6.018,5Z" transform="translate(-110.674 -200.481)" opacity="0.04"/><path d="M487.722,414.541c-.047,3.028-.166,6.146-1.424,8.909a4.745,4.745,0,0,1-2.639,2.767,6.142,6.142,0,0,1-2.321.085,83.851,83.851,0,0,0-27.76,2.2c2.421-4.841,1.03-10.646,1.7-16.018.185-1.467.522-2.909.65-4.381.475-5.221-1.761-10.29-2.786-15.444a34.553,34.553,0,0,1,0-13.517,9.018,9.018,0,0,1,1.163-3.251,7.632,7.632,0,0,1,2.667-2.321c3.844-2.188,8.377-2.44,12.7-2.15,2.909.195,8.742-.081,11.168,1.709,2.653,1.96,3.493,8.543,4.21,11.585a98,98,0,0,1,2.183,14.177A152.357,152.357,0,0,1,487.722,414.541Z" transform="translate(-289.242 -218.111)" fill="#a1616a"/><path d="M59.98,436.03l17.086,11.391,76.888-2.848L103.17,436.03Z" transform="translate(-31.513 -229.093)" fill="#fff"/><path d="M194.134,288.618c-2.8,2.473-5.183,5.387-7.841,8.021a107.887,107.887,0,0,1-11.913,9.753,8.866,8.866,0,0,1,6.17,6.217c.18.7.271,1.424.475,2.107a11.514,11.514,0,0,0,2.639,4.272c4.813,5.425,11.547,9.44,14.386,16.137a1.491,1.491,0,0,0,.57.807,1.249,1.249,0,0,0,.736.085c2.568-.271,4.533-2.34,6.17-4.352a45.5,45.5,0,0,0,8.069-14.2,25.312,25.312,0,0,0,.119-16.137,41.307,41.307,0,0,0-3.735-7.276q-1.846-3.071-3.683-6.132c-.641-1.077-1.457-3.265-2.715-3.8C200.864,282.956,195.875,286.876,194.134,288.618Z" transform="translate(-143.137 -172.186)" fill="#e36b0a"/><path d="M475.37,347.826l4.039,9.492A29.346,29.346,0,0,0,452.878,361a14.9,14.9,0,0,0-5.453,6.346,2.772,2.772,0,0,1-2.748-1.077,5.511,5.511,0,0,1-1.016-2.9c-.375-3.645,1.006-7.219,2.373-10.627a15.305,15.305,0,0,1,2.421-4.518,14.141,14.141,0,0,1,4.129-2.957,91.956,91.956,0,0,1,14.974-6.616c2.183-.707,4.471-.693,5.7,1.348C474.672,342.425,474.26,345.235,475.37,347.826Z" transform="translate(-284.579 -200.719)" fill="#e36b0a"/><path d="M143.421,414.877c1.011.807,1.9,1.761,2.938,2.53a20.988,20.988,0,0,0,3.493,1.96l4.68,2.25a26.223,26.223,0,0,0,4.533,1.842c2,.536,4.105.589,6.118,1.087,2.539.627,4.86,1.932,7.361,2.686s5.43.878,7.518-.693c1.305-.982,2.292-2.606,3.911-2.848a5.175,5.175,0,0,1,2.981.854l12.179,6.4c1.642.864,3.379,1.823,4.238,3.469s.28,4.148-1.528,4.575a16.694,16.694,0,0,1-1.9.109,1.488,1.488,0,0,0-1.4,1.077,2.164,2.164,0,0,0,.3,1.115,4.666,4.666,0,0,1,.071,3.968,2.838,2.838,0,0,1-3.446,1.424c.214,1.837-1.785,3.123-3.564,3.612-4.49,1.229-9.25.475-13.84-.3a18.974,18.974,0,0,1-5.278-1.424c-.788-.384-1.519-.878-2.316-1.234-2.188-.973-4.675-.845-7.067-.8-11.063.195-22.032-1.856-32.91-3.9a15.918,15.918,0,0,1-5.814-1.9c-3.322-2.164-4.556-6.607-4.011-10.537s2.539-7.489,4.5-10.945l2.539-4.476a5.762,5.762,0,0,1,1.367-1.8C132.813,410.126,140.222,412.3,143.421,414.877Z" transform="translate(-114.854 -239.288)" fill="#a1616a"/><path d="M143.421,414.877c1.011.807,1.9,1.761,2.938,2.53a20.988,20.988,0,0,0,3.493,1.96l4.68,2.25a26.223,26.223,0,0,0,4.533,1.842c2,.536,4.105.589,6.118,1.087,2.539.627,4.86,1.932,7.361,2.686s5.43.878,7.518-.693c1.305-.982,2.292-2.606,3.911-2.848a5.175,5.175,0,0,1,2.981.854l12.179,6.4c1.642.864,3.379,1.823,4.238,3.469s.28,4.148-1.528,4.575a16.694,16.694,0,0,1-1.9.109,1.488,1.488,0,0,0-1.4,1.077,2.164,2.164,0,0,0,.3,1.115,4.666,4.666,0,0,1,.071,3.968,2.838,2.838,0,0,1-3.446,1.424c.214,1.837-1.785,3.123-3.564,3.612-4.49,1.229-9.25.475-13.84-.3a18.974,18.974,0,0,1-5.278-1.424c-.788-.384-1.519-.878-2.316-1.234-2.188-.973-4.675-.845-7.067-.8-11.063.195-22.032-1.856-32.91-3.9a15.918,15.918,0,0,1-5.814-1.9c-3.322-2.164-4.556-6.607-4.011-10.537s2.539-7.489,4.5-10.945l2.539-4.476a5.762,5.762,0,0,1,1.367-1.8C132.813,410.126,140.222,412.3,143.421,414.877Z" transform="translate(-114.854 -239.288)" opacity="0.04"/><path d="M367.783,433.941c-2.473,1.168-5.311,1.281-7.893,2.178s-4.775,2.511-7.143,3.825c-6.17,3.446-13.289,4.746-20.28,5.985a59.163,59.163,0,0,1-12.815,1.338c-5.781-.247-11.334-2.174-16.934-3.626s-11.576-2.43-17.124-.8a19.274,19.274,0,0,0-12.577,12.07,27.8,27.8,0,0,0-1.1,10.688c1.168.859,2.8-.332,3.436-1.637s.982-2.9,2.216-3.664c2.141.726,2.663,3.579,4.428,4.988a8,8,0,0,0,3.973,1.315l7.214,1.025c1.737.247,3.754.413,5.012-.812.612-.593.949-1.424,1.509-2.06,1.149-1.272,3.066-1.49,4.775-1.319,5.335.532,10.337,3.992,15.634,3.17a29.652,29.652,0,0,0,5.254-1.671c10.294-3.636,21.733-1.424,32.445-3.507a72.414,72.414,0,0,0,11.908-3.678,24.082,24.082,0,0,0,6.051-3,12.739,12.739,0,0,0,4.917-11.3,12.919,12.919,0,0,0-4.561-8.372c-.835-.712-1.932-2.074-2.933-2.52C371.281,431.72,369.406,433.177,367.783,433.941Z" transform="translate(-194.335 -250.151)" fill="#a1616a"/><g transform="translate(102.282 72.07)" opacity="0.1"><path d="M381.354,251.448c-.793-.7-.987-1.77-1.671-2.549-1.424-1.647-4.3-1.424-6.645-1.092-4.086.574-9.018.707-11.552-2.136-1.1-1.225-1.58-2.848-2.919-3.868-3.123-2.373-8.5.057-11.937-1.951-3-1.751-2.81-5.814-5.316-8.069s-6.849-1.96-10.252-.835a2.966,2.966,0,0,1-1.842.209c-1.077-.38-1-1.718-.736-2.705,1.3-4.77,2.615-9.587,5.135-13.973a29.368,29.368,0,0,0,2.587-4.86c1.03-3.009.5-6.412,1.856-9.26a12.781,12.781,0,0,0-3.745,3.322c-2.022,3.014-1.239,6.849-2.373,10.195a29.365,29.365,0,0,1-2.587,4.86c-2.52,4.385-3.84,9.2-5.135,13.973-.266.987-.342,2.326.736,2.705a2.967,2.967,0,0,0,1.842-.209c3.4-1.125,7.727-1.448,10.252.835s2.311,6.331,5.316,8.069c3.441,2.008,8.814-.418,11.937,1.951,1.338,1.016,1.823,2.644,2.919,3.868,2.553,2.848,7.466,2.71,11.552,2.136,2.345-.332,5.221-.555,6.645,1.092.683.778.878,1.846,1.671,2.549,1.424,1.272,4.029.626,5.42-.679a14.39,14.39,0,0,0,2.269-3.1A3.53,3.53,0,0,1,381.354,251.448Z" transform="translate(-324.055 -200.36)"/><path d="M462.06,292.229a13.486,13.486,0,0,0-.85,1.229,25.73,25.73,0,0,0,5.116-4.172,10.065,10.065,0,0,0,.949-1.367A24.927,24.927,0,0,0,462.06,292.229Z" transform="translate(-396.114 -246.362)"/></g><path d="M556.48,446.53,557.9,582.745l6.645-.949L563.125,446.53Z" transform="translate(-292.365 -234.609)" fill="#3f3d56"/><path d="M640.48,498.53,641.9,634.745l6.645-.949L647.125,498.53Z" transform="translate(-336.497 -261.929)" fill="#3f3d56"/><path d="M1002.385,615.82h0l-.028-2.615v-1.557l-.252-23.959-.394-37.457-.066-3.232H995l.033,3.113.209,20.062.09,8.685h0l.076,7.034.123,12.16.076,7.172h0v.759l.1,9.426.085,8.311.541-.6q1.305-1.457,2.553-2.962Z" transform="translate(-574.275 -310.408)" fill="#3f3d56"/><path d="M620.777,545.03l-3.8,5.676,3.8,25.862,32.274,8.833h52.208l31.325,1.894,14.922-10.214-2.582-17.542L737.533,545.03Z" transform="translate(-324.151 -286.359)" fill="#e36b0a"/><path d="M722.991,605.48l-1.9,15.767s-9.967,30.912,70.243,29.018,66.447-8.2,66.447-8.2l-.475-18.292s2.8,8.657-37.969,7.485-78.787-4.96-78.787-4.96S726.314,628.817,722.991,605.48Z" transform="translate(-430.162 -341.133)" fill="#3f3d56"/><path d="M845.068,305.387c-4.575,2.084-8.04,6.123-10.361,10.589s-3.626,9.369-4.912,14.239a126.745,126.745,0,0,0-3.422,15.549c-1.253,9.359-.313,19.2,3.987,27.6s12.245,15.188,21.548,16.806a39.654,39.654,0,0,0,10.916.128,88.751,88.751,0,0,0,19.274-4.248c6.526-2.207,13.318-5.605,16.222-11.865,1.685-3.631,1.827-7.769,1.747-11.766a125.166,125.166,0,0,0-4.893-32.174,27.39,27.39,0,0,0-3.759-8.657,26.536,26.536,0,0,0-7-6.17C873.312,307.946,858.723,299.179,845.068,305.387Z" transform="translate(-485.412 -182.363)" fill="#fbbebe"/><path d="M845.068,305.387c-4.575,2.084-8.04,6.123-10.361,10.589s-3.626,9.369-4.912,14.239a126.745,126.745,0,0,0-3.422,15.549c-1.253,9.359-.313,19.2,3.987,27.6s12.245,15.188,21.548,16.806a39.654,39.654,0,0,0,10.916.128,88.751,88.751,0,0,0,19.274-4.248c6.526-2.207,13.318-5.605,16.222-11.865,1.685-3.631,1.827-7.769,1.747-11.766a125.166,125.166,0,0,0-4.893-32.174,27.39,27.39,0,0,0-3.759-8.657,26.536,26.536,0,0,0-7-6.17C873.312,307.946,858.723,299.179,845.068,305.387Z" transform="translate(-485.412 -182.363)" opacity="0.05"/><path d="M809.245,388.342a21.543,21.543,0,0,0,4.746,4.746c4.518,3.123,10.318,3.545,15.8,3.716,4.4.133,9.454-.119,12.217-3.555a14.228,14.228,0,0,0,2.307-5.444,241.481,241.481,0,0,0,6.6-35.962l12.568.043c5.439,23.29,4.993,47.5,4.518,71.416l-.688,34.875-8.1-.859c-19.227-2.036-38.482-4.072-57.813-4.423a330.7,330.7,0,0,0-33.945,1.12l17.632-52.426c2.288-6.816,4.6-13.721,5.135-20.883.774-10.389-2.141-21.358,1.9-30.969a3.766,3.766,0,0,1,1.467-1.979,4.165,4.165,0,0,1,2.511-.195c1.595.214,6.469,0,7.627,1.02,1.709,1.481.579,1.7-.024,4.091-1.077,4.272-2.1,8.225-2.084,12.677C801.637,373.434,804.143,381.968,809.245,388.342Z" transform="translate(-454.73 -205.577)" fill="#e36b0a"/><path d="M976.015,489.6h0q3.175-4.215,5.985-8.728c-.949-2.031-1.993-4.015-2.824-6.089a61.192,61.192,0,0,1-2.724-9.9q-.37-1.709-.736-3.417c-2.658-12.392-5.154-24.96-5.672-37.523q-.071-1.566-.09-3.132v-3.9c.057-2.848.237-5.719.565-8.576.062-.56.133-1.12.209-1.68a2.409,2.409,0,0,1,.047-.366l32.274-1.177h0l2.715-.1c1.865-.066,3.84-.171,5.377-1.229,2.587-1.775,2.89-5.415,2.848-8.543a126.794,126.794,0,0,0-2.677-23.517c-1.224-5.819-2.971-11.766-6.891-16.237-3.218-3.673-7.879-6.346-9.554-10.916-.622-1.7-.778-3.564-1.585-5.188a16.16,16.16,0,0,0-3.4-4.067,56.639,56.639,0,0,1-10.869-15.055c-1.922-3.873-4.006-8.144-6.516-10.821-.123-.138-.247-.266-.375-.389-2.136-2.112-4.58-3.038-7.475-1.6a9.571,9.571,0,0,0-1.481.921h0a18.033,18.033,0,0,0-2.815,2.677,64.073,64.073,0,0,0-7.656,10.916,60.665,60.665,0,0,0-3.911,8.543,58.908,58.908,0,0,0-2.112,7.119c-.408,1.789-.731,3.6-.987,5.411a131.633,131.633,0,0,0-.816,20.665c.142,6.341.422,12.7,1,19.013q.214,2.292.475,4.58.522,4.523,1.291,9.018c.2,1.144.413,2.288.645,3.427.057.3.119.607.18.906l.029.128a77.093,77.093,0,0,1,1.457,8.026q.057.508.085,1.011a39.058,39.058,0,0,1-.038,4.656c-.109,1.832-.28,3.659-.365,5.491a8.935,8.935,0,0,1-.033.949c-.024.925,0,1.851,0,2.776a44,44,0,0,0,.788,6.592,42.642,42.642,0,0,0,4.105,11.6c.18.342.365.679.551,1.011,2.406,4.3,5.444,8.244,7.67,12.644a54.581,54.581,0,0,1,4.272,12.44q.475,2.131.9,4.272c.441,2.278.835,4.575,1.239,6.872.038.228.081.475.123.683.536,3.047,1.1,6.08,1.827,9.056.422,1.732.9,3.441,1.452,5.121Z" transform="translate(-547.905 -184.19)" fill="#464353"/><path d="M899.793,587.55c0,.427-.029.854-.047,1.286a60.848,60.848,0,0,1-.574,6.222,40.485,40.485,0,0,1-2.055,8.254,27.83,27.83,0,0,1-2.449,5.036,23.223,23.223,0,0,1-3.047,3.925c-2.848,2.962-6.948,3.906-10.916,5.154a26.861,26.861,0,0,0-5.264,2.15c-.3.166-.593.346-.878.536L869.6,623.4A14.852,14.852,0,0,0,865.407,627a7.748,7.748,0,0,0-.475.8,18.193,18.193,0,0,0-1.462,4.385c-2.582,10.755-5.169,21.519-6.939,32.435-.119.721-.233,1.448-.356,2.174l-.043.228a1.2,1.2,0,0,0-.076-.157,285.639,285.639,0,0,1-39.441,20.157l-2.947-24.68a29.848,29.848,0,0,1-.3-6.066c.28-3.194,1.58-6.222,1.932-9.407a16.028,16.028,0,0,0-1.694-9.051,9.9,9.9,0,0,1-1.391-3.356,2.088,2.088,0,0,1,1.785-2.44,4.385,4.385,0,0,0,.745-3.916,11.387,11.387,0,0,0-.664-2.169c-.807-1.984-1.827-4.143-1.134-6.17a2.305,2.305,0,0,0,.237-1.186.194.194,0,0,0,0-.076c-.161-.532-.793-.764-1.12-1.215-.617-.84,0-1.984.38-2.952a11.264,11.264,0,0,0,.636-3.232c.052-.612.09-1.229.157-1.837a18.494,18.494,0,0,1,.441-2.44,19.255,19.255,0,0,1,7.8-11.163c1.846-1.244,3.9-2.15,5.786-3.322a53,53,0,0,0,5.515-4.272q6.27-5.221,13.038-9.844a164.689,164.689,0,0,1,15.055-9.141q1.661-.9,3.322-1.747,1.808-.949,3.64-1.8c3.911-1.865,8.349-1.168,12.672.076,1.813.517,3.6,1.134,5.33,1.694a24.675,24.675,0,0,1,4.841,2.174,17.852,17.852,0,0,1,8.311,9.768.524.524,0,0,1,0,.081A24.856,24.856,0,0,1,899.793,587.55Z" transform="translate(-478.024 -319.548)" fill="#f86d70"/><path d="M899.793,587.55c0,.427-.029.854-.047,1.286a60.848,60.848,0,0,1-.574,6.222,40.485,40.485,0,0,1-2.055,8.254,27.83,27.83,0,0,1-2.449,5.036,23.223,23.223,0,0,1-3.047,3.925c-2.848,2.962-6.948,3.906-10.916,5.154a26.861,26.861,0,0,0-5.264,2.15c-.3.166-.593.346-.878.536L869.6,623.4A14.852,14.852,0,0,0,865.407,627a7.748,7.748,0,0,0-.475.8,18.193,18.193,0,0,0-1.462,4.385c-2.582,10.755-5.169,21.519-6.939,32.435-.119.721-.233,1.448-.356,2.174l-.043.228a1.2,1.2,0,0,0-.076-.157,285.639,285.639,0,0,1-39.441,20.157l-2.947-24.68a29.848,29.848,0,0,1-.3-6.066c.28-3.194,1.58-6.222,1.932-9.407a16.028,16.028,0,0,0-1.694-9.051,9.9,9.9,0,0,1-1.391-3.356,2.088,2.088,0,0,1,1.785-2.44,4.385,4.385,0,0,0,.745-3.916,11.387,11.387,0,0,0-.664-2.169c-.807-1.984-1.827-4.143-1.134-6.17a2.305,2.305,0,0,0,.237-1.186.194.194,0,0,0,0-.076c-.161-.532-.793-.764-1.12-1.215-.617-.84,0-1.984.38-2.952a11.264,11.264,0,0,0,.636-3.232c.052-.612.09-1.229.157-1.837a18.494,18.494,0,0,1,.441-2.44,19.255,19.255,0,0,1,7.8-11.163c1.846-1.244,3.9-2.15,5.786-3.322a53,53,0,0,0,5.515-4.272q6.27-5.221,13.038-9.844a164.689,164.689,0,0,1,15.055-9.141q1.661-.9,3.322-1.747,1.808-.949,3.64-1.8c3.911-1.865,8.349-1.168,12.672.076,1.813.517,3.6,1.134,5.33,1.694a24.675,24.675,0,0,1,4.841,2.174,17.852,17.852,0,0,1,8.311,9.768.524.524,0,0,1,0,.081A24.856,24.856,0,0,1,899.793,587.55Z" transform="translate(-478.024 -319.548)" opacity="0.1"/><path d="M899.949,446.947a.892.892,0,1,0-1.6.778l-.475.233,14.153,29.009,2.558-1.248L900.428,446.69Z" transform="translate(-523.245 -257.561)" fill="#3f3d56"/><ellipse cx="30.376" cy="30.376" rx="30.376" ry="30.376" transform="translate(364.022 98.25)" fill="#fbbebe"/><path d="M946.779,218.468a40.345,40.345,0,0,0-1.073-7.162c-1.785-7.675-5.045-15.23-10.66-20.741a41.553,41.553,0,0,0-1.239-3.982.756.756,0,0,0-.033-.095,44.566,44.566,0,0,0-7.167-12.706c-1.78-2.212-4.086-4.395-6.925-4.48a5.614,5.614,0,0,1-2.373-.256,4.272,4.272,0,0,1-1.324-1.357,12.43,12.43,0,0,0-12.036-4.5l-.294.062c-.166.033-.332.071-.475.114s-.4.114-.6.176q.327.541.641,1.1.845,1.5,1.566,3.076.6,1.31,1.106,2.663c-4.86.555-8.818,4.006-12.435,7.29l-8.515,7.727a.355.355,0,0,0-.043.043l-.247.237c-.062.062-.123.123-.18.19a.407.407,0,0,0-.062.066c-.071.076-.138.157-.2.237a3.594,3.594,0,0,0-.318.475,1.754,1.754,0,0,0-.123.223.477.477,0,0,0-.033.071,1.748,1.748,0,0,0-.081.2.068.068,0,0,0,0,.028,1.1,1.1,0,0,0-.033.119,1.424,1.424,0,0,0,.081,1.006l5.615.062h.66c.029.75.052,1.5.081,2.254a31.989,31.989,0,0,0-2.563,2.136,27.836,27.836,0,0,0-2.5,2.639,36.422,36.422,0,0,0-7.974,21.975v2.9c0,.475.043.949.081,1.424a3.556,3.556,0,0,0,.475,1.761,1.64,1.64,0,0,0,.133.171,3.276,3.276,0,0,0,1.006.74l.408.2h0c.2.1.4.195.589.3,1.789,1.011,2.848,2.962,4.476,4.215.095.071.19.142.285.2l.214.142.133.085.18.1a3.884,3.884,0,0,0,.366.195h0l.228.114h.038c.19.085.38.166.574.237l.27.095.081.028c.076.024.157.052.237.071q.242.071.475.128l.475.1c.185.033.375.066.565.09l.28.038.285.028q.679.062,1.367.071h0a34.176,34.176,0,0,0,4.3-.3l12.112-1.424a26.1,26.1,0,0,1,8.263-.076,54.454,54.454,0,0,1,6.645,2.34c.5.176,1.006.337,1.514.475.185.052.375.109.565.157l.261.066.607.147c.218.052.437.1.655.147.309.066.612.123.921.18.209.043.422.076.636.114h.043l.607.095h.147l.451.062c.218.033.437.062.66.085q.726.09,1.452.157c.783.076,1.571.133,2.373.18l.788.047.788.038,2.373.1h.437a12.245,12.245,0,0,0,2.952-.152c.171-.033.337-.071.5-.119s.3-.095.475-.152a8.125,8.125,0,0,0,3.982-3.935c.19-.356.365-.712.527-1.077s.308-.736.441-1.106c.166-.475.309-.926.432-1.4.038-.128.071-.256.1-.389s.095-.394.133-.593c.119-.546.209-1.1.275-1.652a5.066,5.066,0,0,1,.062-.532c.043-.475.076-.916.095-1.381v-1.063C946.813,219.465,946.779,218.957,946.779,218.468ZM934.61,190.133c-.384-.361-.778-.707-1.177-1.035a4.9,4.9,0,0,1,1.172,1.035Z" transform="translate(-512.291 -108.647)" fill="#464353"/><path d="M756.622,309.354c-3.574-.441-7.119-2.008-10.646-1.239a14.753,14.753,0,0,0-5.871,3.256,71.386,71.386,0,0,0-16.5,18.866,9.966,9.966,0,0,0-1.524,3.569,9.461,9.461,0,0,0,.655,4.4c3.246,9.592,10.19,17.6,13.351,27.224,3.322,10.119,2.169,21.177-.28,31.543a131.823,131.823,0,0,1-14.637,36.4,20.758,20.758,0,0,1-3.37,4.613c-1.728,1.661-4.049,2.848-5.074,5.021a22.5,22.5,0,0,0-.949,3.047c-.949,2.848-3.246,5.287-3.469,8.292-.166,2.292.921,4.461,1.581,6.645a18.311,18.311,0,0,1-.337,11.438c-2.406,6.6-8.7,12.6-6.872,19.379,4.077-1.172,8.6-2.7,10.518-6.479.679-1.338,1.016-2.933,2.159-3.911,2.283-1.941,6.17-.185,8.6-1.97,1.832-1.357,1.9-4.139,1.082-6.274s-2.221-4.015-2.848-6.213c-1.092-3.963.655-8.154.332-12.25-.152-1.9-.736-3.716-.778-5.605-.081-3.669,1.951-7.119,4.651-9.611s6.037-4.143,9.321-5.771l12.416-6.17c4.5-2.231,9.44-4.95,10.916-9.753a19.75,19.75,0,0,0,.593-5.6c.422-28.719,7.618-56.859,14.77-84.677a104.91,104.91,0,0,1,3.892-12.777c1.652-4.139,4.884-7.461,6.531-11.305C775.274,302.334,766.546,310.6,756.622,309.354Z" transform="translate(-420.522 -182.399)" fill="#464353"/><path d="M849.507,615.933c1.1,6.645,1.766,13.432,2.288,20.186a230.906,230.906,0,0,1-27.086,18.956c-.532.328-1.068.65-1.6.949l-.043.228a1.177,1.177,0,0,0-.076-.157,7.143,7.143,0,0,0-3.569-3.522q-5.254-11.035-10.5-22.07a57.969,57.969,0,0,1-4.746-12.269,1.9,1.9,0,0,0-.057-.275c-.721-3.322-.888-6.773-1.367-10.138a29.284,29.284,0,0,0-1.3-5.667c-.57-1.637-1.353-3.227-2.046-4.827a16.074,16.074,0,0,1-1.6-6.1,3.988,3.988,0,0,0-.29-1.993,5.171,5.171,0,0,0-1.3-1.253,4.941,4.941,0,0,1-1.595-4.514c-2.848.147-4.452,3.208-5.6,5.8a31.649,31.649,0,0,1-4.063,7.119,13.5,13.5,0,0,1-4.5,3.745c-.157.076-.313.152-.475.218-3.963,1.747-8.591,1.13-12.886.342-3.754-.688-7.637-1.542-10.655-3.878l-.323-.256a13.946,13.946,0,0,1-2.373-2.535c-2.53-3.455-3.65-8.007-4.272-12.34-.057-.408-.114-.816-.166-1.224a45.644,45.644,0,0,1-.356-9.246c.057-.759.138-1.519.237-2.273.066-.475.138-.987.218-1.481a.132.132,0,0,1,0-.043c.123-.783.256-1.571.389-2.373.475-2.691.949-5.453,2.373-7.769a14.714,14.714,0,0,1,3.493-3.74c.513-.4,1.039-.788,1.571-1.158.864-.6,1.751-1.168,2.653-1.7a45.861,45.861,0,0,1,7.119-3.465c.589-.228,1.186-.441,1.785-.646a14.007,14.007,0,0,1,7.252-.574,38.158,38.158,0,0,0,6.493.38c5.567-.109,11.158-1.172,16.716-1.86,7.717-.949,16.009-1.063,22.739,2.848.323.185.636.38.949.584a28.121,28.121,0,0,1,8.159,8.624c.475.717.888,1.452,1.3,2.2a55.989,55.989,0,0,1,2.549,5.268,6.55,6.55,0,0,1,.707,2.848,3.7,3.7,0,0,1-.076.56c-.128.674-.384,1.329-.475,2.012-.3,2.587,1.9,4.746,2.72,7.209a35.343,35.343,0,0,1,.774,5.012,26.071,26.071,0,0,0,2.639,6.645,83.09,83.09,0,0,1,4.224,10.617c.826,2.53,1.533,5.1,2.155,7.689q.3,1.248.574,2.5C848.71,611.419,849.133,613.669,849.507,615.933Z" transform="translate(-444.962 -308.808)" fill="#f86d70"/><path d="M746.2,470.134v3.322l-.612-.009-.683-.01-7.632-.095-18.8-.247-5.278-.066-1.367-.019-7.921-.1-11.163-.147-23.683-.309-41.1-.532-14.832-.19-5.952-.076-5.477-.071-3.413-.047-3.232-.043-23.964-.309-6.645-.085L563,471.083l-.94-2.425-6.83-17.613-1.248-3.218.949-3.8,4.272,2.848,2.629.327,43.29,5.382,8.125,1.011,17.229,2.145,16.877,2.1,6.616.821,39.151,4.87,10.94,1.362,9.056,1.125,32.2,4.006Z" transform="translate(-291.052 -233.296)" fill="#3f3d56"/><path d="M555.98,444.03l8.543,22.307,182.728,3.8V445.928Z" transform="translate(-292.102 -233.296)" fill="#504f60"/><path d="M575.98,496.03,577.4,632.245l6.645-.949L582.625,496.03Z" transform="translate(-302.61 -260.616)" fill="#3f3d56"/><path d="M1056.935,552.141h-.683a150.214,150.214,0,0,1-5.472,25.055l-2.16-25.155-.09-1.073,7.983-.921.266-.029Z" transform="translate(-602.399 -311.995)" fill="#3f3d56"/><path d="M802.107,462.048l-69.532,1.424-21.6-7.119,57.9-3.322Z" transform="translate(-373.537 -238.024)" fill="#fff"/><path d="M823.457,459a4.661,4.661,0,0,0-1.9,1.353,5.014,5.014,0,0,0-.707,2.155l-1.168,6.963a3.08,3.08,0,0,0,.09,1.932c.3.584,1.187.888,1.628.4a6.252,6.252,0,0,0,.854,3.925,2.737,2.737,0,0,0,3.574.921,2.316,2.316,0,0,0,3.488.541c-.674.228-.721,1.258-.242,1.78a3.1,3.1,0,0,0,1.936.774,47.362,47.362,0,0,0,24.633-3.1c.736-.3-1.2-9.374-1.4-10.3-.475-2.188-.712-4.86-2.558-6.331-4.414-3.522-12.255-4.215-17.632-3.8A30.375,30.375,0,0,0,823.457,459Z" transform="translate(-482.108 -262.652)" fill="#fbbebe"/><path d="M919.937,456.866c-17.167.328-34.69.608-51.074-4.533a34.647,34.647,0,0,1-.313,18.448l80.268,6.645c3.4.28,17.513,1.875,20.831,1.073s-27.836-11.063-26.579-14.239c3.46-8.747,15.05-13.873,6.7-14.2C939.235,449.643,930.554,456.667,919.937,456.866Z" transform="translate(-507.841 -259.469)" opacity="0.1"/><path d="M920.937,458.866c-17.167.327-34.69.608-51.074-4.533a34.647,34.647,0,0,1-.313,18.448l80.267,6.645c3.4.28,17.513,1.9,20.831,1.073s2.539-4.893,3.8-8.068c3.46-8.747-15.325-20.043-23.674-20.371C940.235,451.643,931.554,458.667,920.937,458.866Z" transform="translate(-508.366 -260.519)" fill="#464353"/><path d="M884.5,466a4.647,4.647,0,0,1,1.9,1.353,5.084,5.084,0,0,1,.712,2.155l1.167,6.963a3.114,3.114,0,0,1-.09,1.932c-.3.584-1.191.888-1.628.4a6.284,6.284,0,0,1-.854,3.925,2.742,2.742,0,0,1-3.579.921,2.316,2.316,0,0,1-3.488.541c.674.228.726,1.258.247,1.78a3.113,3.113,0,0,1-1.941.774,47.343,47.343,0,0,1-24.628-3.1c-.736-.3,1.2-9.374,1.4-10.3.475-2.188.712-4.86,2.558-6.331,4.409-3.522,12.255-4.215,17.632-3.8A30.375,30.375,0,0,1,884.5,466Z" transform="translate(-499.224 -266.33)" fill="#fbbebe"/><path d="M674.959,395.443a30.386,30.386,0,0,0-4.172,6.474c-1.941,4.518-1.656,9.635-1.334,14.542a8.483,8.483,0,0,0,.949,4.058,6.853,6.853,0,0,0,2.477,2.112c4.11,2.335,8.923,3.033,13.622,3.555q10.793,1.2,21.662,1.457c17.95.437,36.175-1.03,53.66,3.038-2.164-3.289-2.159-7.641-.949-11.391s3.541-7.015,5.824-10.228c-8-2.534-16.583,1.424-24.965,1.03-8.6-.4-16.569-5.377-25.183-5.373a22.914,22.914,0,0,1-5.534-.214c-1.8-.446-3.541-1.8-3.707-3.65,2.3.517,4.476-1.448,5.425-3.6s1.12-4.59,2.041-6.759c2.292-5.4,8.486-7.9,12.34-12.34a3.024,3.024,0,0,0,.214-4.585c-3.2-4.272-8.031-6.645-12.041-9.967-1.4-1.158-4.21-5.525-5.776-5.928-2.9-.745-5.368,3.45-7.257,5.5Q687.949,378.713,674.959,395.443Z" transform="translate(-403.117 -210.893)" fill="#464353"/><path d="M882.39,434.81a15.712,15.712,0,0,1,3.175,3.147,5.42,5.42,0,0,1,.992,4.243,6.341,6.341,0,0,1,3.954-6.564Z" transform="translate(-515.112 -251.466)" opacity="0.07"/><g transform="translate(364.661 54.537)" opacity="0.1"><path d="M934.183,167.763a41.246,41.246,0,0,0-1.927-4.343,11.635,11.635,0,0,0-1.386.356,40.157,40.157,0,0,1,2.2,4.191A7.961,7.961,0,0,1,934.183,167.763Z" transform="translate(-905.244 -163.42)"/><path d="M995.87,212c.128.1.252.223.375.332a.7.7,0,0,0-.033-.09Q996.05,212.123,995.87,212Z" transform="translate(-939.394 -188.943)"/><path d="M896.541,213.2c.247-.195.475-.4.74-.589l-.076-2.254-5.069-.052c-.821.755-1.694,1.837-1.21,2.848Z" transform="translate(-884.185 -188.05)"/><path d="M944.649,286.472a8.105,8.105,0,0,1-3.982,3.935,10.8,10.8,0,0,1-4.347.408c-5-.2-10.09-.427-14.818-2.084a52.309,52.309,0,0,0-6.645-2.345,25.96,25.96,0,0,0-8.263.081l-12.112,1.424c-3.574.418-7.556.731-10.408-1.462-1.633-1.253-2.686-3.2-4.476-4.21a5.689,5.689,0,0,1-2.141-1.424,3.553,3.553,0,0,1-.475-1.761c-.038-.5-.062-1-.081-1.5a40.144,40.144,0,0,0,.081,4.343,3.554,3.554,0,0,0,.475,1.761,5.687,5.687,0,0,0,2.141,1.424c1.789,1.006,2.848,2.957,4.476,4.21,2.848,2.193,6.834,1.9,10.408,1.462l12.112-1.424a25.961,25.961,0,0,1,8.263-.081,53.692,53.692,0,0,1,6.645,2.345c4.746,1.656,9.815,1.9,14.818,2.084a10.881,10.881,0,0,0,4.347-.408,8.1,8.1,0,0,0,3.982-3.935,20.145,20.145,0,0,0,2.05-10.655,18.54,18.54,0,0,1-2.05,7.807Z" transform="translate(-876.877 -223.377)"/></g><path d="M937.56,179l6.645,6.17S938.509,182.8,937.56,179Z" transform="translate(-544.097 -117.068)" opacity="0.1"/></svg>