<svg xmlns="http://www.w3.org/2000/svg" width="549" height="398.68" viewBox="0 0 549 398.68"><g transform="translate(0 0.203)"><circle cx="186.5" cy="186.5" r="186.5" transform="translate(49 -0.203)" fill="#f2f2f2"/><ellipse cx="73.933" cy="11.829" rx="73.933" ry="11.829" transform="translate(0 374.819)" fill="#f2f2f2"/><ellipse cx="114.396" cy="18.303" rx="114.396" ry="18.303" transform="translate(320.208 349.846)" fill="#f2f2f2"/><path d="M860.189,435.945s.974,3.246-4.545,6.168-7.142,13.96-.649,17.206,8.441,7.467,5.194,10.389-9.09,10.713-1.3,12.661,8.765,5.844,6.493,7.467,5.194-2.922,5.194-2.922,1.3,7.791,8.116,5.844,25.971-38.957,16.232-44.151S860.189,435.945,860.189,435.945Z" transform="translate(-451.002 -243.727)" fill="#2f2e41"/><path d="M880.524,494.024s3.367,11.786-2.526,12.628a23.006,23.006,0,0,0-10.1,4.209l10.944,14.312h20.205l12.628-12.628s-16.838-12.628-13.47-20.205S880.524,494.024,880.524,494.024Z" transform="translate(-459.57 -270.459)" fill="#ffb9b9"/><path d="M880.524,494.024s3.367,11.786-2.526,12.628a23.006,23.006,0,0,0-10.1,4.209l10.944,14.312h20.205l12.628-12.628s-16.838-12.628-13.47-20.205S880.524,494.024,880.524,494.024Z" transform="translate(-459.57 -270.459)" opacity="0.1"/><path d="M852.787,728.33l19.363,6.735,13.47.842-.842-11.786L857,715.9Z" transform="translate(-426.781 -358.278)" fill="#ffb9b9"/><path d="M953,775.678s0,11.786,1.684,11.786,24.415-2.526,31.15,0,16.838-6.735,11.786-11.786-13.291-12.628-18.432-10.944S953,770.627,953,770.627Z" transform="translate(-502.162 -408.152)" fill="#575a89"/><path d="M823.441,764.974s-10.1,20.205-3.367,21.889,14.312-.842,15.154-1.684,12.628-4.209,14.312-2.526,1.684-6.735,1.684-6.735Z" transform="translate(-434.478 -408.391)" fill="#575a89"/><path d="M837.429,709.359s-16,21.889-4.209,27.782,68.192,5.893,72.4,0,5.893-24.415,0-26.1S837.429,709.359,837.429,709.359Z" transform="translate(-440.048 -380.559)" fill="#2f2e41"/><path d="M837.429,709.359s-16,21.889-4.209,27.782,68.192,5.893,72.4,0,5.893-24.415,0-26.1S837.429,709.359,837.429,709.359Z" transform="translate(-440.048 -380.559)" opacity="0.2"/><circle cx="19.363" cy="19.363" r="19.363" transform="translate(408.326 190.731)" fill="#ffb9b9"/><path d="M845.987,529.029l16.838-3.368s4.209,13.47,17.68,10.945,16.838-10.945,16.838-10.945,10.1,4.209,10.944,4.209,11.786,4.209,11.786,6.735-12.628,27.782-12.628,27.782l1.684,45.462-62.3-1.684,4.209-44.62Z" transform="translate(-448.605 -288.626)" fill="#e36b0a"/><path d="M824.6,576.22s-5.051,44.62-1.684,47.987,16.838,12.628,16.838,12.628v-10.1l-6.735-12.628,6.735-29.466Z" transform="translate(-436.481 -313.929)" fill="#ffb9b9"/><path d="M984.587,573.692s-2.947,45.883-2.947,47.566-7.577,7.577-10.1,7.577-4.209-4.209-4.209-4.209l5.893-6.735-4.209-34.517Z" transform="translate(-509.331 -312.664)" fill="#ffb9b9"/><path d="M946.649,693.246s37.885-21.047,38.726,0-19.363,29.466-19.363,29.466-52.2,15.652-54.3,9.931-6.314-14.982-2.947-15.824,7.577-2.526,9.261-.842,22.731-12.628,22.731-12.628Z" transform="translate(-479.391 -367.814)" fill="#2f2e41"/><path d="M997.642,697.562s-7.577,3.368-10.1,5.893-13.47,6.735-13.47,6.735" transform="translate(-512.705 -374.655)" fill="none" stroke="#000" stroke-miterlimit="10" stroke-width="2" opacity="0.2"/><path d="M837.227,534.086l-5.051-1.684s-18.521,19.363-12.628,24.415,9.261,6.735,10.944,8.419,10.1,2.526,10.1,2.526Z" transform="translate(-434.794 -292)" fill="#e36b0a"/><path d="M967.317,544.2l7.577,1.684s5.893,12.628,7.577,14.312-2.526.842-5.051,4.209-5.051,9.261-10.1,9.261-11.786-8.419-11.786-8.419Z" transform="translate(-503.427 -297.904)" fill="#e36b0a"/><path d="M804.973,705.659s-31.992-22.731-42.936-5.893S809.183,739.334,817.6,742.7s16,6.735,16,6.735,7.577-18.521,7.577-21.889-5.893-3.368-7.577-3.368-9.261-1.684-10.944-4.209S804.973,705.659,804.973,705.659Z" transform="translate(-405.908 -372.65)" fill="#2f2e41"/><path d="M813.966,705.988s8.419,6.735,16,8.419,10.1,5.893,10.1,5.893" transform="translate(-432.58 -378.872)" fill="none" stroke="#000" stroke-miterlimit="10" stroke-width="2" opacity="0.2"/><path d="M837.731,638.067l.672,35.646a4.462,4.462,0,0,0,4.512,4.378l66.334-.745a4.462,4.462,0,0,0,4.4-4.205l2.013-34.9a4.462,4.462,0,0,0-4.455-4.719H842.193a4.462,4.462,0,0,0-4.462,4.547Z" transform="translate(-444.473 -342.605)" fill="#575a89"/><path d="M898.281,423.04s1.079,3.6-5.035,6.833-7.912,15.464-.719,19.061,9.351,8.272,5.754,11.508-10.07,11.868-1.439,14.026,9.71,6.474,7.193,8.272,5.754-3.237,5.754-3.237,1.439,8.631,8.991,6.474,15.088-41.382,6.669-51.485C917.621,425.1,898.281,423.04,898.281,423.04Z" transform="translate(-469.557 -237.269)" fill="#2f2e41"/><path d="M904.13,413.168c0-5.269,15.765-1.483,22.523,5.874,4.68,5.094,11.789,12.759,5.832,18.161s10.21,12.485,14.546,14.632,12.9,8.714,5.167,13.119-7.605,8.852-4.7,9.9-6.414-1.565-6.414-1.565.942,8.7-6.913,8.658-30.389-43.208-25.005-55.206C914.175,415.588,904.13,413.168,904.13,413.168Z" transform="translate(-477.703 -231.1)" fill="#2f2e41"/><path d="M887.727,413.245c-21.08-1.269-23.2,14.6-23.2,14.6.146,9.183,14.728,4.708,18.778,6.077,4.886-3.515,14.3-10.166,21.041-14.912A31.859,31.859,0,0,0,887.727,413.245Z" transform="translate(-457.886 -232.331)" fill="#2f2e41"/><path d="M761.431,462.825s-18.909-88.619-137.261-152.9" transform="translate(-337.596 -180.658)" fill="none" stroke="#3f3d56" stroke-miterlimit="10" stroke-width="2"/><path d="M577.59,254.891l.237.972-4.787,1.161,1.508,4.69-.952.305-1.836-5.713Z" transform="translate(-286.14 -127.561)" fill="#3f3d56"/><path d="M89.112,771.722c0,11.224-6.672,15.143-14.9,15.143q-.286,0-.571-.006c-.381-.008-.759-.026-1.132-.052-7.429-.526-13.2-4.646-13.2-15.085,0-10.8,13.8-24.434,14.842-25.443l0,0,.06-.058S89.112,760.5,89.112,771.722Z" transform="translate(-54.907 -399.006)" fill="#e36b0a"/><path d="M82.051,785.148l5.451-7.616-5.464,8.453-.015.874c-.381-.008-.759-.026-1.132-.052l.588-11.229,0-.087.01-.016.055-1.061-5.478-8.474,5.5,7.678.013.225.444-8.485-4.69-8.756,4.747,7.267.462-17.59,0-.06v.058l-.077,13.871,4.669-5.5-4.688,6.694-.123,7.6,4.359-7.291L82.3,770.058l-.069,4.223,6.329-10.147L82.2,775.755Z" transform="translate(-63.292 -399.006)" fill="#3f3d56"/><path d="M232.28,789.078l3.188-2.368s2.11,11.788-.245,13.554-11.185,4.71-11.185,8.242-20.016,8.242-20.6,2.943,1.766-8.242,1.766-8.242,9.419-9.419,10.6-11.185,4.121-5.3,4.121-5.3Z" transform="translate(-126.989 -419.269)" fill="#2f2e41"/><path d="M167,491.526s.088.518.241,1.466c.141.842.336,2.031.571,3.5,2.473,15.088,9.684,59.505,9.2,60.971-.589,1.766-4.71,8.242,0,10.008a3.652,3.652,0,0,1,1.466,1.6,34.219,34.219,0,0,1,2.49,5.875c2.808,8.148,5.81,21.187,7.547,30.218.759,3.968,1.277,7.159,1.43,8.83a4.8,4.8,0,0,1,.018,1.166c-.589,2.355,3.532,10.6,5.3,12.951s4.71,4.71,4.121,7.064,14.717,8.83,16.483,4.71,1.766-6.476,2.355-7.653,1.177-9.419-1.766-10.6-1.177-21.782-4.121-25.9c-.983-1.372-2.484-6.016-4.056-11.6-.618-2.19-1.242-4.521-1.854-6.858-2.484-9.578-4.686-19.215-4.686-19.215l.589-68.877L169.94,485.05l-.83,1.831-1.654,3.632Z" transform="translate(-108.801 -268.303)" fill="#2f2e41"/><path d="M141.373,722.181s-4.71-4.709-7.064,0-4.71,22.959-8.83,27.08-9.419,24.725-3.532,25.9,12.363-1.766,12.951-5.3,12.951-21.782,12.951-23.548-8.242-8.242-8.242-8.242Z" transform="translate(-84.944 -385.928)" fill="#2f2e41"/><path d="M231.581,431.578s-7.653,68.877-9.419,75.353-11.185,31.2-14.129,35.322S186.252,579.929,183.9,581.7s-7.064,6.476-7.064,6.476-8.83,8.83-10.008,10.6-11.185-3.532-11.774-7.064.589-9.419,1.177-11.774-1.177-5.887.589-7.653,10.6-10.6,10.6-14.717S182.72,529.3,188.607,524s4.71-14.129,4.71-14.129v-35.91l-32.378-10.008S162.7,435.7,166.825,435.7,225.106,426.28,231.581,431.578Z" transform="translate(-102.743 -240.733)" fill="#2f2e41"/><circle cx="19.427" cy="19.427" r="19.427" transform="translate(61.727 53.68)" fill="#9f616a"/><path d="M199.97,218.1s2.355,8.83,5.3,11.185-7.653,12.363-7.653,12.363L177.6,242.829l-3.532-11.185s6.476-12.951,4.71-21.193S199.97,218.1,199.97,218.1Z" transform="translate(-112.34 -129.692)" fill="#9f616a"/><path d="M204.673,248.18s-5.3.589-6.476,2.355-9.419,7.064-15.895,5.887-10.6-2.943-11.774-2.355S167,267.018,167,267.018l6.476,18.838-1.177,51.805-1.766,14.129s-3.532-4.71,10.6-1.766,32.378-2.355,38.265-2.943,15.895-2.355,16.483-5.887-1.766-16.483-1.766-16.483l-9.419-39.443L218.8,264.075Z" transform="translate(-108.801 -149.759)" fill="#e36b0a"/><path d="M231.271,241.6s4.98-2.641,6.746-.286,24.136,5.887,24.136,7.653,4.71,49.45,3.532,53.571,2.355,8.83,2.355,8.83l4.121,17.661s11.185,33.556,6.476,34.733-8.83,0-10.6,0-1.177-22.37-5.887-28.257-11.185-20.6-12.363-23.548-15.895-43.563-15.306-48.273S231.271,241.6,231.271,241.6Z" transform="translate(-140.968 -145.832)" fill="#d0cde1"/><path d="M157.546,248.18s-4.71,0-5.3,1.177-6.476,8.83-8.83,10.6-10.6,9.419-10.6,11.185,17.072,14.717,17.072,14.717,7.064,34.733,3.532,46.507-8.83,40.031-6.476,41.8,7.653,2.355,7.653,0,3.532-27.669,6.476-32.967,11.774-38.854,8.242-48.273S157.546,248.18,157.546,248.18Z" transform="translate(-91.698 -149.759)" fill="#d0cde1"/><path d="M296,364.847s.589,18.25-5.887,27.669a111.875,111.875,0,0,0-10.6,20.016s-10.6-2.943-12.363-6.476-12.951-.589-12.951-1.766,13.54-7.064,14.717-8.242,5.3-1.177,7.653-3.532,2.943-7.653,2.943-7.653l2.355-15.306Z" transform="translate(-152.444 -208.146)" fill="#9f616a"/><path d="M200.693,155.327a11.2,11.2,0,0,0,4.357-1,5.833,5.833,0,0,0,1.491-8.637,11.162,11.162,0,0,0-2.07-1.664L200,140.982a21.888,21.888,0,0,0-6.313-3.351,19.708,19.708,0,0,0-6.454-.381,43.61,43.61,0,0,0-12.363,2.248,20.69,20.69,0,0,0-10.017,7.33c-3.789,5.482-3.841,12.876-1.754,19.2s6.051,11.84,9.956,17.239l2.027-9.888a3.65,3.65,0,0,1,1.146-2.367c1.821-1.3,4.048,1.364,6.282,1.347a3.763,3.763,0,0,0,3.185-2.521,14.365,14.365,0,0,0,.706-4.23c.267-3.029,1.325-7.244,4.194-8.915C193.265,155.14,197.688,155.6,200.693,155.327Z" transform="translate(-106.158 -94.199)" fill="#2f2e41"/><path d="M233.864,498.784s-1.988,57.511-3.166,59.277,0-59.458,0-59.458Z" transform="translate(-140.419 -275.085)" opacity="0.1"/><path d="M283.664,257.607h4.71s20.016,27.08,17.661,28.846,0,6.476,0,6.476l4.71,8.83s5.887,5.3,4.121,6.476-4.121,5.887-4.121,5.887-11.774-1.766-15.306,5.3l-7.635-9.639Z" transform="translate(-167.188 -154.478)" fill="#d0cde1"/><rect width="17.484" height="32.582" transform="translate(101.979 118.513) rotate(-22.438)" fill="#2f2e41"/><ellipse cx="3.497" cy="3.212" rx="3.497" ry="3.212" transform="translate(110.561 124.899) rotate(-22.438)" fill="#e36b0a"/><path d="M208.632,326.528s-42.386,35.322-49.45,24.136,7.653-20.6,7.653-20.6,12.951.589,27.669-8.83l14.717-6.476s13.436-19.182,18.014-11.878S219.42,322.893,208.632,326.528Z" transform="translate(-103.93 -176.302)" fill="#9f616a"/><path d="M136.938,289.426l-6.476,2.355v17.661l-2.355,3.532s.589,7.064,2.355,8.83,5.3,1.177,4.121,5.3a22.313,22.313,0,0,0-.589,8.242s10.6,13.54,11.185,11.774,8.83-23.548,10.008-23.548-11.774-34.144-11.774-34.144Z" transform="translate(-89.339 -170.401)" fill="#d0cde1"/><path d="M288.214,457.7s6.087-5.887,3.043-6.181-13.64-6.181-15.406-3.238S288.214,457.7,288.214,457.7Z" transform="translate(-163.202 -249.491)" fill="#2f2e41"/><ellipse cx="8.5" cy="4.5" rx="8.5" ry="4.5" transform="translate(232 86.797)" fill="#57b894"/><path d="M539.948,236.392a78.766,78.766,0,0,0-57.448,0V212.913a99.428,99.428,0,0,1,57.448,0Z" transform="translate(-266.697 -129.988)" fill="none" stroke="#3f3d56" stroke-miterlimit="10" stroke-width="2"/><path d="M539.962,234.4a56.848,56.848,0,0,0-41.462,0V217.453a71.762,71.762,0,0,1,41.462,0Z" transform="translate(-274.704 -132.851)" fill="none" stroke="#3f3d56" stroke-miterlimit="10" stroke-width="2"/><ellipse cx="8.5" cy="4.5" rx="8.5" ry="4.5" transform="translate(235 84.797)" fill="none" stroke="#3f3d56" stroke-miterlimit="10" stroke-width="2"/><ellipse cx="8.492" cy="4.496" rx="8.492" ry="4.496" transform="matrix(0.98, -0.2, 0.2, 0.98, 236.905, 116.958)" fill="#57b894"/><path d="M551.793,283.636a78.766,78.766,0,0,0-56.287,11.488l-4.7-23A99.429,99.429,0,0,1,547.1,260.632Z" transform="translate(-270.856 -155.782)" fill="none" stroke="#3f3d56" stroke-miterlimit="10" stroke-width="2"/><path d="M551.172,283.842a56.848,56.848,0,0,0-40.625,8.291l-3.389-16.6a71.761,71.761,0,0,1,40.625-8.291Z" transform="translate(-279.037 -159.146)" fill="none" stroke="#3f3d56" stroke-miterlimit="10" stroke-width="2"/><ellipse cx="8.492" cy="4.496" rx="8.492" ry="4.496" transform="matrix(0.98, -0.2, 0.2, 0.98, 239.442, 114.401)" fill="none" stroke="#3f3d56" stroke-miterlimit="10" stroke-width="2"/><ellipse cx="4.496" cy="8.492" rx="4.496" ry="8.492" transform="translate(235.582 151.503) rotate(-86.019)" fill="#57b894"/><path d="M545.022,351.145a78.766,78.766,0,0,0-57.309-3.988l1.63-23.422a99.429,99.429,0,0,1,57.309,3.988Z" transform="translate(-269.305 -186.333)" fill="none" stroke="#3f3d56" stroke-miterlimit="10" stroke-width="2"/><path d="M545.711,348.669a56.848,56.848,0,0,0-41.362-2.878l1.176-16.9a71.761,71.761,0,0,1,41.362,2.878Z" transform="translate(-277.631 -189.255)" fill="none" stroke="#3f3d56" stroke-miterlimit="10" stroke-width="2"/><ellipse cx="4.496" cy="8.492" rx="4.496" ry="8.492" transform="translate(238.71 149.718) rotate(-86.019)" fill="none" stroke="#3f3d56" stroke-miterlimit="10" stroke-width="2"/><path d="M402.374,264.465s-36.715-5.023-62.934,10.343" transform="translate(-195.101 -157.517)" fill="none" stroke="#3f3d56" stroke-miterlimit="10" stroke-width="2"/><path d="M288.891,224.459l.954.3-1.491,4.7,4.793,1.143-.233.973-5.836-1.394Z" transform="translate(-143.669 -112.332)" fill="#3f3d56"/></g></svg>