<svg xmlns="http://www.w3.org/2000/svg" xmlns:xlink="http://www.w3.org/1999/xlink" width="519.824" height="406.742" viewBox="0 0 519.824 406.742"><defs><linearGradient id="a" x1="0.5" y1="1" x2="0.5" gradientUnits="objectBoundingBox"><stop offset="0" stop-color="gray" stop-opacity="0.251"/><stop offset="0.54" stop-color="gray" stop-opacity="0.122"/><stop offset="1" stop-color="gray" stop-opacity="0.102"/></linearGradient></defs><g transform="translate(0.004 0.06)"><path d="M489.546,104.735c-27.637-.956-53.963-9.883-79.1-19.621s-50.04-20.576-77.016-25.75c-17.354-3.328-37.194-3.8-51.181,5.5-13.451,8.952-17.8,24.409-20.136,38.746-1.761,10.789-2.792,22.148,2.027,32.246,3.343,7.006,9.282,12.905,13.391,19.621,14.291,23.374,4.188,52.191-11.3,75.009-7.266,10.678-15.7,20.892-21.3,32.266s-8.2,24.454-3.3,36.074c4.864,11.509,16.448,20.176,29.023,26.266,25.5,12.36,55.544,15.9,84.822,17.9,64.841,4.434,130.028,2.5,195.045.59,24.059-.711,48.223-1.431,71.892-5.154,13.145-2.067,26.716-5.344,36.259-13.26,12.115-10.048,15.117-27.066,7.006-39.666-13.616-21.137-51.266-26.386-60.778-49.069-5.239-12.485.14-26.4,7.751-37.975,16.333-24.84,43.7-46.632,45.146-75.024,1-19.515-12.17-39.031-32.526-48.258-21.327-9.673-50.9-8.457-66.633,7.556C542.423,99.24,513.951,105.585,489.546,104.735Z" transform="translate(-159.757 -50.421)" fill="#e36b0a" opacity="0.1"/><path d="M479.643,695.008s-23.018-40.787-57.706-52.542a70.949,70.949,0,0,1-35.948-26.891A119.5,119.5,0,0,1,375.38,596.5" transform="translate(-227.87 -319.866)" fill="none" stroke="#535461" stroke-miterlimit="10" stroke-width="2"/><path d="M328.935,564.474c3.948,3.833,22.353,7.8,22.353,7.8s-4.5-18.274-8.467-22.113a9.973,9.973,0,0,0-13.886,14.311Z" transform="translate(-203.233 -295.385)" fill="#e36b0a"/><path d="M344.589,627.787c5.4,1.071,23.018-5.6,23.018-5.6s-13.726-12.89-19.125-13.961a9.972,9.972,0,1,0-3.883,19.562Z" transform="translate(-208.479 -325.628)" fill="#e36b0a"/><path d="M415.411,699.736c5.2-1.8,17.013-16.448,17.013-16.448s-18.35-4.2-23.554-2.4a9.973,9.973,0,0,0,6.505,18.845Z" transform="translate(-241.391 -361.803)" fill="#e36b0a"/><path d="M486.28,740.509c5.434-.9,19.565-13.331,19.565-13.331s-17.379-7.241-22.813-6.345a9.972,9.972,0,1,0,3.248,19.678Z" transform="translate(-277.482 -381.945)" fill="#e36b0a"/><path d="M409.336,597.833c0,5.5-9.963,21.482-9.963,21.482s-9.978-15.968-9.983-21.472a9.973,9.973,0,0,1,19.946,0Z" transform="translate(-234.87 -315.554)" fill="#e36b0a"/><path d="M490.573,643.656c-1.646,5.254-15.933,17.514-15.933,17.514s-4.744-18.219-3.1-23.474a9.973,9.973,0,1,1,19.015,5.96Z" transform="translate(-275.74 -336.748)" fill="#e36b0a"/><path d="M561.995,704.319c-.731,5.454-12.74,19.956-12.74,19.956s-7.756-17.154-7.006-22.613a9.969,9.969,0,1,1,19.761,2.657Z" transform="translate(-311.213 -368.087)" fill="#e36b0a"/><path d="M328.935,564.474c3.948,3.833,22.353,7.8,22.353,7.8s-4.5-18.274-8.467-22.113a9.973,9.973,0,0,0-13.886,14.311Z" transform="translate(-203.233 -295.385)" opacity="0.25"/><path d="M344.589,627.787c5.4,1.071,23.018-5.6,23.018-5.6s-13.726-12.89-19.125-13.961a9.972,9.972,0,1,0-3.883,19.562Z" transform="translate(-208.479 -325.628)" opacity="0.25"/><path d="M415.411,699.736c5.2-1.8,17.013-16.448,17.013-16.448s-18.35-4.2-23.554-2.4a9.973,9.973,0,0,0,6.505,18.845Z" transform="translate(-241.391 -361.803)" opacity="0.25"/><path d="M486.28,740.509c5.434-.9,19.565-13.331,19.565-13.331s-17.379-7.241-22.813-6.345a9.972,9.972,0,1,0,3.248,19.678Z" transform="translate(-277.482 -381.945)" opacity="0.25"/><path d="M409.336,597.833c0,5.5-9.963,21.482-9.963,21.482s-9.978-15.968-9.983-21.472a9.973,9.973,0,0,1,19.946,0Z" transform="translate(-234.87 -315.554)" opacity="0.25"/><path d="M490.573,643.656c-1.646,5.254-15.933,17.514-15.933,17.514s-4.744-18.219-3.1-23.474a9.973,9.973,0,1,1,19.015,5.96Z" transform="translate(-275.74 -336.748)" opacity="0.25"/><path d="M561.995,704.319c-.731,5.454-12.74,19.956-12.74,19.956s-7.756-17.154-7.006-22.613a9.969,9.969,0,1,1,19.761,2.657Z" transform="translate(-311.213 -368.087)" opacity="0.25"/><path d="M525.784,659.635s-4.5-46.622-31.46-71.422a70.866,70.866,0,0,1-21.967-39.151,119.143,119.143,0,0,1-1.967-21.742" transform="translate(-275.337 -285.303)" fill="none" stroke="#535461" stroke-miterlimit="10" stroke-width="2"/><path d="M435.906,482.2c2.057,5.109,17.274,16.193,17.274,16.193s3.278-18.54,1.221-23.649a9.98,9.98,0,1,0-18.515,7.456Z" transform="translate(-257.737 -255.912)" fill="#e36b0a"/><path d="M424.653,546.636c4.5,3.167,23.3,4.2,23.3,4.2s-7.321-17.344-11.824-20.516a9.972,9.972,0,1,0-11.48,16.309Z" transform="translate(-250.371 -285.894)" fill="#e36b0a"/><path d="M459.818,640.925c5.5.46,22.238-8.136,22.238-8.136s-15.077-11.289-20.566-11.734a9.973,9.973,0,1,0-1.671,19.871Z" transform="translate(-265.381 -332.105)" fill="#e36b0a"/><path d="M508.544,707.064c5.334,1.381,23.293-4.263,23.293-4.263s-12.955-13.661-18.284-15.042a9.972,9.972,0,1,0-5,19.307Z" transform="translate(-290.668 -365.298)" fill="#e36b0a"/><path d="M495.961,545.481c-2.232,5.039-17.814,15.6-17.814,15.6s-2.652-18.64-.425-23.674a9.973,9.973,0,1,1,18.24,8.071Z" transform="translate(-278.555 -287.376)" fill="#e36b0a"/><path d="M547.232,620.639c-3.633,4.138-21.662,9.557-21.662,9.557s3.047-18.58,6.68-22.713a9.969,9.969,0,0,1,14.982,13.155Z" transform="translate(-302.906 -323.659)" fill="#e36b0a"/><path d="M591.095,704.678c-2.9,4.694-19.736,13.085-19.736,13.085s-.14-18.825,2.742-23.519a9.98,9.98,0,1,1,17.013,10.438Z" transform="translate(-325.781 -366.32)" fill="#e36b0a"/><ellipse cx="134.512" cy="9.673" rx="134.512" ry="9.673" transform="translate(164.653 387.337)" fill="#e36b0a" opacity="0.1"/><path d="M853.485,170.606c.39-1.066-2.537-6.981-2.537-7.271s-3.027-3.588-3.027-5.429-4-5.815-4-5.815-5.369-2.232-5.955-7.081-6.43-4.944-6.445-4.944h0s.025-.445.035-1.111c0-1.5-.045-4.2-.721-5.674a5.8,5.8,0,0,0-3.323-2.812s-.585-3.783-1.756-4.949a5.554,5.554,0,0,1-1.366-5.234c.585-1.836-.781-6.505-3.613-7.171s-6.055-1.746-6.055-1.746-.315.06-.781.125l-.39-.125a17.161,17.161,0,0,1-2.052.255,2.572,2.572,0,0,1-1.656-.545c-1-1.066-8.882-3.1-10.348-3.1s-5.665-1.942-5.665-1.942-2.927-2.227-4.193-3.2c-1.181-.9-3.358-4.534-3.673-5.069l-.04-.07H785.9a17.975,17.975,0,0,1-.766-2.117c-.045-.15-.08-.3-.12-.45a23.336,23.336,0,0,0,3.633-5c.1-.19.19-.385.285-.575a2.107,2.107,0,0,0,.635-.1,2.689,2.689,0,0,0,.255-.1,4.253,4.253,0,0,0,2.072-2.477h0c.07-.21.13-.425.185-.641l.045-.215c.035-.145.065-.3.1-.445s.025-.165.04-.25.045-.29.065-.435,0-.165.035-.245c.025-.185.045-.365.07-.55h0c.08-.686.16-1.371.305-2.042a.069.069,0,0,1,0-.03h0c.58-2.632,2.167-4.854,3.288-7.286h0c.16-.35.31-.706.45-1.061s.27-.781.385-1.181c.035-.12.06-.24.1-.36q.11-.44.2-.886c.025-.125.05-.25.07-.38.07-.4.125-.806.155-1.211a14.942,14.942,0,0,0-1-6.81c-.731-1.821-1.821-3.463-2.562-5.279-1.121-2.762-1.416-5.885-2.787-8.507a10.145,10.145,0,0,0-12.16-4.959c-2.122.791-3.963,2.327-6.12,3-2.882.921-5.97.23-8.957-.185s-6.285-.45-8.687,1.5c-2.767,2.247-3.5,6.47-6.115,8.932-1.091,1.036-2.447,1.7-3.6,2.652a5.9,5.9,0,0,0-1.806,2.467.849.849,0,0,1-.065.21c-.02.07-.045.165-.065.25s-.035.2-.05.29a.881.881,0,0,0,0,.2,3,3,0,0,0,0,.5h0a4.175,4.175,0,0,0,.08.5.989.989,0,0,0,.035.13,3.837,3.837,0,0,0,.12.41v.075c.055.15.115.3.175.445l.1.215c0,.06.055.12.08.185a11.508,11.508,0,0,1,.906,2.252,2.5,2.5,0,0,1-.09,1.5,4.5,4.5,0,0,1-1.081,1.421,20.176,20.176,0,0,0-4.408,7.056c-.11.3-.215.6-.315.906v.025l.13.035a6.533,6.533,0,0,0,.856.185c.165,0,.33.04.5.05a7.607,7.607,0,0,0,2-.15c.17-.035.335-.075.5-.12a11.949,11.949,0,0,0,1.977-.726c0,.2,0,.4,0,.6v.33a23.048,23.048,0,0,0,12.81,20.621c.03.215.055.42.085.63s.045.355.065.53l-.265-.255s-1.756-.871-3.418,1.651a11.02,11.02,0,0,1-4.784,3.683s-17.769,2.812-18.45,5.139l-8.3.5s-2.927.385-3.218,6.505-1.857,6.69-1.857,6.69-3.418,6-3.122,9.112-2.637,4.654-2.637,4.654l-.39,5.5s-3.223-.5-4.1,3.3a12.958,12.958,0,0,1-2.437,5.5s-5.374,4.464-5.664,8.242l-3.318,2.037s-7.716-1.746-9.472-4.849l-.54-.5a.376.376,0,0,1-.045-.075.16.16,0,0,0,0,.035c-1.151-1.086-3.6-3.368-3.228-2.842a2.412,2.412,0,0,1,.16,1.561l-.575-.635-1.536-1.706s-11.474-13.18-18.795-14.106l-.555-1.1a1.256,1.256,0,0,0-1.686-.55l-11.044,5.5a1.246,1.246,0,0,0-.56,1.676l1.236,2.427h-.025a.115.115,0,0,0-.05.16l.435.856a.12.12,0,0,0,.16.055h0l.455.9h0a.135.135,0,0,0-.06.18l.826,1.621a.13.13,0,0,0,.18.06h0l.335.656h0a.13.13,0,0,0-.055.17l.841,1.651a.12.12,0,0,0,.17.055h0l8.006,15.818a1.261,1.261,0,0,0,1.686.555l8.477-4.238.3.22,2.5,3.218c-.425,1-.781,2-1.081,2.9a.792.792,0,0,1-.025.085c-.065.19-.125.38-.18.56l-.06.19c-.06.185-.115.365-.165.535l-.09.32a.87.87,0,0,1-.055.185c-.275.971-.45,1.721-.545,2.137l-.646-.2.63.27v.1c-.03.13-.04.205-.04.205.19.09.39.175.6.26,3.418,1.5,20.486,8.977,21.362,10.113.976,1.261,7.421,4.944,13.281,1.841s7.126-7.851,7.126-7.851,5.664-7.856,5.86-9.007,4.589-2.5,4.589-2.5.39,13.01-1.856,17.744-6.445,25.785-6.445,25.785a3.083,3.083,0,0,1,.831-.05l-.245,1.216a2.772,2.772,0,0,1,1.031,0c-.31,2.387-2.1,13.511-2.1,13.511s-.585,5.044-1.566,6.785-1.071,10.859-1.071,10.859l-1.561,6.6s.205.455.591,1.136v.025a16.824,16.824,0,0,0,4.5,5.81,11.923,11.923,0,0,1-.786,3,10.076,10.076,0,0,0-.781,4.654s-1.656,7.461-1.466,9.6-1.111,7.366-1.111,7.366l-1.756,16.868s-1.171,14.637-.585,18.615a35.63,35.63,0,0,1-.39,9.4s1.171,11.539.876,12.8-1.756,6.69-.876,9.7.39,11.244.39,11.244.585,10.864,1.266,14.351a24.762,24.762,0,0,1-.2,7.951s-.686,7.466-1,7.466-2.832,5.134,2.342,10.178,1.982,4.253,1.982,4.253-4.1-2.037-3.613,2.132c.46,3.968,1.106,2.932,1.166,2.822l-1,3.188s.255.03.685.1l-.565.681a15.407,15.407,0,0,1-1.972,2.042,4.2,4.2,0,0,0-1.271,2.807s-7.221,7.856-13.956,11.829c-3.543,2.092-6.605,3.863-7.936,5.324-1.2,1.316-1,2.382,1.5,3.208,5.274,1.746,14.547,2.617,21.182.39a24.705,24.705,0,0,0,10.348-6.69s4.2-2.137,8.3-1.361,12.3-4.554,12.3-4.554l-.15-1.376-.435-3.958a3.056,3.056,0,0,1-.686-2.422,12.712,12.712,0,0,0-.335-3.5c-.07-.385-.145-.766-.22-1.126l.751-.14s-.971-4.944.786-5.915,1.266-13.671,1.266-13.671-2.247-2.907-3.418-3.393-.1-6.505.1-7.271,1.756-15.8,1.756-15.8-.585-4.749.2-6.785-.976-9.888-.976-9.888a1.8,1.8,0,0,1,.5-2.137c1.086-1.166.666-11.5.666-11.5s-.1-5.234-.1-6.6,1.171-6.3,2.242-7.946.4-6.79.4-6.79h0l.06-.385a4.281,4.281,0,0,1,.085-.55l.09-.5a73.461,73.461,0,0,1,1.9-8.417c1.271-4.073,2.737-11.244,2.737-11.244l9.1-23.7.105-.28s4.193,7.756,4.193,14.937c0,0,1.081,8.627.786,10.954s.881,13.281.881,13.281,1.266,15.7,1.266,16.383,1.561,12.8,2.542,14.647-1,7.461-1.566,8.041.2,14.837.2,14.837S762.493,378,762.2,380.327s-1.466,11.249-.5,14.742.585,3.973.585,3.973,3.5,3.588,1.466,3.878A5.382,5.382,0,0,0,759.846,410a89.392,89.392,0,0,0,4.3,10.378s.605-.135,1.616-.34v1.151l.12,5.78s.681,5.5.29,6.79c-.285.916-.676,5.264-.866,7.506-.07.831-.11,1.386-.11,1.386s0,5.134,10.834,3.588,12.79-5.82,12.79-5.82l.08-.535c.16-1,.5-3.057.8-4.213.4-1.556-3.117-8.537-3.117-8.537s-.591-4.744-1.566-5.815a5.144,5.144,0,0,1-.786-2.037c-.09-.39-.165-.8-.23-1.2.255.035.5.08.721.13,0,0-.585-3.393,1.666-4.464s1.656-3.293,1.366-4.263.876-6.4.876-6.4a3.168,3.168,0,0,1,.781-3.1c1.371-1.361,2.442-10.864,2.442-10.864l.235-36.6s.686-6.505-.1-9.117-1.566-7.656-.5-9.007.1-7.656.1-7.656,0-13.285,1.461-16.578,1-24.144,1-24.144l.385-13.666s3.188-3,2.432-18.755c3.4-.21,7.241-.335,7.821.135,1.071.871,8.006,5.334,12.1,2.5a54.286,54.286,0,0,0,4.879-3.783l-1.721-29.068c1.076,1.621,1.726,2.7,1.726,2.7,0-4.073,11.509-17.259,11.509-17.259s10.739-13.861,13.08-15.512,6.93-10.373,6.93-10.373a42.9,42.9,0,0,1,2.347-4.849C856.608,176.33,853.095,171.677,853.485,170.606ZM828.3,180.789c-2.927.29-9.077,6.981-9.177,8.432a6.033,6.033,0,0,1-1.3,2.607c-.045-.585-.1-1.181-.145-1.786-.691-8.567-1.431-19.015-1.091-20.016.585-1.746.385-9.6.385-9.6h0l.11-.15c1.972,6.085,8.081,13.261,8.081,13.261s1.076,3.1,2.342,3.2.791,4.053.791,4.053Z" transform="translate(-364.044 -43.61)" fill="url(#a)"/><path d="M695.55,294.65s3.558-18.665,15.012-18.76l8.367,17.224-5.579,3.848S701.224,297.347,695.55,294.65Z" transform="translate(-387.828 -159.688)" fill="#65617d"/><path d="M718.929,293.124l-5.579,3.853s-8.507.27-14.632-1.231a16.877,16.877,0,0,1-3.168-1.081,1.109,1.109,0,0,1,.065-.3.6.6,0,0,1,0-.07,42.247,42.247,0,0,1,2.167-6.855c.35-.836.751-1.7,1.181-2.562,1.676-3.228,4.033-6.39,7.256-7.956a9.908,9.908,0,0,1,3.818-1h.51l.18.38,2.832,5.82Z" transform="translate(-387.828 -159.703)" opacity="0.1"/><path d="M923.507,411.992s12.01-1.156,13.085-.29,7.891,5.294,11.929,2.5,1.346-12.51,1.346-12.9-.38-14.141-.38-14.141l-7.221-9.718-9.042-17.013L914.75,358.61l.5,27.021-.1,13.856Z" transform="translate(-497.341 -201.015)" fill="#65617d"/><path d="M923.507,411.992s12.01-1.156,13.085-.29,7.891,5.294,11.929,2.5,1.346-12.51,1.346-12.9-.38-14.141-.38-14.141l-7.221-9.718-9.042-17.013L914.75,358.61l.5,27.021-.1,13.856Z" transform="translate(-497.341 -201.015)" opacity="0.1"/><path d="M693.356,257.247s-.956,11.739-8.272,11.929c0,0-2.072-1.251-4.859-3.333-6.425-4.809-16.623-14.051-13.806-22.648,4.043-12.315,23.669,10.393,23.669,10.393l1.5,1.691Z" transform="translate(-373.034 -141.525)" fill="#fbbebe"/><path d="M707,272.967s-.956,11.739-8.272,11.929c0,0-2.072-1.251-4.859-3.333l-.625-.8a9.553,9.553,0,0,0,4,1.076,5.409,5.409,0,0,0,5.229-3.293,41.925,41.925,0,0,0,2-4.659,13.744,13.744,0,0,0,.741-2.887Z" transform="translate(-386.674 -157.245)" opacity="0.1"/><path d="M704.383,293.249l-1.646-2.117L697.182,284l-2.822-3.643a9.507,9.507,0,0,0,4,1.081,5.417,5.417,0,0,0,5.234-3.3,41.724,41.724,0,0,0,2-4.659c.916-2.6.9-3.933.575-4.383a29.859,29.859,0,0,1,3.178,2.822l.04.04c.325.3.535.5.535.5l.2.39,2.787,5.574.03.235C713.195,280.434,714.136,291.658,704.383,293.249Z" transform="translate(-387.234 -156.265)" fill="#e7effd"/><path d="M776.1,796.992s-8.081,5.294-12.12,4.5-8.182,1.351-8.182,1.351a24.349,24.349,0,0,1-10.2,6.64c-6.54,2.212-15.677,1.346-20.872-.39-2.462-.816-2.657-1.876-1.476-3.177,1.316-1.456,4.333-3.213,7.826-5.289,6.635-3.943,13.756-11.739,13.756-11.739a4.175,4.175,0,0,1,1.251-2.787,14.937,14.937,0,0,0,1.941-2c1.031-1.221,2-2.5,2-2.5l23.769.771s.405,1.716.721,3.468a12.4,12.4,0,0,1,.335,3.463,3.127,3.127,0,0,0,.676,2.4l.425,3.928Z" transform="translate(-401.317 -412.342)" fill="#65617d"/><path d="M904.889,805.426c-.285,1.151-.63,3.218-.786,4.188-.055.33-.08.53-.08.53s-1.927,4.233-12.6,5.775-10.678-3.563-10.678-3.563.04-.55.11-1.376c.185-2.252.57-6.56.851-7.476.385-1.251-.285-6.735-.285-6.735l-.115-5.735-.08-4,17.7-1.831a33.862,33.862,0,0,0,.57,3.943,5,5,0,0,0,.776,2c.961,1.066,1.541,5.775,1.541,5.775S905.264,803.885,904.889,805.426Z" transform="translate(-480.35 -414.141)" fill="#65617d"/><path d="M799.156,782.356s.405,1.716.721,3.468c-2.567.47-13.791,2.417-16.6,1.056-3.172-1.541-10.008-2.407-10.008-2.407l.115-.39c1.031-1.221,2-2.5,2-2.5Z" transform="translate(-426.657 -412.332)" opacity="0.1"/><path d="M899.955,789.163c-4.5-.761-14.321,1.081-18.194,1.872l-.08-4,17.7-1.831a33.873,33.873,0,0,0,.57,3.963Z" transform="translate(-480.819 -414.141)" opacity="0.1"/><path d="M854.072,443.436,853.687,457s.5,20.686-.961,23.959-1.446,16.453-1.446,16.453.966,6.255-.1,7.6-.29,6.355.5,8.952.09,9.047.09,9.047l-.19,36.369s-1.056,9.427-2.407,10.779a3.152,3.152,0,0,0-.766,3.077s-1.156,5.384-.866,6.35.866,3.173-1.346,4.228-1.641,4.429-1.641,4.429c-5.289-1.251-20.3,2.122-20.3,2.122a87.768,87.768,0,0,1-4.238-10.3,5.314,5.314,0,0,1,3.848-7.006c2.017-.27-1.441-3.853-1.441-3.853s.385-.5-.575-3.943.19-12.32.5-14.627,1.731-13.471,1.731-13.471-.766-14.141-.19-14.722,2.5-6.16,1.541-8.006-2.5-13.856-2.5-14.512-1.251-16.263-1.251-16.263-1.151-10.874-.866-13.18-.771-10.869-.771-10.869c0-7.126-4.133-14.822-4.133-14.822l-.105.275-8.942,23.519s-1.441,7.116-2.7,11.159A73.109,73.109,0,0,0,802.3,488.1l-.085.5c-.035.215-.065.4-.085.54l-.06.39h0s.671,5.1-.385,6.735a24.061,24.061,0,0,0-2.257,7.906c0,1.366.09,6.55.09,6.55s.39,10.293-.671,11.449a1.817,1.817,0,0,0-.5,2.117s1.736,7.791.966,9.813-.19,6.73-.19,6.73-1.526,14.882-1.7,15.662-1.251,6.735-.1,7.216,3.368,3.368,3.368,3.368.5,12.6-1.246,13.566-.776,5.87-.776,5.87-13.946,2.7-17.124,1.156-10.008-2.407-10.008-2.407l.956-3.163c-.055.11-.691,1.136-1.146-2.8-.5-4.138,3.563-2.117,3.563-2.117s3.172.771-1.932-4.233-2.6-10.1-2.307-10.1.961-7.406.961-7.406a24.618,24.618,0,0,0,.19-7.891c-.676-3.463-1.246-14.241-1.246-14.241s.5-8.177-.385-11.159.575-8.372.866-9.628-.866-12.7-.866-12.7a35.412,35.412,0,0,0,.385-9.327c-.581-3.943.58-18.475.58-18.475l1.731-16.743s1.246-5.194,1.056-7.311,1.441-9.508,1.441-9.508a10.469,10.469,0,0,1,.771-4.619c.961-1.922,1.351-8.272,1.351-8.272l9.237-21.172,4.5-18.665,61.1-.575s.225,1.616.59,4.559.9,7.3,1.5,12.675c.53,4.884,1.111,10.628,1.681,17.013C857.92,439.778,854.072,443.436,854.072,443.436Z" transform="translate(-424.924 -214.274)" fill="#3f3d56"/><path d="M894.4,149.241l-14.246,15.207s-18.274-7.316-16.353-9.818c.746-.971.625-4,.2-7.4-.676-5.324-2.117-11.464-2.117-11.464s31.94-5.194,29.243.19a8.737,8.737,0,0,0-.2,6.39,24.018,24.018,0,0,0,3.478,6.89Z" transform="translate(-470.927 -88.558)" fill="#fbbebe"/><path d="M891.123,135.961c-1,1.972-1.451,2.162-.836,4.283-4.178,4.5-9.508,9.382-16.093,9.382a22.783,22.783,0,0,1-10.2-2.392c-.675-5.324-2.117-11.464-2.117-11.464S893.82,130.576,891.123,135.961Z" transform="translate(-470.927 -88.558)" opacity="0.1"/><path d="M886.519,95.763a22.9,22.9,0,1,1-45.8,0c0-.11,0-.22,0-.33a22.9,22.9,0,1,1,45.8.33Z" transform="translate(-460.353 -58.173)" fill="#fbbebe"/><path d="M874.569,408.05c-3.032.025-13.135.11-24.424.29h-.135l-3.733.06h-.115c-13.386.215-26.576-2.4-31.87-1.9-11.259,1.056,4.038-10.393,4.038-10.393a94.09,94.09,0,0,0,25.645,2.592l3.238-.165c10.233-.58,20.516-1.541,25.88-3.152C873.468,398.352,873.988,402.7,874.569,408.05Z" transform="translate(-445.085 -219.385)" opacity="0.1"/><path d="M874.569,406.9c-3.032,0-13.135.11-24.424.285h-.135l-3.733.065h-.115c-13.386.215-26.576-2.4-31.87-1.907-11.259,1.056,4.038-10.388,4.038-10.388a94.32,94.32,0,0,0,25.645,2.592l3.238-.17c10.233-.575,20.516-1.541,25.88-3.152C873.468,397.192,873.988,401.521,874.569,406.9Z" transform="translate(-445.085 -218.806)" fill="#e3a79f"/><path d="M842.865,174.173l-17.7,8.277L811.5,288.093s8.081-3.653,12.7-1.346,18.855.2,18.855.2,10.393-.58,11.934.575,19.626-4.809,19.626-4.809,3.273-7.316.771-8.467.771-12.51.771-12.51l-1.541-76.205-3.077-9.813-8.277-5-8.477,6.735-4,.575Z" transform="translate(-445.757 -107.139)" opacity="0.1"/><path d="M842.865,171.858l-17.7,8.277L811.5,285.788s8.081-3.658,12.7-1.346,18.855.19,18.855.19,10.393-.575,11.934.575,19.626-4.809,19.626-4.809,3.273-7.311.771-8.467.771-12.51.771-12.51l-1.541-76.215-3.077-9.813-8.277-5-8.477,6.74-4,.57Z" transform="translate(-445.757 -105.98)" fill="#e7effd"/><path d="M859.866,183.576s5.1,6.06,5,7.311-.285,4.233-.285,4.233l-3.853,7.8s-2.117,9.718-2.117,11.739-3.368,19.515-3.368,19.515l-4.038,26.941-5.1,35.313,5.194,8.947,6.16-5.194,8.177-62.93,1.731-12.41s1.826-22.323,1.826-24.63a78.876,78.876,0,0,0-1.056-8.372s1.251-5.775,6.445-7.121-.385-.29-.385-.29l-3-2.407-2.6,1.061S861.407,180.884,859.866,183.576Z" transform="translate(-463.048 -112.79)" opacity="0.1"/><path d="M858.736,182.451s5.1,6.06,5,7.311-.29,4.233-.29,4.233l-3.848,7.8s-2.092,9.708-2.092,11.724-3.368,19.515-3.368,19.515l-4.068,26.981L845,295.3l5.2,8.952,6.13-5.209,8.187-62.915,1.731-12.41s1.826-22.323,1.826-24.635a78.691,78.691,0,0,0-1.056-8.372s1.251-5.77,6.445-7.121-.385-.285-.385-.285l-3-2.407-2.557,1.051S860.277,179.744,858.736,182.451Z" transform="translate(-462.494 -112.23)" fill="#3f3d56"/><path d="M861.878,163.79s-.771.575-.961,4.423-2.887,12.51-2.887,12.51,10.008-6.93,15.012-6.16Z" transform="translate(-469.004 -103.682)" opacity="0.1"/><path d="M861.878,161.48s-.771.575-.961,4.428-2.887,12.51-2.887,12.51,10.008-6.925,15.012-6.155Z" transform="translate(-469.004 -102.528)" fill="#e7effd"/><path d="M904.573,157.63,888.79,171.486s13.281,7.891,15.012,9.818,3.463-18.86,3.463-18.86Z" transform="translate(-484.372 -100.605)" opacity="0.1"/><path d="M905.753,155.33,890,169.176s13.276,7.886,15.012,9.813,3.468-18.86,3.468-18.86Z" transform="translate(-484.976 -99.455)" fill="#e7effd"/><path d="M821.006,163.645s-1.731-.866-3.368,1.636a10.853,10.853,0,0,1-4.714,3.653s-17.514,2.792-18.184,5.1l-8.177.5s-2.887.38-3.177,6.445-1.846,6.625-1.846,6.625-3.368,5.965-3.082,9.042a5.057,5.057,0,0,1-2.6,4.619l12.01,31.27s.385,12.9-1.831,17.609-6.35,25.6-6.35,25.6,1.736-.385,1.636.766-2.117,13.761-2.117,13.761-.575,5-1.536,6.735-1.061,10.779-1.061,10.779l-1.541,6.54s3.658,8.181,9.237,7.006,15.747-22.968,15.747-22.968l6.445-23.574,5-23.283,1.441-15.777,2.312-34.928,3.368-23.093S822.358,165.282,821.006,163.645Z" transform="translate(-427.557 -103.538)" opacity="0.1"/><path d="M819.9,161.335s-1.731-.866-3.368,1.636a10.885,10.885,0,0,1-4.714,3.658s-17.514,2.787-18.184,5.1l-8.182.5s-2.887.385-3.172,6.445-1.831,6.64-1.831,6.64-3.368,5.965-3.077,9.042-2.6,4.619-2.6,4.619l12.01,31.27s.385,12.9-1.826,17.609-6.35,25.6-6.35,25.6,1.731-.385,1.636.771-2.117,13.756-2.117,13.756-.575,5-1.541,6.735-1.056,10.779-1.056,10.779L774,312.01s3.658,8.181,9.237,7.006,15.682-22.993,15.682-22.993l6.45-23.574,5-23.288,1.446-15.777,2.307-34.928,3.368-23.093S821.242,162.972,819.9,161.335Z" transform="translate(-427.022 -102.383)" fill="#65617d"/><path d="M718.369,292.529l-5.579,3.853s-8.507.27-14.632-1.231l-3.1-1.381-.625-.27.641.2a12.7,12.7,0,0,0,7.7.275c7.9-2.657,7.006-15.7,6.72-18.65-.03-.3-.05-.5-.065-.56a.16.16,0,0,1,0-.035l.045.075a3.534,3.534,0,0,0,.365.5c.11.125.225.255.35.375h0l2.787,5.574.03.235Z" transform="translate(-387.269 -159.108)" opacity="0.1"/><path d="M738.269,235.12l-2.692.771-.385,5.5s-3.177-.5-4.043,3.273a13.221,13.221,0,0,1-2.4,5.5s-5.294,4.429-5.584,8.176l-3.268,2s-7.606-1.771-9.332-4.829c0,0,3.463,24.825-15.012,18.76,0,0,20.686,9.047,21.647,10.3s7.316,4.9,13.085,1.826,7.026-7.811,7.026-7.811,5.579-7.8,5.775-8.952,4.5-2.5,4.5-2.5l8.277-20.016Z" transform="translate(-387.828 -139.319)" fill="#65617d"/><path d="M913.967,168.03l2.787-12.7s1.251,4.138,2.5,5.1l4.138,3.173s4.138,1.927,5.579,1.927,9.237,2,10.2,3.077,4.814.29,4.814.29,3.173,1.056,5.965,1.731,4.138,5.294,3.558,7.121a5.549,5.549,0,0,0,1.351,5.194c1.151,1.156,1.731,4.909,1.731,4.909a5.629,5.629,0,0,1,3.268,2.787c.966,2.117.676,6.735.676,6.735L946.2,217.579s.19,7.8-.385,9.508,2,31.175,2,31.175l3,50.61a53.544,53.544,0,0,1-4.809,3.753c-.866.385-1.736-17.9-1.736-18.57s-22.223-33.291-22.223-33.291-3-4.814-3-5.87-2.792-10.779-2.792-10.779l-4.233-18.76Z" transform="translate(-495.977 -99.455)" opacity="0.1"/><path d="M962.893,196.237c0,.661-.035,1.1-.035,1.1l-14.326,20.191h0s.2,7.791-.38,9.508c-.335,1,.4,11.359,1.081,19.861.5,6.14.941,11.314.941,11.314l1.266,21.467,1.711,29.143a53.544,53.544,0,0,1-4.809,3.753c-.866.385-1.731-17.9-1.731-18.575s-22.228-33.286-22.228-33.286-3-4.814-3-5.87-2.787-10.779-2.787-10.779L914.36,225.3l1.922-57.34,1.636-12.7s2.407,4.138,3.658,5.094,4.133,3.178,4.133,3.178,4.138,1.927,5.584,1.927,9.237,2,10.2,3.077,4.814.29,4.814.29,3.173,1.056,5.96,1.731,4.138,5.294,3.563,7.116a5.55,5.55,0,0,0,1.346,5.2c1.156,1.156,1.731,4.9,1.731,4.9a5.649,5.649,0,0,1,3.273,2.8A15.747,15.747,0,0,1,962.893,196.237Z" transform="translate(-497.146 -99.42)" fill="#65617d"/><path d="M776.31,749.48c.5,0,20.686.771,20.3,4.043S776.31,749.48,776.31,749.48Z" transform="translate(-428.176 -396.295)" opacity="0.1"/><path d="M785.35,760.44s13.566,2.212,10.008,4.233S785.35,760.44,785.35,760.44Z" transform="translate(-432.693 -401.771)" opacity="0.1"/><path d="M886.1,745.25s22.518,1.927,19.15,4.424-11.354,2.887-11.739,3S886.1,745.25,886.1,745.25Z" transform="translate(-483.028 -394.182)" opacity="0.1"/><path d="M880.72,765.06s12.51,2.117,12.89,4.5S880.72,765.06,880.72,765.06Z" transform="translate(-480.34 -404.079)" opacity="0.1"/><path d="M894.56,649.3s11.449,2.692,12.125,4.5Z" transform="translate(-487.254 -346.245)" opacity="0.1"/><path d="M803.6,665.84s-5.965,1.731-.19,5.194S803.6,665.84,803.6,665.84Z" transform="translate(-440.455 -354.508)" opacity="0.1"/><path d="M859.18,478.737c.675,0,11.164-3.463,14.817-1.922a24.33,24.33,0,0,0,8.182,1.536Z" transform="translate(-469.578 -259.873)" opacity="0.1"/><path d="M848.281,497.744l-.105.951-8.942,23.519s-1.441,7.116-2.7,11.159a73.132,73.132,0,0,0-1.876,8.352L842.6,492.48Z" transform="translate(-457.328 -267.897)" opacity="0.1"/><path d="M883.775,410.328l-3.733.065h-.115l-2.187-9.7c1.076-.055,2.152-.11,3.238-.175Z" transform="translate(-478.851 -221.953)" fill="#3f3d56"/><path d="M941.818,387.427l-2.4,1.972-8.006,6.585s-21.652,11.549-27.617.58C898.539,386.9,923.088,380,929,378.5c.806-.205,1.261-.305,1.261-.305Z" transform="translate(-491.503 -210.797)" fill="#fbbebe"/><path d="M795.73,207.63s4.233,1.922,5.194,4.619S795.73,207.63,795.73,207.63Z" transform="translate(-437.878 -125.585)" opacity="0.1"/><path d="M765.331,265.31s-6.16,7.506-3.658,10.393S765.331,265.31,765.331,265.31Z" transform="translate(-420.565 -154.402)" opacity="0.1"/><path d="M983.595,216.09s-5.775.575-5.965,5.579Z" transform="translate(-528.756 -129.811)" opacity="0.1"/><path d="M882.64,355.207c.575-.575,13.856-20.206,16.933-18.475Z" transform="translate(-481.299 -190.031)" opacity="0.1"/><path d="M886.526,95.743a22.819,22.819,0,0,1-2.707,10.809l-.17-.03c-1.451-.305-2.207-2-3.318-3.052a4.5,4.5,0,0,0-5.194-.731,5.284,5.284,0,0,0-2.552,4.939c-.731-3.082-.5-6.36-1.216-9.447s-2.872-6.21-5.82-6.265c-1.271,0-2.757.47-3.673-.5-.555-.575-.671-1.5-1.086-2.177-2.107-3.413-8.507-1.686-11.139.06-2.532,1.681-5.664,4.544-8.922,6.045a22.9,22.9,0,0,1,45.8.33Z" transform="translate(-460.361 -58.153)" opacity="0.1"/><path d="M854.986,76.421c.42.7.53,1.606,1.086,2.177.916.951,2.4.465,3.673.5,2.947.05,5.1,3.178,5.82,6.265s.5,6.36,1.216,9.442a5.274,5.274,0,0,1,2.557-4.934,4.5,4.5,0,0,1,5.189.726c1.111,1.056,1.866,2.747,3.318,3.052s2.852-1.086,3.373-2.617a40.143,40.143,0,0,0,.831-4.794c.656-3,2.612-5.459,3.7-8.312a15.072,15.072,0,0,0-.1-10.749c-.721-1.806-1.8-3.433-2.5-5.239-1.111-2.742-1.4-5.835-2.747-8.447a9.971,9.971,0,0,0-11.984-4.919c-2.092.786-3.908,2.307-6.03,3-2.847.911-5.885.225-8.832-.185s-6.195-.45-8.562,1.5c-2.722,2.227-3.468,6.415-6,8.862-1.076,1.026-2.412,1.681-3.548,2.632a4.914,4.914,0,0,0-2,3.908c.17,2,2.122,3.8,1.4,5.649a4.574,4.574,0,0,1-1.066,1.406,20.046,20.046,0,0,0-4.659,7.926c5.149,1.606,10.724-4.068,14.752-6.75C846.469,74.739,852.879,73.033,854.986,76.421Z" transform="translate(-454.555 -45.846)" fill="#7c5c5c"/><path d="M967.35,387.427l-2.4,1.972c-2.112-3.5-10.784-10.543-10.784-10.543l.375-.36c.806-.205,1.261-.305,1.261-.305Z" transform="translate(-517.036 -210.797)" opacity="0.1"/><path d="M970.242,380.8s-.861,2.142-1.751,4-1.857,3.533-1.906,2.167c-.1-2.7-11.254-11.744-11.254-11.744l1.5-1.471,1.756-1.7Z" transform="translate(-517.615 -207.73)" fill="#e7effd"/><path d="M970.717,349.774l1.266,21.467c-3-4.649-11.194-16.563-16.473-16.178l12.8-14.717a17.225,17.225,0,0,0,1.466-1.887C970.267,344.6,970.717,349.774,970.717,349.774Z" transform="translate(-517.705 -190.948)" opacity="0.1"/><path d="M971.751,380.8s-.861,2.142-1.751,4c-3.353-4.6-7.966-10.033-11.649-11.049l1.756-1.7Z" transform="translate(-519.124 -207.73)" opacity="0.1"/><path d="M980.534,234,984,236.692s5.77.1,6.35,4.909,5.87,7.006,5.87,7.006,3.943,3.943,3.943,5.77,3,5.1,3,5.389,2.887,6.16,2.5,7.216,3.077,5.68,2,7.411a42.4,42.4,0,0,0-2.312,4.809s-4.5,8.662-6.83,10.3-12.89,15.392-12.89,15.392-11.354,13.085-11.354,17.129c0,0-11.069-18.475-17.609-18.014l12.8-14.722s2.217-2.4,2.312-3.848,6.155-8.081,9.042-8.372c0,0,.5-3.943-.771-4.038s-2.307-3.178-2.307-3.178-8.467-10.008-8.562-16.358S980.534,234,980.534,234Z" transform="translate(-518.285 -138.759)" fill="#65617d"/><path d="M1007.966,252.24s-8.086,5.965-6.35,7.886S1007.966,252.24,1007.966,252.24Z" transform="translate(-540.618 -147.872)" opacity="0.1"/><path d="M1015.32,299.326s15.012-4.809,16.548,0Z" transform="translate(-547.586 -170.329)" opacity="0.1"/><path d="M776.1,810.981s-8.081,5.294-12.12,4.5-8.182,1.351-8.182,1.351a24.349,24.349,0,0,1-10.2,6.64c-6.54,2.212-15.677,1.346-20.872-.39-2.462-.816-2.657-1.876-1.476-3.177,5.649,1.126,18.274,3.363,21.677,1.736a89.844,89.844,0,0,0,10.773-6.735s8.282-1.156,9.432-1.156c.821,0,7.211-2.637,10.819-4.153Z" transform="translate(-401.317 -426.331)" opacity="0.1"/><path d="M904.083,834c-.055.33-.08.53-.08.53s-1.927,4.233-12.6,5.775-10.678-3.563-10.678-3.563.04-.55.11-1.376C884.208,836.642,891.584,838.078,904.083,834Z" transform="translate(-480.34 -438.521)" opacity="0.1"/><path d="M801.312,249.93s0,21.937-1.877,24.1S801.312,249.93,801.312,249.93Z" transform="translate(-439.467 -146.718)" opacity="0.1"/><path d="M977.05,264.06l2.787,7.841S980.948,264.205,977.05,264.06Z" transform="translate(-528.467 -153.777)" opacity="0.1"/><g transform="translate(374.535 20.682)" opacity="0.1"><path d="M839.392,90.5c.706-1.806-1.141-3.573-1.381-5.5a3.622,3.622,0,0,0-.31,1.741c.125,1.456,1.2,2.822,1.5,4.168a2.278,2.278,0,0,0,.19-.405Z" transform="translate(-833.378 -85)"/><path d="M867.02,117.26c-.691-3.037-.5-6.25-1.191-9.282s-2.867-6.215-5.815-6.265c-1.271,0-2.757.465-3.678-.5-.55-.57-.666-1.5-1.081-2.177-2.107-3.413-8.507-1.681-11.144.065-3.938,2.617-9.342,8.086-14.386,6.845-.245.585-.47,1.176-.656,1.781,5.149,1.606,10.724-4.068,14.752-6.75,2.627-1.746,9.037-3.5,11.144-.065.42.7.53,1.606,1.086,2.177.916.951,2.4.465,3.673.5,2.947.05,5.1,3.178,5.82,6.265s.5,6.36,1.216,9.442a5.2,5.2,0,0,1,.26-2.037Z" transform="translate(-829.07 -91.034)"/><path d="M919.4,128.517c-.5,1.531-1.9,2.932-3.378,2.617s-2.207-2-3.313-3.052a4.5,4.5,0,0,0-5.194-.726,5.244,5.244,0,0,0-2.552,4.664,5,5,0,0,1,2.267-2.787,4.5,4.5,0,0,1,5.189.726c1.111,1.056,1.866,2.747,3.318,3.052s2.852-1.086,3.373-2.617a13.089,13.089,0,0,0,.53-2.762A7.712,7.712,0,0,1,919.4,128.517Z" transform="translate(-866.987 -105.904)"/><path d="M938.893,101.877c-1.081,2.852-3.042,5.314-3.693,8.317-.13.605-.205,1.226-.28,1.846.661-3,2.607-5.444,3.688-8.287a14.859,14.859,0,0,0,.891-4,14.629,14.629,0,0,1-.606,2.127Z" transform="translate(-881.953 -92.369)"/></g><rect width="0.44" height="3.613" rx="0.22" transform="matrix(0.893, -0.45, 0.45, 0.893, 300.26, 102.04)" fill="#3a3768"/><rect width="0.245" height="1.191" rx="0.123" transform="translate(285.971 106.015) rotate(-26.74)" fill="#3a3768"/><rect width="0.275" height="2.072" rx="0.138" transform="matrix(0.893, -0.45, 0.45, 0.893, 286.949, 108.015)" fill="#3a3768"/><rect width="0.265" height="2.087" rx="0.133" transform="matrix(0.893, -0.45, 0.45, 0.893, 288.208, 110.511)" fill="#3a3768"/><rect width="14.662" height="29.804" rx="2.24" transform="matrix(0.893, -0.45, 0.45, 0.893, 284.331, 102.492)" fill="#3a3768"/><path d="M660.873,238.852a.5.5,0,0,0-.23.706l.05.1a.5.5,0,0,1-.235.706l-5.549,2.8a.5.5,0,0,1-.706-.23l-.05-.1a.5.5,0,0,0-.706-.23l-1.081.54a1,1,0,0,0-.445,1.351l11.8,23.434a1,1,0,0,0,1.351.445l9.683-4.879a1,1,0,0,0,.445-1.346L663.415,238.7a1,1,0,0,0-1.346-.44Z" transform="translate(-365.976 -140.834)" fill="#e36b0a"/><rect width="2.047" height="0.415" rx="0.208" transform="matrix(0.893, -0.45, 0.45, 0.893, 290.02, 100.626)" fill="#e6e8ec"/><circle cx="0.235" cy="0.235" r="0.235" transform="translate(292.189 99.384)" fill="#e6e8ec"/><path d="M176.681,69.637s48.608-2.932,42.879,31.13c0,0,1.136,6-4.318,8.752,0,0-.085-2.5-5-1.666a22.633,22.633,0,0,1-5.284.25,10.949,10.949,0,0,1-6.455-2.662h0s-13.641-5.629-18.96-27.977c0,0-3.928-4.874-3.773-6.125l8.2,3.5s-2.8,5.92-.6,10.839c0,0,.265-10.623,1.841-10.373.32.055,4.263,2.052,4.263,2.052s-4.824,10.308-1.186,17.8c0,0-1.381-12.7,2.692-17.054l5.775,3.373s-5.639,10.643-1.816,19.335c0,0-1-13.326,3-18.515l5.234,4.078s-5.294,10.508-2.067,17.7c0,0,.42-15.512,3.2-16.683,0,0,4.579,4.038,5.279,5.695,0,0-3.628,7.616-1.376,11.639,0,0,1.376-10.333,2.5-10.383,0,0,4.564,6.85,5.039,11.539,0,0-.2-6.981-3.933-12.195,0,0,4.409.756,7.006,3.618,0,0-.711-4.844-8.111-5.264,0,0-3.768-5.194-4.779-5.5,0,0,7.361-.615,11.824,1.361,0,0-3.928-4.569-13.17-2.5l-5.164-4.213s9.688-1.331,13.8.135c0,0-4.729-4.038-15.192-1.1l-5.634-3.358s8.262-1.781,13.185-1.136c0,0-5.194-2.8-14.832.235l-4-1.806s6.055-1.191,7.826-1.376,1.866-.681,1.866-.681a21.017,21.017,0,0,0-11.369,1.266S176.536,70.172,176.681,69.637Z" transform="translate(-128.14 -56.611)" fill="#e36b0a" opacity="0.1"/><path d="M231.583,251.771s21.962-1.326,19.375,14.066a3.777,3.777,0,0,1-1.952,3.953s-.04-1.141-2.252-.756a9.922,9.922,0,0,1-2.387.115,4.959,4.959,0,0,1-2.917-1.2h0s-6.175-2.552-8.577-12.645c0,0-1.776-2.2-1.706-2.762l3.708,1.581s-1.266,2.672-.27,4.894c0,0,.12-4.8.831-4.684.145.025,1.927.926,1.927.926s-2.177,4.659-.535,8.041c0,0-.62-5.735,1.216-7.706l2.612,1.526s-2.567,4.809-.836,8.762c0,0-.445-6,1.366-8.367l2.367,1.841s-2.392,4.744-.936,8.006c0,0,.19-7.006,1.446-7.541a14.532,14.532,0,0,1,2.387,2.572s-1.641,3.443-.625,5.259c0,0,.625-4.669,1.136-4.689,0,0,2.062,3.092,2.277,5.214a11.222,11.222,0,0,0-1.776-5.5,6.215,6.215,0,0,1,3.152,1.636s-.32-2.187-3.663-2.377a14.842,14.842,0,0,0-2.157-2.5,13.5,13.5,0,0,1,5.339.615s-1.771-2.062-5.95-1.126l-2.337-1.907s4.378-.6,6.235.065c0,0-2.137-1.826-6.86-.5l-2.542-1.5a22.785,22.785,0,0,1,5.955-.5s-2.347-1.266-6.7.105l-1.816-.816s2.732-.54,3.538-.625.841-.305.841-.305a9.472,9.472,0,0,0-5.134.57S231.5,252.012,231.583,251.771Z" transform="translate(-155.82 -147.624)" fill="#e36b0a" opacity="0.1"/><path d="M81,87.372s21.962-1.321,19.375,14.066a3.783,3.783,0,0,1-1.952,3.958s-.04-1.141-2.252-.756a10.184,10.184,0,0,1-2.387.115,4.964,4.964,0,0,1-2.917-1.206h0S84.7,101,82.294,90.909c0,0-1.776-2.2-1.706-2.767L84.3,89.724s-1.266,2.677-.27,4.9c0,0,.12-4.8.831-4.684.145,0,1.927.926,1.927.926s-2.177,4.659-.535,8.041c0,0-.62-5.74,1.216-7.706l2.612,1.5s-2.547,4.814-.821,8.737c0,0-.445-6,1.366-8.362l2.367,1.841s-2.392,4.744-.936,8.006c0,0,.19-7.006,1.446-7.536a14.533,14.533,0,0,1,2.387,2.572s-1.641,3.443-.625,5.259c0,0,.625-4.669,1.136-4.694,0,0,2.062,3.1,2.277,5.214a11.235,11.235,0,0,0-1.776-5.5,6.17,6.17,0,0,1,3.153,1.636s-.32-2.192-3.663-2.382a14.843,14.843,0,0,0-2.157-2.5,13.5,13.5,0,0,1,5.339.615s-1.771-2.067-5.95-1.126L91.3,92.591s4.378-.6,6.235.065c0,0-2.137-1.826-6.86-.5l-2.542-1.5a22.556,22.556,0,0,1,5.955-.5s-2.347-1.266-6.7.105l-1.816-.816s2.737-.535,3.538-.62.841-.305.841-.305a9.473,9.473,0,0,0-5.154.54S80.938,87.617,81,87.372Z" transform="translate(-80.59 -65.489)" fill="#e36b0a" opacity="0.1"/><ellipse cx="23.213" cy="3.923" rx="23.213" ry="3.923" transform="translate(473.393 364.619)" fill="#e36b0a"/><path d="M1070.8,756.665a6.679,6.679,0,0,0,2.217-3.343,2.96,2.96,0,0,0-1.546-3.4c-1.421-.54-2.937.445-4.088,1.436s-2.472,2.132-3.978,1.922a6.05,6.05,0,0,0,1.871-5.664,2.332,2.332,0,0,0-.5-1.151c-.786-.846-2.217-.5-3.162.18-3,2.112-3.838,6.19-3.853,9.863a18.362,18.362,0,0,1-.055-4.063,4.213,4.213,0,0,0-1.5-3.593,4.629,4.629,0,0,0-2.327-.545,4.809,4.809,0,0,0-3.773,1.071c-1.146,1.226-.851,3.283.15,4.634a14.525,14.525,0,0,0,3.9,3.128,8.659,8.659,0,0,1,2.792,2.662,2.617,2.617,0,0,1,.205.5h8.462A23.76,23.76,0,0,0,1070.8,756.665Z" transform="translate(-564.595 -394.538)" fill="#e36b0a"/><ellipse cx="18.219" cy="3.082" rx="18.219" ry="3.082" transform="translate(10.797 395.218)" fill="#e36b0a"/><path d="M136.776,821.182a5.3,5.3,0,0,0,1.741-2.622,2.339,2.339,0,0,0-1.216-2.672c-1.116-.425-2.307.345-3.208,1.126s-1.942,1.671-3.122,1.5a4.749,4.749,0,0,0,1.471-4.444,1.856,1.856,0,0,0-.41-.906c-.62-.661-1.741-.375-2.5.145-2.357,1.656-3,4.859-3.027,7.741a15.063,15.063,0,0,1-.045-3.187,3.278,3.278,0,0,0-1.2-2.822,3.618,3.618,0,0,0-1.826-.43,3.794,3.794,0,0,0-2.962.841,2.952,2.952,0,0,0,.115,3.638,11.5,11.5,0,0,0,3.067,2.457,6.791,6.791,0,0,1,2.192,2.092,2.5,2.5,0,0,1,.165.37h6.64a18.444,18.444,0,0,0,4.123-2.827Z" transform="translate(-100.229 -427.921)" fill="#e36b0a"/><ellipse cx="18.219" cy="3.082" rx="18.219" ry="3.082" transform="translate(56.728 372.085)" fill="#e36b0a"/><path d="M228.594,774.953a5.294,5.294,0,0,0,1.736-2.622,2.327,2.327,0,0,0-1.216-2.667c-1.111-.43-2.3.345-3.208,1.126s-1.937,1.671-3.117,1.5a4.754,4.754,0,0,0,1.466-4.448,1.836,1.836,0,0,0-.41-.9c-.615-.666-1.736-.38-2.477.14-2.357,1.661-3,4.859-3.027,7.741a14.428,14.428,0,0,1-.045-3.187,3.284,3.284,0,0,0-1.2-2.822,3.577,3.577,0,0,0-1.826-.425,3.764,3.764,0,0,0-2.962.841,2.945,2.945,0,0,0,.115,3.638,11.5,11.5,0,0,0,3.067,2.457,6.825,6.825,0,0,1,2.192,2.087,1.972,1.972,0,0,1,.16.375h6.64A18.444,18.444,0,0,0,228.594,774.953Z" transform="translate(-146.111 -404.825)" fill="#e36b0a"/><path d="M632.309,264.664v55.309a5.539,5.539,0,0,1-5.549,5.549H620.8v-66.4h5.96a5.539,5.539,0,0,1,5.549,5.544Z" transform="translate(-350.483 -151.309)" fill="#c7cce1"/><path d="M632.887,259.225v66.192a5.588,5.588,0,0,1-1.086.105h-.911v-66.4h.911A5.585,5.585,0,0,1,632.887,259.225Z" transform="translate(-355.524 -151.309)" opacity="0.2"/><rect width="21.487" height="172.286" transform="translate(234.028 193.944)" fill="#dcdfed"/><rect width="34.172" height="4.799" transform="translate(226.452 384.625)" fill="#c7cce1"/><rect width="34.172" height="2.692" transform="translate(226.452 384.625)" opacity="0.1"/><rect width="21.487" height="3.403" transform="translate(234.028 362.823)" opacity="0.1"/><path d="M417.2,726.54h49.2a20.366,20.366,0,0,1,20.366,20.366v3.132H396.83v-3.132A20.366,20.366,0,0,1,417.2,726.54Z" transform="translate(-198.26 -363.012)" fill="#dcdfed"/><rect width="21.487" height="20.666" transform="translate(234.028 217.663)" opacity="0.1"/><rect width="21.487" height="20.666" transform="translate(234.028 216.257)" opacity="0.1"/><rect width="25.715" height="20.666" transform="translate(232.037 216.957)" fill="#dcdfed"/><path d="M569.805,397.286v8.577a8.046,8.046,0,0,1-8.046,8.046H533.236a8.046,8.046,0,0,1-8.046-8.046v-8.577a8.041,8.041,0,0,1,8.046-8.036h28.523A8.041,8.041,0,0,1,569.805,397.286Z" transform="translate(-302.716 -216.323)" fill="#c7cce1"/><path d="M569.79,397.286v.876a28.067,28.067,0,0,1-44.63,0v-.876a8.041,8.041,0,0,1,8.046-8.036h28.523a8.041,8.041,0,0,1,8.061,8.036Z" transform="translate(-302.701 -216.323)" opacity="0.1"/><path d="M435.347,202h51.6a2.267,2.267,0,0,1,2.267,2.267v64.551a24.324,24.324,0,0,1-24.324,24.324H457.4a24.324,24.324,0,0,1-24.324-24.324V204.267A2.267,2.267,0,0,1,435.347,202Z" transform="translate(-216.37 -100.95)" fill="#c7cce1"/><path d="M448.047,135.365h32.526A8.637,8.637,0,0,1,489.21,144v24.745a3.112,3.112,0,0,1-3.112,3.112H442.522a3.112,3.112,0,0,1-3.112-3.112V144a8.637,8.637,0,0,1,8.637-8.637Z" transform="translate(-219.533 -67.656)" fill="#c7cce1"/><rect width="38.986" height="2.582" transform="translate(225.752 93.309)" opacity="0.2"/><rect width="44.62" height="32.381" transform="translate(222.464 109.337)" opacity="0.1"/><rect width="44.62" height="32.381" transform="translate(222.464 108.631)" fill="#e36b0a"/><g transform="translate(222.714 146.561)" opacity="0.1"><rect width="10.038" height="3.583" rx="0.79"/><rect width="10.038" height="3.583" rx="0.79" transform="translate(11.359)"/><rect width="10.038" height="3.583" rx="0.79" transform="translate(22.718)"/><rect width="10.038" height="3.583" rx="0.79" transform="translate(34.082)"/><rect width="10.038" height="3.583" rx="0.79" transform="translate(0 7.016)"/><rect width="10.038" height="3.583" rx="0.79" transform="translate(11.359 7.016)"/><rect width="10.038" height="3.583" rx="0.79" transform="translate(22.718 7.016)"/><rect width="10.038" height="3.583" rx="0.79" transform="translate(0 13.856)"/><rect width="10.038" height="3.583" rx="0.79" transform="translate(11.359 13.856)"/><rect width="10.038" height="3.583" rx="0.79" transform="translate(22.718 13.856)"/><rect width="10.038" height="3.583" rx="0.79" transform="translate(0 21.402)"/><rect width="10.038" height="3.583" rx="0.79" transform="translate(11.359 21.402)"/><rect width="10.038" height="3.583" rx="0.79" transform="translate(22.718 21.402)"/><rect width="10.038" height="3.583" rx="0.79" transform="translate(34.082 7.016)"/><rect width="8.897" height="12.77" rx="1.97" transform="translate(34.697 13.471)"/></g><rect width="10.038" height="3.583" rx="0.79" transform="translate(222.714 145.856)" fill="#f2f3f3"/><rect width="10.038" height="3.583" rx="0.79" transform="translate(234.073 145.856)" fill="#f2f3f3"/><rect width="10.038" height="3.583" rx="0.79" transform="translate(245.432 145.856)" fill="#f2f3f3"/><rect width="10.038" height="3.583" rx="0.79" transform="translate(256.796 145.856)" fill="#d44f6a"/><rect width="10.038" height="3.583" rx="0.79" transform="translate(222.714 152.871)" fill="#f2f3f3"/><rect width="10.038" height="3.583" rx="0.79" transform="translate(234.073 152.871)" fill="#f2f3f3"/><rect width="10.038" height="3.583" rx="0.79" transform="translate(245.432 152.871)" fill="#f2f3f3"/><rect width="10.038" height="3.583" rx="0.79" transform="translate(222.714 159.712)" fill="#f2f3f3"/><rect width="10.038" height="3.583" rx="0.79" transform="translate(234.073 159.712)" fill="#f2f3f3"/><rect width="10.038" height="3.583" rx="0.79" transform="translate(245.432 159.712)" fill="#f2f3f3"/><rect width="10.038" height="3.583" rx="0.79" transform="translate(222.714 167.258)" fill="#f2f3f3"/><rect width="10.038" height="3.583" rx="0.79" transform="translate(234.073 167.258)" fill="#f2f3f3"/><rect width="10.038" height="3.583" rx="0.79" transform="translate(245.432 167.258)" fill="#f2f3f3"/><rect width="10.038" height="3.583" rx="0.79" transform="translate(256.796 152.871)" fill="#fecb42"/><rect width="8.897" height="12.77" rx="1.97" transform="translate(257.412 159.331)" fill="#97d25e"/><path d="M442.22,351" transform="translate(-261.264 -197.213)" fill="none"/><rect width="4.809" height="0.575" transform="translate(244.712 137.079)" fill="#c7cce1"/><rect width="4.809" height="0.575" transform="translate(251.447 137.079)" fill="#c7cce1"/><rect width="4.809" height="0.575" transform="translate(258.183 137.079)" fill="#c7cce1"/></g></svg>