<svg xmlns="http://www.w3.org/2000/svg" xmlns:xlink="http://www.w3.org/1999/xlink" width="451.705" height="303.81" viewBox="0 0 451.705 303.81"><defs><linearGradient id="a" x1="0.081" y1="1" x2="0.081" gradientUnits="objectBoundingBox"><stop offset="0" stop-color="gray" stop-opacity="0.251"/><stop offset="0.54" stop-color="gray" stop-opacity="0.122"/><stop offset="1" stop-color="gray" stop-opacity="0.102"/></linearGradient></defs><ellipse cx="55.985" cy="3.943" rx="55.985" ry="3.943" transform="translate(248.325 295.924)" fill="#e36b0a" opacity="0.1"/><path d="M478.855,243.744A105.686,105.686,0,0,1,356.44,348.034H188.994a143.543,143.543,0,0,1-19.516,1.333q-7.03,0-13.89-.67A142.334,142.334,0,1,1,304.915,163.2a105.618,105.618,0,0,1,173.94,80.547Z" transform="translate(-27.15 -64.71)" fill="#e36b0a" opacity="0.1"/><path d="M448.44,535.1A105.785,105.785,0,0,1,366.6,556.178H199.152a143.529,143.529,0,0,1-19.516,1.333q-7.03,0-13.89-.67A142.4,142.4,0,0,1,43.92,458.192c13.634-29.132,48.66-49.862,89.726-49.862,40.017,0,74.318,19.689,88.634,47.654a119,119,0,0,1,21.365-1.92c41.476,0,76.79,21.16,90.124,50.73a116.557,116.557,0,0,1,34.068-5.011C401.664,499.8,431.4,513.862,448.44,535.1Z" transform="translate(-37.308 -272.854)" fill="#e36b0a" opacity="0.1"/><path d="M260.773,678.578c0,10.1-3.876,15.585-10.223,18.558a141.567,141.567,0,0,1-66.63-24.279,38.274,38.274,0,0,1,2.89-9.955l18.053,5.614-16.078-9.462a38.687,38.687,0,0,1,8.22-9.833l30.33,9.431L203.574,644.7a38.638,38.638,0,0,1,54.917,20.781l.083.237c.063.177.126.355.185.536q.319.942.587,1.9c.067.229.13.457.185.69s.114.442.166.662.095.394.134.576c.028.118.055.237.079.355.043.189.083.394.118.572.055.276.11.556.158.832s.1.576.142.863.095.639.134.962.071.576.1.863c0,.091.02.177.028.268.028.252.047.5.067.757a.824.824,0,0,1,0,.1q.036.473.059.946t.035.923a.67.67,0,0,1,0,.091C260.769,677.928,260.773,678.251,260.773,678.578Z" transform="translate(-122.112 -413.15)" fill="#e36b0a"/><path d="M294.428,716.619c0,10.1-3.876,15.585-10.223,18.558a141.313,141.313,0,0,1-44.725-11.922l.647-.43c2.921-1.936,5.941-3.915,9.379-4.573,3.024-.58,6.143-.091,9.214-.264a21.554,21.554,0,0,0,14.118-6.47c2.2-2.271,3.943-5.058,6.564-6.793a14.381,14.381,0,0,1,9.833-1.806,26.094,26.094,0,0,1,2.91.6l.083.237c.063.177.126.355.185.536q.319.942.587,1.9c.067.229.13.457.185.69s.114.442.166.662.095.394.134.576c.028.118.055.237.079.355.043.189.083.394.118.572.055.276.11.556.158.832s.1.576.142.863.095.639.134.962.071.576.1.863c0,.091.02.177.028.268.028.252.047.5.067.757a.843.843,0,0,1,0,.1q.035.473.059.946t.035.923a.661.661,0,0,1,0,.091C294.424,715.968,294.428,716.291,294.428,716.619Z" transform="translate(-155.767 -451.19)" opacity="0.1"/><path d="M935.374,736.689a14.591,14.591,0,0,1-.315,3.059c-.039.189-.083.375-.126.556-1.12,4.491-4.278,7.775-8.047,7.984h-.394c-3.986,0-7.357-3.438-8.469-8.173-.032-.126-.059-.252-.087-.394a14.583,14.583,0,0,1-.315-3.06c0-6.415,3.97-11.611,8.871-11.611S935.374,730.274,935.374,736.689Z" transform="translate(-566.542 -464.704)" fill="#3f3d56"/><path d="M935.4,736.719a14.582,14.582,0,0,1-.315,3.059c-.039.189-.083.375-.126.556h-.394a18.045,18.045,0,0,1-2.9-.394,17.711,17.711,0,0,1-2.586.591,18.093,18.093,0,0,1-2.027.189h-.686a18.307,18.307,0,0,1-2.43-.162,17.809,17.809,0,0,1-3.811-.946,17.95,17.95,0,0,1-2.058.552c-.032-.126-.059-.252-.087-.394a14.594,14.594,0,0,1-.315-3.059c0-6.415,3.97-11.611,8.871-11.611S935.4,730.3,935.4,736.719Z" transform="translate(-566.567 -464.734)" opacity="0.1"/><path d="M921.647,659.554a17.955,17.955,0,0,0-1.932-8.126l-10.432,3.245,9.159-5.382a18.022,18.022,0,0,0-13.547-7.724,18,18,0,0,0-1.408-1.861l-14.982,4.664,12.289-7.227a18.03,18.03,0,0,0-28.387,9.616l12.833,14.773L871.32,651.464a18.033,18.033,0,0,0,16.137,31.817A18.1,18.1,0,0,0,899,683.6a18.049,18.049,0,0,0,21.909-17.623c0-.394,0-.789-.039-1.183A17.985,17.985,0,0,0,921.647,659.554Z" transform="translate(-533.891 -409.198)" fill="#e36b0a"/><path d="M921.294,701.827a48.061,48.061,0,0,0-16.693-.213c-6.265,1.037-12.668,3.316-18.794,1.652-3.6-.978-6.7-3.241-10.215-4.5a19.39,19.39,0,0,0-10.547-.631A18.041,18.041,0,0,0,887.4,722.21a18.1,18.1,0,0,0,11.544.319,18.049,18.049,0,0,0,21.929-17.624c0-.394,0-.788-.039-1.183A17.837,17.837,0,0,0,921.294,701.827Z" transform="translate(-533.85 -448.128)" opacity="0.1"/><rect width="3.493" height="28.789" rx="1.747" transform="translate(278.723 98.731)" fill="#3a3768"/><rect width="1.959" height="9.478" rx="0.98" transform="translate(162.637 76.175)" fill="#3a3768"/><rect width="2.208" height="16.496" rx="1.104" transform="translate(162.566 93.53)" fill="#3a3768"/><rect width="2.101" height="16.638" rx="1.051" transform="translate(162.601 115.798)" fill="#3a3768"/><rect width="116.859" height="237.499" rx="38.99" transform="translate(163.748 44.855)" fill="#3f3d56"/><rect width="16.318" height="3.312" rx="1.656" transform="translate(210.906 51.948)" fill="#e6e8ec"/><ellipse cx="1.881" cy="1.881" rx="1.881" ry="1.881" transform="translate(229.689 51.723)" fill="#e6e8ec"/><path d="M553.918,194.17H540.553v1.613a7.641,7.641,0,0,1-7.641,7.641H490.261a7.641,7.641,0,0,1-7.641-7.641V194.17H470.067a9.277,9.277,0,0,0-9.277,9.281V410.016a9.277,9.277,0,0,0,9.277,9.281h83.851a9.281,9.281,0,0,0,9.281-9.281V203.451a9.281,9.281,0,0,0-9.281-9.281Z" transform="translate(-289.823 -143.129)" fill="#e36b0a"/><rect width="58.745" height="9.462" opacity="0.1" stroke="#e36b0a" stroke-miterlimit="10" stroke-width="1" transform="translate(175.261 88.105)"/><ellipse cx="12.616" cy="12.616" rx="12.616" ry="12.616" transform="translate(176.838 127.532)" stroke="#e36b0a" stroke-miterlimit="10" stroke-width="1" opacity="0.1"/><path d="M498.68,407.844v4.731h3.154l3.943,4.12V403.72l-3.943,4.124Z" transform="translate(-312.774 -270.062)" fill="#fff"/><ellipse cx="12.616" cy="12.616" rx="12.616" ry="12.616" transform="translate(210.35 127.532)" stroke="#e36b0a" stroke-miterlimit="10" stroke-width="1" opacity="0.1"/><path d="M583.563,412.727a1.506,1.506,0,1,0,1.5,1.506A1.506,1.506,0,0,0,583.563,412.727Zm-4.416-13.547a1.506,1.506,0,1,0,1.494,1.506A1.506,1.506,0,0,0,579.148,399.18Zm0,4.518a1.506,1.506,0,1,0,1.494,1.5A1.506,1.506,0,0,0,579.148,403.7Zm0,4.514a1.506,1.506,0,1,0,1.494,1.506A1.506,1.506,0,0,0,579.148,408.212Zm8.831-6.02a1.506,1.506,0,1,0-1.5-1.506,1.506,1.506,0,0,0,1.5,1.506Zm-4.416,6.02a1.506,1.506,0,1,0,1.5,1.506A1.506,1.506,0,0,0,583.563,408.212Zm4.416,0a1.506,1.506,0,1,0,1.5,1.506A1.506,1.506,0,0,0,587.979,408.212Zm0-4.514a1.506,1.506,0,1,0,1.5,1.5,1.506,1.506,0,0,0-1.5-1.5Zm-4.416,0a1.506,1.506,0,1,0,1.5,1.5,1.506,1.506,0,0,0-1.5-1.5Zm0-4.518a1.506,1.506,0,1,0,1.5,1.506A1.506,1.506,0,0,0,583.563,399.18Z" transform="translate(-360.597 -267.312)" fill="#fff"/><g transform="translate(176.838 165.381)" opacity="0.4"><ellipse cx="12.616" cy="12.616" rx="12.616" ry="12.616" stroke="#e36b0a" stroke-miterlimit="10" stroke-width="1" opacity="0.1"/><path d="M504.508,507.882h-5.125v5.125h-1.577v-5.125H492.68v-1.577h5.125V501.18h1.577v5.125h5.125Z" transform="translate(-485.978 -494.478)" fill="#fff"/></g><ellipse cx="12.616" cy="12.616" rx="12.616" ry="12.616" transform="translate(243.862 127.532)" stroke="#e36b0a" stroke-miterlimit="10" stroke-width="1" opacity="0.1"/><path d="M666.776,400.67a7.191,7.191,0,0,0-7.1,7.286v5.666a2.4,2.4,0,0,0,2.366,2.429h2.366v-6.509h-3.154v-1.577a5.52,5.52,0,0,1,11.039,0v1.577h-3.154v6.505h2.366a2.393,2.393,0,0,0,2.366-2.429v-5.662a7.191,7.191,0,0,0-7.1-7.286Z" transform="translate(-410.297 -268.214)" fill="#fff"/><g transform="translate(210.35 165.381)" opacity="0.4"><ellipse cx="12.616" cy="12.616" rx="12.616" ry="12.616" stroke="#e36b0a" stroke-miterlimit="10" stroke-width="1" opacity="0.1"/><path d="M584.685,506.523v-3.154a.911.911,0,0,0-.923-.9H572.589a.911.911,0,0,0-.919.9v8.993a.915.915,0,0,0,.919.9h11.169a.915.915,0,0,0,.923-.9v-3.154l3.548,3.6v-9.876Z" transform="translate(-567.337 -495.259)" fill="#fff"/></g><ellipse cx="12.616" cy="12.616" rx="12.616" ry="12.616" transform="translate(243.862 165.381)" stroke="#e36b0a" stroke-miterlimit="10" stroke-width="1" opacity="0.1"/><path d="M664.336,511.7a4.51,4.51,0,0,1-4.451,0,5.265,5.265,0,0,0-3.205,3.844h10.862A5.257,5.257,0,0,0,664.336,511.7Zm-2.224-8.28a3.915,3.915,0,1,0,3.911,3.911A3.915,3.915,0,0,0,662.113,503.42Zm0,6.892a3.02,3.02,0,0,1-2.736-1.869h5.468a3.02,3.02,0,0,1-2.732,1.873Z" transform="translate(-408.481 -330.454)" fill="#fff"/><path d="M679.45,510h5.819a4.842,4.842,0,0,0-3.205-3.548,4.522,4.522,0,0,1-2.228.588,4.436,4.436,0,0,1-1.538-.26,5.308,5.308,0,0,1-1.033,1.293A5.036,5.036,0,0,1,679.45,510Zm-.591-6.8h3.714a3.02,3.02,0,0,1-2.736,1.861,2.861,2.861,0,0,1-.938-.166,4.733,4.733,0,0,1-.24.926,3.914,3.914,0,1,0-2.117-5.831,4.83,4.83,0,0,1,2.318,3.209Z" transform="translate(-420.511 -327.28)" fill="#fff"/><ellipse cx="12.616" cy="12.616" rx="12.616" ry="12.616" transform="translate(210.35 215.846)" fill="#ff6f61"/><path d="M571.281,641.6a9.31,9.31,0,0,1,2.33-1.609.737.737,0,0,0,.438-.686l.067-2.452a11.851,11.851,0,0,1,7.357.2l-.067,2.452a.816.816,0,0,0,.394.71,8.633,8.633,0,0,1,2.295,1.735.788.788,0,0,0,1.116.031l2-1.9a.789.789,0,0,0,.031-1.112,13.4,13.4,0,0,0-18.952-.513.789.789,0,0,0-.028,1.116l1.9,2a.789.789,0,0,0,1.116.028Z" transform="translate(-354.793 -410.024)" fill="#fff"/><ellipse cx="9.857" cy="9.857" rx="9.857" ry="9.857" transform="translate(248.199 86.134)" stroke="#e36b0a" stroke-miterlimit="10" stroke-width="1" opacity="0.1"/><path d="M675.56,301.069a4.518,4.518,0,0,1-4.455,0,5.264,5.264,0,0,0-3.205,3.848h10.866A5.265,5.265,0,0,0,675.56,301.069Zm-2.228-8.279a3.915,3.915,0,1,0,3.911,3.915,3.915,3.915,0,0,0-3.911-3.915Zm0,6.9a3.028,3.028,0,0,1-2.736-1.869h5.472a3.036,3.036,0,0,1-2.736,1.873Z" transform="translate(-415.277 -202.867)" fill="#fff"/><path d="M399.577,124.9a2.266,2.266,0,0,0-2.791.832,6.921,6.921,0,0,0-.966,3.008c-.351,2.33-.607,5.007.966,6.766A22,22,0,0,0,378.65,120.87" transform="translate(-240.067 -98.728)" fill="none" stroke="#e36b0a" stroke-miterlimit="10" stroke-width="3" opacity="0.1"/><path d="M815.1,453.346a1.472,1.472,0,0,0-1.794.536,4.27,4.27,0,0,0-.623,1.932c-.225,1.5-.394,3.221.623,4.337a14.138,14.138,0,0,0-11.65-9.411" transform="translate(-496.301 -298.543)" fill="none" stroke="#e36b0a" stroke-miterlimit="10" stroke-width="3" opacity="0.1"/><path d="M305.6,324.072a1.477,1.477,0,0,0-1.794.536,4.269,4.269,0,0,0-.623,1.936c-.225,1.5-.394,3.217.623,4.337a14.146,14.146,0,0,0-11.65-9.411" transform="translate(-187.677 -220.24)" fill="none" stroke="#e36b0a" stroke-miterlimit="10" stroke-width="3" opacity="0.1"/><path d="M723.659,605.766a4.39,4.39,0,0,0,1.849,1.609,87.8,87.8,0,0,0,15.6,7.022,1.041,1.041,0,0,0,1.514-.587,7.441,7.441,0,0,0,1.143-4.144,2.31,2.31,0,0,0,1.037-1.388,6.9,6.9,0,0,1,.962-1.971,8.115,8.115,0,0,0,1.747-3.58,6.175,6.175,0,0,1,.138-1.435,5.185,5.185,0,0,1,1.183-1.53,7.789,7.789,0,0,0,1.258-2.8c1.23-4.112,2.46-8.224,3.485-12.4.331-1.352.639-2.708,1.092-4.021.394-1.151.9-2.255,1.4-3.359a89.209,89.209,0,0,1,6.233-11.56,30.94,30.94,0,0,0,1.337,3.643c.268.611.556,1.214.828,1.825,1.029,2.3.844,5.259,2.109,7.424q.789,1.332,1.553,2.661a5.356,5.356,0,0,1,.666,1.408c.083.347.091.71.15,1.061.268,1.577,1.549,2.689,2.259,4.1a22.308,22.308,0,0,1,1.183,4.175c.934,3.272,3.229,6.115,3.462,9.525a24.611,24.611,0,0,1-.067,2.76,23.4,23.4,0,0,0,.319,4.8,1.847,1.847,0,0,0,.126.465,13.933,13.933,0,0,1-8.674,5.859,2.432,2.432,0,0,0-1.79.891,1.664,1.664,0,0,0,.789,2.137,4.127,4.127,0,0,0,2.366.284,85.9,85.9,0,0,0,16.7-3.083,1.423,1.423,0,0,0,.725-.394,1.463,1.463,0,0,0,.24-.982,8.28,8.28,0,0,0-.867-3.671l.394-.138c.221-1.577-.591-3.1-1.222-4.566-1.1-2.551-1.7-5.307-2.563-7.96-1.672-5.125-4.372-9.908-5.023-15.27-.177-1.475-.619-2.973-.714-4.455a57.651,57.651,0,0,0-1.053-9c-.552-2.421-1.423-4.731-1.971-7.179a13.613,13.613,0,0,1,.079-7.365c.229-.67.536-1.3.745-1.971.789-2.606.035-5.429-.729-8.047q-.363-1.242-.718-2.476c-.319-1.084-.635-2.172-.982-3.249.047-.043.091-.087.138-.138.694-.789.686-1.995,1.183-2.937.244-.485.615-.883.875-1.356a4.967,4.967,0,0,0,.359-3.288c-.209-1.1-.627-2.153-.942-3.229a17.553,17.553,0,0,1-.189-9.068,20.252,20.252,0,0,0,.856-3.836,11.188,11.188,0,0,0-.241-2.614c-.611-3.312-1.81-6.671-4.242-8.859-1.3-1.183-3.052-2.22-3.19-4.018a1.006,1.006,0,0,0-.654-.024,7.04,7.04,0,0,1-.221-1.25h.02a1.613,1.613,0,0,0,.363,0,.722.722,0,0,0,.292-.083.831.831,0,0,0,.142-.106,2.57,2.57,0,0,0,.394-.524c.162-.268.307-.556.43-.753s.319-.513.473-.789q.69-1.183,1.281-2.4v-.032c.039-.075.075-.154.11-.229l.047-.106.071-.162c0-.039.036-.083.051-.122s.043-.1.063-.15l.055-.13c.02-.047.036-.095.055-.146a1.362,1.362,0,0,0,.051-.134c.02-.047.035-.095.051-.142s.032-.091.051-.138.028-.095.043-.142l.047-.142a.454.454,0,0,1,.039-.138l.039-.146.035-.138.036-.15a.242.242,0,0,1,.028-.134c.028-.047,0-.1.028-.154s0-.087,0-.13l.024-.154v-1.222a3.127,3.127,0,0,0-.091-.457,4.7,4.7,0,0,0-1.546-2.338,9.679,9.679,0,0,0-2.366-1.423,1.727,1.727,0,0,1-.56-.351,4.386,4.386,0,0,1-.469-.883,2.542,2.542,0,0,0-1.691-1.041,4.978,4.978,0,0,1-1.892-.678.5.5,0,0,0-.166-.095.43.43,0,0,0-.24.051l-1.518.674a.722.722,0,0,0-.836-.6,2.022,2.022,0,0,0-.982.564.367.367,0,0,1-.091-.363l-1.183.789c-.146.095-.414.118-.394-.063a12.329,12.329,0,0,0-1.7,2.366,5.074,5.074,0,0,0-.371.816h0a.751.751,0,0,1-.051.177.115.115,0,0,0,0,.035,1.3,1.3,0,0,1-.032.162.2.2,0,0,0,0,.047v.205h0a2.181,2.181,0,0,0,0,.229,1.258,1.258,0,0,0,.682,1.049,1.214,1.214,0,0,0,.473.075,6.1,6.1,0,0,0,1-.2,2.314,2.314,0,0,1,.323-.055,1.011,1.011,0,0,1,.154,0,.871.871,0,0,1,.568.193l.024.024a6.635,6.635,0,0,0-2.76,5.437,6.837,6.837,0,0,0,.694,3.012.958.958,0,0,0-.493.891,3.027,3.027,0,0,1-.162-.938c-.647-.13-1.116.627-1.348,1.277a31.749,31.749,0,0,0-1.108,4.5c-.2,1.013-.394,2.027-.6,3.04s-.394,2.1-.544,3.154a24.049,24.049,0,0,0,.367,8.2c-.039.087-.075.177-.11.264-.118.315-.453.583-.493.919-.213,2.007,1.057,3.816,2.255,5.39a1.183,1.183,0,0,0,.394.394,1.065,1.065,0,0,0,.556.071,14.215,14.215,0,0,0,1.427-.142c.028.268.059.532.091.789a71.258,71.258,0,0,1,.915,8.512c0,2.851-.544,5.74.548,8.28.181.434.532.788.568,1.238h.067a25.732,25.732,0,0,0-1.632,4.234c-.434,1.711-.524,3.509-1.009,5.2-.414,1.439-1.1,2.76-1.66,4.163a22.868,22.868,0,0,0-1.577,7.14,8.921,8.921,0,0,1-.67,3.276,33.342,33.342,0,0,0-1.672,3.852c-.789,2.342-2.117,4.562-2.366,7.042-.138,1.4.063,2.9-.524,4.171-.229.5-.568.926-.836,1.4a11.275,11.275,0,0,0-.911,2.366l-3.9,12.944a4.227,4.227,0,0,1-.954,1.92c-.363.347-.84.536-1.183.9a3.079,3.079,0,0,0-.694,2.216,4.65,4.65,0,0,0-1.206.394,13.291,13.291,0,0,1-10.444,0,2.4,2.4,0,0,0-1.971-.284A1.68,1.68,0,0,0,723.659,605.766Zm31.1-98.045a8.5,8.5,0,0,1,1.293-2.992c.883-1.455,1.814-2.894,2.657-4.38l.24-.233c.067.189.13.394.189.572a13.742,13.742,0,0,1,.351,1.538,7.408,7.408,0,0,1,.11,1.971l-.055.043a2.1,2.1,0,0,0-.745.832,1.676,1.676,0,0,0,0,1.041l-.036.039.039-.028a4.373,4.373,0,0,1,.311,1.656,5.049,5.049,0,0,1-.962,1.723c-.789,1.376-.536,3.466-1.833,4.309l-.024.055h0a1.869,1.869,0,0,1-1.273-1.049h0C755.121,511.136,754.49,509.409,754.754,507.722Z" transform="translate(-448.918 -317.574)" fill="url(#a)"/><path d="M851.34,807.541a1.368,1.368,0,0,1-.248.966,1.533,1.533,0,0,1-.757.394,94.075,94.075,0,0,1-17.4,3.044,4.582,4.582,0,0,1-2.48-.28,1.6,1.6,0,0,1-.789-2.109,2.608,2.608,0,0,1,1.865-.879,14.587,14.587,0,0,0,9.131-5.914,4.232,4.232,0,0,1,.994-1.151,3.5,3.5,0,0,1,2.657-.217,19.854,19.854,0,0,1,5.094,1.479C850.828,803.646,851.316,806.031,851.34,807.541Z" transform="translate(-513.159 -510.856)" fill="#3f3d56"/><path d="M851.34,807.541a1.368,1.368,0,0,1-.248.966,1.533,1.533,0,0,1-.757.394,94.075,94.075,0,0,1-17.4,3.044,4.582,4.582,0,0,1-2.48-.28,1.6,1.6,0,0,1-.789-2.109,2.608,2.608,0,0,1,1.865-.879,14.587,14.587,0,0,0,9.131-5.914,4.232,4.232,0,0,1,.994-1.151,3.5,3.5,0,0,1,2.657-.217,19.854,19.854,0,0,1,5.094,1.479C850.828,803.646,851.316,806.031,851.34,807.541Z" transform="translate(-513.159 -510.856)" opacity="0.1"/><path d="M737.989,800.458a1.4,1.4,0,0,1-.737.678,1.51,1.51,0,0,1-.84-.1,94.163,94.163,0,0,1-16.251-6.927,4.548,4.548,0,0,1-1.928-1.577,1.617,1.617,0,0,1,.473-2.208,2.549,2.549,0,0,1,2.042.28,14.548,14.548,0,0,0,10.882,0,4.213,4.213,0,0,1,1.463-.426,3.568,3.568,0,0,1,2.366,1.266,19.84,19.84,0,0,1,3.466,4.014C739.7,796.878,738.789,799.176,737.989,800.458Z" transform="translate(-445.624 -504.155)" fill="#3f3d56"/><path d="M737.989,800.458a1.4,1.4,0,0,1-.737.678,1.51,1.51,0,0,1-.84-.1,94.163,94.163,0,0,1-16.251-6.927,4.548,4.548,0,0,1-1.928-1.577,1.617,1.617,0,0,1,.473-2.208,2.549,2.549,0,0,1,2.042.28,14.548,14.548,0,0,0,10.882,0,4.213,4.213,0,0,1,1.463-.426,3.568,3.568,0,0,1,2.366,1.266,19.84,19.84,0,0,1,3.466,4.014C739.7,796.878,738.789,799.176,737.989,800.458Z" transform="translate(-445.624 -504.155)" opacity="0.1"/><path d="M790.029,624.693c.587,1.577,1.08,3.154,1.577,4.731l.749,2.444c.789,2.582,1.577,5.366.761,7.94-.217.666-.536,1.293-.789,1.971a12.879,12.879,0,0,0-.083,7.27c.56,2.393,1.467,4.692,2.042,7.1a52.959,52.959,0,0,1,1.1,8.875c.1,1.463.556,2.941.745,4.4.678,5.287,3.489,10.026,5.232,15.065.9,2.614,1.526,5.33,2.673,7.85.654,1.443,1.5,2.937,1.273,4.5a12.34,12.34,0,0,1-9.778-.442,1,1,0,0,1-.662-.919,21.76,21.76,0,0,1-.315-4.731,23.081,23.081,0,0,0,.067-2.713c-.241-3.363-2.634-6.166-3.6-9.4a20.453,20.453,0,0,0-1.254-4.116c-.741-1.388-2.074-2.5-2.366-4.041-.063-.347-.071-.7-.154-1.045a5.238,5.238,0,0,0-.7-1.392l-1.609-2.638c-1.321-2.137-1.128-5.054-2.2-7.325-.284-.6-.587-1.183-.867-1.8a30.112,30.112,0,0,1-1.392-3.6,86.035,86.035,0,0,0-6.505,11.39,35.377,35.377,0,0,0-1.459,3.316c-.473,1.293-.789,2.634-1.139,3.966-1.065,4.12-2.366,8.177-3.631,12.222a7.618,7.618,0,0,1-1.309,2.76,5.159,5.159,0,0,0-1.23,1.51,5.8,5.8,0,0,0-.142,1.411,7.988,7.988,0,0,1-1.822,3.548,6.66,6.66,0,0,0-1,1.971,2.31,2.31,0,0,1-3.154,1.478h-.032a6.937,6.937,0,0,1-.9-.536,16.6,16.6,0,0,1-2.117-1.577,12.225,12.225,0,0,1-1.577-1.861.9.9,0,0,1,.45-1.364h0c-.083-1.1-.107-2.346.682-3.1.367-.355.863-.544,1.242-.883a4.1,4.1,0,0,0,.994-1.892q2.019-6.355,4.029-12.711a10.8,10.8,0,0,1,.95-2.342c.28-.465.631-.887.871-1.376.611-1.254.394-2.728.544-4.116.256-2.448,1.628-4.633,2.46-6.943a32.14,32.14,0,0,1,1.743-3.8,8.342,8.342,0,0,0,.7-3.229,21.561,21.561,0,0,1,1.64-7.045,42.925,42.925,0,0,0,1.727-4.108c.509-1.672.6-3.446,1.057-5.125a24.635,24.635,0,0,1,1.707-4.195,11.372,11.372,0,0,1,2.1-3.312,8.838,8.838,0,0,1,5.977-2.066C785.491,624.6,787.881,624.918,790.029,624.693Z" transform="translate(-467.615 -403.891)" fill="#3f3d56"/><path d="M809.642,531.384q4.164-2.46,8.236-5.078a5.232,5.232,0,0,1-1.029-3.024v-.13c-.039-1.061.363-1.971-.974-1.833a25.376,25.376,0,0,0-3.8.788,36.676,36.676,0,0,1-3.548,1.108A7.571,7.571,0,0,1,810.016,526a13.522,13.522,0,0,1,.367,1.518C810.651,528.873,810.663,530.466,809.642,531.384Z" transform="translate(-500.462 -341.287)" fill="#a0616a"/><path d="M801.513,554.891a66.469,66.469,0,0,1,.954,8.394c0,2.807-.568,5.665.572,8.181.189.426.552.757.591,1.222,1.577.272,3.115-.465,4.617-1a18.759,18.759,0,0,1,4.258-.954c1.183-.118,2.4-.126,3.572-.351a5.559,5.559,0,0,0,3.087-1.577c.721-.789.714-1.971,1.218-2.9.256-.477.643-.867.915-1.337a4.688,4.688,0,0,0,.371-3.245,32.936,32.936,0,0,0-.982-3.186,16.374,16.374,0,0,1-.2-8.942,19.88,19.88,0,0,0,.891-3.789,10.54,10.54,0,0,0-.248-2.578c-.639-3.264-1.888-6.58-4.42-8.737-1.352-1.155-3.182-2.192-3.324-3.943-.584-.229-1.21.162-1.711.532l-5.622,4.144a2.106,2.106,0,0,0-.789.824c-.351.84.457,1.762.327,2.669-.095.658-.654,1.135-1,1.7-.828,1.352-.56,3.414-1.912,4.246-.122.252-.236.512-.339.788a19.173,19.173,0,0,0-.966,4.258A22.156,22.156,0,0,0,801.513,554.891Z" transform="translate(-496.06 -346.607)" fill="#3f3d56"/><path d="M808.57,522.867a7.568,7.568,0,0,1,1.486,2.783,6.231,6.231,0,0,0,1.364.15c2.295,0,3.832-2.63,4.972-4.435-.035-1.061.844-.532-.493-.394a25.377,25.377,0,0,0-3.8.789C811.748,521.849,808.672,522.981,808.57,522.867Z" transform="translate(-500.486 -340.931)" opacity="0.1"/><ellipse cx="6.45" cy="6.45" rx="6.45" ry="6.45" transform="translate(304.484 171.429)" fill="#a0616a"/><rect width="4.838" height="9.407" rx="2.419" transform="translate(308.376 185.051) rotate(-132.39)" fill="#3f3d56"/><rect width="4.838" height="9.407" rx="2.419" transform="translate(308.376 185.051) rotate(-132.39)" opacity="0.1"/><ellipse cx="0.536" cy="0.536" rx="0.536" ry="0.536" transform="translate(310.8 178.553)" fill="#fff"/><path d="M801.515,562.633c4.976-.733,9.494-3.722,12.951-7.428a5.889,5.889,0,0,0,1.463-2.188,6.607,6.607,0,0,0,.177-2.125l-.083-2.847a7.849,7.849,0,0,0-.69-3.627A2.686,2.686,0,0,0,812.227,543c-3.048,1.183-5.031,3.887-6.773,6.655a28.345,28.345,0,0,1-1.628,2.5,1.452,1.452,0,0,1-1.183.706.892.892,0,0,1-.3-.079,19.178,19.178,0,0,0-.966,4.258,22.154,22.154,0,0,0,.134,5.591Z" transform="translate(-496.061 -354.349)" opacity="0.1"/><path d="M793.975,531.862a8.178,8.178,0,0,1,1.348-2.957c1.928-3.016,4.1-5.961,5.125-9.4-1.5.272-1.739,2.858-3.261,2.973l.118-1.865c0-.315,0-.7-.256-.863s-.714.051-.883.363-.205.69-.363,1.009-.528.6-.856.461l-.134-.619a.946.946,0,0,0-1.139.962,2.855,2.855,0,0,1-.17-.927c-.674-.126-1.163.619-1.4,1.262a29.938,29.938,0,0,0-1.159,4.435l-.619,3c-.217,1.037-.43,2.074-.572,3.119a22.59,22.59,0,0,0,.434,8.311,26.835,26.835,0,0,0,2.4-1.5,4.2,4.2,0,0,0,1.486-1.845C794.63,535.844,793.648,533.814,793.975,531.862Z" transform="translate(-488.967 -340.2)" fill="#a0616a"/><path d="M805.02,540.959a2.686,2.686,0,0,1,3.107,1.419,7.809,7.809,0,0,1,.69,3.627l.079,2.854a6.51,6.51,0,0,1-.174,2.125,5.961,5.961,0,0,1-1.459,2.188c-3.824,4.1-8.938,7.31-14.536,7.582a1.158,1.158,0,0,1-.58-.071,1.261,1.261,0,0,1-.394-.394c-1.25-1.553-2.571-3.339-2.366-5.319.035-.331.394-.6.513-.907a8,8,0,0,1,3.876-4.1l.339-.158a1.971,1.971,0,0,0,1.329,1.041,1.49,1.49,0,0,0,1.183-.706,28.427,28.427,0,0,0,1.628-2.508C799.989,544.838,801.976,542.145,805.02,540.959Z" transform="translate(-488.854 -353.113)" fill="#3f3d56"/><path d="M809.93,502.492c-.548-.284-.635-1.013-.69-1.628a16.136,16.136,0,0,0-.327-2.129,2.99,2.99,0,0,0-1.12-2.019,1.636,1.636,0,0,0-2.488,1.218.556.556,0,0,1-.11.367.394.394,0,0,1-.189.1,1.274,1.274,0,0,1-1.494-.844c-.114-.394-.028-.9-.307-1.226s-.611-.315-.883-.528a1.534,1.534,0,0,1-.445-1.262c0-.587.079-1.289-.394-1.652-.714-.556-1.786.327-2.626,0a1.289,1.289,0,0,1-.721-1.258,3.122,3.122,0,0,1,.513-1.443,12.111,12.111,0,0,1,1.77-2.33c0,.173.272.154.422.059l1.246-.757a.335.335,0,0,0,.1.359,2.141,2.141,0,0,1,1.021-.552.749.749,0,0,1,.871.587l1.577-.682a.327.327,0,0,1,.422.043,5.611,5.611,0,0,0,1.971.666,2.67,2.67,0,0,1,1.762,1.029,4.256,4.256,0,0,0,.493.867,1.841,1.841,0,0,0,.6.351,10.33,10.33,0,0,1,2.484,1.4,4.684,4.684,0,0,1,1.612,2.31,6.552,6.552,0,0,1-.9,4.57,29.28,29.28,0,0,1-1.829,3.134c-.252.394-.6,1.139-1.005,1.368A1.885,1.885,0,0,1,809.93,502.492Z" transform="translate(-494.163 -320.395)" fill="#3f3d56"/><path d="M798.886,497.389c.84.323,1.912-.56,2.626,0,.461.363.394,1.065.394,1.652a1.534,1.534,0,0,0,.446,1.262c.272.213.658.264.883.528s.193.816.308,1.226a1.273,1.273,0,0,0,1.494.844.394.394,0,0,0,.189-.1.556.556,0,0,0,.11-.367,1.636,1.636,0,0,1,2.488-1.218,3.025,3.025,0,0,1,1.12,2.019,16.138,16.138,0,0,1,.327,2.129c.055.615.142,1.344.69,1.628a1.884,1.884,0,0,0,1.348.118c.394-.229.753-.986,1.005-1.368a29.287,29.287,0,0,0,1.829-3.154,9.766,9.766,0,0,0,.97-2.681,6.934,6.934,0,0,1-.97,4.294,29.279,29.279,0,0,1-1.829,3.134c-.252.394-.6,1.139-1.005,1.368a1.884,1.884,0,0,1-1.348-.118c-.548-.284-.635-1.013-.69-1.628a16.136,16.136,0,0,0-.327-2.129,2.989,2.989,0,0,0-1.12-2.019,1.636,1.636,0,0,0-2.488,1.218.556.556,0,0,1-.11.367.4.4,0,0,1-.189.1,1.273,1.273,0,0,1-1.494-.844c-.114-.394-.028-.9-.308-1.226s-.611-.315-.883-.528a1.534,1.534,0,0,1-.446-1.262c0-.587.079-1.289-.394-1.652-.714-.556-1.786.327-2.626,0a1.289,1.289,0,0,1-.721-1.258,2.291,2.291,0,0,1,.2-.824A1.067,1.067,0,0,0,798.886,497.389Z" transform="translate(-494.181 -326.504)" opacity="0.1"/></svg>