<svg xmlns="http://www.w3.org/2000/svg" xmlns:xlink="http://www.w3.org/1999/xlink" width="458.967" height="347.025" viewBox="0 0 458.967 347.025"><defs><linearGradient id="a" x1="0.5" y1="1" x2="0.5" gradientUnits="objectBoundingBox"><stop offset="0" stop-color="gray" stop-opacity="0.251"/><stop offset="0.54" stop-color="gray" stop-opacity="0.122"/><stop offset="1" stop-color="gray" stop-opacity="0.102"/></linearGradient></defs><path d="M99.6,363.79c7,19.226,21.822,35.868,45.246,43.936,48.679,16.755,158.46,8.113,240.39-1.806,42.384-5.13,79.629-19.284,106.69-39.218Z" transform="translate(-78.31 -226.163)" fill="#e36b0a" opacity="0.1"/><path d="M545.137,116.72H500.2c-2.134,0-3.886-1.123-3.886-2.5s1.752-2.5,3.886-2.5h7.772c-2.139,0-3.886-1.123-3.886-2.5s1.747-2.5,3.886-2.5h-5.55c-2.139,0-3.886-1.123-3.886-2.5s1.747-2.5,3.886-2.5h23.457A89.478,89.478,0,0,0,507.576,98.5c-63.99-5.292-86.835-1.785-94.894,1.8a119.408,119.408,0,0,1-32.868,9.27C340.321,114.8,266.5,121.1,199.589,107.53c-33.255-6.736-57.973,4.647-72.789,23.674H552.947a31.985,31.985,0,0,0-5.28-15.107,5.263,5.263,0,0,1-2.53.624Z" transform="translate(-94.194 -69.669)" fill="#e36b0a" opacity="0.1"/><path d="M89.075,267.25a82.6,82.6,0,0,0,1.743,33.572l394.7,9.282a130.743,130.743,0,0,0,27.422-26.89ZM245.184,291.2h-7.755c2.134,0,3.882,1.128,3.882,2.5s-1.747,2.5-3.882,2.5H192.494c-2.139,0-3.886-1.123-3.886-2.5s1.747-2.5,3.886-2.5h7.768c-2.134,0-3.886-1.123-3.886-2.5s1.752-2.5,3.886-2.5h-5.583c-2.134,0-3.886-1.128-3.886-2.5s1.752-2.5,3.886-2.5h44.955c2.139,0,3.886,1.123,3.886,2.5s-1.747,2.5-3.886,2.5h5.55c2.139,0,3.886,1.123,3.886,2.5s-1.747,2.5-3.886,2.5Z" transform="translate(-71.601 -169.789)" fill="#e36b0a" opacity="0.1"/><path d="M531.807,181.35l-430.919,6.74A79.225,79.225,0,0,0,90.57,216.707H524.256a83.871,83.871,0,0,0,6.241-18.24A55.583,55.583,0,0,0,531.807,181.35ZM178.063,203.434h-7.772c2.139,0,3.886,1.128,3.886,2.5s-1.747,2.5-3.886,2.5H125.357c-2.139,0-3.886-1.123-3.886-2.5s1.747-2.5,3.886-2.5h7.772c-2.139,0-3.886-1.123-3.886-2.5s1.747-2.5,3.886-2.5h-5.571c-2.139,0-3.886-1.128-3.886-2.5s1.747-2.5,3.886-2.5h44.934c2.134,0,3.882,1.123,3.882,2.5s-1.747,2.5-3.882,2.5h5.55c2.134,0,3.882,1.123,3.882,2.5S180.2,203.434,178.063,203.434Z" transform="translate(-73.037 -119.628)" fill="#e36b0a" opacity="0.1"/><rect width="2.317" height="127.75" transform="translate(241.617 109.673)" fill="#535f89"/><path d="M629.253,627.527a6.045,6.045,0,0,1-7.418,0c-1.036-6.836,1.593-20.27,2.213-23.3l.129-.607h3a2.08,2.08,0,0,1,.462.695C629.669,608.7,629.253,627.527,629.253,627.527Z" transform="translate(-383.126 -366.21)" fill="#535f89"/><path d="M631.738,596.93v2.758H630.49V596.93a3.623,3.623,0,0,1,.607-.05A4.081,4.081,0,0,1,631.738,596.93Z" transform="translate(-388.32 -362.274)" opacity="0.1"/><path d="M631.067,604.362a3.536,3.536,0,0,1-1.714.416,3.391,3.391,0,0,1-1.843-.491l.129-.607h2.987A2.081,2.081,0,0,1,631.067,604.362Z" transform="translate(-386.58 -366.245)" opacity="0.1"/><ellipse cx="2.501" cy="1.485" rx="2.501" ry="1.485" transform="translate(240.273 235.081)" fill="#dce2ed"/><path d="M557.1,201.965l8.8-4.215,12.981,3.1-10.073-7.614Z" transform="translate(-325.315 -112.87)" fill="#e36b0a"/><path d="M559.675,209.643l-2.575-1.348,8.8-4.215,12.981,3.1-2.284,1.111-10.7-2.4Z" transform="translate(-325.315 -119.2)" fill="#e36b0a"/><path d="M559.675,209.643l-2.575-1.348,8.8-4.215,12.981,3.1-2.284,1.111-10.7-2.4Z" transform="translate(-325.315 -119.2)" opacity="0.1"/><path d="M562.45,209.88l7.085,19.854h3.512l6.561-21.086-10.58-2.459Z" transform="translate(-328.439 -120.432)" fill="#e36b0a" opacity="0.2"/><path d="M582.039,247.405l-1.4,4.5-.341,1.086h-3.512l-.262-.736-1.656-4.639,2.659-1.6Z" transform="translate(-335.691 -143.691)" fill="#e36b0a"/><path d="M569.518,208.44l1.677,22.609h-1.169l-6.736-18.86Z" transform="translate(-328.929 -121.746)" fill="#e36b0a" opacity="0.2"/><path d="M568.812,193.24l-2.908,4.51-8.8,4.215Z" transform="translate(-325.315 -112.87)" opacity="0.1"/><path d="M631.395,292.413l-.337,1.086h-3.516l-.262-.736a2.941,2.941,0,0,1,2.255-.832,3.375,3.375,0,0,1,1.86.483Z" transform="translate(-386.445 -184.197)" opacity="0.1"/><path d="M631.732,296.6v1.935H631.4a3.849,3.849,0,0,1-.924-.108V296.6Z" transform="translate(-388.314 -186.927)" opacity="0.1"/><ellipse cx="2.501" cy="1.485" rx="2.501" ry="1.485" transform="translate(240.585 108.187)" fill="#dce2ed"/><rect width="1.531" height="84.46" transform="translate(332.463 171.807)" fill="#535f89"/><path d="M847.589,664.72a3.994,3.994,0,0,1-4.9,0c-.687-4.518,1.053-13.405,1.46-15.394.054-.262.087-.416.087-.416h1.96a1.39,1.39,0,0,1,.308.458C847.859,652.276,847.589,664.72,847.589,664.72Z" transform="translate(-512.138 -392.656)" fill="#535f89"/><path d="M849.2,644.5v1.827h-.832V644.5a2.08,2.08,0,0,1,.416-.033A2.778,2.778,0,0,1,849.2,644.5Z" transform="translate(-515.549 -390.063)" opacity="0.1"/><path d="M848.775,649.34a2.374,2.374,0,0,1-1.136.266,2.288,2.288,0,0,1-1.219-.32c.054-.262.087-.416.087-.416h1.96A1.389,1.389,0,0,1,848.775,649.34Z" transform="translate(-514.411 -392.633)" opacity="0.1"/><ellipse cx="1.652" cy="0.982" rx="1.652" ry="0.982" transform="translate(331.577 254.718)" fill="#dce2ed"/><path d="M783.46,372.217l5.821-2.788,8.583,2.055L791.2,366.45Z" transform="translate(-457.496 -214.015)" fill="#e36b0a"/><path d="M785.162,377.288l-1.7-.89,5.821-2.788,8.583,2.055-1.51.732-7.073-1.585Z" transform="translate(-457.496 -218.196)" fill="#e36b0a"/><path d="M785.162,377.288l-1.7-.89,5.821-2.788,8.583,2.055-1.51.732-7.073-1.585Z" transform="translate(-457.496 -218.196)" opacity="0.1"/><path d="M786.99,377.448l4.685,13.127H794l4.335-13.938-6.994-1.627Z" transform="translate(-459.557 -219.014)" fill="#e36b0a" opacity="0.2"/><path d="M799.949,402.261l-.924,2.979-.225.72h-2.326l-.171-.487-1.094-3.066,1.756-1.057Z" transform="translate(-464.357 -234.395)" fill="#e36b0a"/><path d="M791.669,376.5l1.111,14.945H792l-4.452-12.469Z" transform="translate(-459.884 -219.884)" fill="#e36b0a" opacity="0.2"/><path d="M791.2,366.45l-1.922,2.979-5.821,2.788Z" transform="translate(-457.496 -214.015)" opacity="0.1"/><path d="M848.991,443.163l-.225.716h-2.322l-.175-.487a1.947,1.947,0,0,1,1.49-.558,2.23,2.23,0,0,1,1.231.329Z" transform="translate(-514.323 -272.318)" opacity="0.1"/><path d="M849.214,445.917v1.273H849a2.56,2.56,0,0,1-.607-.071V445.9Z" transform="translate(-515.561 -274.11)" opacity="0.1"/><ellipse cx="1.652" cy="0.982" rx="1.652" ry="0.982" transform="translate(331.785 170.825)" fill="#dce2ed"/><ellipse cx="185.145" cy="18.307" rx="185.145" ry="18.307" transform="translate(0 310.412)" fill="#e36b0a" opacity="0.1"/><path d="M274.51,319.118s-37.112-1.56-41.019-74.225,34.77-84.971,34.77-84.971,12.253-6.844,17.687-7.127,23.595,1.427,23.595,1.427l-20.021-3.861s28.171-10.722,36.613-11.579l-30.455,6.432s-.416-16.871,6.865-22.446c0,0-6.241-.466-9.532,11.687a23.216,23.216,0,0,1-13.9,15.6c-11.3,4.406-26.915,11.363-30.472,17.32,0,0-6.578,6.865-5.575-11.009s5.717-33.176,7.435-33.6c0,0,13.439-14.3,32.315-15.153,0,0-11.009-4.435-29.6,9.436,0,0-1.573-7.006,5.434-15.3s17.89-25.737,29.74-27.593c0,0-16.584-1-29.74,20.445,0,0-4.864,3.145-5.292-4.86s-3.287-18.019-3.287-18.019-4.007,18.448,4.431,26.74c0,0-16.16,21.019-15.444,44.614,0,0-4.993,10.722-6.861-1.86,0,0-1.078-17.329-3.229-32.036a43.528,43.528,0,0,1,9.128-33.58c3.574-4.448,6.062-8.766,4.681-11.034l-18.723,22.3s-15.748-36.451-27.185-44.3S184,33,184,33l18.444,21.589-23.162-8.18,23.162,10.722s10.726,8.737,16.875,32.6,6.719,38.747,6.719,38.747S193,102.315,186.714,103.172l21.373,16.168a50.913,50.913,0,0,1,20.091,37.166h0s-41.323-10.58-51.333-12.582L157.973,124.62l14.3,18.307-29.457-.416L125.945,130.5s13.314,11.154,12.007,11.87-20.732,1.573-20.732,1.573,49.473-.287,54.92,3.287,17.587,4.864,17.587,4.864l-35.032,5.288,41.755-3s31.6,5.717,33.314,15.585c0,0-6.436,16.792-10.722,23.449-3.561,5.534-10.726,23.449-12.153,39.18s-3.432,39.892,2,54.62,7.435,23.166,4.718,27.6-5.292,10.152,3.574,11.3,47.759-.57,47.759-.57S276.8,327.868,274.51,319.118Z" transform="translate(-88.599 -33)" fill="#dea3a2"/><path d="M400.311,699.079A18.681,18.681,0,0,0,387.7,697.5c-7.281,1.577-18.435.741-19.451.566" transform="translate(-235.187 -420.762)" opacity="0.1"/><path d="M388.622,496.14S386.85,524.091,390,529.6Z" transform="translate(-246.793 -303.447)" opacity="0.1"/><path d="M373.6,576.57s2.272,26.178,3.844,31.3S373.6,576.57,373.6,576.57Z" transform="translate(-238.311 -350.414)" opacity="0.1"/><path d="M358.034,421.86c-1.61.591-8.5,14.562-7.119,18.7S358.034,421.86,358.034,421.86Z" transform="translate(-224.958 -260.072)" opacity="0.1"/><path d="M405.476,387c-.745.337-3.953,8.388-3.328,10.768S405.476,387,405.476,387Z" transform="translate(-254.934 -239.716)" opacity="0.1"/><path d="M338.56,499.81c.8,8.117,1.248,13.43.724,19.929A76.846,76.846,0,0,0,339.5,534.9" transform="translate(-217.849 -305.59)" opacity="0.1"/><path d="M540.755,272.66a6.479,6.479,0,0,0-1.34,4.115c-.046,1.473.141,2.946.046,4.414-.1,1.544-.832,3.358-2.372,3.561" transform="translate(-333.78 -172.948)" opacity="0.1"/><path d="M462.784,156.35a37.173,37.173,0,0,0-5.176,6.424,15.317,15.317,0,0,1-1.469,2.08,25.406,25.406,0,0,1-2.837,2.326,13.356,13.356,0,0,0-4.523,7.073" transform="translate(-282.211 -105.029)" opacity="0.1"/><path d="M302.78,55.93a9.241,9.241,0,0,0,1.835,2.455c.649.616,1.39,1.14,1.976,1.814a14.376,14.376,0,0,1,1.248,1.864,49.4,49.4,0,0,0,5.288,6.657" transform="translate(-196.956 -46.39)" opacity="0.1"/><path d="M381.626,155.35c-1.248.77-1.552,2.417-1.527,3.869s.275,2.966-.262,4.315c-.245.616-.645,1.157-.9,1.764a8.163,8.163,0,0,0-.416,3.362c.021,1.315.062,2.634.121,3.948.067,1.581.216,3.3,1.294,4.464" transform="translate(-241.177 -104.445)" opacity="0.1"/><path d="M361.09,254a17.033,17.033,0,0,1,3.208,2.209,5.758,5.758,0,0,1,1.864,3.328c.071.553.033,1.119.158,1.664a5.25,5.25,0,0,0,1.094,2.01,27.638,27.638,0,0,0,2.709,3" transform="translate(-231.006 -162.051)" fill="none"/><path d="M364.383,336.515a19.533,19.533,0,0,0-2.588-1.8,10.75,10.75,0,0,0-2.659-1.169,28.441,28.441,0,0,0-4.394-.474,6.1,6.1,0,0,1-4-1.664" transform="translate(-224.962 -207.254)" opacity="0.1"/><path d="M243.79,300.26a11.775,11.775,0,0,1,5.093.907c.791.416,1.477.99,2.251,1.423a6.807,6.807,0,0,0,3.283.853" transform="translate(-162.509 -189.065)" opacity="0.1"/><path d="M295.236,317.332a.966.966,0,0,0-1.248.291c-.308.358-.478.832-.8,1.165a3.6,3.6,0,0,1-2.609.8" transform="translate(-189.832 -198.956)" opacity="0.1"/><path d="M325.68,228.69l1.664.878a29.575,29.575,0,0,1,4.939,3" transform="translate(-210.328 -147.272)" opacity="0.1"/><path d="M371.6,267.948c1.1-.262,2.047.911,2.243,2.022a32.276,32.276,0,0,0,.279,3.37,6.287,6.287,0,0,0,1.664,2.467" transform="translate(-237.143 -170.174)" opacity="0.1"/><path d="M413.929,272.89c1,2.987-1.119,6.241-.5,9.332.187.94.624,1.814.832,2.75a8.364,8.364,0,0,1-2.022,7.019" transform="translate(-260.874 -173.082)" opacity="0.1"/><rect width="2.892" height="159.466" transform="translate(90.384 75.573)" fill="#535f89"/><path d="M265.81,627.747a7.539,7.539,0,0,1-9.257,0c-1.29-8.533,1.989-25.3,2.763-29.066l.162-.761h3.7a2.741,2.741,0,0,1,.578.865C266.322,604.244,265.81,627.747,265.81,627.747Z" transform="translate(-169.788 -362.881)" fill="#535f89"/><path d="M268.88,589.552V593h-1.56v-3.449a4.518,4.518,0,0,1,.761-.058,4.988,4.988,0,0,1,.8.062Z" transform="translate(-176.249 -357.958)" opacity="0.1"/><path d="M268.053,598.785a4.427,4.427,0,0,1-2.139.5,4.269,4.269,0,0,1-2.3-.607l.162-.761h3.7a2.742,2.742,0,0,1,.578.865Z" transform="translate(-174.083 -362.881)" opacity="0.1"/><ellipse cx="3.12" cy="1.851" rx="3.12" ry="1.851" transform="translate(88.712 232.118)" fill="#dce2ed"/><path d="M187.74,104.682l10.992-5.263,16.205,3.873-12.577-9.5Z" transform="translate(-109.629 -54.797)" fill="#e36b0a"/><path d="M190.956,114.264l-3.216-1.681,10.992-5.263,16.205,3.873-2.854,1.39-13.351-3Z" transform="translate(-109.629 -62.698)" fill="#e36b0a"/><path d="M190.956,114.264l-3.216-1.681,10.992-5.263,16.205,3.873-2.854,1.39-13.351-3Z" transform="translate(-109.629 -62.698)" opacity="0.1"/><path d="M194.42,114.566l8.845,24.78h4.385l8.188-26.316-13.206-3.07Z" transform="translate(-113.53 -64.239)" fill="#e36b0a" opacity="0.2"/><path d="M218.879,161.407l-1.752,5.621-.42,1.356h-4.385l-.329-.919-2.064-5.787,3.316-2Z" transform="translate(-122.587 -93.273)" fill="#e36b0a"/><path d="M203.246,112.77l2.093,28.217h-1.46l-8.409-23.541Z" transform="translate(-114.143 -65.88)" fill="#e36b0a" opacity="0.2"/><path d="M202.36,93.79l-3.628,5.629-10.992,5.263Z" transform="translate(-109.629 -54.797)" opacity="0.1"/><path d="M268.464,209.4l-.416,1.356h-4.394l-.325-.919a3.656,3.656,0,0,1,2.813-1.057A4.24,4.24,0,0,1,268.464,209.4Z" transform="translate(-173.919 -135.643)" opacity="0.1"/><path d="M268.869,214.64v2.413c-.133,0-.27.021-.416.021a4.833,4.833,0,0,1-1.152-.137v-2.3Z" transform="translate(-176.238 -139.067)" opacity="0.1"/><ellipse cx="3.12" cy="1.851" rx="3.12" ry="1.851" transform="translate(89.099 73.721)" fill="#dce2ed"/><ellipse cx="6.998" cy="1.182" rx="6.998" ry="1.182" transform="translate(373.287 284.92)" fill="#e36b0a" opacity="0.1"/><path d="M951.16,704.412s3.99-.125,5.193-.982,6.141-1.876,6.436-.5,6,6.832,1.494,6.869-10.472-.7-11.67-1.435S951.16,704.412,951.16,704.412Z" transform="translate(-575.573 -423.807)" fill="#a8a8a8"/><path d="M964.391,712.339c-4.506.037-10.468-.7-11.65-1.435-.911-.558-1.277-2.555-1.4-3.474h-.133s.25,3.216,1.452,3.948,7.164,1.469,11.67,1.435c1.3,0,1.747-.474,1.727-1.161C965.855,712.073,965.36,712.331,964.391,712.339Z" transform="translate(-575.602 -426.829)" opacity="0.2"/><ellipse cx="5.384" cy="0.911" rx="5.384" ry="0.911" transform="translate(415.483 271.411)" fill="#e36b0a" opacity="0.1"/><path d="M1051.3,675.03s3.071-.1,4-.753,4.722-1.448,4.951-.391,4.618,5.259,1.148,5.284-8.055-.537-8.979-1.1S1051.3,675.03,1051.3,675.03Z" transform="translate(-634.049 -406.94)" fill="#a8a8a8"/><path d="M1061.46,681.128c-3.466.029-8.055-.541-8.978-1.1-.7-.416-.986-1.968-1.078-2.675h-.1s.2,2.476,1.119,3.037,5.513,1.132,8.979,1.1c1,0,1.348-.362,1.327-.89C1062.588,680.924,1062.2,681.124,1061.46,681.128Z" transform="translate(-634.049 -409.264)" opacity="0.2"/><ellipse cx="12.852" cy="2.172" rx="12.852" ry="2.172" transform="translate(383.584 327.691)" fill="#e36b0a" opacity="0.1"/><path d="M980.53,796s7.331-.229,9.54-1.8,11.279-3.453,11.828-.928,11.017,12.548,2.738,12.615-19.23-1.286-21.414-2.629S980.53,796,980.53,796Z" transform="translate(-592.723 -476.232)" fill="#a8a8a8"/><path d="M1004.786,810.55c-8.28.067-19.234-1.29-21.439-2.629-1.664-1.023-2.347-4.7-2.571-6.391h-.245s.466,5.925,2.692,7.269,13.16,2.7,21.435,2.63c2.392,0,3.216-.865,3.17-2.126C1007.474,810.047,1006.563,810.538,1004.786,810.55Z" transform="translate(-592.723 -481.778)" opacity="0.2"/><path d="M640.908,349.549s21.315-.9,23.557-42.629-19.971-48.8-19.971-48.8-7.036-3.932-10.156-4.094-13.551.832-13.551.832l11.5-2.218s-16.176-6.158-21.023-6.657l17.474,3.695s.246-9.69-3.944-12.9c0,0,3.57-.266,5.475,6.711a13.314,13.314,0,0,0,7.984,8.962c6.49,2.534,15.461,6.528,17.5,9.948,0,0,3.778,3.944,3.2-6.324s-3.283-19.055-4.269-19.3c0,0-7.718-8.209-18.56-8.7,0,0,6.324-2.542,17,5.409,0,0,.9-4.023-3.12-8.787s-10.264-14.783-17.083-15.848c0,0,9.528-.578,17.083,11.741,0,0,2.792,1.806,3.037-2.792a56.575,56.575,0,0,1,1.889-10.347s2.3,10.593-2.546,15.357c0,0,9.282,12.066,8.87,25.625,0,0,2.875,6.158,3.944-1.069,0,0,.616-9.952,1.851-18.394a25.018,25.018,0,0,0-5.242-19.288c-2.051-2.55-3.482-5.034-2.688-6.337l10.759,12.81s9.033-20.94,15.6-25.459,7.393-5.5,7.393-5.5l-10.576,12.4,13.314-4.681L682.3,199.074s-6.158,4.993-9.69,18.723-3.861,22.255-3.861,22.255,18.96-15,22.588-14.525l-12.278,9.282a29.253,29.253,0,0,0-11.541,21.348h0S691.23,250.078,697,248.93l10.818-11.088-8.192,10.51,16.917-.245,9.694-6.9s-7.639,6.407-6.911,6.819,11.912.9,11.912.9-28.417-.162-31.537,1.889-10.1,2.792-10.1,2.792l20.129,3.062-23.982-1.727s-18.148,3.287-19.139,8.954c0,0,3.7,9.644,6.162,13.468,2.043,3.175,6.158,13.468,6.977,22.5s1.972,22.912-1.148,31.371-4.269,13.314-2.709,15.852,3.037,5.825-2.055,6.486-27.431-.329-27.431-.329S639.589,354.575,640.908,349.549Z" transform="translate(-377.091 -121.87)" fill="#dea3a2"/><path d="M711.21,567.821a10.717,10.717,0,0,1,7.235-.9,44.222,44.222,0,0,0,11.171.325" transform="translate(-435.456 -344.623)" opacity="0.1"/><path d="M742.26,451.26s1.015,16.056-.791,19.218Z" transform="translate(-453.126 -277.24)" opacity="0.1"/><path d="M749.064,497.45s-1.3,15.036-2.205,17.978S749.064,497.45,749.064,497.45Z" transform="translate(-456.177 -304.212)" opacity="0.1"/><path d="M755.45,408.6c.924.341,4.88,8.367,4.09,10.738S755.45,408.6,755.45,408.6Z" transform="translate(-461.289 -252.329)" opacity="0.1"/><path d="M731.34,388.58c.416.191,2.272,4.818,1.9,6.183S731.34,388.58,731.34,388.58Z" transform="translate(-447.21 -240.638)" opacity="0.1"/><path d="M771.76,453.37a61.087,61.087,0,0,0-.416,11.446,43.858,43.858,0,0,1-.125,8.7" transform="translate(-470.498 -278.472)" opacity="0.1"/><path d="M653.43,322.91a3.744,3.744,0,0,1,.774,2.363c.029.832-.083,1.689-.029,2.534s.483,1.926,1.365,2.047" transform="translate(-401.715 -202.291)" opacity="0.1"/><path d="M689.89,256.1a21.311,21.311,0,0,1,2.958,3.7,8.666,8.666,0,0,0,.832,1.2,13.725,13.725,0,0,0,1.631,1.336,7.681,7.681,0,0,1,2.6,4.073" transform="translate(-423.006 -163.278)" opacity="0.1"/><path d="M784.72,198.43a5.382,5.382,0,0,1-1.053,1.41c-.374.354-.8.653-1.136,1.04a8.192,8.192,0,0,0-.728,1.069,28.913,28.913,0,0,1-3.033,3.836" transform="translate(-474.907 -129.602)" opacity="0.1"/><path d="M745.28,255.53a2.47,2.47,0,0,1,.878,2.222,6.367,6.367,0,0,0,.154,2.5c.141.354.37.666.516,1.015a4.759,4.759,0,0,1,.245,1.926c0,.757-.037,1.514-.071,2.268a3.937,3.937,0,0,1-.741,2.567" transform="translate(-455.351 -162.945)" opacity="0.1"/><path d="M752.3,312.16a9.867,9.867,0,0,0-1.843,1.248,3.3,3.3,0,0,0-1.069,1.922c-.042.316-.021.641-.092.953a3.037,3.037,0,0,1-.628,1.152,15.638,15.638,0,0,1-1.556,1.722" transform="translate(-456.419 -196.014)" fill="none"/><path d="M746.69,359.63a11.685,11.685,0,0,1,1.485-1.032,6.283,6.283,0,0,1,1.531-.674,16.454,16.454,0,0,1,2.521-.25,3.574,3.574,0,0,0,2.3-.944" transform="translate(-456.174 -222.04)" opacity="0.1"/><path d="M818.451,338.76a6.668,6.668,0,0,0-2.912.52c-.453.233-.832.57-1.294.832a3.882,3.882,0,0,1-1.885.491" transform="translate(-494.522 -211.546)" opacity="0.1"/><path d="M793.65,348.577a.562.562,0,0,1,.72.166c.179.2.275.47.462.67a2.045,2.045,0,0,0,1.494.458" transform="translate(-483.596 -217.24)" opacity="0.1"/><path d="M774.6,297.66l-.961.5a17.028,17.028,0,0,0-2.829,1.727" transform="translate(-470.259 -187.546)" opacity="0.1"/><path d="M750.186,320.19c-.632-.15-1.177.524-1.29,1.165s0,1.311-.162,1.935a3.62,3.62,0,0,1-.944,1.419" transform="translate(-456.816 -200.69)" opacity="0.1"/><path d="M727.456,323c-.574,1.714.645,3.586.287,5.359-.108.541-.358,1.044-.487,1.581a4.81,4.81,0,0,0,1.161,4.032" transform="translate(-444.77 -202.343)" opacity="0.1"/><path d="M393.123,405.72c-6.832,9.212-12.457,36.309-14.034,44.477l-11.9-.47c.749-7.027,15.136-35.4,19.139-43.187C388.471,406.253,390.764,405.961,393.123,405.72Z" transform="translate(-234.568 -250.647)" fill="#e36b0a"/><rect width="5.276" height="7.431" transform="translate(301.945 151.803)" fill="#dce0ed"/><path d="M779.441,397.86v2.417a4.062,4.062,0,0,1-1.144.154l-4.127-.033V397.86Z" transform="translate(-472.221 -246.057)" opacity="0.1"/><path d="M768.81,352.36H773.8a5.979,5.979,0,0,1,5.538,3.745c1.456,3.591,2.692,9.3-.553,14.978a4.111,4.111,0,0,1-3.607,2.08l-6.357-.054Z" transform="translate(-469.091 -219.488)" fill="#dce0ed"/><ellipse cx="5.334" cy="10.372" rx="5.334" ry="10.372" transform="translate(294.385 132.876)" fill="#f0f0f4"/><rect width="5.276" height="6.503" transform="translate(255.097 151.89)" fill="#dce0ed"/><path d="M666.836,398.07v2.08a4.067,4.067,0,0,1-1.148.154l-4.127-.037v-2.184Z" transform="translate(-406.463 -246.18)" opacity="0.1"/><path d="M656.21,352.58H661.2a5.966,5.966,0,0,1,5.534,3.744c1.46,3.591,2.7,9.3-.549,14.978a4.119,4.119,0,0,1-3.611,2.08l-6.353-.058Z" transform="translate(-403.339 -219.617)" fill="#dce0ed"/><ellipse cx="5.334" cy="10.372" rx="5.334" ry="10.372" transform="translate(247.537 132.964)" fill="#f0f0f4"/><path d="M657.67,361.69s-1.968.316-.944,2.912a17.751,17.751,0,0,1,1.177,3.932s1.968,1.023,1.889-2.359S657.67,361.69,657.67,361.69Z" transform="translate(-403.468 -224.936)" fill="#dce0ed"/><ellipse cx="31.117" cy="34.104" rx="31.117" ry="34.104" transform="translate(23.22 250.866)" fill="#636780"/><path d="M166.1,641.07c-16.28,1.094-29.178,15.914-29.178,34.038,0,14.608,8.379,27.069,20.158,31.924,16.284-1.094,29.182-15.914,29.182-34.038C186.26,658.386,177.877,645.925,166.1,641.07Z" transform="translate(-100.103 -388.078)" opacity="0.1"/><ellipse cx="25.255" cy="32.931" rx="25.255" ry="32.931" transform="translate(272.617 177.498)" fill="#636780"/><path d="M721.973,462.93c-10.476,4.015-18.123,16.642-18.123,31.6,0,15.985,8.737,29.307,20.32,32.3,10.472-4.015,18.123-16.642,18.123-31.6C742.294,479.248,733.557,465.926,721.973,462.93Z" transform="translate(-431.158 -284.055)" opacity="0.1"/><path d="M516.243,496.13l.47-11.953s-2.347-5.159-4.689-5.625-7.735-.761-7.735-.761-4.219,17.167-1.406,22.326S516.243,496.13,516.243,496.13Z" transform="translate(-313.24 -292.732)" fill="#e36b0a"/><path d="M516.243,496.13l.47-11.953s-2.347-5.159-4.689-5.625-7.735-.761-7.735-.761-4.219,17.167-1.406,22.326S516.243,496.13,516.243,496.13Z" transform="translate(-313.24 -292.732)" opacity="0.1"/><path d="M432.291,493.828s-1.452-16.576,7.656-16.875c1.173-.037,2.346-.067,3.516-.179,6.312-.612,23.532-1.939,21.469,1.993,0,0-4.1,14.416-1.29,18.049Z" transform="translate(-272.533 -291.72)" fill="#e36b0a"/><path d="M739.607,539.227l12.215.354s2.109-22.5,2.813-24.26,1.057-10.2-1.227-11.425-9.927-2.725-9.927-2.725L737.847,514l-.437,11.6Z" transform="translate(-450.755 -306.385)" fill="#e36b0a"/><path d="M739.607,539.227l12.215.354s2.109-22.5,2.813-24.26,1.057-10.2-1.227-11.425-9.927-2.725-9.927-2.725L737.847,514l-.437,11.6Z" transform="translate(-450.755 -306.385)" opacity="0.1"/><path d="M641.23,497.287l-.054-2.5a1.444,1.444,0,0,1,1.506-1.473c6.058.254,28.092,1.311,31.949,3.279,0,0-4.219,31.379.441,38.851l-1.581,25.138-53.971-4.044Z" transform="translate(-381.914 -301.799)" fill="#e36b0a"/><path d="M661.56,406.956c1.5-.15,3.283-.308,5.276-.466v3H661.56Z" transform="translate(-406.463 -251.097)" opacity="0.1"/><path d="M779.441,412.131v.379H774.17v-2.28A22.521,22.521,0,0,1,779.441,412.131Z" transform="translate(-472.221 -253.281)" opacity="0.1"/><path d="M355.918,487.764a.491.491,0,0,1,.2-.312.7.7,0,0,1,.362-.033h0v.212h0a8.142,8.142,0,0,0-.753.77C355.8,488.188,355.856,487.976,355.918,487.764Zm19.093-5.6a.652.652,0,0,0,0-.087,18.43,18.43,0,0,1,.911-1.947A18.94,18.94,0,0,0,375.011,482.164Zm2.846-5.384c-.449.67-.994,1.535-1.531,2.538A11.789,11.789,0,0,1,377.857,476.78ZM303.52,535c2.118.083,3.882.046,3.882.046A15.575,15.575,0,0,1,303.52,535Zm3.886.042a4.432,4.432,0,0,1,2.688-.325A7.409,7.409,0,0,0,307.406,535.045Zm71.067-32,.774-13.314s-.287,6.8-.191,9.74a9.569,9.569,0,0,1-.582,3.578Z" transform="translate(-197.388 -292.142)" fill="url(#a)"/><path d="M357.454,595.773s-.221.682-.512,1.548a20.211,20.211,0,0,1-1.373,3.507,19.793,19.793,0,0,1-3.932.416,12.157,12.157,0,0,1-8.288-2.634s1.011-.728,2.08-1.573a11.763,11.763,0,0,0,2.421-2.272c.32-.645,2.151-1.756,3.254-2.38.5-.283.832-.466.832-.466Z" transform="translate(-220.646 -359.377)" fill="#f899a5"/><path d="M340.665,604.18s-19.455-.895-20.616-1.153a2.075,2.075,0,0,1-1.4-1.623c-.387-.907,1.664-.711,1.664-.711h0c.208.033,2.5.416,4.652.691h0a14.17,14.17,0,0,0,3.745.208h0a7.35,7.35,0,0,1,2.6-.208,6.169,6.169,0,0,0-5.251-4.223l.079-.079a6.536,6.536,0,0,1,1.111-.832c3.965.162,6.062,5.629,6.062,5.629h.033c.449.141,5.23,1.623,6.178,1.76h0C340.52,603.793,340.665,604.18,340.665,604.18Z" transform="translate(-206.196 -361.906)" fill="#f3b4b4"/><path d="M314.516,602.283c-.075.245-.416.416-.974.462a6.318,6.318,0,0,1-.907,0h0a20.6,20.6,0,0,1-5.409-1.215c-.3-.1-.582-.2-.857-.275h-.033a11.787,11.787,0,0,0-2.022-.416,4.133,4.133,0,0,0-2.592.325h0s-1.706.037-3.745-.046h0a30.425,30.425,0,0,1-4.672-.491h0c-.221-.046-.416-.1-.62-.154a4.327,4.327,0,0,1-1.044-.416c-2.147-1.29,5.084-2.159,5.084-2.159a3.77,3.77,0,0,0,2.188-1.057l.075-.083.183-.183h0a9.941,9.941,0,0,1,.878-.682l.266-.179c1.44-.974,3.378-2.014,3.378-2.014a8.213,8.213,0,0,0,3.582-2.047,4.244,4.244,0,0,0,.5-.591h0l4-1.032,2.754,6.615s.021.358.042.895A31.452,31.452,0,0,1,314.516,602.283Z" transform="translate(-190.219 -358.274)" fill="#f899a5"/><path d="M315.567,610.716a6.3,6.3,0,0,1-.907,0h0a20.6,20.6,0,0,1-5.409-1.215c-.3-.1-.582-.2-.857-.275h-.033a11.785,11.785,0,0,0-2.022-.416,4.133,4.133,0,0,0-2.592.325h0s-1.706.037-3.745-.046h0a30.418,30.418,0,0,1-4.672-.491h0c-.22-.046-.416-.1-.62-.154a4.958,4.958,0,0,1,.8-.033h0c.2.025,2.517.308,4.672.487h0a14.1,14.1,0,0,0,3.745.046h0a6.986,6.986,0,0,1,2.592-.325,6.182,6.182,0,0,0-5.43-3.99c.025-.029.054-.054.075-.083h0a6.871,6.871,0,0,1,1.061-.865h.083c3.915.062,6.22,5.355,6.22,5.355h.033c.453.121,5.3,1.4,6.241,1.494h0A2.384,2.384,0,0,1,315.567,610.716Z" transform="translate(-192.243 -366.245)" opacity="0.1"/><path d="M314.275,611.485s-19.476-.05-20.645-.254-1.469-1.564-1.469-1.564c-.416-.886,1.618-.778,1.618-.778h0c.2.025,2.5.308,4.672.491h0a14.489,14.489,0,0,0,3.745.046h0a6.95,6.95,0,0,1,2.592-.324,6.186,6.186,0,0,0-5.43-3.99l.075-.083a7.109,7.109,0,0,1,1.073-.878c3.969,0,6.3,5.359,6.3,5.359h.033c.453.116,5.3,1.394,6.241,1.49h0C314.112,611.1,314.275,611.485,314.275,611.485Z" transform="translate(-190.722 -366.519)" fill="#f3b4b4"/><path d="M368.322,595.79s-.221.682-.512,1.548a36.957,36.957,0,0,1-5.409-4.3,3.166,3.166,0,0,1-.441-.62c.5-.283.832-.466.832-.466Z" transform="translate(-231.514 -359.395)" opacity="0.1"/><path d="M379.887,570.383l-.691,2.234-6.615,3.6a10.139,10.139,0,0,0-2.08,1.868,1.864,1.864,0,0,1-1.057.832,14.667,14.667,0,0,0-.915,1.273,36.985,36.985,0,0,1-5.409-4.3c-.458-.524-.678-.965-.47-1.211a69.483,69.483,0,0,1,6.058-4.776s3.17-4.161,3.308-4.086a21.058,21.058,0,0,0,2.667-2.33l.641-.6Z" transform="translate(-231.87 -342.426)" fill="#bdd3e8"/><path d="M449.979,458.361l-6.441,11.392-2.363,4.506-12.586-1.835.283-.6,1.065-2.234.487-1.023.075-.137,1.394-2.525.079-.1,1.011-1.431,2.035-2.875a1.84,1.84,0,0,0,.666-.175,1.573,1.573,0,0,0,.761-.865c.72-1.781-.6-5.2-.6-5.2s4.776-11.65,6.432-5.238a12.2,12.2,0,0,0,6.657,7.905,9.155,9.155,0,0,0,1.044.449Z" transform="translate(-270.422 -275.383)" fill="#f899a5"/><path d="M428,566.92v1.1s4.161,3.982,3.611,7.227a19.649,19.649,0,0,0,.612,7.289l4.186-.3-.632-14.828Z" transform="translate(-270.077 -344.779)" fill="#bdd3e8"/><path d="M436.409,582.239l-4.186.3a19.635,19.635,0,0,1-.612-7.289c.549-3.249-3.611-7.227-3.611-7.227v-1.1l7.776.491.042.965Z" transform="translate(-270.077 -344.779)" opacity="0.05"/><path d="M375.039,564.967a34.954,34.954,0,0,0-3.67,3.982c-1.473,1.96-3.982,4.776-3.982,4.776l-3,1.777-1.248,1.211c-.458-.524-.678-.965-.47-1.211a69.485,69.485,0,0,1,6.058-4.776s3.17-4.161,3.308-4.086a21.043,21.043,0,0,0,2.667-2.33Z" transform="translate(-231.882 -343.255)" opacity="0.05"/><path d="M337.032,597.552a4.045,4.045,0,0,0-.345.333s-.062,1.956-1.593-2.638-5.33-3.491-5.33-3.491a.071.071,0,0,1-.029-.083c0-.125.221-.341.5-.591h0l4-1.032,2.754,6.615S337.011,597.015,337.032,597.552Z" transform="translate(-212.693 -358.285)" opacity="0.1"/><path d="M351.653,545.28l-2.33.062-1.594,2.268s-2.634,2.817-3.428,3.52-5.941,5.542-7.41,8.055c0,0-1.348.674-1.348,1.348s-2.571,2.634-2.571,2.634-2.7,1.835-2.33,2.08c0,0,3.8-1.1,5.33,3.491s1.593,2.634,1.593,2.634a3.572,3.572,0,0,1,.919-.724c.366-.133,2.109-2.642,2.646-2.7a2.646,2.646,0,0,0,1.09-.491l3.12-3.062,3-1.777s2.5-2.817,3.978-4.776A35.237,35.237,0,0,1,356,553.855Z" transform="translate(-213.206 -332.142)" fill="#bdd3e8"/><path d="M353.22,580.91s4.161,2.018,3.982,2.446S353.22,580.91,353.22,580.91Z" transform="translate(-226.41 -352.948)" opacity="0.1"/><path d="M361.12,579.73s.325,1.818,1.98,1.735S361.12,579.73,361.12,579.73Z" transform="translate(-231.023 -352.259)" opacity="0.1"/><path d="M347.18,592a1.88,1.88,0,0,0,1.777,1.223C350.488,593.406,347.18,592,347.18,592Z" transform="translate(-222.883 -359.424)" opacity="0.1"/><path d="M384.65,580.91s2.018.832,2.2,1.989S384.65,580.91,384.65,580.91Z" transform="translate(-244.763 -352.948)" opacity="0.1"/><path d="M372.72,591.21a11.218,11.218,0,0,1,2.987,3.137C375.662,594.622,372.72,591.21,372.72,591.21Z" transform="translate(-237.797 -358.963)" opacity="0.1"/><path d="M381.33,586.79a1.352,1.352,0,0,1,1.381.291C383.273,587.664,381.33,586.79,381.33,586.79Z" transform="translate(-242.825 -356.336)" opacity="0.1"/><path d="M406.834,537.232s-7.809-2.53-7.21,0,7.21,3.948,7.21,3.948Z" transform="translate(-253.488 -326.786)" fill="#f899a5"/><path d="M449.979,472.189l-6.441,11.392-2.363,4.506-12.586-1.835.283-.6a7.267,7.267,0,0,1,1-1.123,4.163,4.163,0,0,1,.062-1.111,2.16,2.16,0,0,1,.562-1.161l.05-.046a7.763,7.763,0,0,0,1.423-2.584c.108-.287.166-.478.166-.478l.832-.953,2.7-3.05.761-.865.716-.807-2.563,3.645s-1.223,2.205-1.286,2.5-2.08,3-2.08,3-3.428,3,2.7,3.062,9.861-5.908,9.861-5.908l5.167-8A9.149,9.149,0,0,0,449.979,472.189Z" transform="translate(-270.422 -289.211)" opacity="0.1"/><path d="M387.382,535.452l-2.4-.166-5.421-.453V534l7.78.487Z" transform="translate(-221.641 -311.855)" opacity="0.1"/><path d="M446.889,470.21a4.08,4.08,0,0,0,2.205,1.286,14.721,14.721,0,0,0-2.758,4.227s-3.437,5.783-.978,7.776a12.528,12.528,0,0,0,3.886,2.388L448.5,499.2s1.818,9.153,2.5,9.836a3.181,3.181,0,0,1,.491,2.205s-.445,1.531.021,2.08.591,3.37.591,3.37a19.254,19.254,0,0,0-3.328-1.41c-.574,0-2.08-2.879-2.08-2.879l-14.978-1.04-6.586-.549,1.04-18.307s-3-4.922,1.1-8.708a3.121,3.121,0,0,1,.674-2.317,9.51,9.51,0,0,0,1.593-3.062l5.022-5.675h0l-2.571,3.657s-1.227,2.205-1.286,2.5-2.08,3-2.08,3-3.428,3,2.7,3.062,9.861-5.941,9.861-5.941Z" transform="translate(-268.388 -288.306)" fill="#e6ebef"/><path d="M465.68,528.21a9.072,9.072,0,0,0,4.41,1.623C472.37,529.9,465.68,528.21,465.68,528.21Z" transform="translate(-292.08 -322.174)" opacity="0.1"/><path d="M472.3,515.739s1.685-.832,2.634-.137S472.3,515.739,472.3,515.739Z" transform="translate(-295.946 -314.65)" opacity="0.1"/><path d="M470.39,523s.108.982,2.6,1.1S470.39,523,470.39,523Z" transform="translate(-294.831 -319.132)" opacity="0.1"/><path d="M467.314,473.3l.524.279a11.692,11.692,0,0,0,3.3.7,5.288,5.288,0,0,1,4.319,4.131c.091.483.166,1.128.229,1.818a37.337,37.337,0,0,1-.116,7.489,23.8,23.8,0,0,0-.3,4.036c.183.549-1.011,9.1-1.011,9.1s-.275,6.981-2.022,7.626-11.483.641-11.483.641l-4.131-7.164,9.644.458a9.437,9.437,0,0,0,1.194-4.959c-.091-2.942.183-9.74.183-9.74s-5.825-1.248-4.643-5.8A27.87,27.87,0,0,1,467.314,473.3Z" transform="translate(-286.795 -290.11)" fill="#f899a5"/><path d="M401.607,563.1s-3.89,1.286-5.409.612a37.334,37.334,0,0,1-4.822-3.245s-2.122-2.08-4.14-4.406l-.258-.3h0c-1.747-2.034-3.328-4.161-3.328-5.213a4.432,4.432,0,0,0-.162-1.294,5.408,5.408,0,0,0-.832-1.693,5.057,5.057,0,0,0-.716-.807l-6.37-8.209s1.839-1.96,1.839-2.5,2.205-3.549,5.022-1.955a60.88,60.88,0,0,1,6.907,5.8c3.973,3.645,8.038,7.61,8.038,7.61s.287.308.707.786c1.078,1.248,3.025,3.6,3.179,4.789C401.486,554.709,401.607,563.1,401.607,563.1Z" transform="translate(-239.461 -325.341)" fill="#bdd3e8"/><path d="M407.989,557.009c-3.016,3-7.556,7.031-10.851,7.793l-.087.021-.171-.32h0l-3.478-6.507-.882-1.664.046-.046,6.682-7.685c3.973,3.645,8.038,7.61,8.038,7.61S407.569,556.53,407.989,557.009Z" transform="translate(-249.359 -334.081)" opacity="0.05"/><path d="M431.854,541.657v1.394s1.931,6.815-1.56,8.737c-1.764.978-5.521,1.211-8.808,1.2a9.328,9.328,0,0,1-9.207-7.676,5.575,5.575,0,0,1-.037-1.976s-1.56-11.163-1.931-11.234c0,0-8.775,10.048-14.146,11.2l-4.535-8.479,7.244-8.321s5.375-8.542,6.936-9.324a11.277,11.277,0,0,0,3.125-2.971s6.295-5.251,10.472,3.615,6.89,16.027,7.905,18.685c0,0,1.473,3.012,2.388,3h.029A2.147,2.147,0,0,1,431.854,541.657Z" transform="translate(-248.839 -313.1)" fill="#bdd3e8"/><path d="M436.09,552.953a9.079,9.079,0,0,0,1.881-3.216c.695-2.022-.208,2.051-1.7,3.674Z" transform="translate(-274.801 -334.423)" opacity="0.1"/><path d="M416.424,428.418a3.059,3.059,0,0,0,.949,1.589,30.371,30.371,0,0,0,3.07,2.892,3.187,3.187,0,0,1,1.123,1.294,2.035,2.035,0,0,1-.075,1.123,19.259,19.259,0,0,1-1.631,4.052,2.5,2.5,0,0,0-.454,1.381c.112,1.09,1.664,1.7,2.8,2.421a4.551,4.551,0,0,1,2.288,3.861c-.092,2.259-2.234,4.211-2.738,6.441a10.817,10.817,0,0,0,4.048-.832,3.047,3.047,0,0,0,2.03-2.58.728.728,0,0,1,.062-.478,1.028,1.028,0,0,1,.582-.3c1.111-.27,2.467-.183,3.283-.8s.628-1.71.279-2.58c-.949-2.38-2.322-4.668-3.15-7.073a5.076,5.076,0,0,1-.358-2.53,8.484,8.484,0,0,1,1.1-2.417,15.394,15.394,0,0,0,1.822-5.55,5.168,5.168,0,0,0-.449-3.258,5.49,5.49,0,0,0-3.632-2.4c-3.125-.686-4.789.832-7.231,1.843C418.321,425.285,416.241,426.671,416.424,428.418Z" transform="translate(-263.311 -260.443)" fill="#4b3648"/><path d="M421.752,453c.254,0,.508-.029.761-.05.52-2.209,2.63-4.161,2.721-6.386a4.557,4.557,0,0,0-2.288-3.865c-1.115-.72-2.684-1.331-2.8-2.417a2.518,2.518,0,0,1,.453-1.385,19.255,19.255,0,0,0,1.631-4.052,2.034,2.034,0,0,0,.075-1.123,3.152,3.152,0,0,0-1.123-1.29,30.9,30.9,0,0,1-3.07-2.912,3.034,3.034,0,0,1-.949-1.585c-.191-1.747,1.876-3.137,3.715-3.907,1.91-.807,3.328-1.9,5.384-2.005-2.446-.158-3.99,1.107-6.129,2.005-1.839.77-3.907,2.159-3.715,3.907a3.034,3.034,0,0,0,.949,1.585,30.9,30.9,0,0,0,3.07,2.912,3.151,3.151,0,0,1,1.123,1.29,2.034,2.034,0,0,1-.075,1.123,19.252,19.252,0,0,1-1.631,4.052,2.517,2.517,0,0,0-.453,1.385c.112,1.086,1.664,1.7,2.8,2.417a4.558,4.558,0,0,1,2.288,3.865C424.4,448.819,422.256,450.775,421.752,453Z" transform="translate(-263.309 -260.158)" opacity="0.1"/><ellipse cx="9.786" cy="9.786" rx="9.786" ry="9.786" transform="translate(155.668 163.024)" opacity="0.1"/><ellipse cx="9.786" cy="9.786" rx="9.786" ry="9.786" transform="translate(155.851 162.658)" fill="#f899a5"/><path d="M428.562,421.471a3.877,3.877,0,0,1-2.08-1.186,1.945,1.945,0,0,1,.05-2.459,4.3,4.3,0,0,1,1.177-.512c1.643-.728,1.922-3.279,3.037-4.872a3.653,3.653,0,0,1,3.37-1.623,16.229,16.229,0,0,1,2.035.6c1.627.441,3.366.092,5.018.391,3.245.595,5.729,3.649,7.073,7.073.62,1.577,1.053,3.245,1.544,4.889a64.749,64.749,0,0,0,2.663,7.239,5.089,5.089,0,0,0,.911,1.535c1.04,1.061,2.879.982,3.52,2.409a5.057,5.057,0,0,1,.071,2.654,21.12,21.12,0,0,0,.766,9c.7,2.23,2.047,4.485,4.1,4.805a2.279,2.279,0,0,1-3.3.208,10.788,10.788,0,0,1-2.209-3.2,20.388,20.388,0,0,0-1.885-2.767,3.89,3.89,0,0,0-1.427-1.227c-1.4-.566-2.883.591-4.131,1.6a7.113,7.113,0,0,1-3.366,1.768,2.7,2.7,0,0,1-2.975-1.827c-.47-1.594.478-3.745-.557-4.9a7.4,7.4,0,0,0-1.373-.89c-1.323-.94-1.485-3.091-1.306-4.914s.553-3.778-.154-5.38a6.477,6.477,0,0,0-1.664-2.08,36.613,36.613,0,0,0-10.052-6.6" transform="translate(-268.95 -253.617)" fill="#4b3648"/><g transform="translate(157.057 157.253)" opacity="0.1"><path d="M446.46,447.59a2.7,2.7,0,0,1-2.979-1.826c-.47-1.589.483-3.745-.557-4.9a7.272,7.272,0,0,0-1.369-.886c-1.327-.94-1.49-3.091-1.306-4.914s.553-3.782-.158-5.384a6.523,6.523,0,0,0-1.664-2.08,36.614,36.614,0,0,0-10.052-6.636l1.157.275a3.889,3.889,0,0,1-2.08-1.186,1.951,1.951,0,0,1,.054-2.463,4.268,4.268,0,0,1,1.173-.508c1.664-.728,1.922-3.279,3.037-4.872a4.019,4.019,0,0,1,1.4-1.248,3.824,3.824,0,0,0-2.517,1.61c-1.115,1.593-1.39,4.161-3.037,4.872a4.3,4.3,0,0,0-1.177.512,1.929,1.929,0,0,0-.05,2.459,4.014,4.014,0,0,0,2.08,1.186l-1.152-.27a36.613,36.613,0,0,1,10.048,6.624,6.478,6.478,0,0,1,1.664,2.08c.711,1.6.337,3.557.154,5.38s0,3.973,1.306,4.914a7,7,0,0,1,1.373.89c1.036,1.161.087,3.308.558,4.9a2.7,2.7,0,0,0,2.975,1.827,4.32,4.32,0,0,0,1.34-.416,2.055,2.055,0,0,1-.221.062Z" transform="translate(-425.919 -410.96)"/><path d="M495.75,497.867a10.732,10.732,0,0,1-2.205-3.2,19.778,19.778,0,0,0-1.889-2.767,3.819,3.819,0,0,0-1.427-1.227,2.579,2.579,0,0,0-2.188.241,2.117,2.117,0,0,1,1.073.129,3.857,3.857,0,0,1,1.427,1.227,20.383,20.383,0,0,1,1.885,2.767,11.023,11.023,0,0,0,2.209,3.2,2.427,2.427,0,0,0,2.867.229A2.7,2.7,0,0,1,495.75,497.867Z" transform="translate(-462.194 -457.426)"/></g><path d="M763.839,495l-7.972.117L739.4,465.193l-2.75-5,2.109-12.656,1.623,3.062Z" transform="translate(-430.161 -261.367)" fill="#dce0ed"/><path d="M604.088,447.839l-3.279,4.922L591,439.5l-4.489-6.074,2.7-3.632,2.064,2.5Z" transform="translate(-342.488 -251.002)" fill="#dce0ed"/><path d="M639.7,465.221c0,.254.029.516.046.778l-.316,6.428-4.489-6.074,2.7-3.632Z" transform="translate(-390.918 -283.932)" opacity="0.1"/><path d="M740.382,450.6l-.982,14.591-2.75-5,2.109-12.656Z" transform="translate(-430.161 -261.367)" opacity="0.1"/><path d="M623.306,441.093s-3.936-29.394,10.4-33.792a3.64,3.64,0,0,1,.562-.117c3.3-.4,34.034-3.94,49.989.27,0,0,10.9,1.643,10.784,7.489l-4.835,71.62h-7.851l2.575-47.347s3.745-20.628-2.459-22.051-34.458-3.745-44.418-.936c0,0-7.268-1.643-6.1,16.289l-.47,9.611Z" transform="translate(-383.836 -250.469)" fill="#dce0ed"/><path d="M653.91,499.076a4.527,4.527,0,0,0-1.847-4.044c-2.2-1.664-8.966-5.271-8.966-5.271l-2.2.175-6.59,16.351.437,34.72,11.866,14.679Z" transform="translate(-390.55 -299.722)" fill="#e36b0a"/><path d="M653.91,499.076a4.527,4.527,0,0,0-1.847-4.044c-2.2-1.664-8.966-5.271-8.966-5.271l-2.2.175-6.59,16.351.437,34.72,11.866,14.679Z" transform="translate(-390.55 -299.722)" opacity="0.1"/><path d="M567.62,529.874l.233-35.631s-1.053-13.83,7.21-14.063c0,0,19.484.141,27.951,2.892a1.889,1.889,0,0,1,1.065,2.729c-1.664,2.933-4.527,10.7-5.9,30.622v21.36Z" transform="translate(-351.607 -294.128)" fill="#e36b0a"/><path d="M543.724,586.987l-35.456-.828h-.033l-17.424-.4,2.018-23.3,9.669.354,30.767,6.857,9.4,14.766Z" transform="translate(-286.605 -328.474)" fill="#e36b0a"/><path d="M543.724,586.987l-35.456-.828h-.033l-17.424-.4,2.018-23.3,9.669.354,30.767,6.857,9.4,14.766Z" transform="translate(-286.605 -328.474)" opacity="0.1"/><path d="M567.409,597.106l-35.456-.828-.582-15.61,25.579-.878,9.4,14.766Z" transform="translate(-310.29 -338.593)" fill="#e36b0a"/><path d="M556.664,619.065l-17.424-.416,2.022-23.3s5.45,8.7,14.853,8.088Z" transform="translate(-335.035 -361.38)" fill="#fff" opacity="0.1"/><path d="M860.479,689.661c-.7,6.682-5.45,5.625-5.45,5.625l-.886-.079-8.783-.8.354-10.372a38.221,38.221,0,0,1,8.908.537C857.917,685.255,860.792,686.695,860.479,689.661Z" transform="translate(-513.792 -413.133)" fill="#dce0ed"/><path d="M551.269,454.27s-16.172,7.377-17.345,9.49-9.153,11.234-9.153,11.234l3.457,5.825,16-12.719Z" transform="translate(-326.585 -278.998)" fill="#4c4981"/><path d="M472.991,543.349,465.5,542.23l-5.509,6.5s-7.676,3.807-8.571,5.471-3.686,6.54-4.918,6.578-2.384,1.835-2.392,2.546-4.689,8.883-5.85,9.353-3.174,3.125-3.125,3.649-4.369,5.75-4.369,5.75-7.489,11.72-8.6,12.095-5.43,7.943-6.524,8.841-4.161,1.706-3.786,2.434,7.905,11.021,7.447,13.938c0,0,5.6-4.435,5.825-5.8s7.156-8.562,7.156-8.562l36.326-37.728,7-23.778Z" transform="translate(-260.631 -330.361)" fill="#ceddf9"/><path d="M493.667,548.94s1.494,17.15-3.457,19.746-8.321,2.3-9.274,3.441-6.757,2.155-7.373,3.2-16.879,10.131-16.879,10.131-11.125,6.557-12.869,7.984-11.234,5.6-12.852,7.564-11.779,8.4-11.779,8.4-2.975-9.153-6.395-9.956c0,0,8.221-1.618,8.708-2.912s2.942-2.684,2.942-2.684,11.7-6.79,12.066-8.321,3.245-3.711,3.245-3.711,4.647-6.353,6.357-6.965,11.849-11.021,11.849-11.021,6.894-3.645,7.66-4.843S479.447,551,479.447,551l-14.891-18.5,4.71-1.448,13.95,3.745,2.5,4.523Z" transform="translate(-261.195 -323.833)" opacity="0.1"/><path d="M495.687,549.494s1.5,17.15-3.453,19.746-8.321,2.3-9.278,3.441-6.757,2.159-7.373,3.2-16.875,10.135-16.875,10.135-11.125,6.553-12.873,7.968-11.234,5.6-12.852,7.568-11.779,8.4-11.779,8.4-2.987-9.128-6.395-9.96c0,0,8.225-1.614,8.708-2.912s2.942-2.688,2.942-2.688,11.7-6.79,12.066-8.321,3.249-3.715,3.249-3.715,4.647-6.353,6.357-6.961,11.845-11.026,11.845-11.026,6.894-3.645,7.66-4.843-5.908-17.058-5.908-17.058l4.86-9.445,4.71-1.444,13.95,3.745,2.5,4.523Z" transform="translate(-262.375 -324.136)" fill="#ceddf9"/><path d="M619.569,443.891,608.19,451.8s-13.751-5.1-8.321-7.148c3.561-1.344,4.843-8.279,5.3-12.9.241-2.4.254-4.161.254-4.161s15.515-.025,12.661,4.926a7.793,7.793,0,0,0-.949,4.477A15.511,15.511,0,0,0,619.569,443.891Z" transform="translate(-369.698 -263.418)" fill="#fec2be"/><path d="M626.3,437.02a10.909,10.909,0,0,1-11.966-5.23c.241-2.4.254-4.161.254-4.161s15.515-.025,12.661,4.926A7.793,7.793,0,0,0,626.3,437.02Z" transform="translate(-378.883 -263.441)" opacity="0.1"/><path d="M632.364,411.8a10.934,10.934,0,1,1,.245-1C632.543,411.132,632.464,411.469,632.364,411.8Z" transform="translate(-376.905 -246.003)" fill="#fec2be"/><path d="M572.568,456.11s-1.91,0-2.03,2.717-2.051,2.517-2.051,2.517l-8.97,9.315s-4.027,9.644-3.994,10.035-.907,2.022-.695,2.846-.083,3.328-.832,3.108a1.771,1.771,0,0,0-1.98,1.777c.017,1.227-6.3,4.993-6.045,5.908s17.994,10.339,17.994,10.339l7.381,5.721,6.89-12.835,5.742-17.687,3.191-10.268,2.642-2.954-1.215-6.932s-1.09-3-1.98-2.58-4.161,3.953-7.231,4.26-4.864.682-5.579,0S568.74,460.225,572.568,456.11Z" transform="translate(-338.96 -280.072)" opacity="0.1"/><path d="M573.534,453.94a2.607,2.607,0,0,0-2.4,2.779c-.125,2.713-2.051,2.517-2.051,2.517l-8.97,9.316s-4.027,9.64-3.99,10.035-.911,2.018-.7,2.846-.079,3.328-.832,3.108a1.772,1.772,0,0,0-1.985,1.777c.017,1.227-6.3,4.993-6.041,5.908s17.99,10.339,17.99,10.339l7.385,5.721,6.89-12.84,5.742-17.687L587.8,467.5l2.638-2.954-1.215-6.932s-1.09-3-1.98-2.58-4.161,3.953-7.227,4.256-4.864.686-5.579,0S574.145,457.826,573.534,453.94Z" transform="translate(-339.31 -278.805)" opacity="0.1"/><path d="M573.339,454.61a2.605,2.605,0,0,0-2.4,2.779c-.121,2.713-2.051,2.521-2.051,2.521l-8.97,9.311s-4.027,9.644-3.99,10.035-.911,2.022-.7,2.846-.079,3.328-.832,3.108a1.769,1.769,0,0,0-1.98,1.777c.017,1.227-6.3,4.993-6.041,5.908s17.99,10.343,17.99,10.343l7.381,5.717,6.89-12.835,5.746-17.687,3.216-10.268,2.642-2.954-1.215-6.932s-1.09-3-1.98-2.575-4.161,3.948-7.227,4.256-4.868.686-5.583,0S573.951,458.517,573.339,454.61Z" transform="translate(-339.199 -279.196)" fill="#fff"/><path d="M557.774,453.418a16.867,16.867,0,0,1-3.141-.616c-1.1-.416-5.163-.092-5.163-.092s-4.668.287-5.529,1.635-4.577,8.641-5.85,9.1-8.8,12.573-10.339,13.638-8.171,14.059-8.171,14.059,4.9-2.313,7.144,1.073c.058.087.117.175.171.27,2.155,3.778,4.161.865,4.161.865s7.135-6.5,7.705-7.63,4.789-9.644,5.875-11.995,10.281-13.963,10.589-14.479S557.774,453.418,557.774,453.418Z" transform="translate(-323.555 -278.017)" opacity="0.1"/><path d="M556.986,453.185a26.321,26.321,0,0,1-3.7-.782c-1.1-.416-5.167-.091-5.167-.091s-4.668.287-5.529,1.631-4.577,8.646-5.85,9.1-8.8,12.573-10.339,13.643-8.171,14.059-8.171,14.059,4.9-2.313,7.148,1.073c.054.083.112.175.166.27,2.155,3.774,4.161.865,4.161.865s7.14-6.5,7.705-7.63,4.789-9.644,5.875-11.995,10.281-13.963,10.589-14.483S556.986,453.185,556.986,453.185Z" transform="translate(-322.766 -277.783)" fill="#4c4981"/><path d="M616.767,455.62s5.9,4.281,6.657,5.579,8.483,5.359,8.483,5.359,2.912,5.375,2.476,7.31-.9,3.778-.52,4.81.612,1.023.05,2.384-.366,1.494.416,2.717-11.65,4.993-11.65,4.993-1.664.258-1.843,1.053-9.711,21.768-11.088,25.1-5.729,16.642-9.382,16.83-.832.05-.832.05.562-10.817-1.685-14.562,2.188-18.194,2.188-18.194S614.8,456.56,616.767,455.62Z" transform="translate(-368.888 -279.786)" opacity="0.1"/><path d="M617.549,455.62s6.461,4.452,7.219,5.746,8.5,5.359,8.5,5.359,2.912,5.375,2.476,7.31-.9,3.782-.52,4.81.612,1.023.05,2.384-.37,1.494.416,2.721-11.65,4.993-11.65,4.993-1.664.262-1.843,1.053-9.732,21.776-11.117,25.1-5.729,16.622-9.382,16.817-.832.05-.832.05.562-10.817-1.685-14.562,2.226-18.2,2.226-18.2S615.585,456.56,617.549,455.62Z" transform="translate(-369.67 -279.786)" fill="#4c4981"/><path d="M633.184,558.55s-13.089,2.912-13.5,3.745-11.234,7.285-5.554,10.4,14.6-4.389,14.6-4.389l7.073-4.514Z" transform="translate(-377.808 -339.891)" fill="#fec2be"/><path d="M663.6,516.61c.212.062,4.772,2.954,4.772,2.954s2.147,7.131,2.617,8.879,1.664,4.855,1.585,5.438,1.3,3.824-.9,5.3-4.5,1.248-5.558,2.238-8.342,4.161-9.261,4.41,4.543-10.863-2.2-12.573c0,0,4.83.453,5.08-.391s.528-3.05-.374-3.853-4.8-4.643-4.8-4.643Z" transform="translate(-402.375 -315.401)" fill="#4c4981"/><path d="M632.678,410.828a3,3,0,0,1-1.3-1.365c-.445-.865-.89-1.922-1.839-2.143-.533-.129-1.177.029-1.573-.349a1.664,1.664,0,0,1-.3-1.215,4.942,4.942,0,0,0-.795-2.758,2.887,2.887,0,0,0-2.467-1.286c-1.352.092-2.53,1.323-3.861,1.078-.587-.108-1.148-.5-1.722-.349a1.693,1.693,0,0,0-.607.341,8.85,8.85,0,0,0-2.775,3.744c-.549,1.4-.732,2.912-1.39,4.281-.262.533-.766,1.1-1.331.936-.882-.262-.416-1.373-.907-1.86a1.343,1.343,0,0,0-.695-.279,10.9,10.9,0,1,1,21.568,1.223Z" transform="translate(-376.982 -246.032)" opacity="0.1"/><path d="M607.937,402.451c.566.166,1.069-.416,1.331-.932.657-1.352.832-2.883,1.39-4.281a8.833,8.833,0,0,1,2.779-3.745,1.69,1.69,0,0,1,.6-.345c.574-.15,1.14.241,1.722.349,1.331.25,2.5-.986,3.861-1.078a2.887,2.887,0,0,1,2.467,1.29,4.884,4.884,0,0,1,.795,2.754,1.661,1.661,0,0,0,.308,1.215c.391.383,1.036.225,1.573.349.949.225,1.39,1.277,1.839,2.143s1.352,1.772,2.255,1.4a8.63,8.63,0,0,1,.77-.416c.512-.171,1.123.108,1.581-.175.582-.358.416-1.248.037-1.843s-.832-1.248-.595-1.885a2.554,2.554,0,0,1,.628-.807,4,4,0,0,0-.241-5.488c-.37-.333-.8-.591-1.165-.932a12.253,12.253,0,0,1-1.664-2.5,7.6,7.6,0,0,0-2.65-2.5,3.785,3.785,0,0,0-1.539-.537,13,13,0,0,0-2.247.3c-2.521.254-4.689-1.739-7.156-2.3a2.03,2.03,0,0,0-1.693.2c-.491.383-.595,1.069-.832,1.664a5,5,0,0,1-2.967,2.654c-1.469.562-3.328.865-3.94,2.309-.533,1.248.158,2.679-.121,3.994a8.044,8.044,0,0,1-1.581,2.7,2.907,2.907,0,0,0-.516,2.946A2.621,2.621,0,0,0,604.317,400c.691.283,2.23.133,2.7.591S607.055,402.2,607.937,402.451Z" transform="translate(-372.115 -237.023)" fill="#9a5e7f"/><path d="M674.47,546.66c.25.025,4.8.832,5.866,2.363S674.47,546.66,674.47,546.66Z" transform="translate(-414.002 -332.948)" opacity="0.1"/><path d="M669,535s4.959,1.123,5.534,1.6S669,535,669,535Z" transform="translate(-410.807 -326.139)" opacity="0.1"/><path d="M672.92,505.57s3.649,1.6,4.065,2.588S672.92,505.57,672.92,505.57Z" transform="translate(-413.096 -308.954)" opacity="0.1"/><path d="M560.84,605c.379.266,9.341,6.915,8.608,7.156S560.84,605,560.84,605Z" transform="translate(-347.648 -367.015)" opacity="0.1"/><path d="M560.68,615s5.251,2.538,4.373,3.6S560.68,615,560.68,615Z" transform="translate(-347.555 -372.855)" opacity="0.1"/><g transform="translate(230.641 152.273)" opacity="0.1"><path d="M608.439,402.443c.237-1.128-.237-2.347-.042-3.453v.021c-.524,1.215.137,2.634-.108,3.932A3.48,3.48,0,0,0,608.439,402.443Z" transform="translate(-605.939 -398.99)"/><path d="M670.148,413.978a1.069,1.069,0,0,0-.058.341,4.609,4.609,0,0,1,.52-.587,3.628,3.628,0,0,0,.878-1.722,3.525,3.525,0,0,1-.711,1.161A2.554,2.554,0,0,0,670.148,413.978Z" transform="translate(-642.085 -406.593)"/><path d="M642.143,413.688c-.458.283-1.073,0-1.585.175-.279.1-.5.312-.77.416-.9.374-1.81-.528-2.255-1.394s-.89-1.922-1.839-2.147c-.533-.125-1.182.033-1.573-.349a1.669,1.669,0,0,1-.308-1.211,4.931,4.931,0,0,0-.791-2.758,2.912,2.912,0,0,0-2.471-1.29c-1.348.092-2.525,1.327-3.857,1.082-.587-.112-1.152-.5-1.727-.354a1.753,1.753,0,0,0-.6.345,8.833,8.833,0,0,0-2.779,3.745,12.642,12.642,0,0,0-.416,1.219c.071-.221.146-.441.233-.657a8.832,8.832,0,0,1,2.779-3.745,1.689,1.689,0,0,1,.6-.345c.574-.15,1.14.241,1.723.349,1.331.25,2.5-.986,3.861-1.078a2.887,2.887,0,0,1,2.467,1.29,4.885,4.885,0,0,1,.795,2.754,1.661,1.661,0,0,0,.308,1.215c.391.383,1.036.225,1.573.349.949.225,1.39,1.277,1.839,2.143s1.352,1.772,2.255,1.4a8.622,8.622,0,0,1,.77-.416c.512-.171,1.123.108,1.581-.175a.832.832,0,0,0,.374-.749A.736.736,0,0,1,642.143,413.688Z" transform="translate(-613.519 -402.575)"/><path d="M609.458,421.417c-.258.533-.766,1.1-1.331.932-.882-.258-.416-1.369-.9-1.856s-2.005-.308-2.7-.591a2.637,2.637,0,0,1-1.348-1.053,1.993,1.993,0,0,1-.175-1.41,2.276,2.276,0,0,0,0,1.972,2.621,2.621,0,0,0,1.348,1.053c.691.283,2.23.133,2.7.591s.021,1.6.9,1.856c.566.166,1.069-.416,1.331-.932a10.879,10.879,0,0,0,.645-1.8A8.933,8.933,0,0,1,609.458,421.417Z" transform="translate(-602.78 -409.764)"/></g><path d="M569.734,477.3s-3.582,5.346-3.154,6.466S569.734,477.3,569.734,477.3Z" transform="translate(-350.979 -292.446)" opacity="0.1"/><path d="M575.47,519.17a10.045,10.045,0,0,1,2.6,1.539C578.761,521.454,575.47,519.17,575.47,519.17Z" transform="translate(-356.191 -316.896)" opacity="0.1"/><path d="M585.51,532.27s4.061.982,4.406,1.618S585.51,532.27,585.51,532.27Z" transform="translate(-362.054 -324.545)" opacity="0.1"/><path d="M587.21,545.63s3.674.483,4.09,1.906S587.21,545.63,587.21,545.63Z" transform="translate(-363.047 -332.347)" opacity="0.1"/><path d="M870.841,690.5c-.7,6.682-5.45,5.625-5.45,5.625l-.886-.079a8.975,8.975,0,0,1-1.4-5.018,8.428,8.428,0,0,1,1.876-5.617C868.278,686.092,871.153,687.532,870.841,690.5Z" transform="translate(-524.153 -413.97)" opacity="0.1"/><path d="M534.829,487.22c-8.026,0-14.529,8.791-14.529,19.634s6.5,19.63,14.529,19.63,14.533-8.791,14.533-19.63S542.859,487.22,534.829,487.22Zm-2.051,35.161c-6.116,0-11.071-6.374-11.071-14.242s4.955-14.237,11.071-14.237,11.075,6.374,11.075,14.237S538.9,522.381,532.778,522.381Z" transform="translate(-323.975 -298.239)" fill="#636780"/><path d="M507.657,508.913l6.8,6.678,2.459-5.979-9.844-5.742Z" transform="translate(-296.1 -294.26)" fill="#636780"/><path d="M475.928,357.07l5.916.72,2.2,2.609-3.328,14.978-7.073,24.131L469,416.075l-3.262,10.06-2.08,13.314-2.08,9.153-6.241,6.241-12.69-14.978-2.08-4.993-4.993-10.193,12.9-6.033,14.146-1.248,6.657-17.058,5.409-19.763Z" transform="translate(-254.348 -208.538)" fill="#e36b0a"/><path d="M233.965,517.314l-7.734,64.93,97.391-4.1-11.25-31.878-18.752-12.19,42.9.7.233-17.811L319.4,513.212,284.478,510.4l-26.253-1.169-25.08,8.2" transform="translate(-132.105 -297.39)" fill="#e36b0a"/><path d="M233.965,517.314l-7.734,64.93,97.391-4.1-11.25-31.878-18.752-12.19,42.9.7.233-17.811L319.4,513.212,284.478,510.4l-26.253-1.169-25.08,8.2" transform="translate(-132.105 -297.39)" opacity="0.1"/><path d="M556.26,677.612c0,16.135-5.363,30.822-20.237,29.215-18.76-.416-20.233-13.081-20.233-29.215s9.058-28.142,20.233-28.142S556.26,661.477,556.26,677.612Z" transform="translate(-321.341 -392.983)" fill="#636780"/><path d="M570.648,680.135c0-12.482-5.43-22.509-13.068-26.395-9.811,1.864-17.35,13.147-17.35,27.876,0,13.222.99,24.131,11.675,27.847C565.647,709.949,570.648,695.716,570.648,680.135Z" transform="translate(-335.613 -395.477)" opacity="0.1"/><path d="M602.541,584.342l-5.721,6.553,10.3-1.768,7.7-7.073,6.865-13.73,9.673-5.929,23.715,3.224,21.947.832,8.1-7.194-9.037-1.232-9.153-.208-22.987-.52-27.356-.728-5.617,14.978-4.265,10.3Z" transform="translate(-348.509 -325.034)" fill="#e36b0a"/><path d="M417.055,528.483c-.47.7-15.81,3.05-15.81,3.05l-42.438,7.734-72.885,1.053-8.554-7.269-4.493.8-.183.033-60.029,10.655-.978-.137-16.359-2.334L109.88,529.889l.957-12.4.566-7.323,1.169-15.2.832-3.986,7.61-.7,3.553-.325,55.456-5.088,7.252-.666,4.065-.37,39.613-5.409,57.778,1.406.233-17.816L311.818,391.7c5.038.832,4.922,4.219,4.922,4.219l-19.459,66.22-.237,40.67c40.462,4.086,41.768-4.731,48.167-1.76l7.739-24.726,67.971.354C423.637,479.962,417.055,528.483,417.055,528.483Z" transform="translate(-84.313 -242.46)" fill="#e36b0a"/><path d="M394.4,598.8l21.564,46.295,7.264,2.342,1.76-7.5L416.9,614.269l-8.321-14.882Z" transform="translate(-230.307 -349.694)" fill="#e36b0a"/><path d="M394.4,598.8l21.564,46.295,7.264,2.342,1.76-7.5L416.9,614.269l-8.321-14.882Z" transform="translate(-230.307 -349.694)" opacity="0.15"/><ellipse cx="39.055" cy="44.302" rx="39.055" ry="44.302" transform="translate(111 255.784)" fill="#636780"/><path d="M391.193,654.43c-20.437,1.423-36.613,20.67-36.613,44.21,0,18.976,10.518,35.165,25.3,41.473,20.437-1.423,36.613-20.67,36.613-44.21C416.493,676.926,405.976,660.737,391.193,654.43Z" transform="translate(-227.204 -395.88)" opacity="0.1"/><path d="M110.364,568.07l-1.935,9.124-5.916,27.922-25.434-2.463s-1.523-4.685,2.463-6.445c0,0,1.306-15.864,6.008-20.861a4.74,4.74,0,0,1,1.843-1.286Z" transform="translate(-64.993 -345.45)" fill="#e36b0a"/><path d="M108.429,587.407l-5.916,27.922-25.434-2.463s-1.523-4.685,2.463-6.445c0,0,1.306-15.864,6.008-20.861Z" transform="translate(-64.993 -355.663)" fill="#fff" opacity="0.1"/><path d="M200.976,544.709c3.279,5.5-4.672,56.247-4.672,56.247L133.82,590.642l2.226-44.418c1.29-7.968,5.979-8.9,5.979-8.9,22.051-11.134,72.66-13.48,72.66-13.48,46.182,1.756,88.25,15.353,88.25,15.353C250.433,531.109,200.976,544.709,200.976,544.709Z" transform="translate(-98.293 -319.622)" fill="#e36b0a"/><path d="M196.3,618.774,133.82,608.46l2.226-44.418c1.29-7.968,5.979-8.9,5.979-8.9s45.587-4.339,58.951,7.389C204.254,568.028,196.3,618.774,196.3,618.774Z" transform="translate(-98.293 -337.441)" opacity="0.1"/><path d="M194.782,625l-52.232-8.8,1.851-37.9c1.078-6.8,4.993-7.6,4.993-7.6s38.119-3.7,49.29,6.3C201.443,581.706,194.782,625,194.782,625Z" transform="translate(-103.391 -346.6)" fill="#e36b0a"/><ellipse cx="7.148" cy="13.01" rx="7.148" ry="13.01" transform="translate(79.945 234.219)" opacity="0.1"/><ellipse cx="7.148" cy="13.01" rx="7.148" ry="13.01" transform="translate(79.945 233.87)" fill="#dce0ed"/><path d="M257.419,603.28s-2.912.466-1.406,4.335a28,28,0,0,1,1.756,5.858s2.912,1.527,2.813-3.516S257.419,603.28,257.419,603.28Z" transform="translate(-169.394 -366.011)" fill="#f0f0f4"/><ellipse cx="6.682" cy="12.157" rx="6.682" ry="12.157" transform="translate(42.088 229.917)" opacity="0.1"/><ellipse cx="6.682" cy="12.157" rx="6.682" ry="12.157" transform="translate(42.088 229.564)" fill="#dce0ed"/><path d="M165.319,590.88s-2.912.47-1.406,4.339a28.236,28.236,0,0,1,1.76,5.858s2.912,1.523,2.813-3.516S165.319,590.88,165.319,590.88Z" transform="translate(-115.613 -358.77)" fill="#f0f0f4"/><path d="M204.447,593.294c-.466,4.805-2.813,40.432-2.813,40.432l-3.978-.666-2.209-.362-2.946-.5-.358-.058-11.6-1.935,2.292-37.79a4.726,4.726,0,0,1,4.8-4.427,3.367,3.367,0,0,1,.354,0c.8.071,1.664.154,2.567.254.379.042.766.083,1.152.133,1.115.133,2.268.3,3.4.478.574.1,1.14.2,1.7.312.944.187,1.86.4,2.7.632.57.158,1.115.329,1.614.516C203.219,591.076,204.588,592.054,204.447,593.294Z" transform="translate(-125.575 -357.082)" opacity="0.1"/><path d="M192.591,587.994l-2.272,42.438-1.29-.117,2.251-42.192a4.7,4.7,0,0,1,1.311-.129Z" transform="translate(-130.532 -357.082)" fill="#e36b0a"/><path d="M201.6,588.727l-2.126,42.887H197.48l2.966-43.024C200.825,588.636,201.212,588.677,201.6,588.727Z" transform="translate(-135.467 -357.433)" fill="#e36b0a"/><path d="M213.107,590.411l-3.353,43.037H208.46v-.058l2.942-43.27C211.98,590.2,212.546,590.3,213.107,590.411Z" transform="translate(-141.878 -358.326)" fill="#e36b0a"/><path d="M222.035,592.856,218.586,635.6v.083l-2.226-.237v-.208l4.044-42.9C220.995,592.5,221.54,592.669,222.035,592.856Z" transform="translate(-146.492 -359.623)" fill="#e36b0a"/><path d="M114.124,639.95s-4.306-22.238,5.538-23.382,42.192,1.248,41.223,10.372-2.01,23.029-2.01,23.029l-6.678-1.494s4.993-20.919-2.813-21.71-26.985-2.991-26.985-2.991-5.188-.878-2.2,17.474Z" transform="translate(-86.244 -373.615)" opacity="0.1"/><path d="M114.124,643.046s-4.306-23.644,5.538-24.789,42.192,1.248,41.223,10.372-2.01,23.029-2.01,23.029l-6.678-1.494s4.993-20.919-2.813-21.71-27-2.971-27-2.971-5.188.528-2.2,18.9Z" transform="translate(-86.244 -374.602)" fill="#dce0ed"/><path d="M382.771,660.494l-8.671-.117c-6.328-27.876-16.763-45.238-16.763-45.238-3.528-1.876-41.968-1.623-41.968-1.623-3.986.7-5.038,13.364-5.038,13.364s3.4,2.912.116,4.805c-1.465.832-6.291.994-11.849.707-6.9-.358-14.936-1.406-19.089-2.7-7.489-2.347-1.527-6.682-1.527-6.682s1.057-1.406,1.76-9.153a31.308,31.308,0,0,1,4.277-12.769c.324-.537.528-.832.528-.832a4.016,4.016,0,0,1,1.369-.857c9.935-4.161,58.635-.2,58.635-.2l18.049,5.746c.5.2,1.269,1.473,2.218,3.507C370.522,620.681,382.771,660.494,382.771,660.494Z" transform="translate(-181.162 -362.634)" fill="#e36b0a"/><path d="M382.771,660.494l-8.671-.117c-6.328-27.876-16.763-45.238-16.763-45.238-3.528-1.876-41.968-1.623-41.968-1.623-3.986.7-5.038,13.364-5.038,13.364s3.4,2.912.116,4.805c-1.465.832-6.291.994-11.849.707-6.9-.358-14.936-1.406-19.089-2.7-7.489-2.347-1.527-6.682-1.527-6.682s1.057-1.406,1.76-9.153a31.308,31.308,0,0,1,4.277-12.769c.324-.537.528-.832.528-.832a4.016,4.016,0,0,1,1.369-.857c9.935-4.161,58.635-.2,58.635-.2l18.049,5.746c.5.2,1.269,1.473,2.218,3.507C370.522,620.681,382.771,660.494,382.771,660.494Z" transform="translate(-181.162 -362.634)" opacity="0.1"/><path d="M376.448,608.438c-16.642-6.474-62.575-3.037-62.575-3.037-4.876-4.161-14.05-4.443-18.223-4.331.325-.537.528-.832.528-.832a4.014,4.014,0,0,1,1.369-.857c9.935-4.161,58.635-.2,58.635-.2l18.049,5.746C374.73,605.13,375.5,606.4,376.448,608.438Z" transform="translate(-192.792 -362.623)" fill="#e36b0a"/><path d="M304.951,609.814c-1.053,3.632-5.38,18.169-5.38,18.169a61.512,61.512,0,0,0-.953,7.035c-6.9-.358-14.936-1.406-19.089-2.7-7.489-2.347-1.527-6.682-1.527-6.682s1.057-1.406,1.76-9.153a31.15,31.15,0,0,1,4.805-13.6,4.014,4.014,0,0,1,1.369-.857C292.444,603.578,305.75,607.064,304.951,609.814Z" transform="translate(-181.174 -365.281)" fill="#e36b0a"/><path d="M304.951,609.814c-1.053,3.632-5.38,18.169-5.38,18.169a61.512,61.512,0,0,0-.953,7.035c-6.9-.358-14.936-1.406-19.089-2.7-7.489-2.347-1.527-6.682-1.527-6.682s1.057-1.406,1.76-9.153a31.15,31.15,0,0,1,4.805-13.6,4.014,4.014,0,0,1,1.369-.857C292.444,603.578,305.75,607.064,304.951,609.814Z" transform="translate(-181.174 -365.281)" fill="#fff" opacity="0.1"/><path d="M344.568,389.718c-4.66.7-6.682,10.372-6.682,10.372L325.23,442.37l89.477,14.678,22.854-70.314C416.555,377.236,344.568,389.718,344.568,389.718Zm71.978,45.18s-.528,4.044-3.957,4.4l-58.011-2.268-11.9-.47-3.99-.154h-.283s-4.4.791-3.695-2.912c0,0,4.835-35.157,13.364-37.795,0,0,.886-.187,2.438-.478,2.438-.462,6.507-1.186,11.3-1.847,2.147-.3,4.439-.578,6.8-.832a102.155,102.155,0,0,1,19.105-.458s42.717-3.957,39.642,5.538c.008.012-8.958,34.379-10.8,37.279Z" transform="translate(-210.065 -237.478)" fill="#e36b0a"/><path d="M351.911,453.315h-.283s-4.4.791-3.695-2.912c0,0,4.835-35.157,13.364-37.795,0,0,.886-.187,2.438-.478C360.64,418.171,350.7,438.853,351.911,453.315Z" transform="translate(-223.278 -254.39)" fill="#e36b0a"/><path d="M351.911,453.315h-.283s-4.4.791-3.695-2.912c0,0,4.835-35.157,13.364-37.795,0,0,.886-.187,2.438-.478C360.64,418.171,350.7,438.853,351.911,453.315Z" transform="translate(-223.278 -254.39)" opacity="0.1"/><path d="M222.165,694.353a5.658,5.658,0,0,1-5.3,2.971l-1.793-.079-16.9-.728-6.091-.262-5.625-.466L112.18,683.723l.566-7.323,8.542,1.223,3.536.508,52.444,7.489,6.9,1.015,3.349.478,14.183-.1,15.353-.112a5.773,5.773,0,0,1,2.263.416,5.5,5.5,0,0,1,2.975,2.825,4.622,4.622,0,0,1-.129,4.215Z" transform="translate(-85.656 -408.709)" opacity="0.1"/><path d="M194.772,683.582a5.658,5.658,0,0,1-5.3,2.971l-24.78-1.069-5.625-.47L79.853,672.161l-6.241-1.011-3.378-.566c-6.678-1.406-4.685-8.088-4.685-8.088.466-3.05,11.953-5.862,15.7-5.742,2.521.079,2.871,3.961,2.829,6.5a16.763,16.763,0,0,1-.133,2.168l3.707.533,72.473,10.368,29.54-.216a5.675,5.675,0,0,1,5.238,3.262,4.622,4.622,0,0,1-.133,4.211Z" transform="translate(-58.264 -397.235)" fill="#dce0ed"/><path d="M90.72,666.94a13.61,13.61,0,0,0,8.088,4.452S96.815,667.057,90.72,666.94Z" transform="translate(-73.125 -403.185)" opacity="0.1"/><path d="M74.111,693.138S63.68,692.9,63.68,698.547s6.565,6.565,6.565,6.565l93.172,17.924,26.486.466s9.257-7.381-.354-10.663l-26.715.691L73.994,697.24S76.336,694.074,74.111,693.138Z" transform="translate(-57.335 -418.482)" opacity="0.1"/><path d="M189.9,725.162l-26.486-.466L80.572,708.753l-6.062-1.169-4.265-.832s-6.565-.94-6.565-6.565c0-4.036,5.375-5.055,8.409-5.309,1.194-.1,2.022-.079,2.022-.079,2.226.936-.116,4.1-.116,4.1l3.233.595,85.608,15.71,26.719-.7C199.161,717.765,189.9,725.162,189.9,725.162Z" transform="translate(-57.335 -419.452)" fill="#dce0ed"/><path d="M99.235,678.53l5.509-2.463,2.813-.117-.233,23.674-8.671-1.756-3.636-2.342-1.756-9.844s.7-4.1,1.053-4.452S99.235,678.53,99.235,678.53Z" transform="translate(-74.608 -408.446)" fill="#dce0ed"/><path d="M99.235,678.53l5.509-2.463,2.813-.117-.233,23.674-8.671-1.756-3.636-2.342-1.756-9.844s.7-4.1,1.053-4.452S99.235,678.53,99.235,678.53Z" transform="translate(-74.608 -408.446)" opacity="0.1"/><path d="M91.59,708.759l.1.121L85.6,707.706l-.071-.117c-3.208-5.18-3.487-9.374-2.421-12.7,1.194-.1,2.022-.079,2.022-.079,2.226.936-.116,4.1-.116,4.1l3.233.595C88.028,704.145,90.995,708.027,91.59,708.759Z" transform="translate(-68.353 -419.458)" opacity="0.1"/><path d="M102.22,673.547a31.155,31.155,0,0,0-2.858,1.248c-3.944,1.9-6.378,4.027-7.8,6.187l-6.241-1.011c2.7-5.608,9.153-8.171,9.153-8.171l1.306.3Z" transform="translate(-69.972 -406.023)" opacity="0.1"/><path d="M94.519,671.73s-17.108,6.8-7.264,22.5l6.1,1.173s-12.066-13.83,8.9-21.918Z" transform="translate(-69.318 -405.982)" fill="#dce0ed"/><path d="M140.861,656.783l6.328-.233-1.057,25.429-10.2-1.872L131.6,678l-1.993-5.043-1.406-5.038,3.4-4.572,3.869-2.575Z" transform="translate(-74.861 -383.417)" fill="#dce0ed"/><path d="M140.861,656.783l6.328-.233-1.057,25.429-10.2-1.872L131.6,678l-1.993-5.043-1.406-5.038,3.4-4.572,3.869-2.575Z" transform="translate(-74.861 -383.417)" opacity="0.1"/><ellipse cx="3.046" cy="5.155" rx="3.046" ry="5.155" transform="translate(62.25 281.338)" fill="#dce0ed"/><path d="M127.648,748.187a6.784,6.784,0,0,0-4.306-5.45s-6.595-1.931-6.769,5.384c0,0,.087,4.485,3.079,5.891l.175,4.993s.262,4.66-2.376,4.219-2.284-4.577-2.284-4.577-1.406-4.394-4.835-2.109c0,0-.79,2.463.969,3.695,1.023.716,1.061,2.18.915,3.279a4.768,4.768,0,0,0,1.1,3.819,4.431,4.431,0,0,0,4.227,1.514,6.557,6.557,0,0,0,3.661-2.105,9.6,9.6,0,0,0,2.538-6.4l.129-6.432S128.526,752.672,127.648,748.187Zm-5.409,4.527a5.139,5.139,0,1,0,0-.017Z" transform="translate(-84.474 -447.311)" fill="#dce0ed"/><path d="M134.085,732.162a1.664,1.664,0,0,0-.832,2.309c.691,1.294,1.519,2.966,1.44,3.407-.133.745,1.539.133,1.756-.046s3.254,0,3.428-2.08a3.558,3.558,0,0,0-1.623-3.166l.7-4.527-4.161-.349.046,4.131Z" transform="translate(-97.85 -438.671)" fill="#636780"/><path d="M134.085,732.162a1.664,1.664,0,0,0-.832,2.309c.691,1.294,1.519,2.966,1.44,3.407-.133.745,1.539.133,1.756-.046s3.254,0,3.428-2.08a3.558,3.558,0,0,0-1.623-3.166l.7-4.527-4.161-.349.046,4.131Z" transform="translate(-97.85 -438.671)" opacity="0.1"/><path d="M138.26,738.21s1.406,4.835.791,4.993S138.26,738.21,138.26,738.21Z" transform="translate(-100.886 -444.802)" opacity="0.1"/><path d="M142.06,735.46s1.406,4.835.791,4.993S142.06,735.46,142.06,735.46Z" transform="translate(-103.105 -443.197)" opacity="0.1"/><path d="M138.65,694.7,136.3,709.235s-2.912-.4-4.5-.741a3.247,3.247,0,0,1-1.007-.312c-.083-.083-.254-.075-.483-.029h0c-.782.158-2.172.8-2.442.258a.386.386,0,0,0-.079-.112h0c-.275-.3-.807-.083-1.323,0a1.123,1.123,0,0,1-.832-.108c-.416-.291-1.311.175-2.026.329-.453.1-.832.079-1.023-.329a.944.944,0,0,0-.7-.5h0c-.674-.171-1.618-.054-2.163-.171a.5.5,0,0,1-.416-.271c-.108-.316-.711-.466-1.356-.591-.786-.15-1.631-.262-1.693-.578,0-.108-.1-.154-.212-.158a7.265,7.265,0,0,0-1.281.316h0c-.349.091-.645.091-.728-.158s-.5-.25-.957-.137c-.37.092-.782.237-1.1.312s-.491.075-.524-.062c-.117-.466-1.639.591-1.989-.349s-5.167-7.173,1.073-15.244c0,0,1.664.117,2.962.349a4.646,4.646,0,0,1,1.248.35h0a7.17,7.17,0,0,0,2.259.262,2.912,2.912,0,0,1,1.248.3.832.832,0,0,1,.354.374c.2.445.645.537,1.136.512.666-.042,1.406-.291,1.664-.158h.025c.491.212,2.33,0,2.642.312l.025.029c.133.2.832,0,1.589-.108h0a1.779,1.779,0,0,1,1.456.229,1.589,1.589,0,0,0,1.14.337,6.713,6.713,0,0,1,1.494.058.638.638,0,0,1,.3.187c.3.37,1.011.32,1.664.354a1.7,1.7,0,0,1,.932.233.874.874,0,0,0,.337.141,10.023,10.023,0,0,0,2.825-.141Z" transform="translate(-82.844 -417.001)" fill="#636780"/><path d="M116.431,706.426c-.37.091-.782.237-1.1.312-4.76-7.385-.753-12.994,1.5-15.3a4.649,4.649,0,0,1,1.248.349C113.294,697.306,115.516,704.2,116.431,706.426Z" transform="translate(-86.196 -417.491)" opacity="0.1"/><path d="M124.035,707.27a7.271,7.271,0,0,0-1.281.316h0c-4.073-7.2.116-12.59,2.234-14.666a2.912,2.912,0,0,1,1.248.3C121.681,698.2,123.033,704.407,124.035,707.27Z" transform="translate(-90.83 -418.356)" opacity="0.1"/><path d="M132.327,710.255a.494.494,0,0,1-.416-.271c-.108-.316-.711-.466-1.356-.591-3.574-6.524-.379-11.537,1.789-13.9.666-.042,1.406-.291,1.664-.158h.025C129.007,701,131.44,708.154,132.327,710.255Z" transform="translate(-95.447 -419.744)" opacity="0.1"/><path d="M141.532,711.647c-.453.1-.832.079-1.023-.329a.944.944,0,0,0-.7-.5h0c-4.161-7.268.083-12.7,2.2-14.77l.025.029c.133.2.832,0,1.589-.108C137.7,701.949,140.746,709.887,141.532,711.647Z" transform="translate(-100.762 -420.137)" opacity="0.1"/><path d="M151.857,712.206c-.275-.3-.807-.083-1.323,0-4.344-7.214-.354-12.665,1.843-14.891a6.717,6.717,0,0,1,1.494.058C148.8,702.828,150.892,709.78,151.857,712.206Z" transform="translate(-106.919 -420.912)" opacity="0.1"/><path d="M161.438,713.275a3.245,3.245,0,0,1-1.007-.312c-.083-.083-.254-.075-.483-.029h0c-3.849-6.59-.778-11.679,1.431-14.146a1.7,1.7,0,0,1,.932.233.874.874,0,0,0,.337.141C158.438,704.588,160.564,711.128,161.438,713.275Z" transform="translate(-112.481 -421.781)" opacity="0.1"/><ellipse cx="19.101" cy="28.125" rx="19.101" ry="28.125" transform="translate(143.469 274.073)" fill="#636780"/><ellipse cx="13.888" cy="22.796" rx="13.888" ry="22.796" transform="translate(148.037 279.811)" opacity="0.1"/><ellipse cx="13.888" cy="22.796" rx="13.888" ry="22.796" transform="translate(148.037 279.108)" fill="#f0f0f4"/><ellipse cx="1.639" cy="2.813" rx="1.639" ry="2.813" transform="translate(162.803 283.797)" fill="#636780"/><ellipse cx="1.639" cy="2.813" rx="1.639" ry="2.813" transform="translate(169.369 308.411)" fill="#636780"/><ellipse cx="1.639" cy="2.813" rx="1.639" ry="2.813" transform="translate(151.669 296.69)" fill="#636780"/><ellipse cx="1.639" cy="2.813" rx="1.639" ry="2.813" transform="translate(156.475 313.095)" fill="#636780"/><path d="M775.22,634.26s13.73,36.567,13.01,38.851c0,0,5.8,3.516,7.206,2.638s.179-17.058.179-17.058l-2.638-14.237-2.991-8.438Z" transform="translate(-472.834 -384.102)" fill="#e36b0a"/><path d="M775.22,634.26s13.73,36.567,13.01,38.851c0,0,5.8,3.516,7.206,2.638s.179-17.058.179-17.058l-2.638-14.237-2.991-8.438Z" transform="translate(-472.834 -384.102)" opacity="0.15"/><ellipse cx="1.639" cy="2.813" rx="1.639" ry="2.813" transform="translate(171.711 293.175)" fill="#636780"/><ellipse cx="4.805" cy="6.682" rx="4.805" ry="6.682" transform="translate(159.637 296.1)" fill="#636780"/><path d="M737.489,699.917c0,21.165-7.031,40.432-26.544,38.323-24.61-.528-26.544-17.158-26.544-38.323S696.274,663,710.936,663,737.489,678.748,737.489,699.917Z" transform="translate(-419.8 -400.884)" fill="#636780"/><path d="M756.344,703.214c0-16.384-7.123-29.54-17.146-34.624-12.869,2.446-22.758,17.25-22.758,36.559,0,17.345,1.3,31.62,15.315,36.53C749.783,742.328,756.344,723.68,756.344,703.214Z" transform="translate(-438.51 -404.148)" opacity="0.1"/><path d="M651.631,662.491s-3.516,2.987-5.45.878c0,0-4.747-37.974-10.722-38.148l-20.57-.175s-2.459,1.053-3.516,5.625l-13.314,37.861-72.872,1.048-5.567-11.65,60.3.175v-.025c.324-1.169,10.4-37.146,17.171-41.606h0a2.911,2.911,0,0,1,.745-.362s25.138-3.328,33.4-1.057c0,0,8.612,1.935,10.722,4.577h0c.283.3,3.545,3.969,4.556,14.562Z" transform="translate(-323.578 -372.424)" opacity="0.1"/><path d="M651.631,664.181s-3.516,2.987-5.45.878c0,0-4.747-37.974-10.722-38.148l-20.57-.175s-2.459,1.053-3.516,5.625l-13.314,37.861-72.872,1.048-5.567-11.65,60.3.175v-.025c.324-1.169,10.4-37.146,17.171-41.606h0a2.911,2.911,0,0,1,.745-.362s25.138-3.328,33.4-1.057c0,0,8.612,1.935,10.722,4.577v.021c.283.3,3.545,3.969,4.556,14.562Z" transform="translate(-323.578 -373.411)" fill="#e36b0a"/><path d="M651.631,664.181s-3.516,2.987-5.45.878c0,0-4.747-37.974-10.722-38.148l-20.57-.175s-2.459,1.053-3.516,5.625l-13.314,37.861-72.872,1.048-5.567-11.65,60.3.175v-.025c.324-1.169,10.4-37.146,17.171-41.606h0a2.911,2.911,0,0,1,.745-.362s25.138-3.328,33.4-1.057c0,0,8.612,1.935,10.722,4.577v.021c.283.3,3.545,3.969,4.556,14.562Z" transform="translate(-323.578 -373.411)" opacity="0.1"/><path d="M691.593,625.779c-1.76,3.328-16.875,44.477-16.875,44.477l-10.2-7.385v-.025c.325-1.169,10.4-37.183,17.179-41.606C686.109,621.972,692.787,623.512,691.593,625.779Z" transform="translate(-408.191 -376.499)" fill="#e36b0a"/><path d="M610.223,586.94l-8.263,27.069-43.07-1.248.349,4.044s33.755,4.922,48.167-1.76l7.739-24.726,67.971.349-12.948-3.046Z" transform="translate(-346.509 -356.469)" fill="#e36b0a"/><path d="M610.223,586.94l-8.263,27.069-43.07-1.248.349,4.044s33.755,4.922,48.167-1.76l7.739-24.726,67.971.349-12.948-3.046Z" transform="translate(-346.509 -356.469)" fill="#fff" opacity="0.1"/><path d="M179.669,689.47s-23.087,11.6-5.979,22.5l4.577,1.053S161.508,700.962,189.5,689.47Z" transform="translate(-117.889 -416.341)" opacity="0.1"/><path d="M181.359,689.47s-23.087,11.6-5.979,22.5l4.577,1.053S163.2,700.962,191.19,689.47Z" transform="translate(-118.875 -416.341)" fill="#dce0ed"/><ellipse cx="12.831" cy="21.976" rx="12.831" ry="21.976" transform="translate(288.498 280.044)" fill="#636780"/><ellipse cx="9.328" cy="17.807" rx="9.328" ry="17.807" transform="translate(291.569 284.687)" opacity="0.1"/><ellipse cx="9.328" cy="17.807" rx="9.328" ry="17.807" transform="translate(291.569 283.984)" fill="#f0f0f4"/><ellipse cx="1.103" cy="2.197" rx="1.103" ry="2.197" transform="translate(301.488 287.645)" fill="#636780"/><ellipse cx="1.103" cy="2.197" rx="1.103" ry="2.197" transform="translate(305.898 306.875)" fill="#636780"/><ellipse cx="1.103" cy="2.197" rx="1.103" ry="2.197" transform="translate(294.007 297.718)" fill="#636780"/><ellipse cx="1.103" cy="2.197" rx="1.103" ry="2.197" transform="translate(297.235 310.537)" fill="#636780"/><ellipse cx="1.103" cy="2.197" rx="1.103" ry="2.197" transform="translate(307.47 294.972)" fill="#636780"/><ellipse cx="3.229" cy="5.217" rx="3.229" ry="5.217" transform="translate(299.361 297.26)" fill="#636780"/><path d="M324.8,524s39.03,1.406,89.656,15.294Z" transform="translate(-209.814 -319.716)" opacity="0.1"/><path d="M770.479,359.77s-2.118.341-1.015,3.137a20.008,20.008,0,0,1,1.286,4.24s2.122,1.1,2.035-2.546S770.479,359.77,770.479,359.77Z" transform="translate(-469.287 -223.815)" fill="#dce0ed"/><path d="M521.346,494.486l-.025.033a3.969,3.969,0,0,0-.832,1.918c-.341,2.222-.666,6.773,2.567,6.02a9.986,9.986,0,0,0,4.818-2.617,3.949,3.949,0,0,0,1.069-2.912h0a3.037,3.037,0,0,0-1.336-2.538l-1.2-.691a2.081,2.081,0,0,0-1.123-.291l-2.08.075a2.6,2.6,0,0,0-1.856,1Z" transform="translate(-323.965 -301.852)" fill="#fec2be"/><path d="M564.109,404.5,557.9,435.363l-4.4,9.286,2.912,5.409,6.449-15.186s7.073-22.259,7.073-22.883S564.109,404.5,564.109,404.5Z" transform="translate(-343.362 -249.935)" fill="#e36b0a"/></svg>