<svg xmlns="http://www.w3.org/2000/svg" xmlns:xlink="http://www.w3.org/1999/xlink" width="511.154" height="456.665" viewBox="0 0 511.154 456.665"><defs><linearGradient id="a" y1="0.5" x2="1" y2="0.5" gradientUnits="objectBoundingBox"><stop offset="0" stop-color="gray" stop-opacity="0.251"/><stop offset="0.535" stop-color="gray" stop-opacity="0.122"/><stop offset="1" stop-color="gray" stop-opacity="0.102"/></linearGradient></defs><path d="M492.412,76.854,332,175.571s0,203.6,160.414,314.659C652.826,379.174,652.826,175.571,652.826,175.571Z" transform="translate(-235.825 -70.463)" fill="#3f3d56"/><path d="M601.442,76.854,598.7,78.542V488.3c.911.644,1.821,1.288,2.742,1.926C761.856,379.174,761.856,175.571,761.856,175.571Z" transform="translate(-343.898 -70.463)" fill="#e36b0a" opacity="0.04"/><g transform="translate(205.151 180.071)" opacity="0.7"><path d="M357.521,329.11l30.241,27.72,37.488-54.08,15.121,12.6-52.609,66.681L344.921,334.15Z" transform="translate(-344.921 -302.75)" fill="url(#a)"/></g><path d="M371.142,330.37l24.531,22.486,34.752-51.106,12.266,10.221L395.673,373.3l-34.752-38.841Z" transform="translate(-146.254 -122.274)" fill="#3ad29f"/><path d="M330.612,111.308a2.186,2.186,0,0,1-1.218-2.641,1.05,1.05,0,0,0,.048-.242h0a1.1,1.1,0,0,0-1.969-.726h0a1.053,1.053,0,0,0-.121.215,2.186,2.186,0,0,1-2.641,1.218,1.049,1.049,0,0,0-.242-.048h0a1.1,1.1,0,0,0-.726,1.969h0a1.05,1.05,0,0,0,.215.121,2.186,2.186,0,0,1,1.218,2.641,1.05,1.05,0,0,0-.047.242h0a1.1,1.1,0,0,0,1.969.726h0a1.053,1.053,0,0,0,.121-.215,2.186,2.186,0,0,1,2.641-1.218,1.049,1.049,0,0,0,.242.048h0a1.1,1.1,0,0,0,.726-1.969h0a1.05,1.05,0,0,0-.215-.121Z" transform="translate(-232.303 -82.784)" fill="#4d8af0" opacity="0.5"/><path d="M184.612,436.308a2.186,2.186,0,0,1-1.218-2.641,1.051,1.051,0,0,0,.048-.242h0a1.1,1.1,0,0,0-1.969-.726h0a1.049,1.049,0,0,0-.121.215,2.186,2.186,0,0,1-2.641,1.218,1.052,1.052,0,0,0-.242-.048h0a1.1,1.1,0,0,0-.726,1.969h0a1.052,1.052,0,0,0,.215.121,2.186,2.186,0,0,1,1.218,2.641,1.052,1.052,0,0,0-.048.242h0a1.1,1.1,0,0,0,1.969.726h0a1.051,1.051,0,0,0,.121-.215,2.186,2.186,0,0,1,2.641-1.218,1.052,1.052,0,0,0,.242.048h0a1.1,1.1,0,0,0,.726-1.969h0A1.048,1.048,0,0,0,184.612,436.308Z" transform="translate(-173.141 -214.48)" fill="#4d8af0" opacity="0.5"/><ellipse cx="3.569" cy="3.569" rx="3.569" ry="3.569" transform="translate(441.564 147.506)" fill="#f55f44" opacity="0.5"/><ellipse cx="3.569" cy="3.569" rx="3.569" ry="3.569" transform="translate(68.635 402.668)" fill="#f55f44" opacity="0.5"/><ellipse cx="3.569" cy="3.569" rx="3.569" ry="3.569" transform="translate(502.232 284.901)" fill="#f55f44" opacity="0.5"/><path d="M869.612,140.308a2.185,2.185,0,0,1-1.218-2.641,1.052,1.052,0,0,0,.047-.242h0a1.1,1.1,0,0,0-1.969-.726h0a1.054,1.054,0,0,0-.121.215,2.185,2.185,0,0,1-2.641,1.218,1.053,1.053,0,0,0-.242-.048h0a1.1,1.1,0,0,0-.726,1.969h0a1.048,1.048,0,0,0,.215.121,2.185,2.185,0,0,1,1.218,2.641,1.052,1.052,0,0,0-.047.242h0a1.1,1.1,0,0,0,1.969.726h0a1.049,1.049,0,0,0,.121-.215,2.186,2.186,0,0,1,2.641-1.218,1.049,1.049,0,0,0,.242.048h0a1.1,1.1,0,0,0,.726-1.969h0a1.051,1.051,0,0,0-.215-.121Z" transform="translate(-450.715 -94.535)" fill="#4d8af0" opacity="0.5"/><path d="M969.612,768.308a2.186,2.186,0,0,1-1.218-2.641,1.051,1.051,0,0,0,.047-.242h0a1.1,1.1,0,0,0-1.969-.726h0a1.052,1.052,0,0,0-.121.215,2.186,2.186,0,0,1-2.641,1.218,1.052,1.052,0,0,0-.242-.048h0a1.1,1.1,0,0,0-.726,1.969h0a1.045,1.045,0,0,0,.215.121,2.186,2.186,0,0,1,1.218,2.641,1.057,1.057,0,0,0-.047.242h0a1.1,1.1,0,0,0,1.969.726h0a1.051,1.051,0,0,0,.121-.215,2.185,2.185,0,0,1,2.641-1.218,1.052,1.052,0,0,0,.242.048h0a1.1,1.1,0,0,0,.726-1.969h0a1.051,1.051,0,0,0-.215-.121Z" transform="translate(-491.237 -349.012)" fill="#4d8af0" opacity="0.5"/><path d="M177.612,246.308a2.186,2.186,0,0,1-1.218-2.641,1.05,1.05,0,0,0,.048-.242h0a1.1,1.1,0,0,0-1.969-.726h0a1.051,1.051,0,0,0-.121.215,2.186,2.186,0,0,1-2.641,1.218,1.052,1.052,0,0,0-.242-.048h0a1.1,1.1,0,0,0-.726,1.969h0a1.051,1.051,0,0,0,.215.121,2.186,2.186,0,0,1,1.218,2.641,1.05,1.05,0,0,0-.048.242h0a1.1,1.1,0,0,0,1.969.726h0a1.051,1.051,0,0,0,.121-.215,2.186,2.186,0,0,1,2.641-1.218,1.05,1.05,0,0,0,.242.048h0a1.1,1.1,0,0,0,.726-1.969h0A1.05,1.05,0,0,0,177.612,246.308Z" transform="translate(-170.305 -137.488)" fill="#4d8af0" opacity="0.5"/><ellipse cx="3.569" cy="3.569" rx="3.569" ry="3.569" transform="translate(43.654 165.35)" fill="#47e6b1" opacity="0.5"/><ellipse cx="3.569" cy="3.569" rx="3.569" ry="3.569" transform="translate(504.016 193.899)" fill="#47e6b1" opacity="0.5"/><g transform="translate(342.83)" opacity="0.5"><rect width="1.784" height="10.111" transform="translate(4.163)" fill="#47e6b1"/><rect width="1.784" height="10.111" transform="translate(10.111 4.163) rotate(90)" fill="#47e6b1"/></g><g transform="translate(349.373 396.126)" opacity="0.5"><rect width="1.784" height="10.111" transform="translate(4.163)" fill="#47e6b1"/><rect width="1.784" height="10.111" transform="translate(10.111 4.163) rotate(90)" fill="#47e6b1"/></g><g transform="translate(11.536 417.538)" opacity="0.5"><rect width="1.784" height="10.111" transform="translate(4.163)" fill="#47e6b1"/><rect width="1.784" height="10.111" transform="translate(10.111 4.163) rotate(90)" fill="#47e6b1"/></g><g transform="translate(417.773 235.534)" opacity="0.5"><rect width="1.784" height="10.111" transform="translate(4.163)" fill="#47e6b1"/><rect width="1.784" height="10.111" transform="translate(10.111 4.163) rotate(90)" fill="#47e6b1"/></g><path d="M794.518,119.972l3.832,3.513,5.429-7.984,1.916,1.6-7.346,9.581-5.429-6.068Z" transform="translate(-321.308 -46.803)" fill="#47e6b1" opacity="0.5"/><rect width="13.229" height="17.009" transform="translate(350.589 142.827) rotate(-2.221)" fill="#e36b0a"/><path d="M669.435,402.552s-18.307-8.747-18.014-1.193,18.453,12.524,18.453,12.524Z" transform="translate(-365.26 -200.712)" fill="#ffb9b9"/><path d="M687.249,506.032s-8.637,21.14-11.828,36.394-8.051,36.247-1.8,51.136,24.024,58.645,24.207,63.366-1.522,9.516,2.255,9.369,24.331-6.618,25.165-9.487-7.013-10.13-7.013-10.13l-19.376-60.717,20.216-39.556,14.582,59.011,2.856,73.651s14.017-4.326,16.052-.622c0,0,6.28-8.755,7.078-12.568s-2.966-76.484-2.966-76.484,12.867-82.772,2.48-82.369S708.088,482.528,687.249,506.032Z" transform="translate(-373.03 -240.276)" fill="#e36b0a"/><path d="M709.937,771.587s-9.581,21.176-10.489,22.157-7.151,10.68-2.43,10.5,15.869-5.344,24.074-13.227,19.024-21.542,18.043-22.45-7.7-3.484-7.7-3.484Z" transform="translate(-383.03 -349.343)" fill="#575a89"/><path d="M782.03,794.617s-.578,9.479-2.32,13.329-1.522,9.516,3.2,9.333,16.923-2.548,16.923-2.548.725-5.7-.256-6.61-5.161-11.148-3.382-14.054S782.03,794.617,782.03,794.617Z" transform="translate(-416.841 -360.618)" fill="#575a89"/><path d="M786.7,278.6s10.065,15.686,13.988,19.316-7.115,11.624-7.115,11.624L773.819,312.2s.249-17.977-.769-19.829S786.7,278.6,786.7,278.6Z" transform="translate(-414.527 -152.214)" fill="#ffb9b9"/><path d="M752.859,310.165s4.07,7.407,7.847,7.261,23.313-8.469,24.148-11.339,6.471,20.554,6.471,20.554l-47.8,84.126-11.66-8.059,5.65-49.394,4.64-26.659Z" transform="translate(-397.857 -163.253)" fill="#e36b0a"/><path d="M770.258,381.583a26.454,26.454,0,0,0-2.933,12.407c.007.189.015.378.031.566.452,8.739,3.672,18.847,4.827,26.2.838,5.273.6,9.121-2.486,10.026-7.481,2.181,1.091,3.74-27.851,13.374s-33.993,1.318-34.066-.57,4.1-16.235,3.118-17.143-13.724,11.88-17.574,10.138-.439-11.331-.439-11.331,8.674-20.2,8.49-24.917,13.138-26.988,13.138-26.988l9.061-58.983s3.484-7.7,8.169-8.828a11.6,11.6,0,0,1,8.571,1.559l-7.839,17.326L724.2,355l1.384,11.294s9.618-20.232,15.935-28.042,19.785-26.3,19.785-26.3,3.144-10.609.771-13.78,9.9-3.656,15.135,9.38c2.774,6.909,7.278,17.213,10.1,26.806,2.514,8.5,3.7,16.443,1.211,20.985C784.716,362.279,775.14,371.4,770.258,381.583Z" transform="translate(-381.498 -159.381)" fill="#575a89"/><path d="M839.6,379.678c-3.807,6.938-13.383,16.056-18.265,26.241-1.275-4.594-2.831-9.347-2.831-9.347s-5.966-31.921,11.682-40.171a11.811,11.811,0,0,1,8.2,2.292C840.9,367.192,842.087,375.137,839.6,379.678Z" transform="translate(-432.571 -183.718)" opacity="0.1"/><path d="M711.042,392.191l-14.961,4.363-20.773.806L673.17,415.41l34.139,2.459S715.836,393.9,711.042,392.191Z" transform="translate(-374.074 -198.242)" fill="#575a89"/><path d="M766.875,494.231s-20.015,3.321-15.447,9.344,22.3-.309,22.3-.309Z" transform="translate(-405.511 -239.591)" fill="#ffb9b9"/><path d="M798.985,461.5c.452,8.739,3.672,18.847,4.827,26.2-6.376,6.035-12.44,11.357-14.725,11.446-4.721.183-12.312-.468-15.108.586s-4.436-16.85-4.436-16.85,1.669-5.739,9.113-8.864A103.682,103.682,0,0,0,798.985,461.5Z" transform="translate(-413.126 -226.329)" opacity="0.1"/><path d="M810.368,346.87s15.979-2.511,15.116,24,1.684,43.435-4.742,48.413-27.3,27.537-32.023,27.72-12.312-.468-15.108.586-4.436-16.85-4.436-16.85,1.669-5.739,9.113-8.864,24.982-14.208,24.836-17.985-4.436-16.85-4.436-16.85S792.72,355.12,810.368,346.87Z" transform="translate(-412.977 -179.852)" fill="#575a89"/><ellipse cx="20.789" cy="20.789" rx="20.789" ry="20.789" transform="translate(337.295 108.036)" fill="#ffb9b9"/><path d="M741.273,229.742a4.015,4.015,0,0,1-1.748.877,1.247,1.247,0,0,1-1.446-1,5.182,5.182,0,0,1-1.983,2.544c-.971.506-2.473.082-2.613-1a4.584,4.584,0,0,1-1.055,2.227,1.58,1.58,0,0,1-2.221.074c.425,2.324.163,4.714.3,7.073s.763,4.86,2.545,6.411c2.6,2.262,6.508,1.7,9.927,1.275a3.013,3.013,0,0,1,1.556.085c1.28.545,1.222,2.327,1.239,3.719a10.333,10.333,0,0,0,9.048,9.812,5.18,5.18,0,0,0,3.85-.94c.971-.823,1.467-2.164,2.579-2.782,1.809-1.005,4,.461,5.327,2.053s2.627,3.55,4.676,3.842c2.71.385,4.775-2.377,5.788-4.92a28.683,28.683,0,0,0-.57-22.286C770.807,224.464,751.475,222.513,741.273,229.742Z" transform="translate(-397.187 -130.714)" fill="#2f2e41"/></svg>