<svg xmlns="http://www.w3.org/2000/svg" xmlns:xlink="http://www.w3.org/1999/xlink" width="585.953" height="426.05" viewBox="0 0 585.953 426.05"><defs><linearGradient id="a" x1="0.5" y1="1" x2="0.5" gradientUnits="objectBoundingBox"><stop offset="0" stop-color="gray" stop-opacity="0.251"/><stop offset="0.54" stop-color="gray" stop-opacity="0.122"/><stop offset="1" stop-color="gray" stop-opacity="0.102"/></linearGradient><linearGradient id="b" x1="0.5" y1="1" x2="0.5" y2="0" xlink:href="#a"/></defs><g transform="translate(-0.004 0)"><ellipse cx="29.175" cy="10.373" rx="29.175" ry="10.373" transform="translate(12.235 323.241)" opacity="0.1"/><ellipse cx="29.175" cy="10.373" rx="29.175" ry="10.373" transform="translate(483.563 366.128)" opacity="0.1"/><path d="M502.878,133.379a194.814,194.814,0,0,1-137.227,1.8C302.3,112.308,219.556,106.453,188.9,211.27c-52.327,179.077,54.726,243,54.726,243s74.74,16.753,116.123,47.024c58.785,43,130.776,57.371,198.592,37.208,43.367-12.9,80.536-34.051,91.163-68.665,29.72-96.81,10.853-155,64.639-180.523S738,169.225,699.746,167.079,571.375,186.867,543.5,143.24C533.558,127.751,518.354,127.395,502.878,133.379Z" transform="translate(-157.385 -121.43)" opacity="0.1"/><path d="M934.086,658.573s7.78-26.478-1.465-45.967a41.825,41.825,0,0,1-3.384-26.238,70.342,70.342,0,0,1,3.715-12.318" transform="translate(-422.528 -280.6)" fill="none" stroke="#535461" stroke-miterlimit="10" stroke-width="2"/><path d="M926.506,551.872c0,3.242,5.874,12.656,5.874,12.656s5.874-9.407,5.874-12.656a5.877,5.877,0,1,0-11.754,0Z" transform="translate(-421.841 -270.734)" fill="#e36b0a"/><path d="M911.021,577.871c1.764,2.723,11.813,7.43,11.813,7.43s-.182-11.093-1.945-13.816a5.874,5.874,0,0,0-9.861,6.386Z" transform="translate(-416.067 -278.755)" fill="#e36b0a"/><path d="M910.428,624.128c2.9,1.459,13.946.454,13.946.454s-5.757-9.485-8.655-10.944a5.874,5.874,0,0,0-5.29,10.49Z" transform="translate(-415.052 -294.3)" fill="#e36b0a"/><path d="M919.458,660.151c2.593,1.945,13.667,2.8,13.667,2.8s-4.072-10.322-6.678-12.247a5.875,5.875,0,0,0-6.989,9.446Z" transform="translate(-418.527 -307.152)" fill="#e36b0a"/><path d="M941.624,589.747c-2.328,2.263-13.174,4.6-13.174,4.6s2.658-10.769,4.986-13.031a5.876,5.876,0,0,1,8.188,8.428Z" transform="translate(-422.526 -282.572)" fill="#e36b0a"/><path d="M950.7,631.116c-2.9,1.459-13.946.454-13.946.454s5.757-9.485,8.655-10.911a5.874,5.874,0,0,1,5.29,10.49Z" transform="translate(-425.445 -296.769)" fill="#e36b0a"/><path d="M954.477,673.391c-2.593,1.945-13.667,2.8-13.667,2.8s4.072-10.321,6.678-12.247a5.875,5.875,0,0,1,6.989,9.446Z" transform="translate(-426.873 -311.808)" fill="#e36b0a"/><path d="M205.482,538.276s16.656-56.483-3.112-98.106a89.419,89.419,0,0,1-7.216-56,150.114,150.114,0,0,1,7.929-26.284" transform="translate(-164.059 -204.584)" fill="none" stroke="#535461" stroke-miterlimit="10" stroke-width="2"/><path d="M189.326,310.539c0,6.924,12.539,27.01,12.539,27.01s12.532-20.1,12.532-27.01a12.539,12.539,0,1,0-25.078,0Z" transform="translate(-162.601 -183.523)" fill="#e36b0a"/><path d="M156.355,366.144C160.122,371.979,181.562,382,181.562,382s-.389-23.677-4.156-29.486a12.539,12.539,0,0,0-21.051,13.615Z" transform="translate(-150.356 -200.766)" fill="#e36b0a"/><path d="M155.01,464.764c6.185,3.119,29.765.966,29.765.966s-12.318-20.241-18.471-23.34a12.54,12.54,0,0,0-11.294,22.394Z" transform="translate(-148.11 -233.827)" fill="#e36b0a"/><path d="M174.242,541.63c5.569,4.117,29.175,5.978,29.175,5.978s-8.688-22.043-14.263-26.141a12.539,12.539,0,0,0-14.912,20.163Z" transform="translate(-155.511 -261.244)" fill="#e36b0a"/><path d="M221.6,391.313c-4.966,4.824-28.112,9.822-28.112,9.822s5.666-22.99,10.633-27.814a12.551,12.551,0,0,1,17.505,17.991Z" transform="translate(-164.067 -208.761)" fill="#e36b0a"/><path d="M240.955,479.644c-6.185,3.118-29.765.966-29.765.966s12.318-20.241,18.471-23.34a12.54,12.54,0,0,1,11.294,22.394Z" transform="translate(-170.292 -239.059)" fill="#e36b0a"/><path d="M249.025,569.9c-5.569,4.117-29.175,5.978-29.175,5.978s8.688-22.043,14.263-26.141A12.539,12.539,0,1,1,249.025,569.9Z" transform="translate(-173.337 -271.186)" fill="#e36b0a"/><path d="M506.276,417.7l-36.132-4.681c-1.465-.188-2.593-.746-2.554-1.232h0c.065-.486,1.3-.713,2.794-.5l36.054,5.219c.992.143,1.744.519,1.7.849h0C508.091,417.666,507.261,417.828,506.276,417.7Z" transform="translate(-260.458 -223.334)" fill="#e36b0a"/><path d="M506.45,420.115l-36.242-3.747c-1.472-.149-2.723.123-2.768.609h0c-.045.486,1.128,1,2.593,1.128l36.307,3.242c1,.091,1.815-.1,1.848-.434h0C508.213,420.563,507.442,420.219,506.45,420.115Z" transform="translate(-260.405 -225.135)" fill="#e36b0a"/><path d="M610.456,460.7l36.125-4.681c1.465-.188,2.593-.746,2.554-1.232h0c-.065-.486-1.3-.713-2.794-.5l-36.054,5.219c-.992.143-1.744.519-1.7.849h0C608.634,460.666,609.464,460.828,610.456,460.7Z" transform="translate(-310.042 -238.455)" fill="#e36b0a"/><path d="M610.167,463.115l36.242-3.747c1.472-.149,2.723.123,2.768.609h0c.045.486-1.128,1-2.593,1.128l-36.307,3.242c-1,.091-1.815-.1-1.848-.434h0C608.4,463.563,609.175,463.219,610.167,463.115Z" transform="translate(-309.986 -240.256)" fill="#e36b0a"/><rect width="8.811" height="126.335" transform="translate(172.096 261.046)" fill="#40414d"/><rect width="8.811" height="126.335" transform="translate(364.535 261.046)" fill="#40414d"/><path d="M252.513,386.78H456.091a14.263,14.263,0,0,1,14.263,14.263v1.893H238.25v-1.893a14.263,14.263,0,0,1,14.263-14.263Z" transform="translate(-83.783 -136.017)" fill="#dfe6f5"/><path d="M251.513,386.78H455.091a14.263,14.263,0,0,1,14.263,14.263v1.893H237.25v-1.893a14.263,14.263,0,0,1,14.263-14.263Z" transform="translate(-83.431 -136.017)" opacity="0.1"/><path d="M252.513,382.24H456.091A14.263,14.263,0,0,1,470.354,396.5V398.4H238.25V396.5A14.263,14.263,0,0,1,252.513,382.24Z" transform="translate(-83.783 -134.42)" fill="#dfe6f5"/><circle cx="17.628" cy="17.628" r="17.628" transform="translate(252.891 202.281)" fill="#ffd77c" stroke="#ffab50" stroke-miterlimit="10" stroke-width="1"/><circle cx="13.972" cy="13.972" r="13.972" transform="translate(256.548 205.937)" fill="#ffd77c" stroke="#ffab50" stroke-miterlimit="10" stroke-width="1"/><circle cx="10.646" cy="10.646" r="10.646" transform="translate(259.874 209.263)" fill="#ffd77c" stroke="#ffab50" stroke-miterlimit="10" stroke-width="1"/><circle cx="5.984" cy="5.984" r="5.984" transform="translate(264.535 213.925)" fill="#ffd77c" stroke="#ffab50" stroke-miterlimit="10" stroke-width="1"/><circle cx="17.628" cy="17.628" r="17.628" transform="translate(242.609 211.831)" fill="#ffd77c" stroke="#ffab50" stroke-miterlimit="10" stroke-width="1"/><circle cx="13.972" cy="13.972" r="13.972" transform="translate(246.265 215.487)" fill="#ffd77c" stroke="#ffab50" stroke-miterlimit="10" stroke-width="1"/><circle cx="10.646" cy="10.646" r="10.646" transform="translate(249.591 218.813)" fill="#ffd77c" stroke="#ffab50" stroke-miterlimit="10" stroke-width="1"/><circle cx="5.984" cy="5.984" r="5.984" transform="translate(254.253 223.475)" fill="#ffd77c" stroke="#ffab50" stroke-miterlimit="10" stroke-width="1"/><circle cx="17.628" cy="17.628" r="17.628" transform="translate(263.174 211.831)" fill="#ffd77c" stroke="#ffab50" stroke-miterlimit="10" stroke-width="1"/><circle cx="13.972" cy="13.972" r="13.972" transform="translate(266.83 215.487)" fill="#ffd77c" stroke="#ffab50" stroke-miterlimit="10" stroke-width="1"/><circle cx="10.646" cy="10.646" r="10.646" transform="translate(270.156 218.813)" fill="#ffd77c" stroke="#ffab50" stroke-miterlimit="10" stroke-width="1"/><circle cx="5.984" cy="5.984" r="5.984" transform="translate(274.818 223.475)" fill="#ffd77c" stroke="#ffab50" stroke-miterlimit="10" stroke-width="1"/><path d="M360.6,346h73.45v3.449a25.933,25.933,0,0,1-25.933,25.933H386.533A25.933,25.933,0,0,1,360.6,349.449Z" transform="translate(-126.809 -121.676)" fill="#e36b0a"/><path d="M587.944,467.42a29.376,29.376,0,0,1-29.363,28.643H544a29.444,29.444,0,0,0,6.483.739h14.691a29.383,29.383,0,0,0,29.4-29.383Z" transform="translate(-287.329 -243.102)" opacity="0.1"/><rect width="8.811" height="190.974" transform="translate(368.943 357.266) rotate(90)" fill="#40414d"/><rect width="7.709" height="70.137" transform="translate(98.659 326.495)" fill="#40414d"/><rect width="7.709" height="70.137" transform="translate(159.544 326.495)" fill="#40414d"/><path d="M377.56,602.59c0,4.681-15.871,8.48-35.451,8.48s-34.679-3.793-34.679-8.48,15.1-8.48,34.679-8.48S377.56,597.929,377.56,602.59Z" transform="translate(-204.136 -287.655)" fill="#f6c6cd"/><path d="M142.66,485.75h80.925v7.067a6.808,6.808,0,0,1-6.808,6.808H154.33a11.67,11.67,0,0,1-11.67-11.67Z" transform="translate(-50.167 -170.821)" fill="#40414d"/><path d="M4.551,0H6.263A4.538,4.538,0,0,1,10.8,4.538V96.33H8.208A8.208,8.208,0,0,1,0,88.122V4.538A4.538,4.538,0,0,1,4.551,0Z" transform="translate(74.312 234.838) rotate(-12.72)" fill="#40414d"/><rect width="7.709" height="70.137" transform="translate(443.671 397.877) rotate(180)" fill="#40414d"/><rect width="7.709" height="70.137" transform="translate(382.785 397.877) rotate(180)" fill="#40414d"/><path d="M717.13,604.5c0,4.681,15.871,8.48,35.451,8.48s34.68-3.793,34.68-8.48-15.106-8.5-34.68-8.5S717.13,599.819,717.13,604.5Z" transform="translate(-348.213 -288.319)" fill="#f6c6cd"/><path d="M11.67,0H74.118a6.807,6.807,0,0,1,6.807,6.808v7.067H0v-2.2A11.67,11.67,0,0,1,11.67,0Z" transform="translate(449.836 330.055) rotate(180)" fill="#40414d"/><path d="M8.195,0h2.593V91.8A4.538,4.538,0,0,1,6.25,96.343H4.538A4.538,4.538,0,0,1,0,91.8V8.208A8.208,8.208,0,0,1,8.195,0Z" transform="translate(446.806 330.042) rotate(-167.28)" fill="#40414d"/><path d="M762.421,475.631l2.276-.72s-3.89-25.985-3.851-49.273v-2.01c.045-1.452.1-2.892.169-4.3.091-1.8.11-3.52.1-5.187.214-22.426-8.623-31.9-8.623-31.9s-10.373-14.795-16.591-17.674c-.538-1.686-1.154-3.851-1.7-6.367.2-.136.4-.272.584-.415a83.936,83.936,0,0,0,7.359-6.14c3.19-2.989,6.25-6.632,6.081-10.743a7.881,7.881,0,0,0-.039-1.2c-.59-4.96-5.744-8.694-7.825-13.395-1.751-3.948-1.225-8.344-2.755-12.351s-6.872-7.735-10.905-5.628c-1.485.778-2.379,2.152-3.618,3.2-3.073,2.593-8.026,2.833-12.228,1.653s-5.446-5.991-11.32-6a6.825,6.825,0,0,1,1.485.707,9.346,9.346,0,0,0-1.485-.13,6.483,6.483,0,0,1,4.486,5.453,4.487,4.487,0,0,1-.052.467c-2.347,1.264-5.433.545-8.247.5s-6.017,1.374-5.738,3.676a2.222,2.222,0,0,0,0,.791c.37,1.744,2.7,3.06,2.989,4.674v.13a48.47,48.47,0,0,1-16.63,4.85c-.188,0-.1.227.169.558h-.169c-1.057.11,6.334,5.952,7.177,6.334a103.153,103.153,0,0,0,10.043,3.508l.285.091a20.448,20.448,0,0,0-1.666,8.1c0,9.984,7.177,18.374,16.9,20.747,1.815,2.12,3.721,4.448,5.459,6.762h-.123a70.41,70.41,0,0,0-10.373,45.377c-7.184-.408-22.62-2.3-34.362-10.9-15.839-11.586-33.506-8.111-29.823-1.161s22.543,12.74,25.583,13.323c.285.052.947.207,1.893.441-3.747.707-6.315,1.945-6.159,3.611.3,3.183,16.448,13.323,26.193,13.9,6.438.383,14.186,2.366,20.3,4.11.59,13.323-2.632,17.317-2.632,17.317s.96.59,2.548,1.426l-.681,1.945c-3.955,2.282-8.83,4.662-13.265,5.621a72.864,72.864,0,0,0-16.364,5.446l-21.933,10.6a12.7,12.7,0,0,0-7.261,9.978c-.48,4.493.875,10.108,8.214,14.562.454,3.65,2.684,7.91,8.539,11.813,11.346,7.547,41.163,30.154,45.221,33.24.078,5.517-.648,16.584-7.456,18.309-8.532,2.165-1.666,10.373,5.232,10.049a9.038,9.038,0,0,0,5.128.376c7.313-1.738,34.115-11.022,35.944-24.909a13.319,13.319,0,0,0,.1-1.815,12.111,12.111,0,0,0-1.7-6.749,12.154,12.154,0,0,1,.694,1.945c-2.217-5.057-7.618-8.234-11.819-10.023v-.143c-.648-.253-1.3-.46-1.828-.648a5.439,5.439,0,0,0-.084-1.122l-42.032-28.961s18.277-15.061,37.163-12.74,21.894-1.109,21.894-1.109,9.686-9.213,10.659-19.82l.609-.162S762.512,476.856,762.421,475.631Z" transform="translate(-320.864 -186.752)" fill="url(#a)"/><path d="M744.244,676.816s1.718,18.912-6.879,21.207-.571,11.463,6.3,9.725,32.1-10.892,33.817-24.637-17.194-18.341-17.194-18.341Z" transform="translate(-354.016 -312.503)" fill="#b8616e"/><path d="M744.244,676.816s1.718,18.912-6.879,21.207-.571,11.463,6.3,9.725,32.1-10.892,33.817-24.637-17.194-18.341-17.194-18.341Z" transform="translate(-354.016 -312.503)" opacity="0.05"/><path d="M749.574,677.7s1.718,18.912-6.879,21.207-.57,11.463,6.3,9.725,32.1-10.892,33.817-24.637-17.194-18.341-17.194-18.341Z" transform="translate(-355.891 -312.813)" fill="#b8616e"/><path d="M774.033,666.55,758,678.59s.071.817.117,2.12c6.055-1.66,19.249-6.068,19.45-12.967A31.086,31.086,0,0,0,774.033,666.55Z" transform="translate(-362.585 -313.129)" opacity="0.1"/><rect width="6.879" height="5.161" transform="translate(394.54 188.633)" fill="#f8bdc5"/><path d="M723.011,541s-10.924,8.584-19.9,10.62a66.233,66.233,0,0,0-15.4,5.388L667.079,567.5a12.539,12.539,0,0,0-6.833,9.874c-.59,5.835,1.757,13.511,15.761,18.076l44.132,36.683L733.9,620.668l-47-36.1,36.112-22.355Z" transform="translate(-328.18 -268.978)" fill="#758ac8"/><path d="M723.011,541s-10.924,8.584-19.9,10.62a66.233,66.233,0,0,0-15.4,5.388L667.079,567.5a12.539,12.539,0,0,0-6.833,9.874c-.59,5.835,1.757,13.511,15.761,18.076l44.132,36.683L733.9,620.668l-47-36.1,36.112-22.355Z" transform="translate(-328.18 -268.978)" opacity="0.1"/><path d="M712.3,471.816s-21.207.571-36.112-10.892-31.522-8.026-28.086-1.148,21.207,12.61,24.073,13.181S716.307,485,716.307,485Z" transform="translate(-323.778 -238.188)" fill="#f8bdc5"/><path d="M712.3,471.816s-21.207.571-36.112-10.892-31.522-8.026-28.086-1.148,21.207,12.61,24.073,13.181S716.307,485,716.307,485Z" transform="translate(-323.778 -238.188)" opacity="0.05"/><path d="M723.184,533.06,716.305,553.7s-38.686,23.787-41.844,26.938c-2.451,2.451-5.731,12.04,5.731,20.06s42.985,33.247,42.985,33.247,24.073-5.187,22.355-14.912l-39.548-28.656s17.194-14.912,34.965-12.61,20.637-1.148,20.637-1.148,13.758-13.771,9.167-26.932S723.184,533.06,723.184,533.06Z" transform="translate(-332.366 -266.185)" fill="#758ac8"/><path d="M737.65,379.67s19.489,21.207,18.341,27.509,15.476-18.341,15.476-18.341-5.187-12.61-4.013-26.368Z" transform="translate(-355.429 -206.195)" fill="#f8bdc5"/><path d="M755.8,412.057a56.951,56.951,0,0,1,4.195-4,58.158,58.158,0,0,0,8.033-8.02c4.013-5.187,18.912,17.194,18.912,17.194s9.167,10.315,8.026,34.965,1.433,57.6,1.433,57.6l-3.469.966a19.858,19.858,0,0,1-17.57-2.5c-4.577-3.164-10.373-6.483-14.782-6.782-8.6-.571-16.338-5.446-16.338-5.446s3.728-8.882-2-37.545,8.876-49.034,8.876-49.034S752.267,415.7,755.8,412.057Z" transform="translate(-356.573 -219.132)" opacity="0.1"/><path d="M798.417,506.274l-3.436,1.148-2.042.681a19.852,19.852,0,0,1-17.57-2.5c-4.571-3.157-10.373-6.483-14.782-6.782-8.584-.577-18.309-6.879-18.309-6.879s5.731-7.449,0-36.112,8.882-49.008,8.882-49.008,1.154,6.2,4.687,2.554a56.267,56.267,0,0,1,4.188-3.994,58.163,58.163,0,0,0,8.033-8.02c4.013-5.187,18.912,17.194,18.912,17.194s9.167,10.315,8.026,34.965c-.123,2.593-.175,5.264-.182,7.968C794.741,480.561,798.417,506.274,798.417,506.274Z" transform="translate(-356.587 -218.193)" fill="#5e52ad"/><path d="M759.034,477.263l.571,12.61s-30.381,1.718-36.683-4.584,17.181,18.536,22.368,20.06c4.869,1.433,17.44,2.7,24.034,2.827a9.725,9.725,0,0,0,9.077-5.5,9.174,9.174,0,0,0,.713-5.349c-1.148-7.449,0-23.5,0-23.5Z" transform="translate(-349.875 -245.353)" opacity="0.1"/><path d="M744.065,475.493l.57,12.61s-30.381,1.718-36.683-4.584-29.1-4.908-28.656,0c.285,3.151,15.476,13.181,24.637,13.758s21.2,4.778,26.387,6.3c4.869,1.433,17.44,2.7,24.034,2.827a9.725,9.725,0,0,0,9.077-5.5,9.174,9.174,0,0,0,.713-5.349c-1.148-7.449,0-23.5,0-23.5Z" transform="translate(-334.906 -244.73)" fill="#f8bdc5"/><path d="M783.509,420.773s-13.181,1.718-11.463,21.207,4.013,21.207,4.013,21.207,19.489-1.718,21.778-2.3,1.148-21.778,1.148-21.778S798.407,420.2,783.509,420.773Z" transform="translate(-367.47 -226.694)" opacity="0.1"/><path d="M783.509,419.893s-13.181,1.718-11.463,21.207,4.013,21.207,4.013,21.207,19.489-1.718,21.778-2.3,1.148-21.778,1.148-21.778S798.407,419.309,783.509,419.893Z" transform="translate(-367.47 -226.384)" fill="#5e52ad"/><path d="M766.891,375.068c-.9-4.538.947-5.939,1.433-11.748L738.5,380.514s3.417,3.721,7.3,8.5a21.244,21.244,0,0,0,5.31.648C758.923,389.694,763.2,381.3,766.891,375.068Z" transform="translate(-355.728 -206.494)" opacity="0.1"/><circle cx="21.207" cy="21.207" r="21.207" transform="translate(373.618 140.203)" fill="#f8bdc5"/><path d="M742.785,342.94c-3.242,2.062-3.287,6.723-1.2,9.952s5.686,5.362,9.148,7.372a5.542,5.542,0,0,0,3.242,1.057,4.779,4.779,0,0,0,2.321-1.173,80.047,80.047,0,0,0,6.924-6.075c3.151-3.1,6.179-6.918,5.686-11.242-.558-4.908-5.407-8.6-7.365-13.252-1.647-3.89-1.154-8.253-2.593-12.228s-6.483-7.65-10.257-5.569c-1.394.765-2.237,2.133-3.4,3.164-2.892,2.554-7.553,2.807-11.508,1.64s-5.128-5.932-10.646-5.945a6.186,6.186,0,0,1,4.175,6.431c-2.211,1.251-5.115.538-7.78.493s-5.835,1.446-5.375,3.845c.4,1.945,3.209,3.391,2.794,5.336a43.931,43.931,0,0,1-15.651,4.8c-.992.11,5.958,5.887,6.749,6.269a93.2,93.2,0,0,0,9.446,3.469C725.824,344.152,734.356,345.177,742.785,342.94Z" transform="translate(-342.611 -187.968)" opacity="0.1"/><path d="M742.785,342.05c-3.242,2.062-3.287,6.723-1.2,9.952s5.686,5.362,9.148,7.372a5.542,5.542,0,0,0,3.242,1.057,4.778,4.778,0,0,0,2.321-1.173,80.04,80.04,0,0,0,6.924-6.075c3.151-3.1,6.179-6.918,5.686-11.242-.558-4.908-5.407-8.6-7.365-13.252-1.647-3.89-1.154-8.253-2.593-12.228s-6.483-7.65-10.257-5.569c-1.394.765-2.237,2.133-3.4,3.164-2.892,2.554-7.553,2.807-11.508,1.64s-5.128-5.932-10.646-5.945a6.186,6.186,0,0,1,4.175,6.431c-2.211,1.251-5.115.538-7.78.493s-5.835,1.446-5.375,3.845c.4,1.945,3.209,3.391,2.794,5.336a43.931,43.931,0,0,1-15.651,4.8c-.992.11,5.958,5.887,6.749,6.269a93.207,93.207,0,0,0,9.446,3.469C725.824,343.269,734.356,344.274,742.785,342.05Z" transform="translate(-342.611 -187.655)" fill="#916168"/><path d="M781.446,680.89a12.649,12.649,0,0,1,.927,6.749c-1.718,13.758-26.938,22.925-33.817,24.637a9.118,9.118,0,0,1-9.226-3.76c1.063,3,5.641,5.945,9.8,4.908,6.879-1.718,32.1-10.892,33.817-24.637A12.584,12.584,0,0,0,781.446,680.89Z" transform="translate(-356.02 -318.172)" fill="#fff" opacity="0.1"/><path d="M423.457,566.9h0c-.512-1.154-3.17-3.4-15.988-3.89-8.778-.331-11.767-4.966-12.578-9.492,2.885-.376,5.141-.895,5.88-1.614,0,0-.039-.207-.1-.577l.1-.078a60.752,60.752,0,0,1-.875-9.881,38.017,38.017,0,0,1,.895-8.428,24.856,24.856,0,0,0,.447-5.556c.071-11.022-3.8-30.394-3.8-30.394l-.532-16.1a11.184,11.184,0,0,0-6.088-9.66,9.161,9.161,0,0,0-4.117-1.024s-20.319-3.2-38.608-4.947c-1.3-1.044-5.867-3.858-16.345-2.243l-6.03-17.648a5.013,5.013,0,0,1-.1-.648c.214-2.243,1.712-5.621,8.694-5.835l1.459,1.3s.259-.512.694-1.3c8.662-.1,55.848-.577,58.279,0,2.678.648,26.134-4.577,26.809-5.226,9.116-8.889-26.809-4.577-26.809-4.577-3.533.577-14.951-.11-26.647-1.063,5.79-8.681,11.236-38.148,11.236-38.148s20.747-10.458,14.743-16.338S369.95,386.6,369.95,386.6s-7.372,21.57-10.723,28.105c-1.3,2.593-2.976,3.125-4.474,2.827.681-.545,1.122-.869,1.122-.869s-14.743-11.767-16.085-16.338a10.918,10.918,0,0,0-.985-2.146c-.707-4.143-1.945-8.221-4.966-10.937a11.236,11.236,0,0,0-1.673-1.472c-.817-.584-1.744-1.089-2.516-1.725h0c.434-2,.94-4.072,1.465-6.081a21.781,21.781,0,0,0,19.45-21.4,21.106,21.106,0,0,0-.59-4.934,9.5,9.5,0,0,0,8.428-4.059,11.148,11.148,0,0,0,.285-11.255,13.933,13.933,0,0,0-2.969-3.747,17.563,17.563,0,0,0-6.808-4.253c-2.224-.772-4.681-1.232-6.444-2.742a28.578,28.578,0,0,1-2.146-3.242,16.59,16.59,0,0,0-2.593-3.021,23.711,23.711,0,0,0-12.48-6.3c-5.679-1.109-11.547-.713-17.324-.318-2.159.149-4.694.532-5.666,2.412-.733,1.413-.253,3.106-.35,4.681-.3,5.012-6.036,7.78-11.022,8.992s-10.931,2.263-13.336,6.658c-2.185,3.968-.648,8.778.052,13.233a32.371,32.371,0,0,1-4.882,22.426c-2.191,3.352-5.018,6.334-6.749,9.932a18.938,18.938,0,0,0-1.258,12.876,9.07,9.07,0,0,1,.558,3.825,6.672,6.672,0,0,1-1.517,2.846,34.362,34.362,0,0,1-24.442,12.662,7,7,0,0,0,2.23,3.365,16.111,16.111,0,0,0,4.629,3.2,69.9,69.9,0,0,0,14.2,5.284,24.74,24.74,0,0,0,10.127.862c3.365-.571,6.645-2.5,8.026-5.543.8-1.763.921-3.76,1.634-5.556,1.42-3.592,4.94-5.919,7.32-9a225.029,225.029,0,0,0-1.135,23.885v6.834c0,9.005-.648,15.216-6.23,26.465a6.717,6.717,0,0,0-.836,3.89,4.266,4.266,0,0,0,1.459,3.961,38.408,38.408,0,0,0-.564,6.794c-.078,8.195,2.691,19.2,17.369,21.985l26.134-1.3s36.858-7.19,46.907-1.945a3.709,3.709,0,0,1,2.937,3.618,8.319,8.319,0,0,1-.253,1.614,25.38,25.38,0,0,0-.318,5.141c-.045,11.022,2.328,36.035,2.328,36.035V553.44c-1.673,2.516-3.734,6.237-3.469,8.979v.182a.561.561,0,0,0,.039.24c.039.078,0,.143.045.214a.625.625,0,0,1,.058.207,1.608,1.608,0,0,0,.084.227c.032.071.045.117.071.175s.084.169.13.246l.078.136a3.136,3.136,0,0,0,.259.357c3.352,3.89,20.1,11.417,25.467,11.112,5.7-.324,24.792.648,25.467-7.845a1.031,1.031,0,0,0-.045-.772Z" transform="translate(-180.18 -188.55)" fill="url(#b)"/><path d="M446.97,676.515s-7.78,9.725-4.538,13.615,19.45,11.326,24.637,11.022c5.511-.324,23.988.648,24.637-7.78,0,0,1.3-3.89-15.56-4.538s-11.67-18.153-11.67-18.153Z" transform="translate(-251.333 -314.581)" fill="#594c76"/><path d="M306.185,551.822s-7.78,26.582,15.56,31.12l25.285-1.3s35.658-7.132,45.384-1.945c0,0,3.89.648,2.593,5.835s1.945,40.2,1.945,40.2V637.4s22.043,0,24.637-2.593c0,0-1.945-10.373,0-18.8S418.347,581,418.347,581l-.512-16a11.126,11.126,0,0,0-5.874-9.6,8.689,8.689,0,0,0-3.981-1.011s-44.087-7.132-59.647-5.835S306.185,551.822,306.185,551.822Z" transform="translate(-203.26 -271.579)" opacity="0.1"/><path d="M306.185,550.822s-7.78,26.582,15.56,31.12l25.285-1.3s35.658-7.132,45.384-1.945c0,0,3.89.648,2.593,5.835s1.945,40.2,1.945,40.2V636.4s22.043,0,24.637-2.593c0,0-1.945-10.373,0-18.8S418.347,580,418.347,580l-.512-16a11.125,11.125,0,0,0-5.874-9.6,8.688,8.688,0,0,0-3.981-1.011s-44.087-7.132-59.647-5.835S306.185,550.822,306.185,550.822Z" transform="translate(-203.26 -271.227)" fill="#8b9cd1"/><path d="M407.047,448.916s5.187,6.483,8.428,0,10.373-27.878,10.373-27.878,17.505-18.8,23.34-12.967-14.263,16.208-14.263,16.208-7.132,39.548-13.615,40.2a123.057,123.057,0,0,1-16.208,0l-3.242-7.132Z" transform="translate(-237.343 -221.836)" fill="#f8bdc5"/><path d="M407.047,448.916s5.187,6.483,8.428,0,10.373-27.878,10.373-27.878,17.505-18.8,23.34-12.967-14.263,16.208-14.263,16.208-7.132,39.548-13.615,40.2a123.057,123.057,0,0,1-16.208,0l-3.242-7.132Z" transform="translate(-237.343 -221.836)" opacity="0.05"/><path d="M367.53,421.68S379.2,435.3,380.5,439.833s15.56,16.208,15.56,16.208-10.373,7.78-8.428,11.67-13.615-12.967-13.615-12.967L355.86,428.163Z" transform="translate(-221.167 -227.017)" fill="#eb6475"/><path d="M367.53,421.68S379.2,435.3,380.5,439.833s15.56,16.208,15.56,16.208-10.373,7.78-8.428,11.67-13.615-12.967-13.615-12.967L355.86,428.163Z" transform="translate(-221.167 -227.017)" opacity="0.1"/><path d="M369.677,394.559s-5.835,18.8-5.835,25.933-24.637-1.945-23.988-5.835,14.263-18.153,14.912-23.988S369.677,394.559,369.677,394.559Z" transform="translate(-215.533 -215.456)" fill="#f8bdc5"/><path d="M337.458,417.465s-22.692-5.835-25.933,27.23,2.593,36.955-7.132,57.054,66.13,2.593,66.13,2.593-3.89-4.538-16.208-2.593l-5.835-17.505s-1.945-7.78,9.077-7.78,5.835-22.692,5.835-22.692-5.835-19.45-9.077-21.4S345.238,418.761,337.458,417.465Z" transform="translate(-202.765 -225.395)" opacity="0.1"/><path d="M337.458,415.465s-22.692-5.835-25.933,27.23,2.593,36.955-7.132,57.054,66.13,2.593,66.13,2.593-3.89-4.538-16.208-2.593l-5.835-17.505s-1.945-7.78,9.077-7.78,5.835-22.692,5.835-22.692-5.835-19.45-9.077-21.4S345.238,416.761,337.458,415.465Z" transform="translate(-202.765 -224.692)" fill="#eb6475"/><path d="M389.1,487.68s47.328,5.187,55.109,3.89c0,0,34.751-4.279,25.933,4.538-.648.648-23.34,5.835-25.933,5.187s-57.7,0-57.7,0l-.648-6.483Z" transform="translate(-231.717 -250.227)" fill="#f8bdc5"/><path d="M333.817,449.078l34.362,31.12s6.483-12.967,8.428-12.967-23.34-38.252-23.34-38.252-6.483-7.78-10.373-3.89S327.334,426.386,333.817,449.078Z" transform="translate(-212.739 -227.833)" opacity="0.1"/><path d="M332.817,447.078l34.362,31.12s6.483-12.967,8.428-12.967-23.34-38.252-23.34-38.252-6.483-7.78-10.373-3.89S326.334,424.386,332.817,447.078Z" transform="translate(-212.387 -227.13)" fill="#eb6475"/><circle cx="21.395" cy="21.395" r="21.395" transform="translate(126.913 147.983)" fill="#f8bdc5"/><path d="M349.209,353.844c3.631,1.433,8.078-.285,10.218-3.546a11.276,11.276,0,0,0,.272-11.164,15.81,15.81,0,0,0-8.811-7.287c-2.23-.791-4.713-1.245-6.425-2.879a18.941,18.941,0,0,1-2.535-3.683c-3.028-4.72-8.428-7.508-13.92-8.6s-11.171-.707-16.759-.318c-2.088.149-4.538.525-5.485,2.392-.707,1.4-.246,3.08-.337,4.642-.292,4.973-5.835,7.728-10.678,8.921s-10.458,2.315-12.818,6.7c-2.114,3.935-.6,8.707.052,13.129a32.767,32.767,0,0,1-4.72,22.193c-2.12,3.326-4.85,6.282-6.529,9.855a19.217,19.217,0,0,0-1.219,12.772,9.24,9.24,0,0,1,.545,3.793,6.671,6.671,0,0,1-1.465,2.82,32.987,32.987,0,0,1-23.645,12.591c.739,2.781,3.43,4.538,5.991,5.835a66.579,66.579,0,0,0,13.732,5.239,23.389,23.389,0,0,0,9.8.856c3.255-.564,6.425-2.477,7.78-5.5.778-1.751.895-3.728,1.582-5.517,1.55-4.013,5.679-6.438,7.9-10.127,2.12-3.527,2.943-3.942,3.482-8.013s1.725-8.467,5.07-10.86c3.5-2.509,8.428-2.029,12.318-.1s6.3,1.173,9.544,4a79.1,79.1,0,0,0,18.938,12.2c-.648-5.653-1.692-11.962-6.282-15.327-1.3-.966-2.937-1.705-3.624-3.183-1.1-2.353.778-5.226-.071-7.683s-4.078-3.365-5.511-5.6a6.266,6.266,0,0,1,.253-6.412,17.288,17.288,0,0,1,4.739-4.746q2.392-1.809,4.85-3.533a17.324,17.324,0,0,0,3.942-3.436c.648-.888,1.076-2.833,1.977-3.462C343.62,349.235,347.108,353.021,349.209,353.844Z" transform="translate(-182.164 -189.841)" opacity="0.1"/><path d="M348.209,352.844c3.631,1.433,8.078-.285,10.218-3.546a11.276,11.276,0,0,0,.272-11.164,15.81,15.81,0,0,0-8.811-7.287c-2.23-.791-4.713-1.245-6.425-2.879a18.939,18.939,0,0,1-2.535-3.683c-3.028-4.72-8.428-7.508-13.92-8.6s-11.171-.707-16.759-.318c-2.088.149-4.538.525-5.485,2.392-.707,1.4-.246,3.08-.337,4.642-.292,4.973-5.835,7.728-10.678,8.921s-10.458,2.315-12.818,6.7c-2.114,3.935-.6,8.707.052,13.129a32.767,32.767,0,0,1-4.72,22.193c-2.12,3.326-4.85,6.282-6.529,9.855a19.216,19.216,0,0,0-1.219,12.772,9.239,9.239,0,0,1,.545,3.793,6.672,6.672,0,0,1-1.465,2.82,32.988,32.988,0,0,1-23.645,12.591c.739,2.781,3.43,4.538,5.991,5.835a66.581,66.581,0,0,0,13.732,5.239,23.389,23.389,0,0,0,9.8.856c3.255-.564,6.425-2.477,7.78-5.5.778-1.751.895-3.728,1.582-5.517,1.55-4.013,5.679-6.438,7.9-10.127,2.12-3.527,2.943-3.942,3.482-8.013s1.725-8.467,5.07-10.86c3.5-2.509,8.428-2.029,12.318-.1s6.3,1.174,9.543,4a79.1,79.1,0,0,0,18.938,12.2c-.648-5.653-1.692-11.962-6.282-15.327-1.3-.966-2.937-1.705-3.624-3.183-1.1-2.353.778-5.226-.071-7.683s-4.078-3.365-5.511-5.6a6.266,6.266,0,0,1,.253-6.412,17.289,17.289,0,0,1,4.739-4.746q2.392-1.809,4.85-3.533a17.324,17.324,0,0,0,3.942-3.436c.648-.888,1.076-2.833,1.977-3.462C342.62,348.235,346.108,352.021,348.209,352.844Z" transform="translate(-181.812 -189.49)" fill="#916168"/><g transform="translate(190.286 356.099)" opacity="0.1"><path d="M475.715,675.789a22.41,22.41,0,0,1,.739-5.109l-.324.11A22.575,22.575,0,0,0,475.715,675.789Z" transform="translate(-453.598 -670.68)" fill="#fff"/><path d="M467.056,708.7c-5.187.3-21.4-7.132-24.637-11.022a3.455,3.455,0,0,1-.752-1.841,4.071,4.071,0,0,0,.752,3.138c3.242,3.89,19.45,11.326,24.637,11.022,5.511-.324,23.988.648,24.637-7.78a1.05,1.05,0,0,0-.091-.687C490.117,709.3,472.431,708.385,467.056,708.7Z" transform="translate(-441.607 -679.528)" fill="#fff"/></g><rect width="0.648" height="26.582" transform="translate(241.344 191.745)" fill="#ffd77c" stroke="#ffab50" stroke-miterlimit="10" stroke-width="0.25"/><rect width="0.648" height="26.582" transform="translate(241.993 191.745)" fill="#ffd77c" stroke="#ffab50" stroke-miterlimit="10" stroke-width="0.25"/><rect width="0.648" height="26.582" transform="translate(242.641 191.745)" fill="#ffd77c" stroke="#ffab50" stroke-miterlimit="10" stroke-width="0.25"/><rect width="0.648" height="26.582" transform="translate(243.289 191.745)" fill="#ffd77c" stroke="#ffab50" stroke-miterlimit="10" stroke-width="0.25"/><rect width="0.648" height="26.582" transform="translate(243.938 191.745)" fill="#ffd77c" stroke="#ffab50" stroke-miterlimit="10" stroke-width="0.25"/><rect width="0.648" height="26.582" transform="translate(244.586 191.745)" fill="#ffd77c" stroke="#ffab50" stroke-miterlimit="10" stroke-width="0.25"/><rect width="0.648" height="26.582" transform="translate(245.234 191.745)" fill="#ffd77c" stroke="#ffab50" stroke-miterlimit="10" stroke-width="0.25"/></g></svg>