<svg xmlns="http://www.w3.org/2000/svg" width="430.727" height="270.145" viewBox="0 0 430.727 270.145"><g transform="translate(0 -0.263)"><path d="M462.619,396.8c-4.322,10.393-13.364,19.78-23.07,28.671q-12.8,11.725-27.381,22.66-4.041,3.036-8.211,6l-1.931,1.362q-2.569,1.818-5.225,3.6l-.212.144q-2.576,1.753-5.2,3.472a142.461,142.461,0,0,1-18.445,10.575c-2.277,1.055-4.625,2.038-7.058,2.918q-1.973.717-4.03,1.343c-2.246.683-4.553,1.279-6.963,1.768-.4.083-.808.163-1.214.239-2.466.463-4.963.8-7.486,1.032a115.113,115.113,0,0,1-28.06-1.222c-4.629-.725-9.186-1.658-13.6-2.721-.543-.129-1.081-.262-1.624-.379-15.015-3.756-29.111-8.856-44.232-12.442q-7.817-1.855-15.937-3.149-3.961-.63-7.968-1.138c-6.287-.782-12.654-1.305-19.048-1.571A116.482,116.482,0,0,0,190,459.252q-1.639.3-3.237.675-2.026.474-3.977,1.081a70.79,70.79,0,0,0-10.2,4.2c-.649.319-1.29.641-1.931.968h0c-2.011,1.024-4,2.072-6.01,3.089a75.875,75.875,0,0,1-11.285,4.789,59.766,59.766,0,0,1-6.481,1.654,95.5,95.5,0,0,1-18.153,1.651c-2.986,0-5.976-.064-8.932-.22h-.091c-1.009-.053-2.022-.114-3.036-.19-4.614-.315-9.213-.8-13.743-1.465C87.4,473.208,72.681,468.9,60.838,462.34c-16.085-8.909-26.3-22.194-24.766-35.467,1.1-9.562,7.934-18.441,14.419-27.134C62.553,383.553,73.853,367,79.8,349.547c4.823-14.165,6.261-29.141,17.36-41.872a58.183,58.183,0,0,1,13.394-11.053,85.527,85.527,0,0,1,12.4-6.268,107.177,107.177,0,0,1,14.946-4.876,118.963,118.963,0,0,1,13.4-2.52c2.451-.319,4.933-.565,7.429-.732q2.884-.2,5.794-.254h.3q1.78-.034,3.559,0a165.843,165.843,0,0,1,25.8,2.425c5.335.892,10.624,1.984,15.8,3.187q4.637,1.074,9.19,2.25c.926.239,1.852.482,2.766.729,21.6,5.786,40.6,13.778,61.409,20.334.106.034.209.068.315.095h0a128.172,128.172,0,0,0,12.992,3.263q4.832.968,9.865,1.692c5.13.759,10.37,1.358,15.648,1.874l1.165.114c7.744.759,15.557,1.324,23.146,1.984,2.694.235,5.365.478,8,.759q2.5.25,4.963.531c1.176.137,2.356.273,3.536.417s2.428.3,3.643.452c.789.1,1.575.2,2.364.311,4.781.634,9.551,1.343,14.267,2.155,2.869.493,5.722,1.025,8.541,1.6q3.062.622,6.071,1.313,2.231.5,4.424,1.062c11.88,2.986,23,6.9,32.579,12.188C459.755,354.4,470.887,376.928,462.619,396.8Z" transform="translate(-34.592 -210.56)" fill="#e36b0a" opacity="0.1"/><ellipse cx="8.207" cy="8.207" rx="8.207" ry="8.207" transform="translate(86.27 17.797)" fill="#e36b0a" opacity="0.1"/><ellipse cx="8.5" cy="8" rx="8.5" ry="8" transform="translate(253.724 0.263)" fill="#e36b0a" opacity="0.1"/><ellipse cx="8.207" cy="8.207" rx="8.207" ry="8.207" transform="translate(353.497 18.29)" fill="#e36b0a" opacity="0.1"/><ellipse cx="13.755" cy="13.755" rx="13.755" ry="13.755" transform="translate(0 32.106)" fill="#e36b0a" opacity="0.1"/><ellipse cx="13.755" cy="13.755" rx="13.755" ry="13.755" transform="translate(13.186 100.026)" fill="#e36b0a" opacity="0.1"/><ellipse cx="13.755" cy="13.755" rx="13.755" ry="13.755" transform="translate(382.354 75.025)" fill="#e36b0a" opacity="0.1"/><path d="M359,314.879a14.8,14.8,0,0,1-.2,3.453c-.759,3.525-3.969,5.946-7.077,7.782s-6.523,3.574-8.371,6.674c-2.227,3.745-1.518,8.78,1.1,12.279a18.1,18.1,0,0,0,11.023,6.451,25.522,25.522,0,0,0,22.129-6.037,24.132,24.132,0,0,0,7.327-21.628c-3.165.444-5.984-2.349-7.008-5.377s-.812-6.31-1.21-9.486a3.256,3.256,0,0,0-.47-1.518,3.409,3.409,0,0,0-1.962-1.066c-3.658-1.006-9.812-3.206-13.6-2.364C357.262,304.824,358.947,312.011,359,314.879Z" transform="translate(-224.548 -224.149)" fill="#be6f72"/><path d="M359,314.879a14.8,14.8,0,0,1-.2,3.453c-.759,3.525-3.969,5.946-7.077,7.782s-6.523,3.574-8.371,6.674c-2.227,3.745-1.518,8.78,1.1,12.279a18.1,18.1,0,0,0,11.023,6.451,25.522,25.522,0,0,0,22.129-6.037,24.132,24.132,0,0,0,7.327-21.628c-3.165.444-5.984-2.349-7.008-5.377s-.812-6.31-1.21-9.486a3.256,3.256,0,0,0-.47-1.518,3.409,3.409,0,0,0-1.962-1.066c-3.658-1.006-9.812-3.206-13.6-2.364C357.262,304.824,358.947,312.011,359,314.879Z" transform="translate(-224.548 -224.149)" opacity="0.1"/><path d="M345.774,750.182a75.858,75.858,0,0,1-11.285,4.789,59.77,59.77,0,0,1-6.481,1.654,40.792,40.792,0,0,1,.474-8.727,46.448,46.448,0,0,0,.846-4.982,13.068,13.068,0,0,0-1.5-7c4.227-.577,8.242-1.518,12.487-1.241l.269.019a4.734,4.734,0,0,1,1.48.277,4,4,0,0,1,1.605,1.411,9.716,9.716,0,0,1,.6.93,14.8,14.8,0,0,1,1.749,6.925A46.055,46.055,0,0,1,345.774,750.182Z" transform="translate(-215.739 -491.469)" fill="#be6f72"/><path d="M409.73,749.427q-2.026.474-3.977,1.081a70.8,70.8,0,0,0-10.2,4.2,15.058,15.058,0,0,1-.311-3.142,17.545,17.545,0,0,1,13.413-2.759,1.773,1.773,0,0,1,.85.341A1.139,1.139,0,0,1,409.73,749.427Z" transform="translate(-257.57 -500.056)" fill="#be6f72"/><path d="M360.928,626.471a29.134,29.134,0,0,1-1.518,7.3c-.952,2.5-2.5,4.933-2.3,7.608.087,1.161.482,2.421.539,3.571q-1.639.3-3.237.675-2.026.474-3.977,1.081a70.8,70.8,0,0,0-10.2,4.2c-.649.319-1.29.641-1.931.968h0c-.266-.034-.527-.076-.793-.125a7.763,7.763,0,0,1-4.967-2.713,4.356,4.356,0,0,1-.573-1.138c-.618-1.848.027-4.151-1.26-5.616l-.061.053-.046.03a12.743,12.743,0,0,1-2.307,1.662h0a15.463,15.463,0,0,1-12.522,1.207,13.723,13.723,0,0,1-2.349-1.055c-1.738-.99-3.415-2.656-3.278-4.644.076-1.108.71-2.17.539-3.267a6.835,6.835,0,0,0-1.028-2.133c-2.538-4.553.49-10.408-1.1-15.356-.038-.118-.08-.235-.121-.349-.118-.323-.25-.634-.379-.945-.326-.725-.691-1.438-.979-2.182a12.706,12.706,0,0,1-.569-1.924,24.08,24.08,0,0,1-.379-5.775,60.411,60.411,0,0,1,2.208-15.223c.231-.873.49-2.106.831-3.449h0a26.407,26.407,0,0,1,1.343-4.144c.759-1.745,1.791-3.138,3.2-3.468,2.125-.5,5.373.554,7.528.812l8.519,1.017,17.033,2.038c2.941.353,6.029.759,8.454,2.413.159.11.315.224.471.345a9.615,9.615,0,0,1,1.707,1.738c.175.224.342.459.5.7a15.791,15.791,0,0,1,1.4,2.679c2.114,5.077,2.163,10.742,2.178,16.24A165.948,165.948,0,0,1,360.928,626.471Z" transform="translate(-202.244 -396.254)" fill="#3f3d56"/><path d="M358.907,698.8c-.512-1.973-1.594-4.83-1.753-5.608a71.171,71.171,0,0,1-1.161-7.9c-.421-4.728-1.18-11.383.489-15.88,1.567.835,2.944,3.2,3.669,4.811,2.626,5.847-.33,13.026,2.136,18.942a3.119,3.119,0,0,1,.338,1.138,2.755,2.755,0,0,1-.524,1.4l-.831,1.381Z" transform="translate(-232.879 -450.997)" opacity="0.1"/><path d="M489.374,211.218c2.793-4.553,6.617-9.031,6.378-14.354a28.441,28.441,0,0,0-1.184-5.612,35.8,35.8,0,0,1-.262-16.426,18.551,18.551,0,0,1,13.417,3.005,7.658,7.658,0,0,1,2.963,3.331,9.642,9.642,0,0,1,.33,4.132c-.209,3.191-.493,6.595-2.459,9.107-.611.785-1.362,1.449-1.958,2.243a14.521,14.521,0,0,0-1.874,3.882l-6.451,17.549c-3.256,8.845-6.784,18.1-13.956,24.216-.175.148-5.312-7.149-5.737-7.881-1.719-3-.968-4.269,1.112-6.781C483.8,222.662,486.024,216.671,489.374,211.218Z" transform="translate(-308.698 -143.934)" fill="#be6f72"/><path d="M273.343,665.33a29.152,29.152,0,0,1-.33,3.912c-.068.478-.148.952-.243,1.427-1.294,6.754-4.515,13.178-6.769,19.758a114.809,114.809,0,0,0-5.312,24.846c-2.986,0-5.976-.065-8.932-.22h-.091c-1.009-.053-2.022-.114-3.036-.19.914-8.044-.759-16.483.877-24.535.66-3.24,1.787-6.386,2.466-9.611a27.2,27.2,0,0,0,.474-2.876,7.714,7.714,0,0,1,.558-2.7,2,2,0,0,1,.129-.232,6.5,6.5,0,0,1,1.336-1.518,33.327,33.327,0,0,1,16.339-7.79C271.67,665.486,272.508,665.387,273.343,665.33Z" transform="translate(-166.59 -448.466)" fill="#fbbebe"/><path d="M273.343,665.33a29.152,29.152,0,0,1-.33,3.912c-.068.478-.148.952-.243,1.427-1.294,6.754-4.515,13.178-6.769,19.758a114.809,114.809,0,0,0-5.312,24.846c-2.986,0-5.976-.065-8.932-.22h-.091c-1.009-.053-2.022-.114-3.036-.19.914-8.044-.759-16.483.877-24.535.66-3.24,1.787-6.386,2.466-9.611a27.2,27.2,0,0,0,.474-2.876,7.714,7.714,0,0,1,.558-2.7,2,2,0,0,1,.129-.232,6.5,6.5,0,0,1,1.336-1.518,33.327,33.327,0,0,1,16.339-7.79C271.67,665.486,272.508,665.387,273.343,665.33Z" transform="translate(-166.59 -448.466)" opacity="0.1"/><path d="M220.266,689.212a59.467,59.467,0,0,1-.52,6.3c-1.013,8.541-1.2,17.454-1.9,26.125-1.009-.053-2.022-.114-3.036-.19-4.614-.315-9.213-.8-13.743-1.465q.524-2.929,1.055-5.859a31.722,31.722,0,0,0,.74-7.24,42.368,42.368,0,0,0-1.222-6.781c-1.043-4.819-1.628-10.017-3.347-14.563a18.972,18.972,0,0,0-4.2-6.83c7.111-2.793,13.945-2.952,21.583-2.656a2.736,2.736,0,0,1,1.548.379,2.618,2.618,0,0,1,.778,1.176,29.433,29.433,0,0,1,2.136,8.659A28.409,28.409,0,0,1,220.266,689.212Z" transform="translate(-132.752 -455.056)" fill="#fbbebe"/><ellipse cx="14.798" cy="14.798" rx="14.798" ry="14.798" transform="translate(129.994 59.175)" fill="#be6f72"/><path d="M355.254,366.238c1.9-3.237,3.559-7.278,7.209-8.177,2.06-.512,4.2.186,6.211.873a3.035,3.035,0,0,1,1.518.88,2.982,2.982,0,0,1,.459,1.571,102.853,102.853,0,0,1-.065,20.111c-.482,4.732-1.294,9.441-1.438,14.195-.2,6.591.884,13.182.527,19.765a90.859,90.859,0,0,1-2.447,14.768l-4.553,20.414a3.48,3.48,0,0,1-.732,1.726,3.414,3.414,0,0,1-1.343.759,50,50,0,0,1-40.46-3.168,12.275,12.275,0,0,1-4.352-3.487c-1.518-2.186-1.658-5.077-1.165-7.7s1.56-5.088,2.277-7.657a58.93,58.93,0,0,0,1.62-12.271,97.225,97.225,0,0,0,.087-16.316c-.4-3.73-1.229-7.4-1.855-11.1a122.459,122.459,0,0,1-1.6-16.859c-.095-3.373.061-7.118,2.394-9.551a11,11,0,0,1,4.2-2.474c2.592-.956,5.487-1.518,8.1-.645s4.728,3.62,4.109,6.31c-.285,1.248-1.093,2.341-1.29,3.609a5.2,5.2,0,0,0,1.9,4.5C341.4,382.494,351.843,372.1,355.254,366.238Z" transform="translate(-207.385 -257.678)" fill="#e3e8f4"/><path d="M404.522,317.245a11.19,11.19,0,0,1,6.485-.379c1.37.326,2.85.9,4.113.292.459-.22.839-.581,1.3-.785,1.252-.55,2.876.125,3.984-.675a3.921,3.921,0,0,0,1.161-2.258,20.244,20.244,0,0,1,6.69-10.139c-.4,2.91-.687,6.223,1.237,8.446a8.433,8.433,0,0,0,3.351,2.136,10.021,10.021,0,0,0,5.635.793,4.886,4.886,0,0,0,3.95-3.715c-.064,2.857-2.785,4.853-3.548,7.612-.288,1.032-.262,2.129-.463,3.184-.512,2.694-2.436,4.857-4.117,7.027a50,50,0,0,0-9.941,23.988,11.574,11.574,0,0,1-.645,3.036,19.084,19.084,0,0,1-1.26,2.17c-2.781,4.7-1.924,10.624-.979,15.99a229.237,229.237,0,0,0,5.339,24.831,8.621,8.621,0,0,0,1.916,3.882c-.33,3.313-3.673,4.823-6.678,6.253a32.761,32.761,0,0,0-8.12,5.5,6.4,6.4,0,0,0-2.034,2.827c-.3,1.066-.083,2.239-.463,3.275s-1.9,1.78-2.565.907c-.835-3.123.592-6.39.527-9.623-.046-2.182-.759-4.3-.861-6.485a20.751,20.751,0,0,1,1.4-7.24c2.155-6.53,4.758-13,5.506-19.833s-.649-14.3-5.5-19.173c-5.756-5.813-8.951-13.694-15.121-19.033-.979-.846-2.087-1.9-1.924-3.18a3.541,3.541,0,0,1,.725-1.541c2.117-2.99,4.933-5.43,7.209-8.291S404.936,320.887,404.522,317.245Z" transform="translate(-256.11 -223.805)" fill="#3f3d56"/><path d="M329,354.816a11.093,11.093,0,0,1-1.081,1.229,3.567,3.567,0,0,1-1.7.527,55.083,55.083,0,0,1-6.743.6,20.814,20.814,0,0,0-5.692.353,10.158,10.158,0,0,0-5.855,5.047,25.03,25.03,0,0,0-2.368,7.54,100.831,100.831,0,0,0-1.726,17.413,45.8,45.8,0,0,0,8.291-8.606c1.821-2.47,3.472-5.2,6.071-6.853,1.2-.759,2.538-1.26,3.741-2,2.508-1.544,4.246-4.041,5.916-6.451,1.229-1.787,4.785-5.278,5.066-7.418C333.153,354.156,330.327,353.158,329,354.816Z" transform="translate(-200.845 -255.257)" fill="#3f3d56"/><path d="M376.751,241.305a12,12,0,0,1,1.343.937c2.576,1.8,6.026,1.465,9.141,1.055a6.861,6.861,0,0,0,2.759-.759,4.312,4.312,0,0,0,1.806-4.026,8.015,8.015,0,0,0-1.855-4.174,15.014,15.014,0,0,0-10.378-5.661,6.678,6.678,0,0,0-3.108.33,25.034,25.034,0,0,0-3.278,2.239c-3.335,2.049-8.473,1.138-10.624,4.409-1.575,2.413-.452,5.692-1.2,8.465-.554,2.072-2.151,3.958-1.844,6.071a9.794,9.794,0,0,0,1.453,3.149,13.918,13.918,0,0,1,1.742,7.676c1.461,1.032,3.5-.573,3.9-2.311s-.061-3.59.285-5.343c.611-3.077,3.328-5.335,4.553-8.158C372.334,243.183,373.768,239.768,376.751,241.305Z" transform="translate(-235.378 -177.463)" fill="#3f3d56"/><path d="M283.762,331.13a2.86,2.86,0,0,0,.2,2.038c.759,1.138,2.5.729,3.863.9,2.129.262,3.7,2.277,4.113,4.394a14.444,14.444,0,0,1-.618,6.352q-1.829,7.069-4.356,13.937c-4.531-.535-9.3-2.277-11.706-6.143-2.186-3.517-1.962-8-3.35-11.9a29.741,29.741,0,0,0-4.455-7.483c2.781.349,4.77-2.831,4.933-5.631s-.717-5.642-.118-8.378c.14-.649,11.1,1.4,12.169,2.136C287.515,323.488,284.248,328.162,283.762,331.13Z" transform="translate(-178.269 -233.604)" fill="#fbbebe"/><path d="M283.762,331.13a2.86,2.86,0,0,0,.2,2.038c.759,1.138,2.5.729,3.863.9,2.129.262,3.7,2.277,4.113,4.394a14.444,14.444,0,0,1-.618,6.352q-1.829,7.069-4.356,13.937c-4.531-.535-9.3-2.277-11.706-6.143-2.186-3.517-1.962-8-3.35-11.9a29.741,29.741,0,0,0-4.455-7.483c2.781.349,4.77-2.831,4.933-5.631s-.717-5.642-.118-8.378c.14-.649,11.1,1.4,12.169,2.136C287.515,323.488,284.248,328.162,283.762,331.13Z" transform="translate(-178.269 -233.604)" opacity="0.1"/><ellipse cx="14.798" cy="14.798" rx="14.798" ry="14.798" transform="translate(88.255 63.349)" fill="#fbbebe"/><path d="M232.409,283.25c.539-.842-.379-2.019.042-2.926.25-.546.884-.782,1.374-1.138a5.118,5.118,0,0,0,1.431-1.855,21.568,21.568,0,0,0,1.973-14.4c-.349-1.639-.66-3.817.839-4.553a2.721,2.721,0,0,1,1.324-.228c2.7.087,5.312,1.9,7.934,1.256a4.553,4.553,0,0,0,3.339-3.973c.171-2.451-1.666-4.553-3.472-6.2-3.252-2.99-8.207-3.654-12.624-3.726l-8.215-.137c-2.63-.046-5.578.038-7.407,1.924-2.633,2.713-1.309,7.152-1.689,10.913a11.383,11.383,0,0,1-4.174,7.646c-1.7,1.358-4.049,2.656-4.018,4.827a7.847,7.847,0,0,0,.535,2.167,10.455,10.455,0,0,1-1.571,8.462,22.564,22.564,0,0,1-6.4,6.071,17.843,17.843,0,0,0-3.688,2.96,8.727,8.727,0,0,0-1.924,4.906,6.451,6.451,0,0,0,.8,3.958c1.605,2.565,5.456,2.941,8.094,1.453s4.246-4.3,5.312-7.134c.637-1.681,1.286-3.6,2.918-4.36,2.064-.96,4.477.558,5.821,2.4s2.17,4.087,3.889,5.582a6.947,6.947,0,0,0,9.554-.789c1.628-1.977,1.988-4.713,1.9-7.274A10.6,10.6,0,0,0,232.409,283.25Z" transform="translate(-133.913 -187.849)" fill="#3f3d56"/><path d="M202.712,360.872A5.446,5.446,0,0,1,198,359.245a18.7,18.7,0,0,1-2.982-4.216,74.221,74.221,0,0,0-7.646-10.6c-2.489-2.872-5.953-5.79-9.649-4.9a9.156,9.156,0,0,0-3.369,1.8,24.565,24.565,0,0,0-9.171,21.924c.288,2.417.945,4.781,1.218,7.209a46.206,46.206,0,0,1,.159,6.022c-.1,6.117-.311,12.586-3.608,17.739-5.111,7.968-7.847,17.485-11.6,26.182a89.366,89.366,0,0,0-4.432,14.684q-1.059,4.432-2.114,8.86l-4.591,19.314a12.883,12.883,0,0,0-.448,6.071c.759,2.975,3.555,5.054,6.5,5.9s6.071.7,9.133.729a51.125,51.125,0,0,1,17.261,2.819,18.508,18.508,0,0,0,4.811,1.412,11.2,11.2,0,0,0,4.906-.907c4.276-1.654,7.942-4.553,11.88-6.894a46.944,46.944,0,0,1,7.741-3.745,8.489,8.489,0,0,0,3.73-2.087,6.74,6.74,0,0,0,1.248-2.979c1.283-5.98.421-12.176,0-18.278s-4.068-12.548-1.051-17.868a14.313,14.313,0,0,0,1.643-3.3c.41-1.556.065-3.229.41-4.8a24.829,24.829,0,0,1,1.283-3.316,17.484,17.484,0,0,0,.82-6.181,67.826,67.826,0,0,0-1.442-13.66c-1.2-5.692,2.759-11.319,5.024-16.7.812-1.924,1.962-3.741,2.3-5.8a17.886,17.886,0,0,0-.379-5.616,49.135,49.135,0,0,1-.531-8.727c.072-2.618.349-5.286-.277-7.832s-2.413-5.016-4.982-5.54a2.034,2.034,0,0,0-1.715.269,2.22,2.22,0,0,0-.6,1.062c-.835,2.557-.672,5.312-1.138,7.968S205.331,360.311,202.712,360.872Z" transform="translate(-98.904 -246.184)" fill="#f86d70"/><path d="M199.427,435.058c.156-1.051-.334-2.447-1.4-2.409-.979.038-1.415,1.264-1.412,2.246s.137,2.11-.558,2.8c-.615.611-1.632.592-2.345,1.089a1.928,1.928,0,0,0-.808,1.582c0,.527.239,1.032.254,1.56s-.338,1.138-.861,1.1a2.379,2.379,0,0,0,.345,2.884c.273.266.63.493.721.865a2.087,2.087,0,0,1-.061.778,2.037,2.037,0,0,0,1.613,2.326,1.278,1.278,0,0,0,.068,1.9,2.968,2.968,0,0,0,2.038.584,12.384,12.384,0,0,0,4.785-.99,2.853,2.853,0,0,0,1.32-.911,1.138,1.138,0,0,0-.11-1.472,2.231,2.231,0,0,0,2.1-.379c.672-.8-.049-1.977-.759-2.747a1.518,1.518,0,0,0,.706-2.7c-.243-.178-.573-.334-.607-.634s.22-.493.326-.759c.243-.6-.311-1.2-.846-1.563-1.267-.842-3.134-.827-4.261-1.677S199.264,436.2,199.427,435.058Z" transform="translate(-131.427 -304.073)" fill="#be6f72"/><path d="M405.4,287.257a17.958,17.958,0,0,1-2.766.065.6.6,0,0,0-.664.524L400.2,301.081a5.373,5.373,0,0,1-1.138,2.622,5.714,5.714,0,0,0-1.286,4.367v22.482s-.114,3,2.189,3a33.3,33.3,0,0,0,8.3,0s1.844-.349,1.844-3.115V308.3a5.415,5.415,0,0,0-1.138-4.4,5.509,5.509,0,0,1-1.1-2.607l-1.833-13.512a.6.6,0,0,0-.641-.52Z" transform="translate(-259.119 -213.849)" fill="#3f3d56"/><path d="M405.4,287.257a17.958,17.958,0,0,1-2.766.065.6.6,0,0,0-.664.524L400.2,301.081a5.373,5.373,0,0,1-1.138,2.622,5.714,5.714,0,0,0-1.286,4.367v22.482s-.114,3,2.189,3a33.3,33.3,0,0,0,8.3,0s1.844-.349,1.844-3.115V308.3a5.415,5.415,0,0,0-1.138-4.4,5.509,5.509,0,0,1-1.1-2.607l-1.833-13.512a.6.6,0,0,0-.641-.52Z" transform="translate(-259.119 -213.849)" opacity="0.1"/><rect width="11.182" height="18.908" rx="5.591" transform="translate(139.301 94.623)" fill="#e36b0a"/><path d="M512.158,136.426a17.484,17.484,0,0,1-2.527,1.138.607.607,0,0,0-.414.736l3.468,12.9a5.357,5.357,0,0,1-.03,2.853,5.692,5.692,0,0,0,.493,4.527l8.659,20.748s1.047,2.808,3.176,1.92a33.061,33.061,0,0,0,7.665-3.21s1.567-1.032.5-3.582l-8.526-20.429a5.43,5.43,0,0,0-2.743-3.627,5.521,5.521,0,0,1-2.022-1.977l-6.894-11.763A.607.607,0,0,0,512.158,136.426Z" transform="translate(-328.287 -120.208)" fill="#3f3d56"/><rect width="11.182" height="18.908" rx="5.591" transform="translate(185.606 38.488) rotate(-22.65)" fill="#e36b0a"/><path d="M228.188,342.992c-4.079,1.681-5.692,6.91-4.735,11.213s3.836,7.889,6.644,11.3l7.87,9.6c2.174,2.656,4.553,5.453,7.87,6.378,4.849,1.355,9.7-1.734,13.891-4.527a209.262,209.262,0,0,1,39.9-20.778,13.423,13.423,0,0,0,3.9-2.019,7.192,7.192,0,0,0,1.692-8.348,8.358,8.358,0,0,0-7.388-4.576,9.982,9.982,0,0,0-7.862,4.037c-.876,1.165-1.518,2.5-2.364,3.681-2.14,2.975-5.479,4.815-8.746,6.477a223.364,223.364,0,0,1-24.284,10.624c-1.518.554-3.229,1.081-4.66.349a5.659,5.659,0,0,1-2-2.14,53.144,53.144,0,0,1-5.73-12.21c-1.036-3.225-1.874-6.739-4.364-9.031a8.69,8.69,0,0,0-12.563,1.518s-3.1,4.534-1.2,6.432S228.188,342.992,228.188,342.992Z" transform="translate(-150.8 -247.2)" fill="#fbbebe"/><path d="M786.406,295.764a11.581,11.581,0,0,1,.489,4.667c-.1,1.92-.581,4.174-2.364,4.906-1.161.467-2.6.114-3.628.82-1.252.85-1.191,2.679-1,4.174.535,4.109,1.138,8.371,3.377,11.846a25.16,25.16,0,0,0,4.481,4.9c3.29,2.967,6.9,5.866,11.22,6.857a4.694,4.694,0,0,0,2.163.091,4.478,4.478,0,0,0,1.871-1.138c2.5-2.3,3.794-5.582,5.464-8.556,1.18-2.129,2.588-4.174,3.252-6.519a11.383,11.383,0,0,0-3.483-11.486c-.74-.634-1.56-1.165-2.277-1.821a11.678,11.678,0,0,1-3.415-6.629,29.012,29.012,0,0,1-.163-7.589,41.293,41.293,0,0,0-11.266.907c-1.647.33-3.965.482-5.456,1.267C784,293.35,785.947,294.492,786.406,295.764Z" transform="translate(-496.211 -215.673)" fill="#fbbebe"/><path d="M786.406,295.764a11.581,11.581,0,0,1,.489,4.667c-.1,1.92-.581,4.174-2.364,4.906-1.161.467-2.6.114-3.628.82-1.252.85-1.191,2.679-1,4.174.535,4.109,1.138,8.371,3.377,11.846a25.16,25.16,0,0,0,4.481,4.9c3.29,2.967,6.9,5.866,11.22,6.857a4.694,4.694,0,0,0,2.163.091,4.478,4.478,0,0,0,1.871-1.138c2.5-2.3,3.794-5.582,5.464-8.556,1.18-2.129,2.588-4.174,3.252-6.519a11.383,11.383,0,0,0-3.483-11.486c-.74-.634-1.56-1.165-2.277-1.821a11.678,11.678,0,0,1-3.415-6.629,29.012,29.012,0,0,1-.163-7.589,41.293,41.293,0,0,0-11.266.907c-1.647.33-3.965.482-5.456,1.267C784,293.35,785.947,294.492,786.406,295.764Z" transform="translate(-496.211 -215.673)" opacity="0.1"/><path d="M633.017,215.311c-6.162-2.113-9.107-10.37-15.557-11.3-1.017-.148-2.06-.091-3.058-.326-3.715-.88-5.312-5.176-6.386-8.837-3.62-12.207-8.348-24.152-15.064-34.973-2.834-4.553-7.316-8.295-9.361-13.281a10.306,10.306,0,0,0-1.556-3.335c-.846-.9-2.656-1.028-3.115.118a2.656,2.656,0,0,0-.083,1.256l.444,4.724-7.718-.694a4.508,4.508,0,0,0-2.136.152,3.624,3.624,0,0,0-1.681,1.749c-2.611,4.906.171,11.334,4.777,14.438,5.38,3.624,13.064,4.174,16.639,9.581,2.125,3.218,2.167,7.357,3.567,10.951.668,1.719,1.643,3.3,2.421,4.963,1.484,3.176,2.243,6.629,3.392,9.938a87.61,87.61,0,0,0,6.519,13.523c1.874,3.385,3.794,6.83,6.678,9.418a32.842,32.842,0,0,0,6.359,4.174c5.487,3,11.956,5.881,17.769,3.582A38.918,38.918,0,0,0,633.017,215.311Z" transform="translate(-363.995 -124.053)" fill="#fbbebe"/><path d="M759,737.522c-.467,4.952-3.472,9.437-4.174,14.2-4.629-.725-9.186-1.658-13.6-2.721-.543-.129-1.081-.262-1.624-.379,2.5-6.83.323-14.48.983-21.754.065-.7.156-1.4.277-2.087,5.718-1.95,10.882-4.553,16.878-3.794.118,1.214.239,2.432.357,3.646q.361,3.639.713,7.27A29.475,29.475,0,0,1,759,737.522Z" transform="translate(-471.271 -482.922)" fill="#fbbebe"/><path d="M862.159,749.695c-2.246.683-4.553,1.279-6.963,1.768-.4.083-.808.163-1.214.239-2.466.463-4.963.8-7.486,1.032-.258-5.274-3.794-10.124-4.31-15.538a22.821,22.821,0,0,1,.042-4.041c.046-.531.1-1.062.148-1.594l1.07-10.917a16.831,16.831,0,0,1,2.569-.125c4.933.118,9.422,2.254,14.309,3.92a34.112,34.112,0,0,1,.379,6.967c-.186,5.927-1.138,11.926,1.063,17.363C861.89,749.076,862.027,749.384,862.159,749.695Z" transform="translate(-534.882 -482.71)" fill="#fbbebe"/><path d="M718.414,577.586c.664,5.176-1.981,10.131-3.127,15.219a53.852,53.852,0,0,0-.964,10.283l-.6,20.683a18.445,18.445,0,0,0,.516,6.158c1.267,3.977,5.172,6.663,9.236,7.619s8.314.47,12.453-.076a12.974,12.974,0,0,0,5.828-1.757c2.311-1.613,3.32-4.485,4.193-7.164l2.463-7.562c2.834,6.382,1.635,13.36,3.335,20.133a3.9,3.9,0,0,0,.759,1.719,4.255,4.255,0,0,0,2.971,1c7.437.524,14.977,1.043,22.292-.379a9.694,9.694,0,0,0,5.5-2.5c1.616-1.757,1.9-4.341,1.878-6.727-.1-8.2-3.066-16.111-3.726-24.284-.285-3.5-.144-7.024-.269-10.537a70.563,70.563,0,0,0-.74-7.892,10.6,10.6,0,0,0-.971-3.453c-1.138-2.125-3.5-3.278-5.741-4.174C756.3,576.824,737.173,576.892,718.414,577.586Z" transform="translate(-455.186 -393.828)" fill="#f86d70"/><ellipse cx="16.316" cy="16.316" rx="16.316" ry="16.316" transform="translate(279.115 49.31)" fill="#fbbebe"/><path d="M765.025,327.979c-1.21,2.656-3.115,5.312-5.95,5.988-2.607.626-5.369-.63-7.289-2.5a28.97,28.97,0,0,1-4.508-6.625,12.424,12.424,0,0,0-3.7-4.485c-2.246-1.457-5.145-1.419-7.794-.99s-5.278,1.2-7.968,1.021c-3.35-.224-6.765-1.9-9.926-.782,1.024,4.584.656,9.623.539,14.32a6.45,6.45,0,0,1-.3,2.14,6.915,6.915,0,0,1-1.1,1.776l-3.036,3.912c3.256,2.436,6.071,5.616,7.209,9.52.641,2.224.444,4.584.421,6.9-.072,6.8,1.4,13.565.937,20.346-.546,7.942-3.719,15.447-5.354,23.237a60.833,60.833,0,0,0-.782,20.338,191.487,191.487,0,0,0,52.507,9.884c3.176.175,6.606.2,9.213-1.624a10.022,10.022,0,0,0,3.794-6.735,29.907,29.907,0,0,0-.159-7.915q-1.172-10.681-2.341-21.363a50.861,50.861,0,0,1,.858-21.177l3.794-18.236a37.533,37.533,0,0,1,2.163-7.619c.88-1.973,2.1-3.794,3.07-5.714a25.234,25.234,0,0,0,2.368-7.312,4.846,4.846,0,0,0-.03-2.239,5.182,5.182,0,0,0-2.8-2.6,81.461,81.461,0,0,0-22.448-7.873C765.875,323.8,765.977,325.9,765.025,327.979Z" transform="translate(-455.373 -233.614)" fill="#e3e8f4"/><path d="M805.735,246.814c1.9-3.635,5.445-6.185,7.505-9.737A14.392,14.392,0,0,0,813.7,223.8a48.052,48.052,0,0,1-2.277-4.386c-.634-1.761-.694-3.7-1.427-5.422a10.025,10.025,0,0,0-5.555-5.039,29.76,29.76,0,0,0-7.486-1.673l-8.621-1.161a9.485,9.485,0,0,0-3.757,0,3.185,3.185,0,0,0-2.444,2.584c-.118,1.491,1.191,2.88.888,4.345-.11.516-.414,1.04-.239,1.541a1.563,1.563,0,0,0,.759.759c2.045,1.138,4.489,1.241,6.7,1.984s4.44,2.611,4.216,4.933c-.121,1.248-.926,2.546-.379,3.665.524,1.036,1.9,1.226,2.994,1.548a8.023,8.023,0,0,1,5.521,8.537c-.159,1.138-.569,2.227-.653,3.369-.277,4,.353,5.141,3.62,7.467Z" transform="translate(-497.657 -163.377)" fill="#3f3d56"/><path d="M883.424,339.728a5.536,5.536,0,0,1-.406,2.212c-1.184,2.523-4.808,2.364-7.209,3.794-2.99,1.783-3.65,5.764-3.923,9.232a41.523,41.523,0,0,0,.281,11.763,15.816,15.816,0,0,0,5.972,9.866c3.935,2.736,9.285,2.831,13.778,1.165s8.245-4.887,11.5-8.408a36.652,36.652,0,0,0,7.513-11.3,3.6,3.6,0,0,0,.315-2.322c-.353-1.138-1.594-1.654-2.6-2.277a11.486,11.486,0,0,1-4.743-6.526,28.343,28.343,0,0,1-.979-8.162c-.03-2.857-.038-5.98-1.859-8.185s-4.978-2.823-7.854-2.8c-2.353,0-8.864.224-10.469,2.277C881.42,331.763,883.518,337.284,883.424,339.728Z" transform="translate(-553.183 -238.996)" fill="#be6f72"/><path d="M883.424,339.728a5.536,5.536,0,0,1-.406,2.212c-1.184,2.523-4.808,2.364-7.209,3.794-2.99,1.783-3.65,5.764-3.923,9.232a41.523,41.523,0,0,0,.281,11.763,15.816,15.816,0,0,0,5.972,9.866c3.935,2.736,9.285,2.831,13.778,1.165s8.245-4.887,11.5-8.408a36.652,36.652,0,0,0,7.513-11.3,3.6,3.6,0,0,0,.315-2.322c-.353-1.138-1.594-1.654-2.6-2.277a11.486,11.486,0,0,1-4.743-6.526,28.343,28.343,0,0,1-.979-8.162c-.03-2.857-.038-5.98-1.859-8.185s-4.978-2.823-7.854-2.8c-2.353,0-8.864.224-10.469,2.277C881.42,331.763,883.518,337.284,883.424,339.728Z" transform="translate(-553.183 -238.996)" opacity="0.1"/><path d="M845.976,582.291a3.245,3.245,0,0,0,.789,1.548,3.136,3.136,0,0,0,1.279.6c12.453,3.654,25.757,2.2,38.65.706-1.764-5.373-3.54-10.807-4.03-16.441-.406-4.648.049-9.486-1.6-13.846-.486-1.29-28.792,4.648-31.585,5.13-1.431.247-3.077.163-4.09,1.3-1.222,1.374-1.324,4.644-1.453,6.356A41.767,41.767,0,0,0,845.976,582.291Z" transform="translate(-535.967 -379.8)" fill="#be6f72"/><path d="M879.614,726.443c-2.277,1.055-4.625,2.038-7.058,2.918q-1.973.717-4.03,1.343c-2.246.683-4.553,1.279-6.963,1.768q-2.06-5.225-4.125-10.454c-1.013-2.565-2.026-5.141-2.872-7.763a48.649,48.649,0,0,1-1.449-5.46,38.951,38.951,0,0,1,.941-18.885c5.259.99,10.4,1.635,15.58,2.387,2.766.379,5.54.827,8.348,1.355q.33,2.743.6,5.487.41,4.235.672,8.469Q879.838,717.017,879.614,726.443Z" transform="translate(-541.25 -463.719)" fill="#be6f72"/><path d="M879.614,726.443c-2.277,1.055-4.625,2.038-7.058,2.918q-1.973.717-4.03,1.343c-2.246.683-4.553,1.279-6.963,1.768q-2.06-5.225-4.125-10.454c-1.013-2.565-2.026-5.141-2.872-7.763a48.649,48.649,0,0,1-1.449-5.46,38.951,38.951,0,0,1,.941-18.885c5.259.99,10.4,1.635,15.58,2.387,2.766.379,5.54.827,8.348,1.355q.33,2.743.6,5.487.41,4.235.672,8.469Q879.838,717.017,879.614,726.443Z" transform="translate(-541.25 -463.719)" opacity="0.1"/><path d="M937.142,724.472a24.575,24.575,0,0,1-1.169,6.561c-.042.152-.08.3-.118.452a6.253,6.253,0,0,1-3.35-2.512,7.179,7.179,0,0,1-.9-2.106q-2.576,1.753-5.2,3.472a142.475,142.475,0,0,1-18.445,10.575c-2.277,1.055-4.625,2.038-7.057,2.918q-.759-2.656-1.442-5.346a49.529,49.529,0,0,1-1.169-5.612,28.5,28.5,0,0,1,1.26-12.768h0l.171-.493a27.922,27.922,0,0,1,2.485-5.233c.945-1.518,2.816-1.264,4.724-.759.865.224,1.742.493,2.538.66,4.959,1.04,10.109-.034,15.178.25a18.143,18.143,0,0,1,6.963,1.772,9.561,9.561,0,0,1,5.176,5.692,8.473,8.473,0,0,1,.25,1.138A10.059,10.059,0,0,1,937.142,724.472Z" transform="translate(-569.598 -478.19)" fill="#be6f72"/><path d="M674.172,228.021c-7.836-7.589-16.741-14.02-25.852-20.035a70.991,70.991,0,0,1-6.83-4.868c-2.277-1.9-4.261-4.125-6.678-5.832s-5.407-2.88-8.31-2.318-5.483,3.339-5.058,6.246c.38,2.557,2.679,4.31,4.8,5.779a103.083,103.083,0,0,0,12.438,7.752A38.986,38.986,0,0,1,643.1,217.1c2.724,1.837,4.709,4.553,6.769,7.107a98.819,98.819,0,0,0,28.079,23.9c.129.076,4.618-9.611,4.428-10.867C681.958,234.354,676.236,230.025,674.172,228.021Z" transform="translate(-397.914 -156.491)" fill="#be6f72"/><path d="M878.879,605.431c-6.048.379-11.85,2.421-17.766,3.722s-12.343,1.806-17.834-.759l3.339,22.8a10.584,10.584,0,0,1,.1,3.813c-.254,1.191-.914,2.315-.858,3.533.087,1.928,1.9,3.282,3.6,4.174a32.2,32.2,0,0,0,16.088,3.707c-.414,1.669-.93,3.32-1.347,4.99,2.789,2.994,7.35,3.195,11.33,4.144,3.036.717,5.881,1.962,8.856,2.838a37.8,37.8,0,0,0,11.084,1.544c2.531-.027,5.214-.38,7.179-1.958,2.417-1.947,3.168-5.255,3.692-8.314a18.915,18.915,0,0,0,.379-5.161A20.46,20.46,0,0,0,905,638.814l-5.2-12.616c-.945-2.277-1.9-4.588-3.036-6.784C893.052,612.307,886.882,604.934,878.879,605.431Z" transform="translate(-535.604 -411.28)" fill="#3f3d56"/><path d="M824.493,336.776a5.692,5.692,0,0,1,5.957-3.631A11.059,11.059,0,0,1,834.624,335l7.247,4.523a31.59,31.59,0,0,1,3.449,2.375c5,4.144,6.925,10.954,7.475,17.424s0,13.049,1.286,19.412c-3.058,2.535-6.451,4.679-9.509,7.209a23.9,23.9,0,0,0-4.436,4.36c-.964,1.339-1.651,2.872-2.656,4.174a10.04,10.04,0,0,1-6.652,3.7,7.21,7.21,0,0,1,3.036,4.7c.448,1.863.569,3.794,1.066,5.657.683,2.531,2.1,4.842,2.565,7.422a46.678,46.678,0,0,1,.3,5.411c.592,9.346,7.927,17.515,7.452,26.865a40.738,40.738,0,0,1-9.736-5.119c-1.351-.968-2.656-2.015-3.935-3.058l-9.664-7.836c-4.7-3.794-9.448-7.672-13.186-12.438-2.345-2.99-4.257-6.3-6.61-9.281s-5.248-5.692-8.841-6.944c-.527.793-1.465,1.343-1.992,2.136a1.582,1.582,0,0,0-.22.41,1.793,1.793,0,0,0,.125,1.047,21.8,21.8,0,0,1,.759,4.7l.239,2.853a9.714,9.714,0,0,1,0,2.277,6,6,0,0,1-5.062,4.713,2.2,2.2,0,0,1-1.066-.034,2.281,2.281,0,0,1-1.26-1.628c-.96-3.24.512-6.659.63-10.032a24.115,24.115,0,0,0-.087-2.565l-.228-3.366c-2.2-.459-3.472-2.827-4.056-5-1.578-5.87-3.168-11.945-2.254-17.955a14.987,14.987,0,0,0,.379-4.849c-.379-2.151-1.927-3.9-2.743-5.923-2.656-6.606,2.986-13.778,2.463-20.869-.22-2.979-2.11-5.566-3.248-8.329a23.52,23.52,0,0,0-2.277-4.6,25.434,25.434,0,0,0-4.25-4.322,162.3,162.3,0,0,1-13.349-13.152,9.865,9.865,0,0,1-5.749-2.633,5.287,5.287,0,0,1-1.852-3.578,2.8,2.8,0,0,1,2.368-2.9,8.967,8.967,0,0,1,2.341.531c2.459.539,4.933-1.271,6.029-3.544s1.1-4.887,1.078-7.407a7.1,7.1,0,0,1,6.576,2.3c1.7,1.844,2.8,4.144,4.136,6.261a9.7,9.7,0,0,0,2.064,2.493c1.825,1.449,4.455,1.723,6.048,3.415.808.865,1.256,2.011,2,2.937,2.079,2.607,5.885,2.926,8.727,4.641s4.819,4.849,7.968,5.866c1.138.379,2.379.429,3.506.85,2.6.968,4.193,3.734,4.553,6.485a23.5,23.5,0,0,1-.877,8.242l-1.461,6.34c-.322,1.4-.569,3.092.467,4.094a4.219,4.219,0,0,0,1.681.846c2.656.865,5.616,1.715,8.112.489a9.6,9.6,0,0,0,2.952-2.58C820.148,347.859,822.611,342.145,824.493,336.776Z" transform="translate(-476.589 -221.405)" fill="#e36b0a"/><path d="M1001.676,680.728c-.524,3.472-2.436,6.887-5.566,8.477a7.968,7.968,0,0,1-6.029.417,6.253,6.253,0,0,1-3.351-2.512,7.172,7.172,0,0,1-.9-2.106.656.656,0,0,0-.027-.118,16.7,16.7,0,0,1-.353-4.086,53.313,53.313,0,0,1,.379-6.371,34.49,34.49,0,0,1,1.047-5.267c.706-2.463,1.723-4.834,2.656-7.209.486-1.252.952-2.508,1.336-3.794h0c.231-.759.429-1.541.588-2.33l.057-.285c.03-.159.057-.319.083-.478.38-2.163.49-4.4,1.465-6.356,2.277-4.587,6.708-3.415,7.384.816a7.457,7.457,0,0,1,.087.99c.1,5.354-2.022,10.586-1.051,15.959a37.191,37.191,0,0,0,1.032,3.878c.341,1.172.649,2.36.884,3.563A20.251,20.251,0,0,1,1001.676,680.728Z" transform="translate(-623.823 -436.328)" fill="#be6f72"/><path d="M998.579,528.786a42.54,42.54,0,0,0,.44,6.564c1.028,5.084,4.933,9.585,4.5,14.753a3.982,3.982,0,0,1-1.673,3.237c-1.1.622-2.922.573-3.282,1.825-.1.349-.049.729-.163,1.074a1.875,1.875,0,0,1-1.9,1.032,20.827,20.827,0,0,0-2.3-.2c-2.751.231-3.76,3.912-6.211,5.176a4.691,4.691,0,0,1-5.157-.877,6.423,6.423,0,0,1-1.852-5.069,37.621,37.621,0,0,1,.759-4.132,28.666,28.666,0,0,0-.019-7.475,45.2,45.2,0,0,0-1.871-10.8c-.565-1.632-1.317-3.191-1.806-4.845a28.179,28.179,0,0,1-.93-7.244c-.148-5.134.2-10.624,3.271-14.753,2.3-3.1,5.6-5.612,8.211-8.477,1.632-1.795,2.1-2.356,3.9-.835,1.484,1.248,3.036,2.971,3.2,4.663.455,4.337,0,8.6.812,13.019S998.367,524.252,998.579,528.786Z" transform="translate(-618.639 -343.92)" fill="#e36b0a"/><ellipse cx="19.352" cy="19.352" rx="19.352" ry="19.352" transform="translate(321.233 62.59)" fill="#be6f72"/><path d="M919.439,300.3a2.164,2.164,0,0,1,3.221-1.032l5.1,2.129a16.635,16.635,0,0,0,2.368-7.5,38.681,38.681,0,0,1,.288-4.88c.463-2.375,1.871-4.5,2.2-6.9a21.218,21.218,0,0,0-.489-5.813c-.865-5.965.065-12.051-.433-18.058s-2.906-12.442-8.264-15.2a50.234,50.234,0,0,0-4.732-1.814c-3.517-1.339-6.671-3.483-10.146-4.933s-7.559-2.114-10.928-.448-5.331,6.352-3.142,9.41a11.48,11.48,0,0,0,2.785,2.444c2.053,1.468,4.147,3.282,4.622,5.764.85,4.466-3.794,7.968-5.1,12.336a10.487,10.487,0,0,0-.125,5.232c.565,2.588,1.947,5.031,1.9,7.68-.038,2.9-1.776,5.532-2.1,8.42-.118,1.059-.046,2.133-.178,3.187a16.448,16.448,0,0,1-1.226,4.034c-3.036,7.589-6.113,15.257-10.624,22.08a29.245,29.245,0,0,0,13.9-3.248,22.973,22.973,0,0,1-3.48,8.173,26.333,26.333,0,0,0,10.875-3.794,35.337,35.337,0,0,1-3.453,8.2c.129-.22,2.516-.759,2.956-1.009a5.149,5.149,0,0,0,2.087-2.227c1.29-2.307,2.095-5.088,3.29-7.486a109.04,109.04,0,0,1,8.845-14.745Z" transform="translate(-561.134 -181.344)" fill="#3f3d56"/><path d="M577.4,101.257a17.963,17.963,0,0,1-2.766.064.6.6,0,0,0-.664.524L572.2,115.081a5.373,5.373,0,0,1-1.138,2.622,5.714,5.714,0,0,0-1.286,4.367v22.482s-.114,3,2.189,3a33.3,33.3,0,0,0,8.3,0s1.844-.349,1.844-3.115V122.3a5.415,5.415,0,0,0-1.138-4.4,5.509,5.509,0,0,1-1.1-2.607l-1.833-13.512A.6.6,0,0,0,577.4,101.257Z" transform="translate(-365.855 -98.426)" fill="#3f3d56"/><rect width="11.182" height="18.908" rx="5.591" transform="translate(204.566 24.046)" fill="#e36b0a"/><path d="M646.4,152.257a17.964,17.964,0,0,1-2.766.064.6.6,0,0,0-.664.524L641.2,166.08a5.373,5.373,0,0,1-1.138,2.622,5.714,5.714,0,0,0-1.286,4.367v22.482s-.114,3,2.189,3a33.3,33.3,0,0,0,8.3,0s1.844-.349,1.844-3.115V173.3a5.415,5.415,0,0,0-1.138-4.4,5.51,5.51,0,0,1-1.1-2.607l-1.833-13.512A.6.6,0,0,0,646.4,152.257Z" transform="translate(-408.673 -130.074)" fill="#3f3d56"/><rect width="11.182" height="18.908" rx="5.591" transform="translate(230.747 43.398)" fill="#e36b0a"/><g transform="translate(185.935 146.826)" opacity="0.2"><path d="M568.109,740.9a7.217,7.217,0,0,1-.14,1.218q-3.961-.63-7.968-1.138v-.326a6.4,6.4,0,0,1,.949-3.218,3.53,3.53,0,0,1,6.424.2A6.4,6.4,0,0,1,568.109,740.9Z" transform="translate(-545.748 -638.815)" fill="#3f3d56"/><ellipse cx="5.316" cy="4.06" rx="5.316" ry="4.06" transform="translate(14.29 100.665) rotate(-88.19)" fill="#3f3d56"/><ellipse cx="5.316" cy="4.06" rx="5.316" ry="4.06" transform="translate(14.497 94.169) rotate(-88.19)" fill="#3f3d56"/><ellipse cx="5.316" cy="4.06" rx="5.316" ry="4.06" transform="translate(14.7 87.673) rotate(-88.19)" fill="#3f3d56"/><ellipse cx="5.316" cy="4.06" rx="5.316" ry="4.06" transform="translate(14.907 81.177) rotate(-88.19)" fill="#3f3d56"/><path d="M527.764,511.787a18.839,18.839,0,0,1-1.442-2.277l10.723-1.415-11.543-.277a19.5,19.5,0,0,1,.118-15.421l15.223,8.519L526.9,489.973a19.458,19.458,0,1,1,31.433,22.767,19.272,19.272,0,0,1,2.106,3.616l-14.074,6.754,14.924-4.489a19.481,19.481,0,0,1-3.726,18.179,19.458,19.458,0,1,1-30.568-.964,19.458,19.458,0,0,1,.759-24.049Z" transform="translate(-522.44 -480.747)" fill="#e36b0a"/><path d="M562.115,596.614a19.352,19.352,0,0,1-4.553,11.892,19.458,19.458,0,1,1-30.568-.964C524.5,604.153,562.183,594.432,562.115,596.614Z" transform="translate(-522.44 -552.453)" opacity="0.1"/></g></g></svg>